<svg width="32" height="32" viewBox="0 0 32 32" fill="none" xmlns="http://www.w3.org/2000/svg">
<path d="M6.4002 4.80078C4.63288 4.80078 3.2002 6.23347 3.2002 8.00078C3.2002 9.76809 4.63288 11.2008 6.4002 11.2008H25.6002C27.3675 11.2008 28.8002 9.76809 28.8002 8.00078C28.8002 6.23347 27.3675 4.80078 25.6002 4.80078H6.4002Z" fill="#605F5F"/>
<path fill-rule="evenodd" clip-rule="evenodd" d="M4.8002 12.8008H27.2002V24.0008C27.2002 25.7681 25.7675 27.2008 24.0002 27.2008H8.0002C6.23288 27.2008 4.8002 25.7681 4.8002 24.0008V12.8008ZM12.8002 17.6008C12.8002 16.7171 13.5165 16.0008 14.4002 16.0008H17.6002C18.4839 16.0008 19.2002 16.7171 19.2002 17.6008C19.2002 18.4844 18.4839 19.2008 17.6002 19.2008H14.4002C13.5165 19.2008 12.8002 18.4844 12.8002 17.6008Z" fill="#605F5F"/>
</svg>
