<svg width="32" height="32" viewBox="0 0 32 32" fill="none" xmlns="http://www.w3.org/2000/svg">
<path d="M6.4 4.80078C4.63269 4.80078 3.2 6.23347 3.2 8.00078C3.2 9.76809 4.63269 11.2008 6.4 11.2008H25.6C27.3673 11.2008 28.8 9.76809 28.8 8.00078C28.8 6.23347 27.3673 4.80078 25.6 4.80078H6.4Z" fill="#87BA1A"/>
<path fill-rule="evenodd" clip-rule="evenodd" d="M4.8 12.8008H27.2V24.0008C27.2 25.7681 25.7673 27.2008 24 27.2008H8C6.23269 27.2008 4.8 25.7681 4.8 24.0008V12.8008ZM12.8 17.6008C12.8 16.7171 13.5163 16.0008 14.4 16.0008H17.6C18.4837 16.0008 19.2 16.7171 19.2 17.6008C19.2 18.4844 18.4837 19.2008 17.6 19.2008H14.4C13.5163 19.2008 12.8 18.4844 12.8 17.6008Z" fill="#87BA1A"/>
</svg>
