<svg width="32" height="32" viewBox="0 0 32 32" fill="none" xmlns="http://www.w3.org/2000/svg">
<path fill-rule="evenodd" clip-rule="evenodd" d="M4.80005 6.40078C4.80005 5.51713 5.51639 4.80078 6.40005 4.80078H12.8C13.6837 4.80078 14.4 5.51713 14.4 6.40078C14.4 7.28444 13.6837 8.00078 12.8 8.00078H10.2628L13.9314 11.6694C14.5563 12.2943 14.5563 13.3073 13.9314 13.9322C13.3066 14.557 12.2935 14.557 11.6687 13.9322L8.00005 10.2635V12.8008C8.00005 13.6844 7.2837 14.4008 6.40005 14.4008C5.51639 14.4008 4.80005 13.6844 4.80005 12.8008V6.40078ZM19.2001 8.00078C18.3164 8.00078 17.6 7.28444 17.6 6.40078C17.6 5.51713 18.3164 4.80078 19.2001 4.80078H25.6C26.4837 4.80078 27.2001 5.51713 27.2001 6.40078V12.8008C27.2001 13.6844 26.4837 14.4008 25.6 14.4008C24.7164 14.4008 24 13.6844 24 12.8008V10.2635L20.3314 13.9322C19.7066 14.557 18.6935 14.557 18.0687 13.9322C17.4438 13.3073 17.4438 12.2943 18.0687 11.6694L21.7373 8.00078H19.2001ZM4.80005 19.2008C4.80005 18.3171 5.51639 17.6008 6.40005 17.6008C7.2837 17.6008 8.00005 18.3171 8.00005 19.2008V21.738L11.6687 18.0694C12.2935 17.4446 13.3066 17.4446 13.9314 18.0694C14.5563 18.6943 14.5563 19.7073 13.9314 20.3322L10.2628 24.0008H12.8C13.6837 24.0008 14.4 24.7171 14.4 25.6008C14.4 26.4844 13.6837 27.2008 12.8 27.2008H6.40005C5.51639 27.2008 4.80005 26.4844 4.80005 25.6008V19.2008ZM25.6 17.6008C26.4837 17.6008 27.2001 18.3171 27.2001 19.2008V25.6008C27.2001 26.4844 26.4837 27.2008 25.6 27.2008H19.2001C18.3164 27.2008 17.6 26.4844 17.6 25.6008C17.6 24.7171 18.3164 24.0008 19.2001 24.0008H21.7373L18.0687 20.3322C17.4438 19.7073 17.4438 18.6943 18.0687 18.0694C18.6935 17.4446 19.7066 17.4446 20.3314 18.0694L24 21.738V19.2008C24 18.3171 24.7164 17.6008 25.6 17.6008Z" fill="#618512"/>
</svg>
