<svg width="32" height="33" viewBox="0 0 32 33" fill="none" xmlns="http://www.w3.org/2000/svg">
<path fill-rule="evenodd" clip-rule="evenodd" d="M16.0002 29.2992C23.0694 29.2992 28.8002 23.5685 28.8002 16.4992C28.8002 9.42997 23.0694 3.69922 16.0002 3.69922C8.93095 3.69922 3.2002 9.42997 3.2002 16.4992C3.2002 23.5685 8.93095 29.2992 16.0002 29.2992ZM21.9316 14.4306C22.5564 13.8058 22.5564 12.7927 21.9316 12.1678C21.3067 11.543 20.2937 11.543 19.6688 12.1678L14.4002 17.4365L12.3316 15.3678C11.7067 14.743 10.6937 14.743 10.0688 15.3678C9.44399 15.9927 9.44399 17.0057 10.0688 17.6306L13.2688 20.8306C13.8937 21.4554 14.9067 21.4554 15.5316 20.8306L21.9316 14.4306Z" fill="#2CDA94"/>
</svg>
