<svg width="32" height="33" viewBox="0 0 32 33" fill="none" xmlns="http://www.w3.org/2000/svg">
<path fill-rule="evenodd" clip-rule="evenodd" d="M16.0002 29.2992C23.0694 29.2992 28.8002 23.5685 28.8002 16.4992C28.8002 9.42997 23.0694 3.69922 16.0002 3.69922C8.93095 3.69922 3.2002 9.42997 3.2002 16.4992C3.2002 23.5685 8.93095 29.2992 16.0002 29.2992ZM17.6002 10.0992C17.6002 9.21556 16.8839 8.49922 16.0002 8.49922C15.1165 8.49922 14.4002 9.21556 14.4002 10.0992V16.4992C14.4002 16.9236 14.5688 17.3305 14.8688 17.6306L19.3943 22.1561C20.0191 22.7809 21.0322 22.7809 21.657 22.1561C22.2819 21.5312 22.2819 20.5182 21.657 19.8933L17.6002 15.8365V10.0992Z" fill="#605F5F"/>
</svg>
