<svg width="60" height="80" viewBox="0 0 60 80" fill="none" xmlns="http://www.w3.org/2000/svg">
<path fill-rule="evenodd" clip-rule="evenodd" d="M0 10C0 4.47716 4.47715 0 10 0H32.9289C35.5811 0 38.1246 1.05357 40 2.92893L57.0711 20C58.9464 21.8754 60 24.4189 60 27.0711V70C60 75.5229 55.5228 80 50 80H10C4.47715 80 0 75.5229 0 70V10ZM10 40C10 37.2386 12.2386 35 15 35H45C47.7614 35 50 37.2386 50 40C50 42.7614 47.7614 45 45 45H15C12.2386 45 10 42.7614 10 40ZM15 55C12.2386 55 10 57.2386 10 60C10 62.7614 12.2386 65 15 65H45C47.7614 65 50 62.7614 50 60C50 57.2386 47.7614 55 45 55H15Z" fill="#C5DE8D"/>
</svg>
