<svg width="32" height="32" viewBox="0 0 32 32" fill="none" xmlns="http://www.w3.org/2000/svg">
<path fill-rule="evenodd" clip-rule="evenodd" d="M28.8 15.9992C28.8 23.0685 23.0692 28.7992 16 28.7992C8.93071 28.7992 3.19995 23.0685 3.19995 15.9992C3.19995 8.92997 8.93071 3.19922 16 3.19922C23.0692 3.19922 28.8 8.92997 28.8 15.9992ZM17.6 22.3992C17.6 23.2829 16.8836 23.9992 16 23.9992C15.1163 23.9992 14.4 23.2829 14.4 22.3992C14.4 21.5156 15.1163 20.7992 16 20.7992C16.8836 20.7992 17.6 21.5156 17.6 22.3992ZM16 7.99922C15.1163 7.99922 14.4 8.71556 14.4 9.59922V15.9992C14.4 16.8829 15.1163 17.5992 16 17.5992C16.8836 17.5992 17.6 16.8829 17.6 15.9992V9.59922C17.6 8.71556 16.8836 7.99922 16 7.99922Z" fill="#605F5F"/>
</svg>
