<svg width="32" height="32" viewBox="0 0 32 32" fill="none" xmlns="http://www.w3.org/2000/svg">
<path fill-rule="evenodd" clip-rule="evenodd" d="M28.8002 15.9992C28.8002 23.0685 23.0694 28.7992 16.0002 28.7992C8.93095 28.7992 3.2002 23.0685 3.2002 15.9992C3.2002 8.92997 8.93095 3.19922 16.0002 3.19922C23.0694 3.19922 28.8002 8.92997 28.8002 15.9992ZM17.6002 22.3992C17.6002 23.2829 16.8839 23.9992 16.0002 23.9992C15.1165 23.9992 14.4002 23.2829 14.4002 22.3992C14.4002 21.5156 15.1165 20.7992 16.0002 20.7992C16.8839 20.7992 17.6002 21.5156 17.6002 22.3992ZM16.0002 7.99922C15.1165 7.99922 14.4002 8.71556 14.4002 9.59922V15.9992C14.4002 16.8829 15.1165 17.5992 16.0002 17.5992C16.8839 17.5992 17.6002 16.8829 17.6002 15.9992V9.59922C17.6002 8.71556 16.8839 7.99922 16.0002 7.99922Z" fill="#F3722C"/>
</svg>
