<svg width="20" height="22" viewBox="0 0 20 22" fill="none" xmlns="http://www.w3.org/2000/svg">
<path fill-rule="evenodd" clip-rule="evenodd" d="M0.199951 4.39922C0.199951 2.07962 2.08036 0.199219 4.39995 0.199219H18.4C18.9302 0.199219 19.415 0.498822 19.6521 0.97312C19.8893 1.44742 19.8381 2.01499 19.52 2.43922L15.95 7.19922L19.52 11.9592C19.8381 12.3834 19.8893 12.951 19.6521 13.4253C19.415 13.8996 18.9302 14.1992 18.4 14.1992H4.39995C3.62675 14.1992 2.99995 14.826 2.99995 15.5992V19.7992C2.99995 20.5724 2.37315 21.1992 1.59995 21.1992C0.826752 21.1992 0.199951 20.5724 0.199951 19.7992V4.39922Z" fill="#87BA1A"/>
</svg>
