<svg width="438" height="360" viewBox="0 0 438 360" fill="none" xmlns="http://www.w3.org/2000/svg">
<path d="M11.2267 351V342.273H12.2836V346.602H12.3858L16.3063 342.273H17.687L14.0222 346.21L17.687 351H16.4086L13.3745 346.943L12.2836 348.17V351H11.2267ZM21.0801 353.591C20.5943 353.591 20.1767 353.528 19.8272 353.403C19.4778 353.281 19.1866 353.119 18.9537 352.918C18.7235 352.719 18.5403 352.506 18.4039 352.278L19.2051 351.716C19.296 351.835 19.411 351.972 19.5502 352.125C19.6895 352.281 19.8798 352.416 20.1213 352.53C20.3656 352.646 20.6852 352.705 21.0801 352.705C21.6085 352.705 22.0446 352.577 22.3883 352.321C22.7321 352.065 22.9039 351.665 22.9039 351.119V349.79H22.8187C22.7449 349.909 22.6397 350.057 22.5034 350.233C22.3699 350.406 22.1767 350.561 21.9238 350.697C21.6738 350.831 21.3358 350.898 20.9096 350.898C20.3812 350.898 19.9068 350.773 19.4863 350.523C19.0687 350.273 18.7377 349.909 18.4934 349.432C18.252 348.955 18.1312 348.375 18.1312 347.693C18.1312 347.023 18.2491 346.439 18.4849 345.942C18.7207 345.442 19.0488 345.055 19.4693 344.783C19.8897 344.507 20.3755 344.369 20.9267 344.369C21.3528 344.369 21.6909 344.44 21.9409 344.582C22.1937 344.722 22.3869 344.881 22.5204 345.06C22.6568 345.236 22.7619 345.381 22.8358 345.494H22.938V344.455H23.9096V351.188C23.9096 351.75 23.7818 352.207 23.5261 352.56C23.2733 352.915 22.9324 353.175 22.5034 353.339C22.0772 353.507 21.6028 353.591 21.0801 353.591ZM21.046 349.994C21.4494 349.994 21.7903 349.902 22.0687 349.717C22.3471 349.533 22.5588 349.267 22.7037 348.92C22.8485 348.574 22.921 348.159 22.921 347.676C22.921 347.205 22.85 346.788 22.7079 346.428C22.5659 346.067 22.3556 345.784 22.0772 345.58C21.7988 345.375 21.4551 345.273 21.046 345.273C20.6199 345.273 20.2647 345.381 19.9806 345.597C19.6994 345.812 19.4877 346.102 19.3457 346.466C19.2065 346.83 19.1369 347.233 19.1369 347.676C19.1369 348.131 19.2079 348.533 19.35 348.882C19.4949 349.229 19.7079 349.501 19.9892 349.7C20.2733 349.896 20.6255 349.994 21.046 349.994Z" fill="white" fill-opacity="0.42"/>
<path d="M64.017 351V342.273H66.9658C67.6505 342.273 68.2102 342.396 68.6448 342.643C69.0823 342.888 69.4062 343.219 69.6164 343.636C69.8266 344.054 69.9317 344.52 69.9317 345.034C69.9317 345.548 69.8266 346.016 69.6164 346.436C69.409 346.857 69.088 347.192 68.6533 347.442C68.2187 347.689 67.6619 347.812 66.9829 347.812H64.8692V346.875H66.9488C67.4175 346.875 67.794 346.794 68.0781 346.632C68.3621 346.47 68.5681 346.251 68.696 345.976C68.8266 345.697 68.892 345.384 68.892 345.034C68.892 344.685 68.8266 344.372 68.696 344.097C68.5681 343.821 68.3607 343.605 68.0738 343.449C67.7869 343.29 67.4062 343.21 66.9317 343.21H65.0738V351H64.017ZM73.4239 351.153C73.0092 351.153 72.6327 351.075 72.2947 350.919C71.9566 350.76 71.6881 350.531 71.4893 350.233C71.2904 349.932 71.191 349.568 71.191 349.142C71.191 348.767 71.2648 348.463 71.4126 348.23C71.5603 347.994 71.7577 347.81 72.0049 347.676C72.2521 347.543 72.5248 347.443 72.8231 347.378C73.1242 347.31 73.4268 347.256 73.7308 347.216C74.1285 347.165 74.4509 347.126 74.6981 347.101C74.9481 347.072 75.1299 347.026 75.2435 346.96C75.36 346.895 75.4183 346.781 75.4183 346.619V346.585C75.4183 346.165 75.3032 345.838 75.0731 345.605C74.8458 345.372 74.5006 345.256 74.0376 345.256C73.5575 345.256 73.181 345.361 72.9083 345.571C72.6356 345.781 72.4438 346.006 72.333 346.244L71.3785 345.903C71.5489 345.506 71.7762 345.196 72.0603 344.974C72.3472 344.75 72.6597 344.594 72.9978 344.506C73.3387 344.415 73.6739 344.369 74.0035 344.369C74.2137 344.369 74.4552 344.395 74.7279 344.446C75.0035 344.494 75.2691 344.595 75.5248 344.749C75.7833 344.902 75.9978 345.134 76.1683 345.443C76.3387 345.753 76.4239 346.168 76.4239 346.688V351H75.4183V350.114H75.3671C75.2989 350.256 75.1853 350.408 75.0262 350.57C74.8671 350.732 74.6555 350.869 74.3913 350.983C74.1271 351.097 73.8046 351.153 73.4239 351.153ZM73.5773 350.25C73.9751 350.25 74.3103 350.172 74.583 350.016C74.8586 349.859 75.066 349.658 75.2052 349.411C75.3472 349.163 75.4183 348.903 75.4183 348.631V347.71C75.3756 347.761 75.2819 347.808 75.137 347.851C74.995 347.891 74.8302 347.926 74.6427 347.957C74.458 347.986 74.2776 348.011 74.1015 348.034C73.9282 348.054 73.7876 348.071 73.6796 348.085C73.4183 348.119 73.1739 348.175 72.9467 348.251C72.7222 348.325 72.5404 348.437 72.4012 348.588C72.2648 348.736 72.1967 348.937 72.1967 349.193C72.1967 349.543 72.3259 349.807 72.5844 349.986C72.8458 350.162 73.1768 350.25 73.5773 350.25ZM80.7311 351.136C80.1857 351.136 79.7041 350.999 79.2865 350.723C78.8689 350.445 78.5422 350.053 78.3064 349.547C78.0706 349.038 77.9527 348.438 77.9527 347.744C77.9527 347.057 78.0706 346.46 78.3064 345.955C78.5422 345.449 78.8703 345.058 79.2908 344.783C79.7112 344.507 80.197 344.369 80.7482 344.369C81.1743 344.369 81.5109 344.44 81.7581 344.582C82.0081 344.722 82.1984 344.881 82.3291 345.06C82.4626 345.236 82.5663 345.381 82.6402 345.494H82.7254V342.273H83.7311V351H82.7595V349.994H82.6402C82.5663 350.114 82.4612 350.264 82.3249 350.446C82.1885 350.625 81.9939 350.786 81.7411 350.928C81.4882 351.067 81.1516 351.136 80.7311 351.136ZM80.8675 350.233C81.2709 350.233 81.6118 350.128 81.8902 349.918C82.1686 349.705 82.3803 349.411 82.5251 349.036C82.67 348.658 82.7425 348.222 82.7425 347.727C82.7425 347.239 82.6714 346.811 82.5294 346.445C82.3874 346.075 82.1771 345.788 81.8987 345.584C81.6203 345.376 81.2766 345.273 80.8675 345.273C80.4413 345.273 80.0862 345.382 79.8021 345.601C79.5209 345.817 79.3092 346.111 79.1672 346.483C79.028 346.852 78.9584 347.267 78.9584 347.727C78.9584 348.193 79.0294 348.616 79.1714 348.997C79.3163 349.375 79.5294 349.676 79.8107 349.901C80.0947 350.122 80.447 350.233 80.8675 350.233ZM85.7126 351V344.455H86.7183V351H85.7126ZM86.224 343.364C86.028 343.364 85.8589 343.297 85.7169 343.163C85.5777 343.03 85.5081 342.869 85.5081 342.682C85.5081 342.494 85.5777 342.334 85.7169 342.2C85.8589 342.067 86.028 342 86.224 342C86.42 342 86.5876 342.067 86.7268 342.2C86.8689 342.334 86.9399 342.494 86.9399 342.682C86.9399 342.869 86.8689 343.03 86.7268 343.163C86.5876 343.297 86.42 343.364 86.224 343.364Z" fill="#181819" fill-opacity="0.42"/>
<path d="M139.35 342.273H140.407V348.511C140.407 349.068 140.305 349.541 140.1 349.93C139.896 350.32 139.608 350.615 139.235 350.817C138.863 351.018 138.424 351.119 137.919 351.119C137.441 351.119 137.017 351.033 136.644 350.859C136.272 350.683 135.98 350.433 135.767 350.109C135.554 349.786 135.447 349.401 135.447 348.955H136.487C136.487 349.202 136.548 349.418 136.67 349.602C136.795 349.784 136.965 349.926 137.181 350.028C137.397 350.131 137.643 350.182 137.919 350.182C138.223 350.182 138.481 350.118 138.694 349.99C138.907 349.862 139.069 349.675 139.18 349.428C139.294 349.178 139.35 348.872 139.35 348.511V342.273ZM144.315 351.153C143.9 351.153 143.524 351.075 143.186 350.919C142.848 350.76 142.579 350.531 142.38 350.233C142.181 349.932 142.082 349.568 142.082 349.142C142.082 348.767 142.156 348.463 142.304 348.23C142.451 347.994 142.649 347.81 142.896 347.676C143.143 347.543 143.416 347.443 143.714 347.378C144.015 347.31 144.318 347.256 144.622 347.216C145.019 347.165 145.342 347.126 145.589 347.101C145.839 347.072 146.021 347.026 146.135 346.96C146.251 346.895 146.309 346.781 146.309 346.619V346.585C146.309 346.165 146.194 345.838 145.964 345.605C145.737 345.372 145.392 345.256 144.929 345.256C144.448 345.256 144.072 345.361 143.799 345.571C143.527 345.781 143.335 346.006 143.224 346.244L142.269 345.903C142.44 345.506 142.667 345.196 142.951 344.974C143.238 344.75 143.551 344.594 143.889 344.506C144.23 344.415 144.565 344.369 144.894 344.369C145.105 344.369 145.346 344.395 145.619 344.446C145.894 344.494 146.16 344.595 146.416 344.749C146.674 344.902 146.889 345.134 147.059 345.443C147.23 345.753 147.315 346.168 147.315 346.688V351H146.309V350.114H146.258C146.19 350.256 146.076 350.408 145.917 350.57C145.758 350.732 145.546 350.869 145.282 350.983C145.018 351.097 144.696 351.153 144.315 351.153ZM144.468 350.25C144.866 350.25 145.201 350.172 145.474 350.016C145.75 349.859 145.957 349.658 146.096 349.411C146.238 349.163 146.309 348.903 146.309 348.631V347.71C146.267 347.761 146.173 347.808 146.028 347.851C145.886 347.891 145.721 347.926 145.534 347.957C145.349 347.986 145.169 348.011 144.992 348.034C144.819 348.054 144.679 348.071 144.571 348.085C144.309 348.119 144.065 348.175 143.838 348.251C143.613 348.325 143.431 348.437 143.292 348.588C143.156 348.736 143.088 348.937 143.088 349.193C143.088 349.543 143.217 349.807 143.475 349.986C143.737 350.162 144.068 350.25 144.468 350.25ZM151.793 353.591C151.307 353.591 150.889 353.528 150.54 353.403C150.19 353.281 149.899 353.119 149.666 352.918C149.436 352.719 149.253 352.506 149.116 352.278L149.918 351.716C150.008 351.835 150.124 351.972 150.263 352.125C150.402 352.281 150.592 352.416 150.834 352.53C151.078 352.646 151.398 352.705 151.793 352.705C152.321 352.705 152.757 352.577 153.101 352.321C153.445 352.065 153.616 351.665 153.616 351.119V349.79H153.531C153.457 349.909 153.352 350.057 153.216 350.233C153.082 350.406 152.889 350.561 152.636 350.697C152.386 350.831 152.048 350.898 151.622 350.898C151.094 350.898 150.619 350.773 150.199 350.523C149.781 350.273 149.45 349.909 149.206 349.432C148.964 348.955 148.844 348.375 148.844 347.693C148.844 347.023 148.962 346.439 149.197 345.942C149.433 345.442 149.761 345.055 150.182 344.783C150.602 344.507 151.088 344.369 151.639 344.369C152.065 344.369 152.403 344.44 152.653 344.582C152.906 344.722 153.099 344.881 153.233 345.06C153.369 345.236 153.474 345.381 153.548 345.494H153.651V344.455H154.622V351.188C154.622 351.75 154.494 352.207 154.239 352.56C153.986 352.915 153.645 353.175 153.216 353.339C152.79 353.507 152.315 353.591 151.793 353.591ZM151.758 349.994C152.162 349.994 152.503 349.902 152.781 349.717C153.06 349.533 153.271 349.267 153.416 348.92C153.561 348.574 153.633 348.159 153.633 347.676C153.633 347.205 153.562 346.788 153.42 346.428C153.278 346.067 153.068 345.784 152.79 345.58C152.511 345.375 152.168 345.273 151.758 345.273C151.332 345.273 150.977 345.381 150.693 345.597C150.412 345.812 150.2 346.102 150.058 346.466C149.919 346.83 149.849 347.233 149.849 347.676C149.849 348.131 149.92 348.533 150.062 348.882C150.207 349.229 150.42 349.501 150.702 349.7C150.986 349.896 151.338 349.994 151.758 349.994ZM160.588 348.324V344.455H161.594V351H160.588V349.892H160.52C160.366 350.224 160.128 350.507 159.804 350.74C159.48 350.97 159.071 351.085 158.577 351.085C158.168 351.085 157.804 350.996 157.486 350.817C157.168 350.635 156.918 350.362 156.736 349.999C156.554 349.632 156.463 349.17 156.463 348.614V344.455H157.469V348.545C157.469 349.023 157.602 349.403 157.869 349.688C158.139 349.972 158.483 350.114 158.901 350.114C159.151 350.114 159.405 350.05 159.663 349.922C159.925 349.794 160.143 349.598 160.32 349.334C160.499 349.07 160.588 348.733 160.588 348.324ZM164.441 347.062V351H163.436V344.455H164.407V345.477H164.492C164.646 345.145 164.879 344.878 165.191 344.676C165.504 344.472 165.907 344.369 166.402 344.369C166.845 344.369 167.233 344.46 167.565 344.642C167.897 344.821 168.156 345.094 168.34 345.46C168.525 345.824 168.617 346.284 168.617 346.841V351H167.612V346.909C167.612 346.395 167.478 345.994 167.211 345.707C166.944 345.418 166.578 345.273 166.112 345.273C165.791 345.273 165.504 345.342 165.251 345.482C165.001 345.621 164.804 345.824 164.659 346.091C164.514 346.358 164.441 346.682 164.441 347.062ZM173.097 353.591C172.611 353.591 172.194 353.528 171.844 353.403C171.495 353.281 171.204 353.119 170.971 352.918C170.741 352.719 170.557 352.506 170.421 352.278L171.222 351.716C171.313 351.835 171.428 351.972 171.567 352.125C171.707 352.281 171.897 352.416 172.138 352.53C172.383 352.646 172.702 352.705 173.097 352.705C173.626 352.705 174.062 352.577 174.405 352.321C174.749 352.065 174.921 351.665 174.921 351.119V349.79H174.836C174.762 349.909 174.657 350.057 174.521 350.233C174.387 350.406 174.194 350.561 173.941 350.697C173.691 350.831 173.353 350.898 172.927 350.898C172.398 350.898 171.924 350.773 171.503 350.523C171.086 350.273 170.755 349.909 170.511 349.432C170.269 348.955 170.148 348.375 170.148 347.693C170.148 347.023 170.266 346.439 170.502 345.942C170.738 345.442 171.066 345.055 171.486 344.783C171.907 344.507 172.393 344.369 172.944 344.369C173.37 344.369 173.708 344.44 173.958 344.582C174.211 344.722 174.404 344.881 174.538 345.06C174.674 345.236 174.779 345.381 174.853 345.494H174.955V344.455H175.927V351.188C175.927 351.75 175.799 352.207 175.543 352.56C175.29 352.915 174.95 353.175 174.521 353.339C174.094 353.507 173.62 353.591 173.097 353.591ZM173.063 349.994C173.467 349.994 173.807 349.902 174.086 349.717C174.364 349.533 174.576 349.267 174.721 348.92C174.866 348.574 174.938 348.159 174.938 347.676C174.938 347.205 174.867 346.788 174.725 346.428C174.583 346.067 174.373 345.784 174.094 345.58C173.816 345.375 173.472 345.273 173.063 345.273C172.637 345.273 172.282 345.381 171.998 345.597C171.717 345.812 171.505 346.102 171.363 346.466C171.224 346.83 171.154 347.233 171.154 347.676C171.154 348.131 171.225 348.533 171.367 348.882C171.512 349.229 171.725 349.501 172.006 349.7C172.29 349.896 172.643 349.994 173.063 349.994Z" fill="#181819" fill-opacity="0.42"/>
<path d="M214.852 351V342.273H217.903C218.511 342.273 219.012 342.378 219.407 342.588C219.802 342.795 220.096 343.075 220.289 343.428C220.482 343.777 220.579 344.165 220.579 344.591C220.579 344.966 220.512 345.276 220.379 345.52C220.248 345.764 220.075 345.957 219.859 346.099C219.646 346.241 219.414 346.347 219.164 346.415V346.5C219.431 346.517 219.7 346.611 219.97 346.781C220.24 346.952 220.465 347.196 220.647 347.514C220.829 347.832 220.92 348.222 220.92 348.682C220.92 349.119 220.821 349.513 220.622 349.862C220.423 350.212 220.109 350.489 219.68 350.693C219.251 350.898 218.693 351 218.005 351H214.852ZM215.909 350.062H218.005C218.696 350.062 219.186 349.929 219.475 349.662C219.768 349.392 219.914 349.065 219.914 348.682C219.914 348.386 219.839 348.114 219.688 347.864C219.538 347.611 219.323 347.409 219.045 347.259C218.767 347.105 218.437 347.028 218.056 347.028H215.909V350.062ZM215.909 346.108H217.869C218.187 346.108 218.474 346.045 218.73 345.92C218.988 345.795 219.193 345.619 219.343 345.392C219.497 345.165 219.573 344.898 219.573 344.591C219.573 344.207 219.44 343.882 219.173 343.615C218.906 343.345 218.482 343.21 217.903 343.21H215.909V346.108ZM224.446 351.153C224.031 351.153 223.655 351.075 223.317 350.919C222.979 350.76 222.71 350.531 222.512 350.233C222.313 349.932 222.213 349.568 222.213 349.142C222.213 348.767 222.287 348.463 222.435 348.23C222.583 347.994 222.78 347.81 223.027 347.676C223.274 347.543 223.547 347.443 223.845 347.378C224.146 347.31 224.449 347.256 224.753 347.216C225.151 347.165 225.473 347.126 225.72 347.101C225.97 347.072 226.152 347.026 226.266 346.96C226.382 346.895 226.441 346.781 226.441 346.619V346.585C226.441 346.165 226.325 345.838 226.095 345.605C225.868 345.372 225.523 345.256 225.06 345.256C224.58 345.256 224.203 345.361 223.931 345.571C223.658 345.781 223.466 346.006 223.355 346.244L222.401 345.903C222.571 345.506 222.798 345.196 223.083 344.974C223.37 344.75 223.682 344.594 224.02 344.506C224.361 344.415 224.696 344.369 225.026 344.369C225.236 344.369 225.477 344.395 225.75 344.446C226.026 344.494 226.291 344.595 226.547 344.749C226.806 344.902 227.02 345.134 227.191 345.443C227.361 345.753 227.446 346.168 227.446 346.688V351H226.441V350.114H226.389C226.321 350.256 226.208 350.408 226.048 350.57C225.889 350.732 225.678 350.869 225.414 350.983C225.149 351.097 224.827 351.153 224.446 351.153ZM224.6 350.25C224.997 350.25 225.333 350.172 225.605 350.016C225.881 349.859 226.088 349.658 226.227 349.411C226.37 349.163 226.441 348.903 226.441 348.631V347.71C226.398 347.761 226.304 347.808 226.159 347.851C226.017 347.891 225.852 347.926 225.665 347.957C225.48 347.986 225.3 348.011 225.124 348.034C224.95 348.054 224.81 348.071 224.702 348.085C224.441 348.119 224.196 348.175 223.969 348.251C223.745 348.325 223.563 348.437 223.423 348.588C223.287 348.736 223.219 348.937 223.219 349.193C223.219 349.543 223.348 349.807 223.607 349.986C223.868 350.162 224.199 350.25 224.6 350.25ZM230.765 351L228.77 344.455H229.827L231.242 349.466H231.31L232.708 344.455H233.782L235.162 349.449H235.231L236.645 344.455H237.702L235.708 351H234.719L233.287 345.972H233.185L231.753 351H230.765ZM240.958 351.153C240.543 351.153 240.167 351.075 239.829 350.919C239.491 350.76 239.222 350.531 239.023 350.233C238.824 349.932 238.725 349.568 238.725 349.142C238.725 348.767 238.799 348.463 238.947 348.23C239.094 347.994 239.292 347.81 239.539 347.676C239.786 347.543 240.059 347.443 240.357 347.378C240.658 347.31 240.961 347.256 241.265 347.216C241.662 347.165 241.985 347.126 242.232 347.101C242.482 347.072 242.664 347.026 242.778 346.96C242.894 346.895 242.952 346.781 242.952 346.619V346.585C242.952 346.165 242.837 345.838 242.607 345.605C242.38 345.372 242.035 345.256 241.572 345.256C241.091 345.256 240.715 345.361 240.442 345.571C240.17 345.781 239.978 346.006 239.867 346.244L238.912 345.903C239.083 345.506 239.31 345.196 239.594 344.974C239.881 344.75 240.194 344.594 240.532 344.506C240.873 344.415 241.208 344.369 241.537 344.369C241.748 344.369 241.989 344.395 242.262 344.446C242.537 344.494 242.803 344.595 243.059 344.749C243.317 344.902 243.532 345.134 243.702 345.443C243.873 345.753 243.958 346.168 243.958 346.688V351H242.952V350.114H242.901C242.833 350.256 242.719 350.408 242.56 350.57C242.401 350.732 242.189 350.869 241.925 350.983C241.661 351.097 241.339 351.153 240.958 351.153ZM241.111 350.25C241.509 350.25 241.844 350.172 242.117 350.016C242.393 349.859 242.6 349.658 242.739 349.411C242.881 349.163 242.952 348.903 242.952 348.631V347.71C242.91 347.761 242.816 347.808 242.671 347.851C242.529 347.891 242.364 347.926 242.177 347.957C241.992 347.986 241.812 348.011 241.635 348.034C241.462 348.054 241.322 348.071 241.214 348.085C240.952 348.119 240.708 348.175 240.481 348.251C240.256 348.325 240.074 348.437 239.935 348.588C239.799 348.736 239.731 348.937 239.731 349.193C239.731 349.543 239.86 349.807 240.118 349.986C240.38 350.162 240.711 350.25 241.111 350.25ZM246.799 347.062V351H245.794V344.455H246.765V345.477H246.85C247.004 345.145 247.237 344.878 247.549 344.676C247.862 344.472 248.265 344.369 248.759 344.369C249.203 344.369 249.59 344.46 249.923 344.642C250.255 344.821 250.514 345.094 250.698 345.46C250.883 345.824 250.975 346.284 250.975 346.841V351H249.97V346.909C249.97 346.395 249.836 345.994 249.569 345.707C249.302 345.418 248.936 345.273 248.47 345.273C248.149 345.273 247.862 345.342 247.609 345.482C247.359 345.621 247.161 345.824 247.017 346.091C246.872 346.358 246.799 346.682 246.799 347.062ZM255.455 353.591C254.969 353.591 254.552 353.528 254.202 353.403C253.853 353.281 253.562 353.119 253.329 352.918C253.099 352.719 252.915 352.506 252.779 352.278L253.58 351.716C253.671 351.835 253.786 351.972 253.925 352.125C254.064 352.281 254.255 352.416 254.496 352.53C254.741 352.646 255.06 352.705 255.455 352.705C255.983 352.705 256.42 352.577 256.763 352.321C257.107 352.065 257.279 351.665 257.279 351.119V349.79H257.194C257.12 349.909 257.015 350.057 256.878 350.233C256.745 350.406 256.552 350.561 256.299 350.697C256.049 350.831 255.711 350.898 255.285 350.898C254.756 350.898 254.282 350.773 253.861 350.523C253.444 350.273 253.113 349.909 252.868 349.432C252.627 348.955 252.506 348.375 252.506 347.693C252.506 347.023 252.624 346.439 252.86 345.942C253.096 345.442 253.424 345.055 253.844 344.783C254.265 344.507 254.751 344.369 255.302 344.369C255.728 344.369 256.066 344.44 256.316 344.582C256.569 344.722 256.762 344.881 256.895 345.06C257.032 345.236 257.137 345.381 257.211 345.494H257.313V344.455H258.285V351.188C258.285 351.75 258.157 352.207 257.901 352.56C257.648 352.915 257.307 353.175 256.878 353.339C256.452 353.507 255.978 353.591 255.455 353.591ZM255.421 349.994C255.824 349.994 256.165 349.902 256.444 349.717C256.722 349.533 256.934 349.267 257.079 348.92C257.224 348.574 257.296 348.159 257.296 347.676C257.296 347.205 257.225 346.788 257.083 346.428C256.941 346.067 256.731 345.784 256.452 345.58C256.174 345.375 255.83 345.273 255.421 345.273C254.995 345.273 254.64 345.381 254.356 345.597C254.074 345.812 253.863 346.102 253.721 346.466C253.582 346.83 253.512 347.233 253.512 347.676C253.512 348.131 253.583 348.533 253.725 348.882C253.87 349.229 254.083 349.501 254.364 349.7C254.648 349.896 255.001 349.994 255.421 349.994Z" fill="#181819" fill-opacity="0.42"/>
<path d="M302.014 351V342.273H305.065C305.673 342.273 306.175 342.378 306.57 342.588C306.965 342.795 307.259 343.075 307.452 343.428C307.645 343.777 307.742 344.165 307.742 344.591C307.742 344.966 307.675 345.276 307.541 345.52C307.411 345.764 307.237 345.957 307.021 346.099C306.808 346.241 306.577 346.347 306.327 346.415V346.5C306.594 346.517 306.862 346.611 307.132 346.781C307.402 346.952 307.628 347.196 307.81 347.514C307.991 347.832 308.082 348.222 308.082 348.682C308.082 349.119 307.983 349.513 307.784 349.862C307.585 350.212 307.271 350.489 306.842 350.693C306.413 350.898 305.855 351 305.168 351H302.014ZM303.071 350.062H305.168C305.858 350.062 306.348 349.929 306.638 349.662C306.93 349.392 307.077 349.065 307.077 348.682C307.077 348.386 307.001 348.114 306.851 347.864C306.7 347.611 306.486 347.409 306.207 347.259C305.929 347.105 305.599 347.028 305.219 347.028H303.071V350.062ZM303.071 346.108H305.031C305.349 346.108 305.636 346.045 305.892 345.92C306.151 345.795 306.355 345.619 306.506 345.392C306.659 345.165 306.736 344.898 306.736 344.591C306.736 344.207 306.602 343.882 306.335 343.615C306.068 343.345 305.645 343.21 305.065 343.21H303.071V346.108ZM312.427 351.136C311.796 351.136 311.252 350.997 310.795 350.719C310.34 350.438 309.989 350.045 309.742 349.543C309.498 349.037 309.376 348.449 309.376 347.778C309.376 347.108 309.498 346.517 309.742 346.006C309.989 345.491 310.333 345.091 310.773 344.804C311.217 344.514 311.734 344.369 312.325 344.369C312.666 344.369 313.002 344.426 313.335 344.54C313.667 344.653 313.969 344.838 314.242 345.094C314.515 345.347 314.732 345.682 314.894 346.099C315.056 346.517 315.137 347.031 315.137 347.642V348.068H310.092V347.199H314.114C314.114 346.83 314.041 346.5 313.893 346.21C313.748 345.92 313.541 345.692 313.271 345.524C313.004 345.357 312.688 345.273 312.325 345.273C311.924 345.273 311.577 345.372 311.285 345.571C310.995 345.767 310.772 346.023 310.616 346.338C310.46 346.653 310.381 346.991 310.381 347.352V347.932C310.381 348.426 310.467 348.845 310.637 349.189C310.81 349.53 311.05 349.79 311.357 349.969C311.664 350.145 312.021 350.233 312.427 350.233C312.691 350.233 312.93 350.196 313.143 350.122C313.359 350.045 313.545 349.932 313.701 349.781C313.857 349.628 313.978 349.437 314.063 349.21L315.035 349.483C314.933 349.812 314.761 350.102 314.519 350.352C314.278 350.599 313.979 350.793 313.624 350.932C313.269 351.068 312.87 351.136 312.427 351.136ZM316.667 351V344.455H317.639V345.443H317.707C317.826 345.119 318.042 344.857 318.354 344.655C318.667 344.453 319.019 344.352 319.411 344.352C319.485 344.352 319.577 344.354 319.688 344.357C319.799 344.359 319.883 344.364 319.94 344.369V345.392C319.906 345.384 319.827 345.371 319.705 345.354C319.586 345.334 319.46 345.324 319.326 345.324C319.008 345.324 318.724 345.391 318.474 345.524C318.227 345.655 318.031 345.837 317.886 346.07C317.744 346.3 317.673 346.562 317.673 346.858V351H316.667ZM323.058 351.153C322.643 351.153 322.267 351.075 321.929 350.919C321.591 350.76 321.322 350.531 321.123 350.233C320.924 349.932 320.825 349.568 320.825 349.142C320.825 348.767 320.899 348.463 321.047 348.23C321.194 347.994 321.392 347.81 321.639 347.676C321.886 347.543 322.159 347.443 322.457 347.378C322.758 347.31 323.061 347.256 323.365 347.216C323.762 347.165 324.085 347.126 324.332 347.101C324.582 347.072 324.764 347.026 324.878 346.96C324.994 346.895 325.052 346.781 325.052 346.619V346.585C325.052 346.165 324.937 345.838 324.707 345.605C324.48 345.372 324.135 345.256 323.672 345.256C323.191 345.256 322.815 345.361 322.542 345.571C322.27 345.781 322.078 346.006 321.967 346.244L321.012 345.903C321.183 345.506 321.41 345.196 321.694 344.974C321.981 344.75 322.294 344.594 322.632 344.506C322.973 344.415 323.308 344.369 323.637 344.369C323.848 344.369 324.089 344.395 324.362 344.446C324.637 344.494 324.903 344.595 325.159 344.749C325.417 344.902 325.632 345.134 325.802 345.443C325.973 345.753 326.058 346.168 326.058 346.688V351H325.052V350.114H325.001C324.933 350.256 324.819 350.408 324.66 350.57C324.501 350.732 324.289 350.869 324.025 350.983C323.761 351.097 323.439 351.153 323.058 351.153ZM323.211 350.25C323.609 350.25 323.944 350.172 324.217 350.016C324.493 349.859 324.7 349.658 324.839 349.411C324.981 349.163 325.052 348.903 325.052 348.631V347.71C325.01 347.761 324.916 347.808 324.771 347.851C324.629 347.891 324.464 347.926 324.277 347.957C324.092 347.986 323.912 348.011 323.735 348.034C323.562 348.054 323.422 348.071 323.314 348.085C323.052 348.119 322.808 348.175 322.581 348.251C322.356 348.325 322.174 348.437 322.035 348.588C321.899 348.736 321.831 348.937 321.831 349.193C321.831 349.543 321.96 349.807 322.218 349.986C322.48 350.162 322.811 350.25 323.211 350.25ZM332.53 345.92L331.626 346.176C331.57 346.026 331.486 345.879 331.375 345.737C331.267 345.592 331.119 345.473 330.932 345.379C330.744 345.286 330.504 345.239 330.212 345.239C329.811 345.239 329.477 345.331 329.21 345.516C328.946 345.697 328.814 345.929 328.814 346.21C328.814 346.46 328.905 346.658 329.087 346.803C329.268 346.947 329.553 347.068 329.939 347.165L330.911 347.403C331.496 347.545 331.932 347.763 332.219 348.055C332.506 348.345 332.649 348.719 332.649 349.176C332.649 349.551 332.541 349.886 332.325 350.182C332.112 350.477 331.814 350.71 331.43 350.881C331.047 351.051 330.601 351.136 330.092 351.136C329.425 351.136 328.872 350.991 328.435 350.702C327.997 350.412 327.72 349.989 327.604 349.432L328.558 349.193C328.649 349.545 328.821 349.81 329.074 349.986C329.33 350.162 329.663 350.25 330.075 350.25C330.544 350.25 330.916 350.151 331.192 349.952C331.47 349.75 331.609 349.509 331.609 349.227C331.609 349 331.53 348.81 331.371 348.656C331.212 348.5 330.967 348.384 330.638 348.307L329.547 348.051C328.947 347.909 328.507 347.689 328.226 347.391C327.947 347.089 327.808 346.713 327.808 346.261C327.808 345.892 327.912 345.565 328.119 345.281C328.33 344.997 328.615 344.774 328.976 344.612C329.34 344.45 329.751 344.369 330.212 344.369C330.859 344.369 331.368 344.511 331.737 344.795C332.109 345.08 332.374 345.455 332.53 345.92Z" fill="#181819" fill-opacity="0.42"/>
<path d="M375.354 351V342.273H376.411V346.602H376.514L380.434 342.273H381.815L378.15 346.21L381.815 351H380.536L377.502 346.943L376.411 348.17V351H375.354ZM385.31 351.136C384.679 351.136 384.135 350.997 383.678 350.719C383.223 350.438 382.873 350.045 382.625 349.543C382.381 349.037 382.259 348.449 382.259 347.778C382.259 347.108 382.381 346.517 382.625 346.006C382.873 345.491 383.216 345.091 383.657 344.804C384.1 344.514 384.617 344.369 385.208 344.369C385.549 344.369 385.885 344.426 386.218 344.54C386.55 344.653 386.853 344.838 387.125 345.094C387.398 345.347 387.616 345.682 387.777 346.099C387.939 346.517 388.02 347.031 388.02 347.642V348.068H382.975V347.199H386.998C386.998 346.83 386.924 346.5 386.776 346.21C386.631 345.92 386.424 345.692 386.154 345.524C385.887 345.357 385.571 345.273 385.208 345.273C384.807 345.273 384.461 345.372 384.168 345.571C383.878 345.767 383.655 346.023 383.499 346.338C383.343 346.653 383.265 346.991 383.265 347.352V347.932C383.265 348.426 383.35 348.845 383.52 349.189C383.694 349.53 383.934 349.79 384.241 349.969C384.547 350.145 384.904 350.233 385.31 350.233C385.574 350.233 385.813 350.196 386.026 350.122C386.242 350.045 386.428 349.932 386.584 349.781C386.741 349.628 386.861 349.437 386.946 349.21L387.918 349.483C387.816 349.812 387.644 350.102 387.402 350.352C387.161 350.599 386.863 350.793 386.508 350.932C386.152 351.068 385.753 351.136 385.31 351.136ZM390.556 347.062V351H389.55V344.455H390.522V345.477H390.607C390.76 345.145 390.993 344.878 391.306 344.676C391.618 344.472 392.022 344.369 392.516 344.369C392.959 344.369 393.347 344.46 393.679 344.642C394.012 344.821 394.27 345.094 394.455 345.46C394.64 345.824 394.732 346.284 394.732 346.841V351H393.726V346.909C393.726 346.395 393.593 345.994 393.326 345.707C393.059 345.418 392.692 345.273 392.226 345.273C391.905 345.273 391.618 345.342 391.366 345.482C391.116 345.621 390.918 345.824 390.773 346.091C390.628 346.358 390.556 346.682 390.556 347.062ZM399.416 344.455V345.307H396.024V344.455H399.416ZM397.013 342.886H398.019V349.125C398.019 349.409 398.06 349.622 398.142 349.764C398.227 349.903 398.335 349.997 398.466 350.045C398.6 350.091 398.74 350.114 398.888 350.114C398.999 350.114 399.09 350.108 399.161 350.097C399.232 350.082 399.288 350.071 399.331 350.062L399.536 350.966C399.467 350.991 399.372 351.017 399.25 351.043C399.128 351.071 398.973 351.085 398.786 351.085C398.502 351.085 398.223 351.024 397.95 350.902C397.68 350.78 397.456 350.594 397.277 350.344C397.101 350.094 397.013 349.778 397.013 349.398V342.886ZM402.855 351.153C402.44 351.153 402.064 351.075 401.726 350.919C401.388 350.76 401.119 350.531 400.921 350.233C400.722 349.932 400.622 349.568 400.622 349.142C400.622 348.767 400.696 348.463 400.844 348.23C400.992 347.994 401.189 347.81 401.436 347.676C401.683 347.543 401.956 347.443 402.254 347.378C402.555 347.31 402.858 347.256 403.162 347.216C403.56 347.165 403.882 347.126 404.129 347.101C404.379 347.072 404.561 347.026 404.675 346.96C404.791 346.895 404.85 346.781 404.85 346.619V346.585C404.85 346.165 404.734 345.838 404.504 345.605C404.277 345.372 403.932 345.256 403.469 345.256C402.989 345.256 402.612 345.361 402.34 345.571C402.067 345.781 401.875 346.006 401.764 346.244L400.81 345.903C400.98 345.506 401.207 345.196 401.492 344.974C401.779 344.75 402.091 344.594 402.429 344.506C402.77 344.415 403.105 344.369 403.435 344.369C403.645 344.369 403.886 344.395 404.159 344.446C404.435 344.494 404.7 344.595 404.956 344.749C405.215 344.902 405.429 345.134 405.6 345.443C405.77 345.753 405.855 346.168 405.855 346.688V351H404.85V350.114H404.798C404.73 350.256 404.617 350.408 404.457 350.57C404.298 350.732 404.087 350.869 403.823 350.983C403.558 351.097 403.236 351.153 402.855 351.153ZM403.009 350.25C403.406 350.25 403.742 350.172 404.014 350.016C404.29 349.859 404.497 349.658 404.636 349.411C404.779 349.163 404.85 348.903 404.85 348.631V347.71C404.807 347.761 404.713 347.808 404.568 347.851C404.426 347.891 404.261 347.926 404.074 347.957C403.889 347.986 403.709 348.011 403.533 348.034C403.359 348.054 403.219 348.071 403.111 348.085C402.85 348.119 402.605 348.175 402.378 348.251C402.154 348.325 401.972 348.437 401.832 348.588C401.696 348.736 401.628 348.937 401.628 349.193C401.628 349.543 401.757 349.807 402.016 349.986C402.277 350.162 402.608 350.25 403.009 350.25ZM408.696 347.062V351H407.691V344.455H408.662V345.477H408.748C408.901 345.145 409.134 344.878 409.446 344.676C409.759 344.472 410.162 344.369 410.657 344.369C411.1 344.369 411.488 344.46 411.82 344.642C412.152 344.821 412.411 345.094 412.596 345.46C412.78 345.824 412.873 346.284 412.873 346.841V351H411.867V346.909C411.867 346.395 411.733 345.994 411.466 345.707C411.199 345.418 410.833 345.273 410.367 345.273C410.046 345.273 409.759 345.342 409.506 345.482C409.256 345.621 409.059 345.824 408.914 346.091C408.769 346.358 408.696 346.682 408.696 347.062ZM417.352 353.591C416.867 353.591 416.449 353.528 416.1 353.403C415.75 353.281 415.459 353.119 415.226 352.918C414.996 352.719 414.813 352.506 414.676 352.278L415.477 351.716C415.568 351.835 415.683 351.972 415.823 352.125C415.962 352.281 416.152 352.416 416.394 352.53C416.638 352.646 416.957 352.705 417.352 352.705C417.881 352.705 418.317 352.577 418.661 352.321C419.004 352.065 419.176 351.665 419.176 351.119V349.79H419.091C419.017 349.909 418.912 350.057 418.776 350.233C418.642 350.406 418.449 350.561 418.196 350.697C417.946 350.831 417.608 350.898 417.182 350.898C416.654 350.898 416.179 350.773 415.759 350.523C415.341 350.273 415.01 349.909 414.766 349.432C414.524 348.955 414.404 348.375 414.404 347.693C414.404 347.023 414.521 346.439 414.757 345.942C414.993 345.442 415.321 345.055 415.742 344.783C416.162 344.507 416.648 344.369 417.199 344.369C417.625 344.369 417.963 344.44 418.213 344.582C418.466 344.722 418.659 344.881 418.793 345.06C418.929 345.236 419.034 345.381 419.108 345.494H419.21V344.455H420.182V351.188C420.182 351.75 420.054 352.207 419.798 352.56C419.546 352.915 419.205 353.175 418.776 353.339C418.35 353.507 417.875 353.591 417.352 353.591ZM417.318 349.994C417.722 349.994 418.063 349.902 418.341 349.717C418.619 349.533 418.831 349.267 418.976 348.92C419.121 348.574 419.193 348.159 419.193 347.676C419.193 347.205 419.122 346.788 418.98 346.428C418.838 346.067 418.628 345.784 418.35 345.58C418.071 345.375 417.727 345.273 417.318 345.273C416.892 345.273 416.537 345.381 416.253 345.597C415.972 345.812 415.76 346.102 415.618 346.466C415.479 346.83 415.409 347.233 415.409 347.676C415.409 348.131 415.48 348.533 415.622 348.882C415.767 349.229 415.98 349.501 416.261 349.7C416.546 349.896 416.898 349.994 417.318 349.994Z" fill="#181819" fill-opacity="0.42"/>
<path d="M0.649858 10.2102V9.27273H7.19531V10.2102H4.45099V18H3.39418V10.2102H0.649858ZM10.3999 18.1364C9.80895 18.1364 9.29048 17.9957 8.84446 17.7145C8.40128 17.4332 8.05469 17.0398 7.80469 16.5341C7.55753 16.0284 7.43395 15.4375 7.43395 14.7614C7.43395 14.0795 7.55753 13.4844 7.80469 12.9759C8.05469 12.4673 8.40128 12.0724 8.84446 11.7912C9.29048 11.5099 9.80895 11.3693 10.3999 11.3693C10.9908 11.3693 11.5078 11.5099 11.951 11.7912C12.397 12.0724 12.7436 12.4673 12.9908 12.9759C13.2408 13.4844 13.3658 14.0795 13.3658 14.7614C13.3658 15.4375 13.2408 16.0284 12.9908 16.5341C12.7436 17.0398 12.397 17.4332 11.951 17.7145C11.5078 17.9957 10.9908 18.1364 10.3999 18.1364ZM10.3999 17.233C10.8487 17.233 11.218 17.1179 11.5078 16.8878C11.7976 16.6577 12.0121 16.3551 12.1513 15.9801C12.2905 15.6051 12.3601 15.1989 12.3601 14.7614C12.3601 14.3239 12.2905 13.9162 12.1513 13.5384C12.0121 13.1605 11.7976 12.8551 11.5078 12.6222C11.218 12.3892 10.8487 12.2727 10.3999 12.2727C9.95099 12.2727 9.58168 12.3892 9.2919 12.6222C9.00213 12.8551 8.78764 13.1605 8.64844 13.5384C8.50923 13.9162 8.43963 14.3239 8.43963 14.7614C8.43963 15.1989 8.50923 15.6051 8.64844 15.9801C8.78764 16.3551 9.00213 16.6577 9.2919 16.8878C9.58168 17.1179 9.95099 17.233 10.3999 17.233ZM15.9066 14.0625V18H14.9009V11.4545H15.8725V12.4773H15.9577C16.1112 12.1449 16.3441 11.8778 16.6566 11.6761C16.9691 11.4716 17.3725 11.3693 17.8668 11.3693C18.31 11.3693 18.6978 11.4602 19.0302 11.642C19.3626 11.821 19.6211 12.0938 19.8058 12.4602C19.9904 12.8239 20.0827 13.2841 20.0827 13.8409V18H19.0771V13.9091C19.0771 13.3949 18.9435 12.9943 18.6765 12.7074C18.4094 12.4176 18.043 12.2727 17.5771 12.2727C17.256 12.2727 16.9691 12.3423 16.7163 12.4815C16.4663 12.6207 16.2688 12.8239 16.1239 13.0909C15.979 13.358 15.9066 13.6818 15.9066 14.0625Z" fill="#181819" fill-opacity="0.42"/>
<path d="M1.49964 43.2102V42.3409L5.33487 36.2727H5.96555V37.6193H5.53942L2.64169 42.2045V42.2727H7.80646V43.2102H1.49964ZM5.6076 45V42.946V42.5412V36.2727H6.61328V45H5.6076ZM12.25 45.1193C11.608 45.1193 11.0611 44.9446 10.6094 44.5952C10.1577 44.2429 9.8125 43.733 9.57386 43.0653C9.33523 42.3949 9.21591 41.5852 9.21591 40.6364C9.21591 39.6932 9.33523 38.8878 9.57386 38.2202C9.81534 37.5497 10.1619 37.0384 10.6136 36.6861C11.0682 36.331 11.6136 36.1534 12.25 36.1534C12.8864 36.1534 13.4304 36.331 13.8821 36.6861C14.3366 37.0384 14.6832 37.5497 14.9219 38.2202C15.1634 38.8878 15.2841 39.6932 15.2841 40.6364C15.2841 41.5852 15.1648 42.3949 14.9261 43.0653C14.6875 43.733 14.3423 44.2429 13.8906 44.5952C13.4389 44.9446 12.892 45.1193 12.25 45.1193ZM12.25 44.1818C12.8864 44.1818 13.3807 43.875 13.733 43.2614C14.0852 42.6477 14.2614 41.7727 14.2614 40.6364C14.2614 39.8807 14.1804 39.2372 14.0185 38.706C13.8594 38.1747 13.6293 37.7699 13.3281 37.4915C13.0298 37.2131 12.6705 37.0739 12.25 37.0739C11.6193 37.0739 11.1264 37.3849 10.7713 38.0071C10.4162 38.6264 10.2386 39.5028 10.2386 40.6364C10.2386 41.392 10.3182 42.0341 10.4773 42.5625C10.6364 43.0909 10.8651 43.4929 11.1634 43.7685C11.4645 44.044 11.8267 44.1818 12.25 44.1818Z" fill="#181819" fill-opacity="0.42"/>
<path d="M33 43.5H437" stroke="#E3E3E3" stroke-linecap="round" stroke-dasharray="6 6"/>
<path d="M4.91087 78.1193C4.34837 78.1193 3.84695 78.0227 3.40661 77.8295C2.96911 77.6364 2.62109 77.3679 2.36257 77.0241C2.10689 76.6776 1.96768 76.2756 1.94496 75.8182H3.01882C3.04155 76.0994 3.13814 76.3423 3.30859 76.5469C3.47905 76.7486 3.70206 76.9048 3.97763 77.0156C4.2532 77.1264 4.55859 77.1818 4.89382 77.1818C5.26882 77.1818 5.60121 77.1165 5.89098 76.9858C6.18075 76.8551 6.40803 76.6733 6.5728 76.4403C6.73757 76.2074 6.81996 75.9375 6.81996 75.6307C6.81996 75.3097 6.74041 75.027 6.58132 74.7827C6.42223 74.5355 6.18928 74.3423 5.88246 74.2031C5.57564 74.0639 5.20064 73.9943 4.75746 73.9943H4.05859V73.0568H4.75746C5.10405 73.0568 5.40803 72.9943 5.66939 72.8693C5.93359 72.7443 6.13956 72.5682 6.28729 72.3409C6.43786 72.1136 6.51314 71.8466 6.51314 71.5398C6.51314 71.2443 6.4478 70.9872 6.31712 70.7685C6.18643 70.5497 6.00178 70.3793 5.76314 70.2571C5.52734 70.1349 5.24893 70.0739 4.92791 70.0739C4.62678 70.0739 4.34268 70.1293 4.07564 70.2401C3.81143 70.348 3.59553 70.5057 3.42791 70.7131C3.2603 70.9176 3.16939 71.1648 3.15518 71.4545H2.13246C2.1495 70.9972 2.28729 70.5966 2.54581 70.2528C2.80433 69.9062 3.1424 69.6364 3.56001 69.4432C3.98047 69.25 4.44212 69.1534 4.94496 69.1534C5.48473 69.1534 5.9478 69.2628 6.33416 69.4815C6.72053 69.6974 7.0174 69.983 7.22479 70.3381C7.43217 70.6932 7.53587 71.0767 7.53587 71.4886C7.53587 71.9801 7.40661 72.3991 7.14808 72.7457C6.8924 73.0923 6.54439 73.3324 6.10405 73.4659V73.5341C6.65518 73.625 7.08558 73.8594 7.39524 74.2372C7.7049 74.6122 7.85973 75.0767 7.85973 75.6307C7.85973 76.1051 7.73047 76.5312 7.47195 76.9091C7.21626 77.2841 6.86683 77.5795 6.42365 77.7955C5.98047 78.0114 5.47621 78.1193 4.91087 78.1193ZM12.3299 78.1193C11.8299 78.1193 11.3796 78.0199 10.979 77.821C10.5785 77.6222 10.2575 77.3494 10.016 77.0028C9.7745 76.6562 9.6424 76.2614 9.61967 75.8182H10.6424C10.6822 76.2131 10.8612 76.5398 11.1793 76.7983C11.5004 77.054 11.8839 77.1818 12.3299 77.1818C12.6879 77.1818 13.006 77.098 13.2844 76.9304C13.5657 76.7628 13.7859 76.5327 13.945 76.2401C14.1069 75.9446 14.1879 75.6108 14.1879 75.2386C14.1879 74.858 14.104 74.5185 13.9364 74.2202C13.7717 73.919 13.5444 73.6818 13.2546 73.5085C12.9648 73.3352 12.6339 73.2472 12.2617 73.2443C11.9947 73.2415 11.7205 73.2827 11.4393 73.3679C11.158 73.4503 10.9265 73.5568 10.7447 73.6875L9.75604 73.5682L10.2844 69.2727H14.8185V70.2102H11.1708L10.864 72.7841H10.9151C11.0941 72.642 11.3185 72.5241 11.5884 72.4304C11.8583 72.3366 12.1396 72.2898 12.4322 72.2898C12.9663 72.2898 13.4421 72.4176 13.8597 72.6733C14.2802 72.9261 14.6097 73.2727 14.8484 73.7131C15.0898 74.1534 15.2106 74.6562 15.2106 75.2216C15.2106 75.7784 15.0856 76.2756 14.8356 76.7131C14.5884 77.1477 14.2475 77.4915 13.8129 77.7443C13.3782 77.9943 12.8839 78.1193 12.3299 78.1193Z" fill="#181819" fill-opacity="0.42"/>
<path d="M33 76.5H437" stroke="#E3E3E3" stroke-linecap="round" stroke-dasharray="6 6"/>
<path d="M4.71165 111.119C4.14915 111.119 3.64773 111.023 3.20739 110.83C2.76989 110.636 2.42188 110.368 2.16335 110.024C1.90767 109.678 1.76847 109.276 1.74574 108.818H2.8196C2.84233 109.099 2.93892 109.342 3.10938 109.547C3.27983 109.749 3.50284 109.905 3.77841 110.016C4.05398 110.126 4.35938 110.182 4.6946 110.182C5.0696 110.182 5.40199 110.116 5.69176 109.986C5.98153 109.855 6.20881 109.673 6.37358 109.44C6.53835 109.207 6.62074 108.938 6.62074 108.631C6.62074 108.31 6.54119 108.027 6.3821 107.783C6.22301 107.536 5.99006 107.342 5.68324 107.203C5.37642 107.064 5.00142 106.994 4.55824 106.994H3.85938V106.057H4.55824C4.90483 106.057 5.20881 105.994 5.47017 105.869C5.73438 105.744 5.94034 105.568 6.08807 105.341C6.23864 105.114 6.31392 104.847 6.31392 104.54C6.31392 104.244 6.24858 103.987 6.1179 103.768C5.98722 103.55 5.80256 103.379 5.56392 103.257C5.32813 103.135 5.04972 103.074 4.72869 103.074C4.42756 103.074 4.14347 103.129 3.87642 103.24C3.61222 103.348 3.39631 103.506 3.22869 103.713C3.06108 103.918 2.97017 104.165 2.95597 104.455H1.93324C1.95028 103.997 2.08807 103.597 2.34659 103.253C2.60511 102.906 2.94318 102.636 3.3608 102.443C3.78125 102.25 4.2429 102.153 4.74574 102.153C5.28551 102.153 5.74858 102.263 6.13494 102.482C6.52131 102.697 6.81818 102.983 7.02557 103.338C7.23295 103.693 7.33665 104.077 7.33665 104.489C7.33665 104.98 7.20739 105.399 6.94886 105.746C6.69318 106.092 6.34517 106.332 5.90483 106.466V106.534C6.45597 106.625 6.88636 106.859 7.19602 107.237C7.50568 107.612 7.66051 108.077 7.66051 108.631C7.66051 109.105 7.53125 109.531 7.27273 109.909C7.01705 110.284 6.66761 110.58 6.22443 110.795C5.78125 111.011 5.27699 111.119 4.71165 111.119ZM12.25 111.119C11.608 111.119 11.0611 110.945 10.6094 110.595C10.1577 110.243 9.8125 109.733 9.57386 109.065C9.33523 108.395 9.21591 107.585 9.21591 106.636C9.21591 105.693 9.33523 104.888 9.57386 104.22C9.81534 103.55 10.1619 103.038 10.6136 102.686C11.0682 102.331 11.6136 102.153 12.25 102.153C12.8864 102.153 13.4304 102.331 13.8821 102.686C14.3366 103.038 14.6832 103.55 14.9219 104.22C15.1634 104.888 15.2841 105.693 15.2841 106.636C15.2841 107.585 15.1648 108.395 14.9261 109.065C14.6875 109.733 14.3423 110.243 13.8906 110.595C13.4389 110.945 12.892 111.119 12.25 111.119ZM12.25 110.182C12.8864 110.182 13.3807 109.875 13.733 109.261C14.0852 108.648 14.2614 107.773 14.2614 106.636C14.2614 105.881 14.1804 105.237 14.0185 104.706C13.8594 104.175 13.6293 103.77 13.3281 103.491C13.0298 103.213 12.6705 103.074 12.25 103.074C11.6193 103.074 11.1264 103.385 10.7713 104.007C10.4162 104.626 10.2386 105.503 10.2386 106.636C10.2386 107.392 10.3182 108.034 10.4773 108.562C10.6364 109.091 10.8651 109.493 11.1634 109.768C11.4645 110.044 11.8267 110.182 12.25 110.182Z" fill="#181819" fill-opacity="0.42"/>
<path d="M33 109.5H437" stroke="#E3E3E3" stroke-linecap="round" stroke-dasharray="6 6"/>
<path d="M2.337 144V143.233L5.21768 140.08C5.55575 139.71 5.83416 139.389 6.05291 139.116C6.27166 138.841 6.43359 138.582 6.53871 138.341C6.64666 138.097 6.70064 137.841 6.70064 137.574C6.70064 137.267 6.62678 137.001 6.47905 136.777C6.33416 136.553 6.1353 136.379 5.88246 136.257C5.62962 136.135 5.34553 136.074 5.03018 136.074C4.69496 136.074 4.40234 136.143 4.15234 136.283C3.90518 136.419 3.71342 136.611 3.57706 136.858C3.44354 137.105 3.37678 137.395 3.37678 137.727H2.37109C2.37109 137.216 2.48899 136.767 2.72479 136.381C2.96058 135.994 3.28161 135.693 3.68786 135.477C4.09695 135.261 4.55575 135.153 5.06428 135.153C5.57564 135.153 6.02876 135.261 6.42365 135.477C6.81854 135.693 7.1282 135.984 7.35263 136.351C7.57706 136.717 7.68928 137.125 7.68928 137.574C7.68928 137.895 7.63104 138.209 7.51456 138.516C7.40092 138.82 7.20206 139.159 6.91797 139.534C6.63672 139.906 6.24609 140.361 5.74609 140.898L3.78587 142.994V143.062H7.84268V144H2.337ZM12.3299 144.119C11.8299 144.119 11.3796 144.02 10.979 143.821C10.5785 143.622 10.2575 143.349 10.016 143.003C9.7745 142.656 9.6424 142.261 9.61967 141.818H10.6424C10.6822 142.213 10.8612 142.54 11.1793 142.798C11.5004 143.054 11.8839 143.182 12.3299 143.182C12.6879 143.182 13.006 143.098 13.2844 142.93C13.5657 142.763 13.7859 142.533 13.945 142.24C14.1069 141.945 14.1879 141.611 14.1879 141.239C14.1879 140.858 14.104 140.518 13.9364 140.22C13.7717 139.919 13.5444 139.682 13.2546 139.509C12.9648 139.335 12.6339 139.247 12.2617 139.244C11.9947 139.241 11.7205 139.283 11.4393 139.368C11.158 139.45 10.9265 139.557 10.7447 139.688L9.75604 139.568L10.2844 135.273H14.8185V136.21H11.1708L10.864 138.784H10.9151C11.0941 138.642 11.3185 138.524 11.5884 138.43C11.8583 138.337 12.1396 138.29 12.4322 138.29C12.9663 138.29 13.4421 138.418 13.8597 138.673C14.2802 138.926 14.6097 139.273 14.8484 139.713C15.0898 140.153 15.2106 140.656 15.2106 141.222C15.2106 141.778 15.0856 142.276 14.8356 142.713C14.5884 143.148 14.2475 143.491 13.8129 143.744C13.3782 143.994 12.8839 144.119 12.3299 144.119Z" fill="#181819" fill-opacity="0.42"/>
<path d="M33 142.5H437" stroke="#E3E3E3" stroke-linecap="round" stroke-dasharray="6 6"/>
<path d="M2.13778 177V176.233L5.01847 173.08C5.35653 172.71 5.63494 172.389 5.85369 172.116C6.07244 171.841 6.23438 171.582 6.33949 171.341C6.44744 171.097 6.50142 170.841 6.50142 170.574C6.50142 170.267 6.42756 170.001 6.27983 169.777C6.13494 169.553 5.93608 169.379 5.68324 169.257C5.4304 169.135 5.14631 169.074 4.83097 169.074C4.49574 169.074 4.20312 169.143 3.95312 169.283C3.70597 169.419 3.5142 169.611 3.37784 169.858C3.24432 170.105 3.17756 170.395 3.17756 170.727H2.17188C2.17188 170.216 2.28977 169.767 2.52557 169.381C2.76136 168.994 3.08239 168.693 3.48864 168.477C3.89773 168.261 4.35653 168.153 4.86506 168.153C5.37642 168.153 5.82955 168.261 6.22443 168.477C6.61932 168.693 6.92898 168.984 7.15341 169.351C7.37784 169.717 7.49006 170.125 7.49006 170.574C7.49006 170.895 7.43182 171.209 7.31534 171.516C7.2017 171.82 7.00284 172.159 6.71875 172.534C6.4375 172.906 6.04688 173.361 5.54688 173.898L3.58665 175.994V176.062H7.64347V177H2.13778ZM12.25 177.119C11.608 177.119 11.0611 176.945 10.6094 176.595C10.1577 176.243 9.8125 175.733 9.57386 175.065C9.33523 174.395 9.21591 173.585 9.21591 172.636C9.21591 171.693 9.33523 170.888 9.57386 170.22C9.81534 169.55 10.1619 169.038 10.6136 168.686C11.0682 168.331 11.6136 168.153 12.25 168.153C12.8864 168.153 13.4304 168.331 13.8821 168.686C14.3366 169.038 14.6832 169.55 14.9219 170.22C15.1634 170.888 15.2841 171.693 15.2841 172.636C15.2841 173.585 15.1648 174.395 14.9261 175.065C14.6875 175.733 14.3423 176.243 13.8906 176.595C13.4389 176.945 12.892 177.119 12.25 177.119ZM12.25 176.182C12.8864 176.182 13.3807 175.875 13.733 175.261C14.0852 174.648 14.2614 173.773 14.2614 172.636C14.2614 171.881 14.1804 171.237 14.0185 170.706C13.8594 170.175 13.6293 169.77 13.3281 169.491C13.0298 169.213 12.6705 169.074 12.25 169.074C11.6193 169.074 11.1264 169.385 10.7713 170.007C10.4162 170.626 10.2386 171.503 10.2386 172.636C10.2386 173.392 10.3182 174.034 10.4773 174.562C10.6364 175.091 10.8651 175.493 11.1634 175.768C11.4645 176.044 11.8267 176.182 12.25 176.182Z" fill="#181819" fill-opacity="0.42"/>
<path d="M33 175.5H437" stroke="#E3E3E3" stroke-linecap="round" stroke-dasharray="6 6"/>
<path d="M7.09268 201.273V210H6.03587V202.381H5.98473L3.85405 203.795V202.722L6.03587 201.273H7.09268ZM12.3299 210.119C11.8299 210.119 11.3796 210.02 10.979 209.821C10.5785 209.622 10.2575 209.349 10.016 209.003C9.7745 208.656 9.6424 208.261 9.61967 207.818H10.6424C10.6822 208.213 10.8612 208.54 11.1793 208.798C11.5004 209.054 11.8839 209.182 12.3299 209.182C12.6879 209.182 13.006 209.098 13.2844 208.93C13.5657 208.763 13.7859 208.533 13.945 208.24C14.1069 207.945 14.1879 207.611 14.1879 207.239C14.1879 206.858 14.104 206.518 13.9364 206.22C13.7717 205.919 13.5444 205.682 13.2546 205.509C12.9648 205.335 12.6339 205.247 12.2617 205.244C11.9947 205.241 11.7205 205.283 11.4393 205.368C11.158 205.45 10.9265 205.557 10.7447 205.688L9.75604 205.568L10.2844 201.273H14.8185V202.21H11.1708L10.864 204.784H10.9151C11.0941 204.642 11.3185 204.524 11.5884 204.43C11.8583 204.337 12.1396 204.29 12.4322 204.29C12.9663 204.29 13.4421 204.418 13.8597 204.673C14.2802 204.926 14.6097 205.273 14.8484 205.713C15.0898 206.153 15.2106 206.656 15.2106 207.222C15.2106 207.778 15.0856 208.276 14.8356 208.713C14.5884 209.148 14.2475 209.491 13.8129 209.744C13.3782 209.994 12.8839 210.119 12.3299 210.119Z" fill="#181819" fill-opacity="0.42"/>
<path d="M33 208.5H437" stroke="#E3E3E3" stroke-linecap="round" stroke-dasharray="6 6"/>
<path d="M6.89347 234.273V243H5.83665V235.381H5.78551L3.65483 236.795V235.722L5.83665 234.273H6.89347ZM12.25 243.119C11.608 243.119 11.0611 242.945 10.6094 242.595C10.1577 242.243 9.8125 241.733 9.57386 241.065C9.33523 240.395 9.21591 239.585 9.21591 238.636C9.21591 237.693 9.33523 236.888 9.57386 236.22C9.81534 235.55 10.1619 235.038 10.6136 234.686C11.0682 234.331 11.6136 234.153 12.25 234.153C12.8864 234.153 13.4304 234.331 13.8821 234.686C14.3366 235.038 14.6832 235.55 14.9219 236.22C15.1634 236.888 15.2841 237.693 15.2841 238.636C15.2841 239.585 15.1648 240.395 14.9261 241.065C14.6875 241.733 14.3423 242.243 13.8906 242.595C13.4389 242.945 12.892 243.119 12.25 243.119ZM12.25 242.182C12.8864 242.182 13.3807 241.875 13.733 241.261C14.0852 240.648 14.2614 239.773 14.2614 238.636C14.2614 237.881 14.1804 237.237 14.0185 236.706C13.8594 236.175 13.6293 235.77 13.3281 235.491C13.0298 235.213 12.6705 235.074 12.25 235.074C11.6193 235.074 11.1264 235.385 10.7713 236.007C10.4162 236.626 10.2386 237.503 10.2386 238.636C10.2386 239.392 10.3182 240.034 10.4773 240.562C10.6364 241.091 10.8651 241.493 11.1634 241.768C11.4645 242.044 11.8267 242.182 12.25 242.182Z" fill="#181819" fill-opacity="0.42"/>
<path d="M33 241.5H437" stroke="#E3E3E3" stroke-linecap="round" stroke-dasharray="6 6"/>
<path d="M12.3299 276.119C11.8299 276.119 11.3796 276.02 10.979 275.821C10.5785 275.622 10.2575 275.349 10.016 275.003C9.7745 274.656 9.6424 274.261 9.61967 273.818H10.6424C10.6822 274.213 10.8612 274.54 11.1793 274.798C11.5004 275.054 11.8839 275.182 12.3299 275.182C12.6879 275.182 13.006 275.098 13.2844 274.93C13.5657 274.763 13.7859 274.533 13.945 274.24C14.1069 273.945 14.1879 273.611 14.1879 273.239C14.1879 272.858 14.104 272.518 13.9364 272.22C13.7717 271.919 13.5444 271.682 13.2546 271.509C12.9648 271.335 12.6339 271.247 12.2617 271.244C11.9947 271.241 11.7205 271.283 11.4393 271.368C11.158 271.45 10.9265 271.557 10.7447 271.688L9.75604 271.568L10.2844 267.273H14.8185V268.21H11.1708L10.864 270.784H10.9151C11.0941 270.642 11.3185 270.524 11.5884 270.43C11.8583 270.337 12.1396 270.29 12.4322 270.29C12.9663 270.29 13.4421 270.418 13.8597 270.673C14.2802 270.926 14.6097 271.273 14.8484 271.713C15.0898 272.153 15.2106 272.656 15.2106 273.222C15.2106 273.778 15.0856 274.276 14.8356 274.713C14.5884 275.148 14.2475 275.491 13.8129 275.744C13.3782 275.994 12.8839 276.119 12.3299 276.119Z" fill="#181819" fill-opacity="0.42"/>
<path d="M33 274.5H437" stroke="#E3E3E3" stroke-linecap="round" stroke-dasharray="6 6"/>
<path d="M12.25 309.119C11.608 309.119 11.0611 308.945 10.6094 308.595C10.1577 308.243 9.8125 307.733 9.57386 307.065C9.33523 306.395 9.21591 305.585 9.21591 304.636C9.21591 303.693 9.33523 302.888 9.57386 302.22C9.81534 301.55 10.1619 301.038 10.6136 300.686C11.0682 300.331 11.6136 300.153 12.25 300.153C12.8864 300.153 13.4304 300.331 13.8821 300.686C14.3366 301.038 14.6832 301.55 14.9219 302.22C15.1634 302.888 15.2841 303.693 15.2841 304.636C15.2841 305.585 15.1648 306.395 14.9261 307.065C14.6875 307.733 14.3423 308.243 13.8906 308.595C13.4389 308.945 12.892 309.119 12.25 309.119ZM12.25 308.182C12.8864 308.182 13.3807 307.875 13.733 307.261C14.0852 306.648 14.2614 305.773 14.2614 304.636C14.2614 303.881 14.1804 303.237 14.0185 302.706C13.8594 302.175 13.6293 301.77 13.3281 301.491C13.0298 301.213 12.6705 301.074 12.25 301.074C11.6193 301.074 11.1264 301.385 10.7713 302.007C10.4162 302.626 10.2386 303.503 10.2386 304.636C10.2386 305.392 10.3182 306.034 10.4773 306.562C10.6364 307.091 10.8651 307.493 11.1634 307.768C11.4645 308.044 11.8267 308.182 12.25 308.182Z" fill="#181819" fill-opacity="0.42"/>
<path d="M33 307.5H437" stroke="#E3E3E3" stroke-linecap="round" stroke-dasharray="6 6"/>
<path d="M60.2189 228.273V237H58.8979V229.594H58.8468L56.7587 230.957V229.696L58.9363 228.273H60.2189ZM65.6181 237.145C64.9448 237.142 64.3695 236.964 63.8922 236.612C63.415 236.26 63.0499 235.747 62.7971 235.074C62.5442 234.401 62.4178 233.589 62.4178 232.641C62.4178 231.695 62.5442 230.886 62.7971 230.216C63.0527 229.545 63.4192 229.034 63.8965 228.682C64.3766 228.33 64.9505 228.153 65.6181 228.153C66.2857 228.153 66.8581 228.331 67.3354 228.686C67.8127 229.038 68.1777 229.55 68.4306 230.22C68.6863 230.888 68.8141 231.695 68.8141 232.641C68.8141 233.592 68.6877 234.405 68.4348 235.078C68.182 235.749 67.8169 236.261 67.3397 236.616C66.8624 236.969 66.2885 237.145 65.6181 237.145ZM65.6181 236.007C66.209 236.007 66.6706 235.719 67.003 235.142C67.3382 234.565 67.5059 233.732 67.5059 232.641C67.5059 231.916 67.4292 231.304 67.2757 230.804C67.1252 230.301 66.9078 229.92 66.6238 229.662C66.3425 229.401 66.0073 229.27 65.6181 229.27C65.03 229.27 64.5684 229.56 64.2331 230.139C63.8979 230.719 63.7289 231.553 63.726 232.641C63.726 233.368 63.8013 233.983 63.9519 234.486C64.1053 234.986 64.3226 235.365 64.6039 235.624C64.8851 235.879 65.2232 236.007 65.6181 236.007ZM73.1905 229.406V228.273H79.9448V229.406H77.2218V237H75.9093V229.406H73.1905ZM83.1429 237.132C82.5293 237.132 81.9938 236.991 81.5364 236.71C81.079 236.429 80.7239 236.036 80.4711 235.53C80.2182 235.024 80.0918 234.433 80.0918 233.757C80.0918 233.078 80.2182 232.484 80.4711 231.976C80.7239 231.467 81.079 231.072 81.5364 230.791C81.9938 230.51 82.5293 230.369 83.1429 230.369C83.7566 230.369 84.2921 230.51 84.7495 230.791C85.2069 231.072 85.562 231.467 85.8148 231.976C86.0676 232.484 86.1941 233.078 86.1941 233.757C86.1941 234.433 86.0676 235.024 85.8148 235.53C85.562 236.036 85.2069 236.429 84.7495 236.71C84.2921 236.991 83.7566 237.132 83.1429 237.132ZM83.1472 236.062C83.5449 236.062 83.8745 235.957 84.1358 235.747C84.3972 235.537 84.5904 235.257 84.7154 234.908C84.8432 234.558 84.9071 234.173 84.9071 233.753C84.9071 233.335 84.8432 232.952 84.7154 232.602C84.5904 232.25 84.3972 231.967 84.1358 231.754C83.8745 231.541 83.5449 231.435 83.1472 231.435C82.7466 231.435 82.4142 231.541 82.15 231.754C81.8887 231.967 81.6941 232.25 81.5662 232.602C81.4412 232.952 81.3787 233.335 81.3787 233.753C81.3787 234.173 81.4412 234.558 81.5662 234.908C81.6941 235.257 81.8887 235.537 82.15 235.747C82.4142 235.957 82.7466 236.062 83.1472 236.062ZM88.8904 233.114V237H87.6163V230.455H88.8393V231.52H88.9203C89.0708 231.173 89.3066 230.895 89.6277 230.685C89.9515 230.474 90.3592 230.369 90.8507 230.369C91.2967 230.369 91.6873 230.463 92.0225 230.651C92.3578 230.835 92.6177 231.111 92.8024 231.477C92.987 231.844 93.0794 232.297 93.0794 232.837V237H91.8052V232.99C91.8052 232.516 91.6816 232.145 91.4345 231.878C91.1873 231.608 90.8478 231.473 90.416 231.473C90.1206 231.473 89.8578 231.537 89.6277 231.665C89.4004 231.793 89.22 231.98 89.0865 232.227C88.9558 232.472 88.8904 232.767 88.8904 233.114Z" fill="#314F96"/>
<rect x="51" y="242" width="48" height="66" rx="6" fill="#314F96"/>
<path d="M141.371 195.273V204H140.05V196.594H139.999L137.911 197.957V196.696L140.089 195.273H141.371ZM146.613 204.119C146.079 204.119 145.599 204.017 145.172 203.812C144.749 203.605 144.411 203.321 144.158 202.96C143.905 202.599 143.77 202.188 143.753 201.724H145.032C145.063 202.099 145.229 202.408 145.53 202.649C145.831 202.891 146.192 203.011 146.613 203.011C146.948 203.011 147.245 202.935 147.503 202.781C147.765 202.625 147.969 202.411 148.117 202.138C148.268 201.865 148.343 201.554 148.343 201.205C148.343 200.849 148.266 200.533 148.113 200.254C147.959 199.976 147.748 199.757 147.478 199.598C147.211 199.439 146.904 199.358 146.557 199.355C146.293 199.355 146.028 199.401 145.76 199.491C145.493 199.582 145.278 199.702 145.113 199.849L143.907 199.67L144.397 195.273H149.195V196.402H145.492L145.215 198.844H145.266C145.437 198.679 145.662 198.541 145.944 198.43C146.228 198.32 146.532 198.264 146.856 198.264C147.387 198.264 147.86 198.391 148.275 198.643C148.692 198.896 149.02 199.241 149.259 199.679C149.501 200.114 149.62 200.614 149.617 201.179C149.62 201.744 149.492 202.249 149.233 202.692C148.978 203.135 148.623 203.484 148.168 203.74C147.716 203.993 147.198 204.119 146.613 204.119ZM154.038 196.406V195.273H160.792V196.406H158.069V204H156.757V196.406H154.038ZM163.991 204.132C163.377 204.132 162.841 203.991 162.384 203.71C161.927 203.429 161.572 203.036 161.319 202.53C161.066 202.024 160.939 201.433 160.939 200.757C160.939 200.078 161.066 199.484 161.319 198.976C161.572 198.467 161.927 198.072 162.384 197.791C162.841 197.51 163.377 197.369 163.991 197.369C164.604 197.369 165.14 197.51 165.597 197.791C166.055 198.072 166.41 198.467 166.662 198.976C166.915 199.484 167.042 200.078 167.042 200.757C167.042 201.433 166.915 202.024 166.662 202.53C166.41 203.036 166.055 203.429 165.597 203.71C165.14 203.991 164.604 204.132 163.991 204.132ZM163.995 203.062C164.393 203.062 164.722 202.957 164.983 202.747C165.245 202.537 165.438 202.257 165.563 201.908C165.691 201.558 165.755 201.173 165.755 200.753C165.755 200.335 165.691 199.952 165.563 199.602C165.438 199.25 165.245 198.967 164.983 198.754C164.722 198.541 164.393 198.435 163.995 198.435C163.594 198.435 163.262 198.541 162.998 198.754C162.736 198.967 162.542 199.25 162.414 199.602C162.289 199.952 162.226 200.335 162.226 200.753C162.226 201.173 162.289 201.558 162.414 201.908C162.542 202.257 162.736 202.537 162.998 202.747C163.262 202.957 163.594 203.062 163.995 203.062ZM169.738 200.114V204H168.464V197.455H169.687V198.52H169.768C169.919 198.173 170.154 197.895 170.475 197.685C170.799 197.474 171.207 197.369 171.698 197.369C172.144 197.369 172.535 197.463 172.87 197.651C173.205 197.835 173.465 198.111 173.65 198.477C173.835 198.844 173.927 199.297 173.927 199.837V204H172.653V199.99C172.653 199.516 172.529 199.145 172.282 198.878C172.035 198.608 171.695 198.473 171.264 198.473C170.968 198.473 170.705 198.537 170.475 198.665C170.248 198.793 170.068 198.98 169.934 199.227C169.803 199.472 169.738 199.767 169.738 200.114Z" fill="#314F96"/>
<rect x="132" y="209" width="48" height="99" rx="6" fill="#314F96"/>
<path d="M217.635 37.2955V36.2301L221.406 30.2727H222.246V31.8409H221.713L219.015 36.1108V36.179H224.184V37.2955H217.635ZM221.773 39V36.9716L221.781 36.4858V30.2727H223.03V39H221.773ZM228.708 39.1449C228.035 39.142 227.459 38.9645 226.982 38.6122C226.505 38.2599 226.14 37.7472 225.887 37.0739C225.634 36.4006 225.508 35.5895 225.508 34.6406C225.508 33.6946 225.634 32.8864 225.887 32.2159C226.143 31.5455 226.509 31.0341 226.986 30.6818C227.466 30.3295 228.04 30.1534 228.708 30.1534C229.376 30.1534 229.948 30.331 230.425 30.6861C230.903 31.0384 231.268 31.5497 231.52 32.2202C231.776 32.8878 231.904 33.6946 231.904 34.6406C231.904 35.5923 231.778 36.4048 231.525 37.0781C231.272 37.7486 230.907 38.2614 230.43 38.6165C229.952 38.9688 229.378 39.1449 228.708 39.1449ZM228.708 38.0071C229.299 38.0071 229.76 37.7188 230.093 37.142C230.428 36.5653 230.596 35.7315 230.596 34.6406C230.596 33.9162 230.519 33.304 230.366 32.804C230.215 32.3011 229.998 31.9205 229.714 31.6619C229.432 31.4006 229.097 31.2699 228.708 31.2699C228.12 31.2699 227.658 31.5597 227.323 32.1392C226.988 32.7187 226.819 33.5526 226.816 34.6406C226.816 35.3679 226.891 35.983 227.042 36.4858C227.195 36.9858 227.412 37.3651 227.694 37.6236C227.975 37.8793 228.313 38.0071 228.708 38.0071ZM236.28 31.4062V30.2727H243.035V31.4062H240.312V39H238.999V31.4062H236.28ZM246.233 39.1321C245.619 39.1321 245.084 38.9915 244.626 38.7102C244.169 38.429 243.814 38.0355 243.561 37.5298C243.308 37.0241 243.182 36.4332 243.182 35.7571C243.182 35.0781 243.308 34.4844 243.561 33.9759C243.814 33.4673 244.169 33.0724 244.626 32.7912C245.084 32.5099 245.619 32.3693 246.233 32.3693C246.846 32.3693 247.382 32.5099 247.839 32.7912C248.297 33.0724 248.652 33.4673 248.905 33.9759C249.157 34.4844 249.284 35.0781 249.284 35.7571C249.284 36.4332 249.157 37.0241 248.905 37.5298C248.652 38.0355 248.297 38.429 247.839 38.7102C247.382 38.9915 246.846 39.1321 246.233 39.1321ZM246.237 38.0625C246.635 38.0625 246.964 37.9574 247.226 37.7472C247.487 37.5369 247.68 37.2571 247.805 36.9077C247.933 36.5582 247.997 36.1733 247.997 35.7528C247.997 35.3352 247.933 34.9517 247.805 34.6023C247.68 34.25 247.487 33.9673 247.226 33.7543C246.964 33.5412 246.635 33.4347 246.237 33.4347C245.836 33.4347 245.504 33.5412 245.24 33.7543C244.979 33.9673 244.784 34.25 244.656 34.6023C244.531 34.9517 244.469 35.3352 244.469 35.7528C244.469 36.1733 244.531 36.5582 244.656 36.9077C244.784 37.2571 244.979 37.5369 245.24 37.7472C245.504 37.9574 245.836 38.0625 246.237 38.0625ZM251.98 35.1136V39H250.706V32.4545H251.929V33.5199H252.01C252.161 33.1733 252.396 32.8949 252.718 32.6847C253.041 32.4744 253.449 32.3693 253.941 32.3693C254.387 32.3693 254.777 32.4631 255.112 32.6506C255.448 32.8352 255.708 33.1108 255.892 33.4773C256.077 33.8437 256.169 34.2969 256.169 34.8366V39H254.895V34.9901C254.895 34.5156 254.771 34.1449 254.524 33.8778C254.277 33.608 253.938 33.473 253.506 33.473C253.21 33.473 252.948 33.5369 252.718 33.6648C252.49 33.7926 252.31 33.9801 252.176 34.2273C252.046 34.4716 251.98 34.767 251.98 35.1136Z" fill="#314F96"/>
<rect x="213" y="44" width="48" height="264" rx="6" fill="#314F96"/>
<path d="M298.064 171V170.045L301.017 166.986C301.333 166.653 301.593 166.362 301.797 166.112C302.004 165.859 302.159 165.619 302.262 165.392C302.364 165.165 302.415 164.923 302.415 164.668C302.415 164.378 302.347 164.128 302.21 163.918C302.074 163.705 301.888 163.541 301.652 163.428C301.416 163.311 301.151 163.253 300.855 163.253C300.543 163.253 300.27 163.317 300.037 163.445C299.804 163.572 299.625 163.753 299.5 163.986C299.375 164.219 299.313 164.491 299.313 164.804H298.056C298.056 164.273 298.178 163.808 298.422 163.411C298.666 163.013 299.002 162.705 299.428 162.486C299.854 162.264 300.338 162.153 300.881 162.153C301.429 162.153 301.912 162.263 302.33 162.482C302.75 162.697 303.078 162.993 303.314 163.368C303.55 163.74 303.668 164.161 303.668 164.629C303.668 164.953 303.607 165.27 303.485 165.58C303.365 165.889 303.156 166.234 302.858 166.615C302.56 166.993 302.145 167.452 301.614 167.991L299.879 169.807V169.871H303.808V171H298.064ZM308.462 171.145C307.789 171.142 307.213 170.964 306.736 170.612C306.259 170.26 305.894 169.747 305.641 169.074C305.388 168.401 305.262 167.589 305.262 166.641C305.262 165.695 305.388 164.886 305.641 164.216C305.896 163.545 306.263 163.034 306.74 162.682C307.22 162.33 307.794 162.153 308.462 162.153C309.129 162.153 309.702 162.331 310.179 162.686C310.656 163.038 311.021 163.55 311.274 164.22C311.53 164.888 311.658 165.695 311.658 166.641C311.658 167.592 311.531 168.405 311.279 169.078C311.026 169.749 310.661 170.261 310.183 170.616C309.706 170.969 309.132 171.145 308.462 171.145ZM308.462 170.007C309.053 170.007 309.514 169.719 309.847 169.142C310.182 168.565 310.35 167.732 310.35 166.641C310.35 165.916 310.273 165.304 310.119 164.804C309.969 164.301 309.752 163.92 309.468 163.662C309.186 163.401 308.851 163.27 308.462 163.27C307.874 163.27 307.412 163.56 307.077 164.139C306.742 164.719 306.573 165.553 306.57 166.641C306.57 167.368 306.645 167.983 306.796 168.486C306.949 168.986 307.166 169.365 307.448 169.624C307.729 169.879 308.067 170.007 308.462 170.007ZM316.034 163.406V162.273H322.789V163.406H320.066V171H318.753V163.406H316.034ZM325.987 171.132C325.373 171.132 324.838 170.991 324.38 170.71C323.923 170.429 323.568 170.036 323.315 169.53C323.062 169.024 322.936 168.433 322.936 167.757C322.936 167.078 323.062 166.484 323.315 165.976C323.568 165.467 323.923 165.072 324.38 164.791C324.838 164.51 325.373 164.369 325.987 164.369C326.6 164.369 327.136 164.51 327.593 164.791C328.051 165.072 328.406 165.467 328.659 165.976C328.911 166.484 329.038 167.078 329.038 167.757C329.038 168.433 328.911 169.024 328.659 169.53C328.406 170.036 328.051 170.429 327.593 170.71C327.136 170.991 326.6 171.132 325.987 171.132ZM325.991 170.062C326.389 170.062 326.718 169.957 326.98 169.747C327.241 169.537 327.434 169.257 327.559 168.908C327.687 168.558 327.751 168.173 327.751 167.753C327.751 167.335 327.687 166.952 327.559 166.602C327.434 166.25 327.241 165.967 326.98 165.754C326.718 165.541 326.389 165.435 325.991 165.435C325.59 165.435 325.258 165.541 324.994 165.754C324.732 165.967 324.538 166.25 324.41 166.602C324.285 166.952 324.222 167.335 324.222 167.753C324.222 168.173 324.285 168.558 324.41 168.908C324.538 169.257 324.732 169.537 324.994 169.747C325.258 169.957 325.59 170.062 325.991 170.062ZM331.734 167.114V171H330.46V164.455H331.683V165.52H331.764C331.915 165.173 332.15 164.895 332.471 164.685C332.795 164.474 333.203 164.369 333.694 164.369C334.14 164.369 334.531 164.463 334.866 164.651C335.202 164.835 335.461 165.111 335.646 165.477C335.831 165.844 335.923 166.297 335.923 166.837V171H334.649V166.99C334.649 166.516 334.525 166.145 334.278 165.878C334.031 165.608 333.692 165.473 333.26 165.473C332.964 165.473 332.702 165.537 332.471 165.665C332.244 165.793 332.064 165.98 331.93 166.227C331.8 166.472 331.734 166.767 331.734 167.114Z" fill="#314F96"/>
<rect x="293" y="176" width="48" height="132" rx="6" fill="#314F96"/>
<path d="M379.216 138V137.045L382.17 133.986C382.485 133.653 382.745 133.362 382.949 133.112C383.157 132.859 383.312 132.619 383.414 132.392C383.516 132.165 383.567 131.923 383.567 131.668C383.567 131.378 383.499 131.128 383.363 130.918C383.226 130.705 383.04 130.541 382.805 130.428C382.569 130.311 382.303 130.253 382.008 130.253C381.695 130.253 381.422 130.317 381.189 130.445C380.956 130.572 380.778 130.753 380.653 130.986C380.528 131.219 380.465 131.491 380.465 131.804H379.208C379.208 131.273 379.33 130.808 379.574 130.411C379.819 130.013 380.154 129.705 380.58 129.486C381.006 129.264 381.491 129.153 382.033 129.153C382.581 129.153 383.064 129.263 383.482 129.482C383.903 129.697 384.231 129.993 384.466 130.368C384.702 130.74 384.82 131.161 384.82 131.629C384.82 131.953 384.759 132.27 384.637 132.58C384.518 132.889 384.309 133.234 384.01 133.615C383.712 133.993 383.297 134.452 382.766 134.991L381.032 136.807V136.871H384.961V138H379.216ZM389.456 138.119C388.922 138.119 388.442 138.017 388.016 137.812C387.593 137.605 387.255 137.321 387.002 136.96C386.749 136.599 386.614 136.188 386.597 135.724H387.876C387.907 136.099 388.073 136.408 388.374 136.649C388.675 136.891 389.036 137.011 389.456 137.011C389.792 137.011 390.089 136.935 390.347 136.781C390.608 136.625 390.813 136.411 390.961 136.138C391.111 135.865 391.187 135.554 391.187 135.205C391.187 134.849 391.11 134.533 390.956 134.254C390.803 133.976 390.591 133.757 390.322 133.598C390.055 133.439 389.748 133.358 389.401 133.355C389.137 133.355 388.871 133.401 388.604 133.491C388.337 133.582 388.121 133.702 387.956 133.849L386.751 133.67L387.241 129.273H392.039V130.402H388.336L388.059 132.844H388.11C388.28 132.679 388.506 132.541 388.787 132.43C389.072 132.32 389.376 132.264 389.699 132.264C390.231 132.264 390.704 132.391 391.118 132.643C391.536 132.896 391.864 133.241 392.103 133.679C392.344 134.114 392.464 134.614 392.461 135.179C392.464 135.744 392.336 136.249 392.077 136.692C391.822 137.135 391.466 137.484 391.012 137.74C390.56 137.993 390.042 138.119 389.456 138.119ZM396.882 130.406V129.273H403.636V130.406H400.913V138H399.601V130.406H396.882ZM406.834 138.132C406.221 138.132 405.685 137.991 405.228 137.71C404.77 137.429 404.415 137.036 404.162 136.53C403.91 136.024 403.783 135.433 403.783 134.757C403.783 134.078 403.91 133.484 404.162 132.976C404.415 132.467 404.77 132.072 405.228 131.791C405.685 131.51 406.221 131.369 406.834 131.369C407.448 131.369 407.983 131.51 408.441 131.791C408.898 132.072 409.253 132.467 409.506 132.976C409.759 133.484 409.885 134.078 409.885 134.757C409.885 135.433 409.759 136.024 409.506 136.53C409.253 137.036 408.898 137.429 408.441 137.71C407.983 137.991 407.448 138.132 406.834 138.132ZM406.839 137.062C407.236 137.062 407.566 136.957 407.827 136.747C408.089 136.537 408.282 136.257 408.407 135.908C408.535 135.558 408.599 135.173 408.599 134.753C408.599 134.335 408.535 133.952 408.407 133.602C408.282 133.25 408.089 132.967 407.827 132.754C407.566 132.541 407.236 132.435 406.839 132.435C406.438 132.435 406.106 132.541 405.841 132.754C405.58 132.967 405.385 133.25 405.258 133.602C405.133 133.952 405.07 134.335 405.07 134.753C405.07 135.173 405.133 135.558 405.258 135.908C405.385 136.257 405.58 136.537 405.841 136.747C406.106 136.957 406.438 137.062 406.839 137.062ZM412.582 134.114V138H411.308V131.455H412.531V132.52H412.612C412.762 132.173 412.998 131.895 413.319 131.685C413.643 131.474 414.051 131.369 414.542 131.369C414.988 131.369 415.379 131.463 415.714 131.651C416.049 131.835 416.309 132.111 416.494 132.477C416.678 132.844 416.771 133.297 416.771 133.837V138H415.497V133.99C415.497 133.516 415.373 133.145 415.126 132.878C414.879 132.608 414.539 132.473 414.107 132.473C413.812 132.473 413.549 132.537 413.319 132.665C413.092 132.793 412.911 132.98 412.778 133.227C412.647 133.472 412.582 133.767 412.582 134.114Z" fill="#314F96"/>
<rect x="374" y="143" width="48" height="165" rx="6" fill="#314F96"/>
</svg>
