<svg width="112" height="112" viewBox="0 0 112 112" fill="none" xmlns="http://www.w3.org/2000/svg">
<path fill-rule="evenodd" clip-rule="evenodd" d="M56.6494 0V55.3041L16.3705 95.652C26.5093 105.754 40.4993 112 55.9494 112C86.9051 112 112 86.927 112 55.9979C112 25.3022 87.2826 0.374625 56.6494 0Z" fill="#2604C6"/>
<path fill-rule="evenodd" clip-rule="evenodd" d="M57.2175 0.0158051C56.8294 0.00788535 56.4404 0.00390625 56.0504 0.00390625C25.0946 0.00390625 0 25.0769 0 56.0061C0 70.858 5.78642 84.3595 15.2296 94.383L17.048 95.6739L57.2175 55.5391V0.0158051Z" fill="#E98A6D"/>
<path d="M69.172 62.436C69.092 62.1 68.952 61.848 68.752 61.68C68.56 61.512 68.28 61.428 67.912 61.428C67.36 61.428 66.952 61.652 66.688 62.1C66.432 62.54 66.3 63.26 66.292 64.26C66.484 63.94 66.764 63.692 67.132 63.516C67.5 63.332 67.9 63.24 68.332 63.24C68.852 63.24 69.312 63.352 69.712 63.576C70.112 63.8 70.424 64.128 70.648 64.56C70.872 64.984 70.984 65.496 70.984 66.096C70.984 66.664 70.868 67.172 70.636 67.62C70.412 68.06 70.08 68.404 69.64 68.652C69.2 68.9 68.676 69.024 68.068 69.024C67.236 69.024 66.58 68.84 66.1 68.472C65.628 68.104 65.296 67.592 65.104 66.936C64.92 66.272 64.828 65.456 64.828 64.488C64.828 63.024 65.08 61.92 65.584 61.176C66.088 60.424 66.884 60.048 67.972 60.048C68.812 60.048 69.464 60.276 69.928 60.732C70.392 61.188 70.66 61.756 70.732 62.436H69.172ZM67.948 64.62C67.524 64.62 67.168 64.744 66.88 64.992C66.592 65.24 66.448 65.6 66.448 66.072C66.448 66.544 66.58 66.916 66.844 67.188C67.116 67.46 67.496 67.596 67.984 67.596C68.416 67.596 68.756 67.464 69.004 67.2C69.26 66.936 69.388 66.58 69.388 66.132C69.388 65.668 69.264 65.3 69.016 65.028C68.776 64.756 68.42 64.62 67.948 64.62ZM72.3118 64.512C72.3118 63.128 72.5598 62.044 73.0558 61.26C73.5598 60.476 74.3918 60.084 75.5518 60.084C76.7118 60.084 77.5398 60.476 78.0358 61.26C78.5398 62.044 78.7918 63.128 78.7918 64.512C78.7918 65.904 78.5398 66.996 78.0358 67.788C77.5398 68.58 76.7118 68.976 75.5518 68.976C74.3918 68.976 73.5598 68.58 73.0558 67.788C72.5598 66.996 72.3118 65.904 72.3118 64.512ZM77.1358 64.512C77.1358 63.92 77.0958 63.424 77.0158 63.024C76.9438 62.616 76.7918 62.284 76.5598 62.028C76.3358 61.772 75.9998 61.644 75.5518 61.644C75.1038 61.644 74.7638 61.772 74.5318 62.028C74.3078 62.284 74.1558 62.616 74.0758 63.024C74.0038 63.424 73.9678 63.92 73.9678 64.512C73.9678 65.12 74.0038 65.632 74.0758 66.048C74.1478 66.456 74.2998 66.788 74.5318 67.044C74.7638 67.292 75.1038 67.416 75.5518 67.416C75.9998 67.416 76.3398 67.292 76.5718 67.044C76.8038 66.788 76.9558 66.456 77.0278 66.048C77.0998 65.632 77.1358 65.12 77.1358 64.512ZM79.8776 62.4C79.8776 61.792 80.0536 61.316 80.4056 60.972C80.7656 60.628 81.2256 60.456 81.7856 60.456C82.3456 60.456 82.8016 60.628 83.1536 60.972C83.5136 61.316 83.6936 61.792 83.6936 62.4C83.6936 63.016 83.5136 63.496 83.1536 63.84C82.8016 64.184 82.3456 64.356 81.7856 64.356C81.2256 64.356 80.7656 64.184 80.4056 63.84C80.0536 63.496 79.8776 63.016 79.8776 62.4ZM87.5816 60.6L82.8656 69H81.2336L85.9376 60.6H87.5816ZM81.7736 61.464C81.3336 61.464 81.1136 61.776 81.1136 62.4C81.1136 63.032 81.3336 63.348 81.7736 63.348C81.9896 63.348 82.1576 63.272 82.2776 63.12C82.3976 62.96 82.4576 62.72 82.4576 62.4C82.4576 61.776 82.2296 61.464 81.7736 61.464ZM85.1456 67.188C85.1456 66.572 85.3216 66.096 85.6736 65.76C86.0336 65.416 86.4936 65.244 87.0536 65.244C87.6136 65.244 88.0656 65.416 88.4096 65.76C88.7616 66.096 88.9376 66.572 88.9376 67.188C88.9376 67.804 88.7616 68.284 88.4096 68.628C88.0656 68.972 87.6136 69.144 87.0536 69.144C86.4856 69.144 86.0256 68.972 85.6736 68.628C85.3216 68.284 85.1456 67.804 85.1456 67.188ZM87.0416 66.252C86.5856 66.252 86.3576 66.564 86.3576 67.188C86.3576 67.82 86.5856 68.136 87.0416 68.136C87.4896 68.136 87.7136 67.82 87.7136 67.188C87.7136 66.564 87.4896 66.252 87.0416 66.252Z" fill="white"/>
<path d="M16.564 48.296V46.976L20.488 41.36H22.444V46.832H23.5V48.296H22.444V50H20.764V48.296H16.564ZM20.872 43.16L18.412 46.832H20.872V43.16ZM24.5696 45.512C24.5696 44.128 24.8176 43.044 25.3136 42.26C25.8176 41.476 26.6496 41.084 27.8096 41.084C28.9696 41.084 29.7976 41.476 30.2936 42.26C30.7976 43.044 31.0496 44.128 31.0496 45.512C31.0496 46.904 30.7976 47.996 30.2936 48.788C29.7976 49.58 28.9696 49.976 27.8096 49.976C26.6496 49.976 25.8176 49.58 25.3136 48.788C24.8176 47.996 24.5696 46.904 24.5696 45.512ZM29.3936 45.512C29.3936 44.92 29.3536 44.424 29.2736 44.024C29.2016 43.616 29.0496 43.284 28.8176 43.028C28.5936 42.772 28.2576 42.644 27.8096 42.644C27.3616 42.644 27.0216 42.772 26.7896 43.028C26.5656 43.284 26.4136 43.616 26.3336 44.024C26.2616 44.424 26.2256 44.92 26.2256 45.512C26.2256 46.12 26.2616 46.632 26.3336 47.048C26.4056 47.456 26.5576 47.788 26.7896 48.044C27.0216 48.292 27.3616 48.416 27.8096 48.416C28.2576 48.416 28.5976 48.292 28.8296 48.044C29.0616 47.788 29.2136 47.456 29.2856 47.048C29.3576 46.632 29.3936 46.12 29.3936 45.512ZM32.1354 43.4C32.1354 42.792 32.3114 42.316 32.6634 41.972C33.0234 41.628 33.4834 41.456 34.0434 41.456C34.6034 41.456 35.0594 41.628 35.4114 41.972C35.7714 42.316 35.9514 42.792 35.9514 43.4C35.9514 44.016 35.7714 44.496 35.4114 44.84C35.0594 45.184 34.6034 45.356 34.0434 45.356C33.4834 45.356 33.0234 45.184 32.6634 44.84C32.3114 44.496 32.1354 44.016 32.1354 43.4ZM39.8394 41.6L35.1234 50H33.4914L38.1954 41.6H39.8394ZM34.0314 42.464C33.5914 42.464 33.3714 42.776 33.3714 43.4C33.3714 44.032 33.5914 44.348 34.0314 44.348C34.2474 44.348 34.4154 44.272 34.5354 44.12C34.6554 43.96 34.7154 43.72 34.7154 43.4C34.7154 42.776 34.4874 42.464 34.0314 42.464ZM37.4034 48.188C37.4034 47.572 37.5794 47.096 37.9314 46.76C38.2914 46.416 38.7514 46.244 39.3114 46.244C39.8714 46.244 40.3234 46.416 40.6674 46.76C41.0194 47.096 41.1954 47.572 41.1954 48.188C41.1954 48.804 41.0194 49.284 40.6674 49.628C40.3234 49.972 39.8714 50.144 39.3114 50.144C38.7434 50.144 38.2834 49.972 37.9314 49.628C37.5794 49.284 37.4034 48.804 37.4034 48.188ZM39.2994 47.252C38.8434 47.252 38.6154 47.564 38.6154 48.188C38.6154 48.82 38.8434 49.136 39.2994 49.136C39.7474 49.136 39.9714 48.82 39.9714 48.188C39.9714 47.564 39.7474 47.252 39.2994 47.252Z" fill="white"/>
</svg>
