<svg width="948" height="511" viewBox="0 0 948 511" fill="none" xmlns="http://www.w3.org/2000/svg">
<path d="M0.649858 500.21V499.273H7.19531V500.21H4.45099V508H3.39418V500.21H0.649858ZM10.3999 508.136C9.80895 508.136 9.29048 507.996 8.84446 507.714C8.40128 507.433 8.05469 507.04 7.80469 506.534C7.55753 506.028 7.43395 505.437 7.43395 504.761C7.43395 504.08 7.55753 503.484 7.80469 502.976C8.05469 502.467 8.40128 502.072 8.84446 501.791C9.29048 501.51 9.80895 501.369 10.3999 501.369C10.9908 501.369 11.5078 501.51 11.951 501.791C12.397 502.072 12.7436 502.467 12.9908 502.976C13.2408 503.484 13.3658 504.08 13.3658 504.761C13.3658 505.437 13.2408 506.028 12.9908 506.534C12.7436 507.04 12.397 507.433 11.951 507.714C11.5078 507.996 10.9908 508.136 10.3999 508.136ZM10.3999 507.233C10.8487 507.233 11.218 507.118 11.5078 506.888C11.7976 506.658 12.0121 506.355 12.1513 505.98C12.2905 505.605 12.3601 505.199 12.3601 504.761C12.3601 504.324 12.2905 503.916 12.1513 503.538C12.0121 503.161 11.7976 502.855 11.5078 502.622C11.218 502.389 10.8487 502.273 10.3999 502.273C9.95099 502.273 9.58168 502.389 9.2919 502.622C9.00213 502.855 8.78764 503.161 8.64844 503.538C8.50923 503.916 8.43963 504.324 8.43963 504.761C8.43963 505.199 8.50923 505.605 8.64844 505.98C8.78764 506.355 9.00213 506.658 9.2919 506.888C9.58168 507.118 9.95099 507.233 10.3999 507.233ZM15.9066 504.062V508H14.9009V501.455H15.8725V502.477H15.9577C16.1112 502.145 16.3441 501.878 16.6566 501.676C16.9691 501.472 17.3725 501.369 17.8668 501.369C18.31 501.369 18.6978 501.46 19.0302 501.642C19.3626 501.821 19.6211 502.094 19.8058 502.46C19.9904 502.824 20.0827 503.284 20.0827 503.841V508H19.0771V503.909C19.0771 503.395 18.9435 502.994 18.6765 502.707C18.4094 502.418 18.043 502.273 17.5771 502.273C17.256 502.273 16.9691 502.342 16.7163 502.482C16.4663 502.621 16.2688 502.824 16.1239 503.091C15.979 503.358 15.9066 503.682 15.9066 504.062Z" fill="#181819" fill-opacity="0.4"/>
<path d="M113 508.119C112.358 508.119 111.811 507.945 111.359 507.595C110.908 507.243 110.563 506.733 110.324 506.065C110.085 505.395 109.966 504.585 109.966 503.636C109.966 502.693 110.085 501.888 110.324 501.22C110.565 500.55 110.912 500.038 111.364 499.686C111.818 499.331 112.364 499.153 113 499.153C113.636 499.153 114.18 499.331 114.632 499.686C115.087 500.038 115.433 500.55 115.672 501.22C115.913 501.888 116.034 502.693 116.034 503.636C116.034 504.585 115.915 505.395 115.676 506.065C115.438 506.733 115.092 507.243 114.641 507.595C114.189 507.945 113.642 508.119 113 508.119ZM113 507.182C113.636 507.182 114.131 506.875 114.483 506.261C114.835 505.648 115.011 504.773 115.011 503.636C115.011 502.881 114.93 502.237 114.768 501.706C114.609 501.175 114.379 500.77 114.078 500.491C113.78 500.213 113.42 500.074 113 500.074C112.369 500.074 111.876 500.385 111.521 501.007C111.166 501.626 110.989 502.503 110.989 503.636C110.989 504.392 111.068 505.034 111.227 505.562C111.386 506.091 111.615 506.493 111.913 506.768C112.214 507.044 112.577 507.182 113 507.182Z" fill="#181819" fill-opacity="0.4"/>
<path d="M113 479L113 0.999987" stroke="#181819" stroke-opacity="0.1" stroke-linecap="round" stroke-dasharray="6 6"/>
<path d="M212.98 508.119C212.48 508.119 212.03 508.02 211.629 507.821C211.229 507.622 210.908 507.349 210.666 507.003C210.425 506.656 210.293 506.261 210.27 505.818H211.293C211.333 506.213 211.512 506.54 211.83 506.798C212.151 507.054 212.534 507.182 212.98 507.182C213.338 507.182 213.656 507.098 213.935 506.93C214.216 506.763 214.436 506.533 214.595 506.24C214.757 505.945 214.838 505.611 214.838 505.239C214.838 504.858 214.754 504.518 214.587 504.22C214.422 503.919 214.195 503.682 213.905 503.509C213.615 503.335 213.284 503.247 212.912 503.244C212.645 503.241 212.371 503.283 212.09 503.368C211.808 503.45 211.577 503.557 211.395 503.688L210.406 503.568L210.935 499.273H215.469V500.21H211.821L211.514 502.784H211.566C211.744 502.642 211.969 502.524 212.239 502.43C212.509 502.337 212.79 502.29 213.083 502.29C213.617 502.29 214.093 502.418 214.51 502.673C214.931 502.926 215.26 503.273 215.499 503.713C215.74 504.153 215.861 504.656 215.861 505.222C215.861 505.778 215.736 506.276 215.486 506.713C215.239 507.148 214.898 507.491 214.463 507.744C214.029 507.994 213.534 508.119 212.98 508.119Z" fill="#181819" fill-opacity="0.4"/>
<path d="M213 479L213 0.999987" stroke="#181819" stroke-opacity="0.1" stroke-linecap="round" stroke-dasharray="6 6"/>
<path d="M310.433 499.273V508H309.376V500.381H309.325L307.194 501.795V500.722L309.376 499.273H310.433ZM315.789 508.119C315.147 508.119 314.6 507.945 314.148 507.595C313.697 507.243 313.352 506.733 313.113 506.065C312.874 505.395 312.755 504.585 312.755 503.636C312.755 502.693 312.874 501.888 313.113 501.22C313.354 500.55 313.701 500.038 314.153 499.686C314.607 499.331 315.153 499.153 315.789 499.153C316.425 499.153 316.969 499.331 317.421 499.686C317.876 500.038 318.222 500.55 318.461 501.22C318.702 501.888 318.823 502.693 318.823 503.636C318.823 504.585 318.704 505.395 318.465 506.065C318.227 506.733 317.881 507.243 317.43 507.595C316.978 507.945 316.431 508.119 315.789 508.119ZM315.789 507.182C316.425 507.182 316.92 506.875 317.272 506.261C317.624 505.648 317.8 504.773 317.8 503.636C317.8 502.881 317.719 502.237 317.558 501.706C317.398 501.175 317.168 500.77 316.867 500.491C316.569 500.213 316.21 500.074 315.789 500.074C315.158 500.074 314.665 500.385 314.31 501.007C313.955 501.626 313.778 502.503 313.778 503.636C313.778 504.392 313.857 505.034 314.016 505.562C314.175 506.091 314.404 506.493 314.702 506.768C315.004 507.044 315.366 507.182 315.789 507.182Z" fill="#181819" fill-opacity="0.4"/>
<path d="M313 479L313 0.999987" stroke="#181819" stroke-opacity="0.1" stroke-linecap="round" stroke-dasharray="6 6"/>
<path d="M410.532 499.273V508H409.475V500.381H409.424L407.294 501.795V500.722L409.475 499.273H410.532ZM415.769 508.119C415.269 508.119 414.819 508.02 414.419 507.821C414.018 507.622 413.697 507.349 413.455 507.003C413.214 506.656 413.082 506.261 413.059 505.818H414.082C414.122 506.213 414.301 506.54 414.619 506.798C414.94 507.054 415.323 507.182 415.769 507.182C416.127 507.182 416.445 507.098 416.724 506.93C417.005 506.763 417.225 506.533 417.384 506.24C417.546 505.945 417.627 505.611 417.627 505.239C417.627 504.858 417.544 504.518 417.376 504.22C417.211 503.919 416.984 503.682 416.694 503.509C416.404 503.335 416.073 503.247 415.701 503.244C415.434 503.241 415.16 503.283 414.879 503.368C414.597 503.45 414.366 503.557 414.184 503.688L413.195 503.568L413.724 499.273H418.258V500.21H414.61L414.303 502.784H414.355C414.534 502.642 414.758 502.524 415.028 502.43C415.298 502.337 415.579 502.29 415.872 502.29C416.406 502.29 416.882 502.418 417.299 502.673C417.72 502.926 418.049 503.273 418.288 503.713C418.529 504.153 418.65 504.656 418.65 505.222C418.65 505.778 418.525 506.276 418.275 506.713C418.028 507.148 417.687 507.491 417.252 507.744C416.818 507.994 416.323 508.119 415.769 508.119Z" fill="#181819" fill-opacity="0.4"/>
<path d="M413 479L413 0.999987" stroke="#181819" stroke-opacity="0.1" stroke-linecap="round" stroke-dasharray="6 6"/>
<path d="M506.521 508V507.233L509.401 504.08C509.739 503.71 510.018 503.389 510.237 503.116C510.455 502.841 510.617 502.582 510.722 502.341C510.83 502.097 510.884 501.841 510.884 501.574C510.884 501.267 510.81 501.001 510.663 500.777C510.518 500.553 510.319 500.379 510.066 500.257C509.813 500.135 509.529 500.074 509.214 500.074C508.879 500.074 508.586 500.143 508.336 500.283C508.089 500.419 507.897 500.611 507.761 500.858C507.627 501.105 507.56 501.395 507.56 501.727H506.555C506.555 501.216 506.673 500.767 506.908 500.381C507.144 499.994 507.465 499.693 507.871 499.477C508.281 499.261 508.739 499.153 509.248 499.153C509.759 499.153 510.212 499.261 510.607 499.477C511.002 499.693 511.312 499.984 511.536 500.351C511.761 500.717 511.873 501.125 511.873 501.574C511.873 501.895 511.815 502.209 511.698 502.516C511.585 502.82 511.386 503.159 511.102 503.534C510.82 503.906 510.43 504.361 509.93 504.898L507.969 506.994V507.062H512.026V508H506.521ZM516.633 508.119C515.991 508.119 515.444 507.945 514.992 507.595C514.54 507.243 514.195 506.733 513.957 506.065C513.718 505.395 513.599 504.585 513.599 503.636C513.599 502.693 513.718 501.888 513.957 501.22C514.198 500.55 514.545 500.038 514.996 499.686C515.451 499.331 515.996 499.153 516.633 499.153C517.269 499.153 517.813 499.331 518.265 499.686C518.719 500.038 519.066 500.55 519.305 501.22C519.546 501.888 519.667 502.693 519.667 503.636C519.667 504.585 519.548 505.395 519.309 506.065C519.07 506.733 518.725 507.243 518.273 507.595C517.822 507.945 517.275 508.119 516.633 508.119ZM516.633 507.182C517.269 507.182 517.763 506.875 518.116 506.261C518.468 505.648 518.644 504.773 518.644 503.636C518.644 502.881 518.563 502.237 518.401 501.706C518.242 501.175 518.012 500.77 517.711 500.491C517.413 500.213 517.053 500.074 516.633 500.074C516.002 500.074 515.509 500.385 515.154 501.007C514.799 501.626 514.621 502.503 514.621 503.636C514.621 504.392 514.701 505.034 514.86 505.562C515.019 506.091 515.248 506.493 515.546 506.768C515.847 507.044 516.21 507.182 516.633 507.182Z" fill="#181819" fill-opacity="0.4"/>
<path d="M513 479V0.999987" stroke="#181819" stroke-opacity="0.1" stroke-linecap="round" stroke-dasharray="6 6"/>
<path d="M606.62 508V507.233L609.501 504.08C609.839 503.71 610.117 503.389 610.336 503.116C610.555 502.841 610.717 502.582 610.822 502.341C610.93 502.097 610.984 501.841 610.984 501.574C610.984 501.267 610.91 501.001 610.762 500.777C610.617 500.553 610.419 500.379 610.166 500.257C609.913 500.135 609.629 500.074 609.313 500.074C608.978 500.074 608.686 500.143 608.436 500.283C608.188 500.419 607.997 500.611 607.86 500.858C607.727 501.105 607.66 501.395 607.66 501.727H606.654C606.654 501.216 606.772 500.767 607.008 500.381C607.244 499.994 607.565 499.693 607.971 499.477C608.38 499.261 608.839 499.153 609.347 499.153C609.859 499.153 610.312 499.261 610.707 499.477C611.102 499.693 611.411 499.984 611.636 500.351C611.86 500.717 611.972 501.125 611.972 501.574C611.972 501.895 611.914 502.209 611.798 502.516C611.684 502.82 611.485 503.159 611.201 503.534C610.92 503.906 610.529 504.361 610.029 504.898L608.069 506.994V507.062H612.126V508H606.62ZM616.613 508.119C616.113 508.119 615.663 508.02 615.262 507.821C614.862 507.622 614.541 507.349 614.299 507.003C614.058 506.656 613.926 506.261 613.903 505.818H614.926C614.965 506.213 615.144 506.54 615.463 506.798C615.784 507.054 616.167 507.182 616.613 507.182C616.971 507.182 617.289 507.098 617.568 506.93C617.849 506.763 618.069 506.533 618.228 506.24C618.39 505.945 618.471 505.611 618.471 505.239C618.471 504.858 618.387 504.518 618.22 504.22C618.055 503.919 617.828 503.682 617.538 503.509C617.248 503.335 616.917 503.247 616.545 503.244C616.278 503.241 616.004 503.283 615.722 503.368C615.441 503.45 615.21 503.557 615.028 503.688L614.039 503.568L614.568 499.273H619.102V500.21H615.454L615.147 502.784H615.198C615.377 502.642 615.602 502.524 615.872 502.43C616.142 502.337 616.423 502.29 616.715 502.29C617.249 502.29 617.725 502.418 618.143 502.673C618.563 502.926 618.893 503.273 619.132 503.713C619.373 504.153 619.494 504.656 619.494 505.222C619.494 505.778 619.369 506.276 619.119 506.713C618.872 507.148 618.531 507.491 618.096 507.744C617.661 507.994 617.167 508.119 616.613 508.119Z" fill="#181819" fill-opacity="0.4"/>
<path d="M613 479V0.999987" stroke="#181819" stroke-opacity="0.1" stroke-linecap="round" stroke-dasharray="6 6"/>
<path d="M709.282 508.119C708.719 508.119 708.218 508.023 707.778 507.83C707.34 507.636 706.992 507.368 706.734 507.024C706.478 506.678 706.339 506.276 706.316 505.818H707.39C707.413 506.099 707.509 506.342 707.68 506.547C707.85 506.749 708.073 506.905 708.349 507.016C708.624 507.126 708.93 507.182 709.265 507.182C709.64 507.182 709.972 507.116 710.262 506.986C710.552 506.855 710.779 506.673 710.944 506.44C711.109 506.207 711.191 505.938 711.191 505.631C711.191 505.31 711.112 505.027 710.952 504.783C710.793 504.536 710.56 504.342 710.254 504.203C709.947 504.064 709.572 503.994 709.129 503.994H708.43V503.057H709.129C709.475 503.057 709.779 502.994 710.04 502.869C710.305 502.744 710.511 502.568 710.658 502.341C710.809 502.114 710.884 501.847 710.884 501.54C710.884 501.244 710.819 500.987 710.688 500.768C710.558 500.55 710.373 500.379 710.134 500.257C709.898 500.135 709.62 500.074 709.299 500.074C708.998 500.074 708.714 500.129 708.447 500.24C708.183 500.348 707.967 500.506 707.799 500.713C707.631 500.918 707.54 501.165 707.526 501.455H706.504C706.521 500.997 706.658 500.597 706.917 500.253C707.175 499.906 707.513 499.636 707.931 499.443C708.352 499.25 708.813 499.153 709.316 499.153C709.856 499.153 710.319 499.263 710.705 499.482C711.092 499.697 711.388 499.983 711.596 500.338C711.803 500.693 711.907 501.077 711.907 501.489C711.907 501.98 711.778 502.399 711.519 502.746C711.263 503.092 710.915 503.332 710.475 503.466V503.534C711.026 503.625 711.457 503.859 711.766 504.237C712.076 504.612 712.231 505.077 712.231 505.631C712.231 506.105 712.102 506.531 711.843 506.909C711.587 507.284 711.238 507.58 710.795 507.795C710.352 508.011 709.847 508.119 709.282 508.119ZM716.82 508.119C716.178 508.119 715.631 507.945 715.18 507.595C714.728 507.243 714.383 506.733 714.144 506.065C713.906 505.395 713.786 504.585 713.786 503.636C713.786 502.693 713.906 501.888 714.144 501.22C714.386 500.55 714.732 500.038 715.184 499.686C715.638 499.331 716.184 499.153 716.82 499.153C717.457 499.153 718.001 499.331 718.452 499.686C718.907 500.038 719.254 500.55 719.492 501.22C719.734 501.888 719.854 502.693 719.854 503.636C719.854 504.585 719.735 505.395 719.496 506.065C719.258 506.733 718.913 507.243 718.461 507.595C718.009 507.945 717.462 508.119 716.82 508.119ZM716.82 507.182C717.457 507.182 717.951 506.875 718.303 506.261C718.656 505.648 718.832 504.773 718.832 503.636C718.832 502.881 718.751 502.237 718.589 501.706C718.43 501.175 718.2 500.77 717.898 500.491C717.6 500.213 717.241 500.074 716.82 500.074C716.19 500.074 715.697 500.385 715.342 501.007C714.987 501.626 714.809 502.503 714.809 503.636C714.809 504.392 714.888 505.034 715.048 505.562C715.207 506.091 715.435 506.493 715.734 506.768C716.035 507.044 716.397 507.182 716.82 507.182Z" fill="#181819" fill-opacity="0.4"/>
<path d="M713 479V0.999987" stroke="#181819" stroke-opacity="0.1" stroke-linecap="round" stroke-dasharray="6 6"/>
<path d="M809.382 508.119C808.819 508.119 808.318 508.023 807.877 507.83C807.44 507.636 807.092 507.368 806.833 507.024C806.578 506.678 806.438 506.276 806.416 505.818H807.49C807.512 506.099 807.609 506.342 807.779 506.547C807.95 506.749 808.173 506.905 808.448 507.016C808.724 507.126 809.029 507.182 809.365 507.182C809.74 507.182 810.072 507.116 810.362 506.986C810.651 506.855 810.879 506.673 811.044 506.44C811.208 506.207 811.291 505.938 811.291 505.631C811.291 505.31 811.211 505.027 811.052 504.783C810.893 504.536 810.66 504.342 810.353 504.203C810.046 504.064 809.671 503.994 809.228 503.994H808.529V503.057H809.228C809.575 503.057 809.879 502.994 810.14 502.869C810.404 502.744 810.61 502.568 810.758 502.341C810.909 502.114 810.984 501.847 810.984 501.54C810.984 501.244 810.919 500.987 810.788 500.768C810.657 500.55 810.472 500.379 810.234 500.257C809.998 500.135 809.72 500.074 809.399 500.074C809.097 500.074 808.813 500.129 808.546 500.24C808.282 500.348 808.066 500.506 807.899 500.713C807.731 500.918 807.64 501.165 807.626 501.455H806.603C806.62 500.997 806.758 500.597 807.017 500.253C807.275 499.906 807.613 499.636 808.031 499.443C808.451 499.25 808.913 499.153 809.416 499.153C809.955 499.153 810.419 499.263 810.805 499.482C811.191 499.697 811.488 499.983 811.695 500.338C811.903 500.693 812.007 501.077 812.007 501.489C812.007 501.98 811.877 502.399 811.619 502.746C811.363 503.092 811.015 503.332 810.575 503.466V503.534C811.126 503.625 811.556 503.859 811.866 504.237C812.176 504.612 812.33 505.077 812.33 505.631C812.33 506.105 812.201 506.531 811.943 506.909C811.687 507.284 811.338 507.58 810.894 507.795C810.451 508.011 809.947 508.119 809.382 508.119ZM816.801 508.119C816.301 508.119 815.85 508.02 815.45 507.821C815.049 507.622 814.728 507.349 814.487 507.003C814.245 506.656 814.113 506.261 814.09 505.818H815.113C815.153 506.213 815.332 506.54 815.65 506.798C815.971 507.054 816.355 507.182 816.801 507.182C817.159 507.182 817.477 507.098 817.755 506.93C818.036 506.763 818.257 506.533 818.416 506.24C818.578 505.945 818.659 505.611 818.659 505.239C818.659 504.858 818.575 504.518 818.407 504.22C818.242 503.919 818.015 503.682 817.725 503.509C817.436 503.335 817.105 503.247 816.732 503.244C816.465 503.241 816.191 503.283 815.91 503.368C815.629 503.45 815.397 503.557 815.215 503.688L814.227 503.568L814.755 499.273H819.289V500.21H815.642L815.335 502.784H815.386C815.565 502.642 815.789 502.524 816.059 502.43C816.329 502.337 816.61 502.29 816.903 502.29C817.437 502.29 817.913 502.418 818.33 502.673C818.751 502.926 819.08 503.273 819.319 503.713C819.561 504.153 819.681 504.656 819.681 505.222C819.681 505.778 819.556 506.276 819.306 506.713C819.059 507.148 818.718 507.491 818.284 507.744C817.849 507.994 817.355 508.119 816.801 508.119Z" fill="#181819" fill-opacity="0.4"/>
<path d="M813 479V0.999987" stroke="#181819" stroke-opacity="0.1" stroke-linecap="round" stroke-dasharray="6 6"/>
<path d="M906.099 506.21V505.341L909.934 499.273H910.565V500.619H910.139L907.241 505.205V505.273H912.406V506.21H906.099ZM910.207 508V505.946V505.541V499.273H911.213V508H910.207ZM916.85 508.119C916.208 508.119 915.661 507.945 915.209 507.595C914.757 507.243 914.412 506.733 914.173 506.065C913.935 505.395 913.816 504.585 913.816 503.636C913.816 502.693 913.935 501.888 914.173 501.22C914.415 500.55 914.762 500.038 915.213 499.686C915.668 499.331 916.213 499.153 916.85 499.153C917.486 499.153 918.03 499.331 918.482 499.686C918.936 500.038 919.283 500.55 919.521 501.22C919.763 501.888 919.884 502.693 919.884 503.636C919.884 504.585 919.764 505.395 919.526 506.065C919.287 506.733 918.942 507.243 918.49 507.595C918.039 507.945 917.492 508.119 916.85 508.119ZM916.85 507.182C917.486 507.182 917.98 506.875 918.333 506.261C918.685 505.648 918.861 504.773 918.861 503.636C918.861 502.881 918.78 502.237 918.618 501.706C918.459 501.175 918.229 500.77 917.928 500.491C917.629 500.213 917.27 500.074 916.85 500.074C916.219 500.074 915.726 500.385 915.371 501.007C915.016 501.626 914.838 502.503 914.838 503.636C914.838 504.392 914.918 505.034 915.077 505.562C915.236 506.091 915.465 506.493 915.763 506.768C916.064 507.044 916.426 507.182 916.85 507.182Z" fill="#181819" fill-opacity="0.4"/>
<path d="M913 479V0.999987" stroke="#181819" stroke-opacity="0.1" stroke-linecap="round" stroke-dasharray="6 6"/>
<path d="M1.37713 56.5V47.7727H4.32599C5.01065 47.7727 5.57031 47.8963 6.00497 48.1435C6.44247 48.3878 6.76634 48.7188 6.97656 49.1364C7.18679 49.554 7.2919 50.0199 7.2919 50.5341C7.2919 51.0483 7.18679 51.5156 6.97656 51.9361C6.76918 52.3565 6.44815 52.6918 6.01349 52.9418C5.57884 53.1889 5.02202 53.3125 4.34304 53.3125H2.2294V52.375H4.30895C4.7777 52.375 5.15412 52.294 5.43821 52.1321C5.7223 51.9702 5.92827 51.7514 6.05611 51.4759C6.18679 51.1974 6.25213 50.8835 6.25213 50.5341C6.25213 50.1847 6.18679 49.8722 6.05611 49.5966C5.92827 49.321 5.72088 49.1051 5.43395 48.9489C5.14702 48.7898 4.76634 48.7102 4.2919 48.7102H2.43395V56.5H1.37713ZM10.7841 56.6534C10.3693 56.6534 9.9929 56.5753 9.65483 56.419C9.31676 56.2599 9.0483 56.0312 8.84943 55.733C8.65057 55.4318 8.55114 55.0682 8.55114 54.642C8.55114 54.267 8.625 53.9631 8.77273 53.7301C8.92045 53.4943 9.1179 53.3097 9.36506 53.1761C9.61222 53.0426 9.88494 52.9432 10.1832 52.8778C10.4844 52.8097 10.7869 52.7557 11.0909 52.7159C11.4886 52.6648 11.8111 52.6264 12.0582 52.6009C12.3082 52.5724 12.4901 52.5256 12.6037 52.4602C12.7202 52.3949 12.7784 52.2812 12.7784 52.1193V52.0852C12.7784 51.6648 12.6634 51.3381 12.4332 51.1051C12.206 50.8722 11.8608 50.7557 11.3977 50.7557C10.9176 50.7557 10.5412 50.8608 10.2685 51.071C9.99574 51.2812 9.80398 51.5057 9.69318 51.7443L8.73864 51.4034C8.90909 51.0057 9.13636 50.696 9.42045 50.4744C9.70739 50.25 10.0199 50.0937 10.358 50.0057C10.6989 49.9148 11.0341 49.8693 11.3636 49.8693C11.5739 49.8693 11.8153 49.8949 12.0881 49.946C12.3636 49.9943 12.6293 50.0952 12.8849 50.2486C13.1435 50.402 13.358 50.6335 13.5284 50.9432C13.6989 51.2528 13.7841 51.6676 13.7841 52.1875V56.5H12.7784V55.6136H12.7273C12.6591 55.7557 12.5455 55.9077 12.3864 56.0696C12.2273 56.2315 12.0156 56.3693 11.7514 56.483C11.4872 56.5966 11.1648 56.6534 10.7841 56.6534ZM10.9375 55.75C11.3352 55.75 11.6705 55.6719 11.9432 55.5156C12.2188 55.3594 12.4261 55.1577 12.5653 54.9105C12.7074 54.6634 12.7784 54.4034 12.7784 54.1307V53.2102C12.7358 53.2614 12.642 53.3082 12.4972 53.3509C12.3551 53.3906 12.1903 53.4261 12.0028 53.4574C11.8182 53.4858 11.6378 53.5114 11.4616 53.5341C11.2884 53.554 11.1477 53.571 11.0398 53.5852C10.7784 53.6193 10.5341 53.6747 10.3068 53.7514C10.0824 53.8253 9.90057 53.9375 9.76136 54.0881C9.625 54.2358 9.55682 54.4375 9.55682 54.6932C9.55682 55.0426 9.68608 55.3068 9.9446 55.4858C10.206 55.6619 10.5369 55.75 10.9375 55.75ZM18.0913 56.6364C17.5458 56.6364 17.0643 56.4986 16.6467 56.223C16.229 55.9446 15.9023 55.5526 15.6665 55.0469C15.4308 54.5384 15.3129 53.9375 15.3129 53.2443C15.3129 52.5568 15.4308 51.9602 15.6665 51.4545C15.9023 50.9489 16.2305 50.5582 16.6509 50.2827C17.0714 50.0071 17.5572 49.8693 18.1083 49.8693C18.5344 49.8693 18.8711 49.9403 19.1183 50.0824C19.3683 50.2216 19.5586 50.3807 19.6893 50.5597C19.8228 50.7358 19.9265 50.8807 20.0004 50.9943H20.0856V47.7727H21.0913V56.5H20.1197V55.4943H20.0004C19.9265 55.6136 19.8214 55.7642 19.685 55.946C19.5487 56.125 19.354 56.2855 19.1012 56.4276C18.8484 56.5668 18.5117 56.6364 18.0913 56.6364ZM18.2276 55.733C18.631 55.733 18.9719 55.6278 19.2504 55.4176C19.5288 55.2045 19.7404 54.9105 19.8853 54.5355C20.0302 54.1577 20.1026 53.7216 20.1026 53.2273C20.1026 52.7386 20.0316 52.3111 19.8896 51.9446C19.7475 51.5753 19.5373 51.2884 19.2589 51.0838C18.9805 50.8764 18.6367 50.7727 18.2276 50.7727C17.8015 50.7727 17.4464 50.8821 17.1623 51.1009C16.881 51.3168 16.6694 51.6108 16.5273 51.983C16.3881 52.3523 16.3185 52.767 16.3185 53.2273C16.3185 53.6932 16.3896 54.1165 16.5316 54.4972C16.6765 54.875 16.8896 55.1761 17.1708 55.4006C17.4549 55.6222 17.8072 55.733 18.2276 55.733ZM23.0728 56.5V49.9545H24.0785V56.5H23.0728ZM23.5842 48.8636C23.3881 48.8636 23.2191 48.7969 23.0771 48.6634C22.9379 48.5298 22.8683 48.3693 22.8683 48.1818C22.8683 47.9943 22.9379 47.8338 23.0771 47.7003C23.2191 47.5668 23.3881 47.5 23.5842 47.5C23.7802 47.5 23.9478 47.5668 24.087 47.7003C24.229 47.8338 24.3001 47.9943 24.3001 48.1818C24.3001 48.3693 24.229 48.5298 24.087 48.6634C23.9478 48.7969 23.7802 48.8636 23.5842 48.8636Z" fill="#181819" fill-opacity="0.4"/>
<path d="M1.64666 103.5V94.7727H4.6978C5.30575 94.7727 5.80717 94.8778 6.20206 95.0881C6.59695 95.2955 6.89098 95.5753 7.08416 95.9276C7.27734 96.277 7.37393 96.6648 7.37393 97.0909C7.37393 97.4659 7.30717 97.7756 7.17365 98.0199C7.04297 98.2642 6.86967 98.4574 6.65376 98.5994C6.4407 98.7415 6.20916 98.8466 5.95916 98.9148V99C6.22621 99.017 6.49467 99.1108 6.76456 99.2812C7.03445 99.4517 7.2603 99.696 7.44212 100.014C7.62393 100.332 7.71484 100.722 7.71484 101.182C7.71484 101.619 7.61541 102.013 7.41655 102.362C7.21768 102.712 6.90376 102.989 6.47479 103.193C6.04581 103.398 5.48757 103.5 4.80007 103.5H1.64666ZM2.70348 102.562H4.80007C5.49041 102.562 5.98047 102.429 6.27024 102.162C6.56286 101.892 6.70916 101.565 6.70916 101.182C6.70916 100.886 6.63388 100.614 6.48331 100.364C6.33274 100.111 6.11825 99.9091 5.83984 99.7585C5.56143 99.6051 5.23189 99.5284 4.85121 99.5284H2.70348V102.562ZM2.70348 98.608H4.66371C4.98189 98.608 5.26882 98.5455 5.5245 98.4205C5.78303 98.2955 5.98757 98.1193 6.13814 97.892C6.29155 97.6648 6.36825 97.3977 6.36825 97.0909C6.36825 96.7074 6.23473 96.3821 5.96768 96.1151C5.70064 95.8452 5.27734 95.7102 4.6978 95.7102H2.70348V98.608ZM11.2411 103.653C10.8263 103.653 10.4499 103.575 10.1119 103.419C9.77379 103.26 9.50533 103.031 9.30646 102.733C9.1076 102.432 9.00817 102.068 9.00817 101.642C9.00817 101.267 9.08203 100.963 9.22976 100.73C9.37749 100.494 9.57493 100.31 9.82209 100.176C10.0692 100.043 10.342 99.9432 10.6403 99.8778C10.9414 99.8097 11.244 99.7557 11.5479 99.7159C11.9457 99.6648 12.2681 99.6264 12.5153 99.6009C12.7653 99.5724 12.9471 99.5256 13.0607 99.4602C13.1772 99.3949 13.2354 99.2812 13.2354 99.1193V99.0852C13.2354 98.6648 13.1204 98.3381 12.8903 98.1051C12.663 97.8722 12.3178 97.7557 11.8548 97.7557C11.3746 97.7557 10.9982 97.8608 10.7255 98.071C10.4528 98.2812 10.261 98.5057 10.1502 98.7443L9.19567 98.4034C9.36612 98.0057 9.59339 97.696 9.87749 97.4744C10.1644 97.25 10.4769 97.0937 10.815 97.0057C11.1559 96.9148 11.4911 96.8693 11.8207 96.8693C12.0309 96.8693 12.2724 96.8949 12.5451 96.946C12.8207 96.9943 13.0863 97.0952 13.342 97.2486C13.6005 97.402 13.815 97.6335 13.9854 97.9432C14.1559 98.2528 14.2411 98.6676 14.2411 99.1875V103.5H13.2354V102.614H13.1843C13.1161 102.756 13.0025 102.908 12.8434 103.07C12.6843 103.232 12.4727 103.369 12.2085 103.483C11.9442 103.597 11.6218 103.653 11.2411 103.653ZM11.3945 102.75C11.7923 102.75 12.1275 102.672 12.4002 102.516C12.6758 102.359 12.8832 102.158 13.0224 101.911C13.1644 101.663 13.2354 101.403 13.2354 101.131V100.21C13.1928 100.261 13.0991 100.308 12.9542 100.351C12.8121 100.391 12.6474 100.426 12.4599 100.457C12.2752 100.486 12.0948 100.511 11.9187 100.534C11.7454 100.554 11.6048 100.571 11.4968 100.585C11.2354 100.619 10.9911 100.675 10.7638 100.751C10.5394 100.825 10.3576 100.937 10.2184 101.088C10.082 101.236 10.0138 101.437 10.0138 101.693C10.0138 102.043 10.1431 102.307 10.4016 102.486C10.663 102.662 10.994 102.75 11.3945 102.75ZM17.5597 103.5L15.5653 96.9545H16.6222L18.0369 101.966H18.1051L19.5028 96.9545H20.5767L21.9574 101.949H22.0256L23.4403 96.9545H24.4972L22.5028 103.5H21.5142L20.0824 98.4716H19.9801L18.5483 103.5H17.5597ZM27.7528 103.653C27.3381 103.653 26.9616 103.575 26.6236 103.419C26.2855 103.26 26.017 103.031 25.8182 102.733C25.6193 102.432 25.5199 102.068 25.5199 101.642C25.5199 101.267 25.5938 100.963 25.7415 100.73C25.8892 100.494 26.0866 100.31 26.3338 100.176C26.581 100.043 26.8537 99.9432 27.152 99.8778C27.4531 99.8097 27.7557 99.7557 28.0597 99.7159C28.4574 99.6648 28.7798 99.6264 29.027 99.6009C29.277 99.5724 29.4588 99.5256 29.5724 99.4602C29.6889 99.3949 29.7472 99.2812 29.7472 99.1193V99.0852C29.7472 98.6648 29.6321 98.3381 29.402 98.1051C29.1747 97.8722 28.8295 97.7557 28.3665 97.7557C27.8864 97.7557 27.5099 97.8608 27.2372 98.071C26.9645 98.2812 26.7727 98.5057 26.6619 98.7443L25.7074 98.4034C25.8778 98.0057 26.1051 97.696 26.3892 97.4744C26.6761 97.25 26.9886 97.0937 27.3267 97.0057C27.6676 96.9148 28.0028 96.8693 28.3324 96.8693C28.5426 96.8693 28.7841 96.8949 29.0568 96.946C29.3324 96.9943 29.598 97.0952 29.8537 97.2486C30.1122 97.402 30.3267 97.6335 30.4972 97.9432C30.6676 98.2528 30.7528 98.6676 30.7528 99.1875V103.5H29.7472V102.614H29.696C29.6278 102.756 29.5142 102.908 29.3551 103.07C29.196 103.232 28.9844 103.369 28.7202 103.483C28.456 103.597 28.1335 103.653 27.7528 103.653ZM27.9062 102.75C28.304 102.75 28.6392 102.672 28.9119 102.516C29.1875 102.359 29.3949 102.158 29.5341 101.911C29.6761 101.663 29.7472 101.403 29.7472 101.131V100.21C29.7045 100.261 29.6108 100.308 29.4659 100.351C29.3239 100.391 29.1591 100.426 28.9716 100.457C28.7869 100.486 28.6065 100.511 28.4304 100.534C28.2571 100.554 28.1165 100.571 28.0085 100.585C27.7472 100.619 27.5028 100.675 27.2756 100.751C27.0511 100.825 26.8693 100.937 26.7301 101.088C26.5938 101.236 26.5256 101.437 26.5256 101.693C26.5256 102.043 26.6548 102.307 26.9134 102.486C27.1747 102.662 27.5057 102.75 27.9062 102.75ZM33.5941 99.5625V103.5H32.5884V96.9545H33.56V97.9773H33.6452C33.7987 97.6449 34.0316 97.3778 34.3441 97.1761C34.6566 96.9716 35.06 96.8693 35.5543 96.8693C35.9975 96.8693 36.3853 96.9602 36.7177 97.142C37.0501 97.321 37.3086 97.5938 37.4933 97.9602C37.6779 98.3239 37.7702 98.7841 37.7702 99.3409V103.5H36.7646V99.4091C36.7646 98.8949 36.631 98.4943 36.364 98.2074C36.0969 97.9176 35.7305 97.7727 35.2646 97.7727C34.9435 97.7727 34.6566 97.8423 34.4038 97.9815C34.1538 98.1207 33.9563 98.3239 33.8114 98.5909C33.6665 98.858 33.5941 99.1818 33.5941 99.5625ZM42.25 106.091C41.7642 106.091 41.3466 106.028 40.9972 105.903C40.6477 105.781 40.3565 105.619 40.1236 105.418C39.8935 105.219 39.7102 105.006 39.5739 104.778L40.375 104.216C40.4659 104.335 40.581 104.472 40.7202 104.625C40.8594 104.781 41.0497 104.916 41.2912 105.03C41.5355 105.146 41.8551 105.205 42.25 105.205C42.7784 105.205 43.2145 105.077 43.5582 104.821C43.902 104.565 44.0739 104.165 44.0739 103.619V102.29H43.9886C43.9148 102.409 43.8097 102.557 43.6733 102.733C43.5398 102.906 43.3466 103.061 43.0938 103.197C42.8438 103.331 42.5057 103.398 42.0795 103.398C41.5511 103.398 41.0767 103.273 40.6562 103.023C40.2386 102.773 39.9077 102.409 39.6634 101.932C39.4219 101.455 39.3011 100.875 39.3011 100.193C39.3011 99.5227 39.419 98.9389 39.6548 98.4418C39.8906 97.9418 40.2188 97.5554 40.6392 97.2827C41.0597 97.0071 41.5455 96.8693 42.0966 96.8693C42.5227 96.8693 42.8608 96.9403 43.1108 97.0824C43.3636 97.2216 43.5568 97.3807 43.6903 97.5597C43.8267 97.7358 43.9318 97.8807 44.0057 97.9943H44.108V96.9545H45.0795V103.688C45.0795 104.25 44.9517 104.707 44.696 105.06C44.4432 105.415 44.1023 105.675 43.6733 105.839C43.2472 106.007 42.7727 106.091 42.25 106.091ZM42.2159 102.494C42.6193 102.494 42.9602 102.402 43.2386 102.217C43.517 102.033 43.7287 101.767 43.8736 101.42C44.0185 101.074 44.0909 100.659 44.0909 100.176C44.0909 99.7045 44.0199 99.2884 43.8778 98.9276C43.7358 98.5668 43.5256 98.2841 43.2472 98.0795C42.9688 97.875 42.625 97.7727 42.2159 97.7727C41.7898 97.7727 41.4347 97.8807 41.1506 98.0966C40.8693 98.3125 40.6577 98.6023 40.5156 98.9659C40.3764 99.3295 40.3068 99.733 40.3068 100.176C40.3068 100.631 40.3778 101.033 40.5199 101.382C40.6648 101.729 40.8778 102.001 41.1591 102.2C41.4432 102.396 41.7955 102.494 42.2159 102.494Z" fill="#181819" fill-opacity="0.4"/>
<path d="M4.5032 141.773H5.56001V148.011C5.56001 148.568 5.45774 149.041 5.2532 149.43C5.04865 149.82 4.7603 150.115 4.38814 150.317C4.01598 150.518 3.57706 150.619 3.07138 150.619C2.59411 150.619 2.16939 150.533 1.79723 150.359C1.42507 150.183 1.13246 149.933 0.919389 149.609C0.706321 149.286 0.599787 148.901 0.599787 148.455H1.63956C1.63956 148.702 1.70064 148.918 1.8228 149.102C1.9478 149.284 2.11825 149.426 2.33416 149.528C2.55007 149.631 2.79581 149.682 3.07138 149.682C3.37536 149.682 3.63388 149.618 3.84695 149.49C4.06001 149.362 4.22195 149.175 4.33274 148.928C4.44638 148.678 4.5032 148.372 4.5032 148.011V141.773ZM9.46768 150.653C9.05291 150.653 8.67649 150.575 8.33842 150.419C8.00036 150.26 7.73189 150.031 7.53303 149.733C7.33416 149.432 7.23473 149.068 7.23473 148.642C7.23473 148.267 7.30859 147.963 7.45632 147.73C7.60405 147.494 7.80149 147.31 8.04865 147.176C8.29581 147.043 8.56854 146.943 8.86683 146.878C9.16797 146.81 9.47053 146.756 9.7745 146.716C10.1722 146.665 10.4947 146.626 10.7418 146.601C10.9918 146.572 11.1737 146.526 11.2873 146.46C11.4038 146.395 11.462 146.281 11.462 146.119V146.085C11.462 145.665 11.3469 145.338 11.1168 145.105C10.8896 144.872 10.5444 144.756 10.0813 144.756C9.60121 144.756 9.22479 144.861 8.95206 145.071C8.67933 145.281 8.48757 145.506 8.37678 145.744L7.42223 145.403C7.59268 145.006 7.81996 144.696 8.10405 144.474C8.39098 144.25 8.70348 144.094 9.04155 144.006C9.38246 143.915 9.71768 143.869 10.0472 143.869C10.2575 143.869 10.4989 143.895 10.7717 143.946C11.0472 143.994 11.3129 144.095 11.5685 144.249C11.8271 144.402 12.0415 144.634 12.212 144.943C12.3825 145.253 12.4677 145.668 12.4677 146.188V150.5H11.462V149.614H11.4109C11.3427 149.756 11.229 149.908 11.07 150.07C10.9109 150.232 10.6992 150.369 10.435 150.483C10.1708 150.597 9.84837 150.653 9.46768 150.653ZM9.62109 149.75C10.0188 149.75 10.354 149.672 10.6268 149.516C10.9023 149.359 11.1097 149.158 11.2489 148.911C11.391 148.663 11.462 148.403 11.462 148.131V147.21C11.4194 147.261 11.3256 147.308 11.1808 147.351C11.0387 147.391 10.8739 147.426 10.6864 147.457C10.5018 147.486 10.3214 147.511 10.1452 147.534C9.97195 147.554 9.83132 147.571 9.72337 147.585C9.462 147.619 9.21768 147.675 8.99041 147.751C8.76598 147.825 8.58416 147.937 8.44496 148.088C8.30859 148.236 8.24041 148.437 8.24041 148.693C8.24041 149.043 8.36967 149.307 8.6282 149.486C8.88956 149.662 9.22053 149.75 9.62109 149.75ZM16.9453 153.091C16.4595 153.091 16.0419 153.028 15.6925 152.903C15.343 152.781 15.0518 152.619 14.8189 152.418C14.5888 152.219 14.4055 152.006 14.2692 151.778L15.0703 151.216C15.1612 151.335 15.2763 151.472 15.4155 151.625C15.5547 151.781 15.745 151.916 15.9865 152.03C16.2308 152.146 16.5504 152.205 16.9453 152.205C17.4737 152.205 17.9098 152.077 18.2536 151.821C18.5973 151.565 18.7692 151.165 18.7692 150.619V149.29H18.6839C18.6101 149.409 18.505 149.557 18.3686 149.733C18.2351 149.906 18.0419 150.061 17.7891 150.197C17.5391 150.331 17.201 150.398 16.7749 150.398C16.2464 150.398 15.772 150.273 15.3516 150.023C14.9339 149.773 14.603 149.409 14.3587 148.932C14.1172 148.455 13.9964 147.875 13.9964 147.193C13.9964 146.523 14.1143 145.939 14.3501 145.442C14.5859 144.942 14.9141 144.555 15.3345 144.283C15.755 144.007 16.2408 143.869 16.7919 143.869C17.218 143.869 17.5561 143.94 17.8061 144.082C18.0589 144.222 18.2521 144.381 18.3857 144.56C18.522 144.736 18.6271 144.881 18.701 144.994H18.8033V143.955H19.7749V150.688C19.7749 151.25 19.647 151.707 19.3913 152.06C19.1385 152.415 18.7976 152.675 18.3686 152.839C17.9425 153.007 17.468 153.091 16.9453 153.091ZM16.9112 149.494C17.3146 149.494 17.6555 149.402 17.9339 149.217C18.2124 149.033 18.424 148.767 18.5689 148.42C18.7138 148.074 18.7862 147.659 18.7862 147.176C18.7862 146.705 18.7152 146.288 18.5732 145.928C18.4311 145.567 18.2209 145.284 17.9425 145.08C17.6641 144.875 17.3203 144.773 16.9112 144.773C16.4851 144.773 16.13 144.881 15.8459 145.097C15.5646 145.312 15.353 145.602 15.2109 145.966C15.0717 146.33 15.0021 146.733 15.0021 147.176C15.0021 147.631 15.0732 148.033 15.2152 148.382C15.3601 148.729 15.5732 149.001 15.8544 149.2C16.1385 149.396 16.4908 149.494 16.9112 149.494ZM25.7408 147.824V143.955H26.7464V150.5H25.7408V149.392H25.6726C25.5192 149.724 25.2805 150.007 24.9567 150.24C24.6328 150.47 24.2237 150.585 23.7294 150.585C23.3203 150.585 22.9567 150.496 22.6385 150.317C22.3203 150.135 22.0703 149.862 21.8885 149.499C21.7067 149.132 21.6158 148.67 21.6158 148.114V143.955H22.6214V148.045C22.6214 148.523 22.755 148.903 23.022 149.188C23.2919 149.472 23.6357 149.614 24.0533 149.614C24.3033 149.614 24.5575 149.55 24.8161 149.422C25.0774 149.294 25.2962 149.098 25.4723 148.834C25.6513 148.57 25.7408 148.233 25.7408 147.824ZM29.5941 146.562V150.5H28.5884V143.955H29.56V144.977H29.6452C29.7987 144.645 30.0316 144.378 30.3441 144.176C30.6566 143.972 31.06 143.869 31.5543 143.869C31.9975 143.869 32.3853 143.96 32.7177 144.142C33.0501 144.321 33.3086 144.594 33.4933 144.96C33.6779 145.324 33.7702 145.784 33.7702 146.341V150.5H32.7646V146.409C32.7646 145.895 32.631 145.494 32.364 145.207C32.0969 144.918 31.7305 144.773 31.2646 144.773C30.9435 144.773 30.6566 144.842 30.4038 144.982C30.1538 145.121 29.9563 145.324 29.8114 145.591C29.6665 145.858 29.5941 146.182 29.5941 146.562ZM38.25 153.091C37.7642 153.091 37.3466 153.028 36.9972 152.903C36.6477 152.781 36.3565 152.619 36.1236 152.418C35.8935 152.219 35.7102 152.006 35.5739 151.778L36.375 151.216C36.4659 151.335 36.581 151.472 36.7202 151.625C36.8594 151.781 37.0497 151.916 37.2912 152.03C37.5355 152.146 37.8551 152.205 38.25 152.205C38.7784 152.205 39.2145 152.077 39.5582 151.821C39.902 151.565 40.0739 151.165 40.0739 150.619V149.29H39.9886C39.9148 149.409 39.8097 149.557 39.6733 149.733C39.5398 149.906 39.3466 150.061 39.0938 150.197C38.8438 150.331 38.5057 150.398 38.0795 150.398C37.5511 150.398 37.0767 150.273 36.6562 150.023C36.2386 149.773 35.9077 149.409 35.6634 148.932C35.4219 148.455 35.3011 147.875 35.3011 147.193C35.3011 146.523 35.419 145.939 35.6548 145.442C35.8906 144.942 36.2188 144.555 36.6392 144.283C37.0597 144.007 37.5455 143.869 38.0966 143.869C38.5227 143.869 38.8608 143.94 39.1108 144.082C39.3636 144.222 39.5568 144.381 39.6903 144.56C39.8267 144.736 39.9318 144.881 40.0057 144.994H40.108V143.955H41.0795V150.688C41.0795 151.25 40.9517 151.707 40.696 152.06C40.4432 152.415 40.1023 152.675 39.6733 152.839C39.2472 153.007 38.7727 153.091 38.25 153.091ZM38.2159 149.494C38.6193 149.494 38.9602 149.402 39.2386 149.217C39.517 149.033 39.7287 148.767 39.8736 148.42C40.0185 148.074 40.0909 147.659 40.0909 147.176C40.0909 146.705 40.0199 146.288 39.8778 145.928C39.7358 145.567 39.5256 145.284 39.2472 145.08C38.9688 144.875 38.625 144.773 38.2159 144.773C37.7898 144.773 37.4347 144.881 37.1506 145.097C36.8693 145.312 36.6577 145.602 36.5156 145.966C36.3764 146.33 36.3068 146.733 36.3068 147.176C36.3068 147.631 36.3778 148.033 36.5199 148.382C36.6648 148.729 36.8778 149.001 37.1591 149.2C37.4432 149.396 37.7955 149.494 38.2159 149.494Z" fill="#181819" fill-opacity="0.4"/>
<path d="M1.25213 197.5V188.773H2.30895V193.102H2.41122L6.33168 188.773H7.71236L4.04759 192.71L7.71236 197.5H6.43395L3.39986 193.443L2.30895 194.67V197.5H1.25213ZM11.2077 197.636C10.5771 197.636 10.033 197.497 9.57564 197.219C9.12109 196.938 8.77024 196.545 8.52308 196.043C8.27876 195.537 8.15661 194.949 8.15661 194.278C8.15661 193.608 8.27876 193.017 8.52308 192.506C8.77024 191.991 9.11399 191.591 9.55433 191.304C9.99751 191.014 10.5146 190.869 11.1055 190.869C11.4464 190.869 11.783 190.926 12.1154 191.04C12.4478 191.153 12.7504 191.338 13.0231 191.594C13.2958 191.847 13.5131 192.182 13.6751 192.599C13.837 193.017 13.918 193.531 13.918 194.142V194.568H8.87251V193.699H12.8952C12.8952 193.33 12.8214 193 12.6737 192.71C12.5288 192.42 12.3214 192.192 12.0515 192.024C11.7844 191.857 11.4691 191.773 11.1055 191.773C10.7049 191.773 10.3583 191.872 10.0657 192.071C9.77592 192.267 9.55291 192.523 9.39666 192.838C9.24041 193.153 9.16229 193.491 9.16229 193.852V194.432C9.16229 194.926 9.24751 195.345 9.41797 195.689C9.59126 196.03 9.83132 196.29 10.1381 196.469C10.445 196.645 10.8015 196.733 11.2077 196.733C11.4719 196.733 11.7106 196.696 11.9237 196.622C12.1396 196.545 12.3256 196.432 12.4819 196.281C12.6381 196.128 12.7589 195.937 12.8441 195.71L13.8157 195.983C13.7134 196.312 13.5415 196.602 13.3001 196.852C13.0586 197.099 12.7603 197.293 12.4052 197.432C12.0501 197.568 11.6509 197.636 11.2077 197.636ZM16.4535 193.562V197.5H15.4478V190.955H16.4194V191.977H16.5046C16.658 191.645 16.891 191.378 17.2035 191.176C17.516 190.972 17.9194 190.869 18.4137 190.869C18.8569 190.869 19.2447 190.96 19.5771 191.142C19.9094 191.321 20.168 191.594 20.3526 191.96C20.5373 192.324 20.6296 192.784 20.6296 193.341V197.5H19.6239V193.409C19.6239 192.895 19.4904 192.494 19.2234 192.207C18.9563 191.918 18.5898 191.773 18.1239 191.773C17.8029 191.773 17.516 191.842 17.2631 191.982C17.0131 192.121 16.8157 192.324 16.6708 192.591C16.5259 192.858 16.4535 193.182 16.4535 193.562ZM25.3139 190.955V191.807H21.9219V190.955H25.3139ZM22.9105 189.386H23.9162V195.625C23.9162 195.909 23.9574 196.122 24.0398 196.264C24.125 196.403 24.233 196.497 24.3636 196.545C24.4972 196.591 24.6378 196.614 24.7855 196.614C24.8963 196.614 24.9872 196.608 25.0582 196.597C25.1293 196.582 25.1861 196.571 25.2287 196.562L25.4332 197.466C25.3651 197.491 25.2699 197.517 25.1477 197.543C25.0256 197.571 24.8707 197.585 24.6832 197.585C24.3991 197.585 24.1207 197.524 23.848 197.402C23.5781 197.28 23.3537 197.094 23.1747 196.844C22.9986 196.594 22.9105 196.278 22.9105 195.898V189.386ZM28.7528 197.653C28.3381 197.653 27.9616 197.575 27.6236 197.419C27.2855 197.26 27.017 197.031 26.8182 196.733C26.6193 196.432 26.5199 196.068 26.5199 195.642C26.5199 195.267 26.5938 194.963 26.7415 194.73C26.8892 194.494 27.0866 194.31 27.3338 194.176C27.581 194.043 27.8537 193.943 28.152 193.878C28.4531 193.81 28.7557 193.756 29.0597 193.716C29.4574 193.665 29.7798 193.626 30.027 193.601C30.277 193.572 30.4588 193.526 30.5724 193.46C30.6889 193.395 30.7472 193.281 30.7472 193.119V193.085C30.7472 192.665 30.6321 192.338 30.402 192.105C30.1747 191.872 29.8295 191.756 29.3665 191.756C28.8864 191.756 28.5099 191.861 28.2372 192.071C27.9645 192.281 27.7727 192.506 27.6619 192.744L26.7074 192.403C26.8778 192.006 27.1051 191.696 27.3892 191.474C27.6761 191.25 27.9886 191.094 28.3267 191.006C28.6676 190.915 29.0028 190.869 29.3324 190.869C29.5426 190.869 29.7841 190.895 30.0568 190.946C30.3324 190.994 30.598 191.095 30.8537 191.249C31.1122 191.402 31.3267 191.634 31.4972 191.943C31.6676 192.253 31.7528 192.668 31.7528 193.188V197.5H30.7472V196.614H30.696C30.6278 196.756 30.5142 196.908 30.3551 197.07C30.196 197.232 29.9844 197.369 29.7202 197.483C29.456 197.597 29.1335 197.653 28.7528 197.653ZM28.9062 196.75C29.304 196.75 29.6392 196.672 29.9119 196.516C30.1875 196.359 30.3949 196.158 30.5341 195.911C30.6761 195.663 30.7472 195.403 30.7472 195.131V194.21C30.7045 194.261 30.6108 194.308 30.4659 194.351C30.3239 194.391 30.1591 194.426 29.9716 194.457C29.7869 194.486 29.6065 194.511 29.4304 194.534C29.2571 194.554 29.1165 194.571 29.0085 194.585C28.7472 194.619 28.5028 194.675 28.2756 194.751C28.0511 194.825 27.8693 194.937 27.7301 195.088C27.5938 195.236 27.5256 195.437 27.5256 195.693C27.5256 196.043 27.6548 196.307 27.9134 196.486C28.1747 196.662 28.5057 196.75 28.9062 196.75ZM34.5941 193.562V197.5H33.5884V190.955H34.56V191.977H34.6452C34.7987 191.645 35.0316 191.378 35.3441 191.176C35.6566 190.972 36.06 190.869 36.5543 190.869C36.9975 190.869 37.3853 190.96 37.7177 191.142C38.0501 191.321 38.3086 191.594 38.4933 191.96C38.6779 192.324 38.7702 192.784 38.7702 193.341V197.5H37.7646V193.409C37.7646 192.895 37.631 192.494 37.364 192.207C37.0969 191.918 36.7305 191.773 36.2646 191.773C35.9435 191.773 35.6566 191.842 35.4038 191.982C35.1538 192.121 34.9563 192.324 34.8114 192.591C34.6665 192.858 34.5941 193.182 34.5941 193.562ZM43.25 200.091C42.7642 200.091 42.3466 200.028 41.9972 199.903C41.6477 199.781 41.3565 199.619 41.1236 199.418C40.8935 199.219 40.7102 199.006 40.5739 198.778L41.375 198.216C41.4659 198.335 41.581 198.472 41.7202 198.625C41.8594 198.781 42.0497 198.916 42.2912 199.03C42.5355 199.146 42.8551 199.205 43.25 199.205C43.7784 199.205 44.2145 199.077 44.5582 198.821C44.902 198.565 45.0739 198.165 45.0739 197.619V196.29H44.9886C44.9148 196.409 44.8097 196.557 44.6733 196.733C44.5398 196.906 44.3466 197.061 44.0938 197.197C43.8438 197.331 43.5057 197.398 43.0795 197.398C42.5511 197.398 42.0767 197.273 41.6562 197.023C41.2386 196.773 40.9077 196.409 40.6634 195.932C40.4219 195.455 40.3011 194.875 40.3011 194.193C40.3011 193.523 40.419 192.939 40.6548 192.442C40.8906 191.942 41.2188 191.555 41.6392 191.283C42.0597 191.007 42.5455 190.869 43.0966 190.869C43.5227 190.869 43.8608 190.94 44.1108 191.082C44.3636 191.222 44.5568 191.381 44.6903 191.56C44.8267 191.736 44.9318 191.881 45.0057 191.994H45.108V190.955H46.0795V197.688C46.0795 198.25 45.9517 198.707 45.696 199.06C45.4432 199.415 45.1023 199.675 44.6733 199.839C44.2472 200.007 43.7727 200.091 43.25 200.091ZM43.2159 196.494C43.6193 196.494 43.9602 196.402 44.2386 196.217C44.517 196.033 44.7287 195.767 44.8736 195.42C45.0185 195.074 45.0909 194.659 45.0909 194.176C45.0909 193.705 45.0199 193.288 44.8778 192.928C44.7358 192.567 44.5256 192.284 44.2472 192.08C43.9688 191.875 43.625 191.773 43.2159 191.773C42.7898 191.773 42.4347 191.881 42.1506 192.097C41.8693 192.312 41.6577 192.602 41.5156 192.966C41.3764 193.33 41.3068 193.733 41.3068 194.176C41.3068 194.631 41.3778 195.033 41.5199 195.382C41.6648 195.729 41.8778 196.001 42.1591 196.2C42.4432 196.396 42.7955 196.494 43.2159 196.494Z" fill="#181819" fill-opacity="0.4"/>
<path d="M1.38885 244.5V235.773H2.44567V240.102H2.54794L6.46839 235.773H7.84908L4.1843 239.71L7.84908 244.5H6.57067L3.53658 240.443L2.44567 241.67V244.5H1.38885ZM11.2592 244.636C10.6683 244.636 10.1499 244.496 9.70384 244.214C9.26065 243.933 8.91406 243.54 8.66406 243.034C8.4169 242.528 8.29332 241.937 8.29332 241.261C8.29332 240.58 8.4169 239.984 8.66406 239.476C8.91406 238.967 9.26065 238.572 9.70384 238.291C10.1499 238.01 10.6683 237.869 11.2592 237.869C11.8501 237.869 12.3672 238.01 12.8104 238.291C13.2564 238.572 13.603 238.967 13.8501 239.476C14.1001 239.984 14.2251 240.58 14.2251 241.261C14.2251 241.937 14.1001 242.528 13.8501 243.034C13.603 243.54 13.2564 243.933 12.8104 244.214C12.3672 244.496 11.8501 244.636 11.2592 244.636ZM11.2592 243.733C11.7081 243.733 12.0774 243.618 12.3672 243.388C12.657 243.158 12.8714 242.855 13.0107 242.48C13.1499 242.105 13.2195 241.699 13.2195 241.261C13.2195 240.824 13.1499 240.416 13.0107 240.038C12.8714 239.661 12.657 239.355 12.3672 239.122C12.0774 238.889 11.7081 238.773 11.2592 238.773C10.8104 238.773 10.4411 238.889 10.1513 239.122C9.86151 239.355 9.64702 239.661 9.50781 240.038C9.36861 240.416 9.29901 240.824 9.29901 241.261C9.29901 241.699 9.36861 242.105 9.50781 242.48C9.64702 242.855 9.86151 243.158 10.1513 243.388C10.4411 243.618 10.8104 243.733 11.2592 243.733ZM15.7603 246.955V237.955H16.7319V238.994H16.8512C16.9251 238.881 17.0273 238.736 17.158 238.56C17.2915 238.381 17.4819 238.222 17.729 238.082C17.979 237.94 18.3171 237.869 18.7433 237.869C19.2944 237.869 19.7802 238.007 20.2006 238.283C20.6211 238.558 20.9492 238.949 21.185 239.455C21.4208 239.96 21.5387 240.557 21.5387 241.244C21.5387 241.938 21.4208 242.538 21.185 243.047C20.9492 243.553 20.6225 243.945 20.2049 244.223C19.7873 244.499 19.3058 244.636 18.7603 244.636C18.3398 244.636 18.0032 244.567 17.7504 244.428C17.4975 244.286 17.3029 244.125 17.1665 243.946C17.0302 243.764 16.9251 243.614 16.8512 243.494H16.766V246.955H15.7603ZM16.7489 241.227C16.7489 241.722 16.8214 242.158 16.9663 242.536C17.1112 242.911 17.3228 243.205 17.6012 243.418C17.8796 243.628 18.2205 243.733 18.6239 243.733C19.0444 243.733 19.3952 243.622 19.6765 243.401C19.9606 243.176 20.1737 242.875 20.3157 242.497C20.4606 242.116 20.533 241.693 20.533 241.227C20.533 240.767 20.462 240.352 20.32 239.983C20.1808 239.611 19.9691 239.317 19.685 239.101C19.4038 238.882 19.0501 238.773 18.6239 238.773C18.2148 238.773 17.8711 238.876 17.5927 239.084C17.3143 239.288 17.104 239.575 16.962 239.945C16.82 240.311 16.7489 240.739 16.7489 241.227ZM23.0728 244.5V237.955H24.0785V244.5H23.0728ZM23.5842 236.864C23.3881 236.864 23.2191 236.797 23.0771 236.663C22.9379 236.53 22.8683 236.369 22.8683 236.182C22.8683 235.994 22.9379 235.834 23.0771 235.7C23.2191 235.567 23.3881 235.5 23.5842 235.5C23.7802 235.5 23.9478 235.567 24.087 235.7C24.229 235.834 24.3001 235.994 24.3001 236.182C24.3001 236.369 24.229 236.53 24.087 236.663C23.9478 236.797 23.7802 236.864 23.5842 236.864Z" fill="#181819" fill-opacity="0.4"/>
<path d="M0.755327 283.71V282.773H7.30078V283.71H4.55646V291.5H3.49965V283.71H0.755327ZM10.5906 291.636C9.95987 291.636 9.41584 291.497 8.95845 291.219C8.50391 290.938 8.15305 290.545 7.90589 290.043C7.66158 289.537 7.53942 288.949 7.53942 288.278C7.53942 287.608 7.66158 287.017 7.90589 286.506C8.15305 285.991 8.4968 285.591 8.93714 285.304C9.38033 285.014 9.89737 284.869 10.4883 284.869C10.8292 284.869 11.1658 284.926 11.4982 285.04C11.8306 285.153 12.1332 285.338 12.4059 285.594C12.6786 285.847 12.896 286.182 13.0579 286.599C13.2198 287.017 13.3008 287.531 13.3008 288.142V288.568H8.25533V287.699H12.2781C12.2781 287.33 12.2042 287 12.0565 286.71C11.9116 286.42 11.7042 286.192 11.4343 286.024C11.1673 285.857 10.8519 285.773 10.4883 285.773C10.0877 285.773 9.74112 285.872 9.44851 286.071C9.15874 286.267 8.93572 286.523 8.77947 286.838C8.62322 287.153 8.5451 287.491 8.5451 287.852V288.432C8.5451 288.926 8.63033 289.345 8.80078 289.689C8.97408 290.03 9.21413 290.29 9.52095 290.469C9.82777 290.645 10.1843 290.733 10.5906 290.733C10.8548 290.733 11.0934 290.696 11.3065 290.622C11.5224 290.545 11.7085 290.432 11.8647 290.281C12.021 290.128 12.1417 289.937 12.2269 289.71L13.1985 289.983C13.0962 290.312 12.9244 290.602 12.6829 290.852C12.4414 291.099 12.1431 291.293 11.788 291.432C11.4329 291.568 11.0337 291.636 10.5906 291.636ZM15.8363 287.562V291.5H14.8306V282.773H15.8363V285.977H15.9215C16.0749 285.639 16.305 285.371 16.6119 285.172C16.9215 284.97 17.3335 284.869 17.8477 284.869C18.2937 284.869 18.6843 284.959 19.0195 285.138C19.3548 285.314 19.6147 285.585 19.7994 285.952C19.9869 286.315 20.0806 286.778 20.0806 287.341V291.5H19.0749V287.409C19.0749 286.889 18.94 286.487 18.6701 286.203C18.4031 285.916 18.0323 285.773 17.5579 285.773C17.2283 285.773 16.9329 285.842 16.6715 285.982C16.413 286.121 16.2085 286.324 16.0579 286.591C15.9102 286.858 15.8363 287.182 15.8363 287.562Z" fill="#181819" fill-opacity="0.4"/>
<path d="M1.8576 338.5V329.773H2.91442V334.102H3.01669L6.93714 329.773H8.31783L4.65305 333.71L8.31783 338.5H7.03942L4.00533 334.443L2.91442 335.67V338.5H1.8576ZM11.4755 338.653C11.0607 338.653 10.6843 338.575 10.3462 338.419C10.0082 338.26 9.7397 338.031 9.54084 337.733C9.34197 337.432 9.24254 337.068 9.24254 336.642C9.24254 336.267 9.31641 335.963 9.46413 335.73C9.61186 335.494 9.8093 335.31 10.0565 335.176C10.3036 335.043 10.5763 334.943 10.8746 334.878C11.1758 334.81 11.4783 334.756 11.7823 334.716C12.18 334.665 12.5025 334.626 12.7496 334.601C12.9996 334.572 13.1815 334.526 13.2951 334.46C13.4116 334.395 13.4698 334.281 13.4698 334.119V334.085C13.4698 333.665 13.3548 333.338 13.1246 333.105C12.8974 332.872 12.5522 332.756 12.0891 332.756C11.609 332.756 11.2326 332.861 10.9599 333.071C10.6871 333.281 10.4954 333.506 10.3846 333.744L9.43004 333.403C9.6005 333.006 9.82777 332.696 10.1119 332.474C10.3988 332.25 10.7113 332.094 11.0494 332.006C11.3903 331.915 11.7255 331.869 12.055 331.869C12.2653 331.869 12.5067 331.895 12.7795 331.946C13.055 331.994 13.3207 332.095 13.5763 332.249C13.8349 332.402 14.0494 332.634 14.2198 332.943C14.3903 333.253 14.4755 333.668 14.4755 334.188V338.5H13.4698V337.614H13.4187C13.3505 337.756 13.2369 337.908 13.0778 338.07C12.9187 338.232 12.707 338.369 12.4428 338.483C12.1786 338.597 11.8562 338.653 11.4755 338.653ZM11.6289 337.75C12.0266 337.75 12.3619 337.672 12.6346 337.516C12.9102 337.359 13.1175 337.158 13.2567 336.911C13.3988 336.663 13.4698 336.403 13.4698 336.131V335.21C13.4272 335.261 13.3335 335.308 13.1886 335.351C13.0465 335.391 12.8817 335.426 12.6942 335.457C12.5096 335.486 12.3292 335.511 12.1531 335.534C11.9798 335.554 11.8391 335.571 11.7312 335.585C11.4698 335.619 11.2255 335.675 10.9982 335.751C10.7738 335.825 10.592 335.937 10.4528 336.088C10.3164 336.236 10.2482 336.437 10.2482 336.693C10.2482 337.043 10.3775 337.307 10.636 337.486C10.8974 337.662 11.2283 337.75 11.6289 337.75ZM16.3111 338.5V331.955H17.2827V332.943H17.3509C17.4702 332.619 17.6861 332.357 17.9986 332.155C18.3111 331.953 18.6634 331.852 19.0554 331.852C19.1293 331.852 19.2216 331.854 19.3324 331.857C19.4432 331.859 19.527 331.864 19.5838 331.869V332.892C19.5497 332.884 19.4716 332.871 19.3494 332.854C19.2301 332.834 19.1037 332.824 18.9702 332.824C18.652 332.824 18.3679 332.891 18.1179 333.024C17.8707 333.155 17.6747 333.337 17.5298 333.57C17.3878 333.8 17.3168 334.062 17.3168 334.358V338.5H16.3111ZM23.321 338.636C22.6903 338.636 22.1463 338.497 21.6889 338.219C21.2344 337.938 20.8835 337.545 20.6364 337.043C20.392 336.537 20.2699 335.949 20.2699 335.278C20.2699 334.608 20.392 334.017 20.6364 333.506C20.8835 332.991 21.2273 332.591 21.6676 332.304C22.1108 332.014 22.6278 331.869 23.2188 331.869C23.5597 331.869 23.8963 331.926 24.2287 332.04C24.5611 332.153 24.8636 332.338 25.1364 332.594C25.4091 332.847 25.6264 333.182 25.7884 333.599C25.9503 334.017 26.0312 334.531 26.0312 335.142V335.568H20.9858V334.699H25.0085C25.0085 334.33 24.9347 334 24.7869 333.71C24.642 333.42 24.4347 333.192 24.1648 333.024C23.8977 332.857 23.5824 332.773 23.2188 332.773C22.8182 332.773 22.4716 332.872 22.179 333.071C21.8892 333.267 21.6662 333.523 21.5099 333.838C21.3537 334.153 21.2756 334.491 21.2756 334.852V335.432C21.2756 335.926 21.3608 336.345 21.5312 336.689C21.7045 337.03 21.9446 337.29 22.2514 337.469C22.5582 337.645 22.9148 337.733 23.321 337.733C23.5852 337.733 23.8239 337.696 24.0369 337.622C24.2528 337.545 24.4389 337.432 24.5952 337.281C24.7514 337.128 24.8722 336.937 24.9574 336.71L25.929 336.983C25.8267 337.312 25.6548 337.602 25.4134 337.852C25.1719 338.099 24.8736 338.293 24.5185 338.432C24.1634 338.568 23.7642 338.636 23.321 338.636ZM30.4077 331.955V332.807H27.0156V331.955H30.4077ZM28.0043 330.386H29.0099V336.625C29.0099 336.909 29.0511 337.122 29.1335 337.264C29.2188 337.403 29.3267 337.497 29.4574 337.545C29.5909 337.591 29.7315 337.614 29.8793 337.614C29.9901 337.614 30.081 337.608 30.152 337.597C30.223 337.582 30.2798 337.571 30.3224 337.562L30.527 338.466C30.4588 338.491 30.3636 338.517 30.2415 338.543C30.1193 338.571 29.9645 338.585 29.777 338.585C29.4929 338.585 29.2145 338.524 28.9418 338.402C28.6719 338.28 28.4474 338.094 28.2685 337.844C28.0923 337.594 28.0043 337.278 28.0043 336.898V330.386Z" fill="#181819" fill-opacity="0.4"/>
<path d="M1.62322 385.5V376.773H4.57209C5.25391 376.773 5.81357 376.889 6.25107 377.122C6.68857 377.352 7.01243 377.669 7.22266 378.072C7.43288 378.476 7.538 378.935 7.538 379.449C7.538 379.963 7.43288 380.419 7.22266 380.817C7.01243 381.214 6.68999 381.527 6.25533 381.754C5.82067 381.979 5.26527 382.091 4.58913 382.091H2.20277V381.136H4.55504C5.02095 381.136 5.39595 381.068 5.68004 380.932C5.96697 380.795 6.17436 380.602 6.3022 380.352C6.43288 380.099 6.49822 379.798 6.49822 379.449C6.49822 379.099 6.43288 378.794 6.3022 378.533C6.17152 378.271 5.96271 378.07 5.67578 377.928C5.38885 377.783 5.00959 377.71 4.538 377.71H2.68004V385.5H1.62322ZM5.73118 381.58L7.87891 385.5H6.65163L4.538 381.58H5.73118ZM11.0888 385.653C10.674 385.653 10.2976 385.575 9.95952 385.419C9.62145 385.26 9.35298 385.031 9.15412 384.733C8.95526 384.432 8.85582 384.068 8.85582 383.642C8.85582 383.267 8.92969 382.963 9.07741 382.73C9.22514 382.494 9.42259 382.31 9.66974 382.176C9.9169 382.043 10.1896 381.943 10.4879 381.878C10.7891 381.81 11.0916 381.756 11.3956 381.716C11.7933 381.665 12.1158 381.626 12.3629 381.601C12.6129 381.572 12.7947 381.526 12.9084 381.46C13.0249 381.395 13.0831 381.281 13.0831 381.119V381.085C13.0831 380.665 12.968 380.338 12.7379 380.105C12.5107 379.872 12.1655 379.756 11.7024 379.756C11.2223 379.756 10.8459 379.861 10.5732 380.071C10.3004 380.281 10.1087 380.506 9.99787 380.744L9.04332 380.403C9.21378 380.006 9.44105 379.696 9.72514 379.474C10.0121 379.25 10.3246 379.094 10.6626 379.006C11.0036 378.915 11.3388 378.869 11.6683 378.869C11.8786 378.869 12.12 378.895 12.3928 378.946C12.6683 378.994 12.9339 379.095 13.1896 379.249C13.4482 379.402 13.6626 379.634 13.8331 379.943C14.0036 380.253 14.0888 380.668 14.0888 381.188V385.5H13.0831V384.614H13.032C12.9638 384.756 12.8501 384.908 12.6911 385.07C12.532 385.232 12.3203 385.369 12.0561 385.483C11.7919 385.597 11.4695 385.653 11.0888 385.653ZM11.2422 384.75C11.6399 384.75 11.9751 384.672 12.2479 384.516C12.5234 384.359 12.7308 384.158 12.87 383.911C13.0121 383.663 13.0831 383.403 13.0831 383.131V382.21C13.0405 382.261 12.9467 382.308 12.8018 382.351C12.6598 382.391 12.495 382.426 12.3075 382.457C12.1229 382.486 11.9425 382.511 11.7663 382.534C11.593 382.554 11.4524 382.571 11.3445 382.585C11.0831 382.619 10.8388 382.675 10.6115 382.751C10.3871 382.825 10.2053 382.937 10.0661 383.088C9.92969 383.236 9.86151 383.437 9.86151 383.693C9.86151 384.043 9.99077 384.307 10.2493 384.486C10.5107 384.662 10.8416 384.75 11.2422 384.75ZM15.9244 385.5V378.955H16.896V379.977H16.9812C17.1175 379.628 17.3377 379.357 17.6417 379.163C17.9457 378.967 18.3107 378.869 18.7369 378.869C19.1687 378.869 19.5281 378.967 19.815 379.163C20.1048 379.357 20.3306 379.628 20.4925 379.977H20.5607C20.7283 379.639 20.9798 379.371 21.315 379.172C21.6502 378.97 22.0522 378.869 22.521 378.869C23.1062 378.869 23.5849 379.053 23.957 379.419C24.3292 379.783 24.5153 380.349 24.5153 381.119V385.5H23.5096V381.119C23.5096 380.636 23.3775 380.291 23.1133 380.084C22.8491 379.876 22.538 379.773 22.18 379.773C21.7198 379.773 21.3633 379.912 21.1104 380.19C20.8576 380.466 20.7312 380.815 20.7312 381.239V385.5H19.7085V381.017C19.7085 380.645 19.5877 380.345 19.3462 380.118C19.1048 379.888 18.7937 379.773 18.413 379.773C18.1516 379.773 17.9073 379.842 17.68 379.982C17.4556 380.121 17.2738 380.314 17.1346 380.561C16.9982 380.805 16.93 381.088 16.93 381.409V385.5H15.9244ZM26.4904 385.5V376.773H27.4961V379.994H27.5813C27.6552 379.881 27.7575 379.736 27.8881 379.56C28.0217 379.381 28.212 379.222 28.4592 379.082C28.7092 378.94 29.0472 378.869 29.4734 378.869C30.0245 378.869 30.5103 379.007 30.9308 379.283C31.3512 379.558 31.6793 379.949 31.9151 380.455C32.1509 380.96 32.2688 381.557 32.2688 382.244C32.2688 382.938 32.1509 383.538 31.9151 384.047C31.6793 384.553 31.3526 384.945 30.935 385.223C30.5174 385.499 30.0359 385.636 29.4904 385.636C29.07 385.636 28.7333 385.567 28.4805 385.428C28.2276 385.286 28.033 385.125 27.8967 384.946C27.7603 384.764 27.6552 384.614 27.5813 384.494H27.462V385.5H26.4904ZM27.479 382.227C27.479 382.722 27.5515 383.158 27.6964 383.536C27.8413 383.911 28.0529 384.205 28.3313 384.418C28.6097 384.628 28.9506 384.733 29.354 384.733C29.7745 384.733 30.1254 384.622 30.4066 384.401C30.6907 384.176 30.9038 383.875 31.0458 383.497C31.1907 383.116 31.2631 382.693 31.2631 382.227C31.2631 381.767 31.1921 381.352 31.0501 380.983C30.9109 380.611 30.6992 380.317 30.4151 380.101C30.1339 379.882 29.7802 379.773 29.354 379.773C28.945 379.773 28.6012 379.876 28.3228 380.084C28.0444 380.288 27.8342 380.575 27.6921 380.945C27.5501 381.311 27.479 381.739 27.479 382.227ZM37.9322 382.824V378.955H38.9379V385.5H37.9322V384.392H37.864C37.7106 384.724 37.4719 385.007 37.1481 385.24C36.8242 385.47 36.4151 385.585 35.9208 385.585C35.5117 385.585 35.1481 385.496 34.8299 385.317C34.5117 385.135 34.2617 384.862 34.0799 384.499C33.8981 384.132 33.8072 383.67 33.8072 383.114V378.955H34.8129V383.045C34.8129 383.523 34.9464 383.903 35.2134 384.188C35.4833 384.472 35.8271 384.614 36.2447 384.614C36.4947 384.614 36.7489 384.55 37.0075 384.422C37.2688 384.294 37.4876 384.098 37.6637 383.834C37.8427 383.57 37.9322 383.233 37.9322 382.824ZM43.6264 378.955V379.807H40.2344V378.955H43.6264ZM41.223 377.386H42.2287V383.625C42.2287 383.909 42.2699 384.122 42.3523 384.264C42.4375 384.403 42.5455 384.497 42.6761 384.545C42.8097 384.591 42.9503 384.614 43.098 384.614C43.2088 384.614 43.2997 384.608 43.3707 384.597C43.4418 384.582 43.4986 384.571 43.5412 384.562L43.7457 385.466C43.6776 385.491 43.5824 385.517 43.4602 385.543C43.3381 385.571 43.1832 385.585 42.9957 385.585C42.7116 385.585 42.4332 385.524 42.1605 385.402C41.8906 385.28 41.6662 385.094 41.4872 384.844C41.3111 384.594 41.223 384.278 41.223 383.898V377.386ZM47.0653 385.653C46.6506 385.653 46.2741 385.575 45.9361 385.419C45.598 385.26 45.3295 385.031 45.1307 384.733C44.9318 384.432 44.8324 384.068 44.8324 383.642C44.8324 383.267 44.9063 382.963 45.054 382.73C45.2017 382.494 45.3991 382.31 45.6463 382.176C45.8935 382.043 46.1662 381.943 46.4645 381.878C46.7656 381.81 47.0682 381.756 47.3722 381.716C47.7699 381.665 48.0923 381.626 48.3395 381.601C48.5895 381.572 48.7713 381.526 48.8849 381.46C49.0014 381.395 49.0597 381.281 49.0597 381.119V381.085C49.0597 380.665 48.9446 380.338 48.7145 380.105C48.4872 379.872 48.142 379.756 47.679 379.756C47.1989 379.756 46.8224 379.861 46.5497 380.071C46.277 380.281 46.0852 380.506 45.9744 380.744L45.0199 380.403C45.1903 380.006 45.4176 379.696 45.7017 379.474C45.9886 379.25 46.3011 379.094 46.6392 379.006C46.9801 378.915 47.3153 378.869 47.6449 378.869C47.8551 378.869 48.0966 378.895 48.3693 378.946C48.6449 378.994 48.9105 379.095 49.1662 379.249C49.4247 379.402 49.6392 379.634 49.8097 379.943C49.9801 380.253 50.0653 380.668 50.0653 381.188V385.5H49.0597V384.614H49.0085C48.9403 384.756 48.8267 384.908 48.6676 385.07C48.5085 385.232 48.2969 385.369 48.0327 385.483C47.7685 385.597 47.446 385.653 47.0653 385.653ZM47.2188 384.75C47.6165 384.75 47.9517 384.672 48.2244 384.516C48.5 384.359 48.7074 384.158 48.8466 383.911C48.9886 383.663 49.0597 383.403 49.0597 383.131V382.21C49.017 382.261 48.9233 382.308 48.7784 382.351C48.6364 382.391 48.4716 382.426 48.2841 382.457C48.0994 382.486 47.919 382.511 47.7429 382.534C47.5696 382.554 47.429 382.571 47.321 382.585C47.0597 382.619 46.8153 382.675 46.5881 382.751C46.3636 382.825 46.1818 382.937 46.0426 383.088C45.9063 383.236 45.8381 383.437 45.8381 383.693C45.8381 384.043 45.9673 384.307 46.2259 384.486C46.4872 384.662 46.8182 384.75 47.2188 384.75ZM52.9066 381.562V385.5H51.9009V378.955H52.8725V379.977H52.9577C53.1112 379.645 53.3441 379.378 53.6566 379.176C53.9691 378.972 54.3725 378.869 54.8668 378.869C55.31 378.869 55.6978 378.96 56.0302 379.142C56.3626 379.321 56.6211 379.594 56.8058 379.96C56.9904 380.324 57.0827 380.784 57.0827 381.341V385.5H56.0771V381.409C56.0771 380.895 55.9435 380.494 55.6765 380.207C55.4094 379.918 55.043 379.773 54.5771 379.773C54.256 379.773 53.9691 379.842 53.7163 379.982C53.4663 380.121 53.2688 380.324 53.1239 380.591C52.979 380.858 52.9066 381.182 52.9066 381.562Z" fill="#181819" fill-opacity="0.4"/>
<path d="M6.27876 425.955C6.22763 425.523 6.02024 425.188 5.65661 424.949C5.29297 424.71 4.84695 424.591 4.31854 424.591C3.93217 424.591 3.59411 424.653 3.30433 424.778C3.0174 424.903 2.79297 425.075 2.63104 425.294C2.47195 425.513 2.3924 425.761 2.3924 426.04C2.3924 426.273 2.4478 426.473 2.55859 426.641C2.67223 426.805 2.81712 426.943 2.99325 427.054C3.16939 427.162 3.35405 427.251 3.54723 427.322C3.74041 427.391 3.91797 427.446 4.0799 427.489L4.96626 427.727C5.19354 427.787 5.44638 427.869 5.72479 427.974C6.00604 428.08 6.2745 428.223 6.53018 428.405C6.78871 428.584 7.00178 428.814 7.16939 429.095C7.337 429.376 7.42081 429.722 7.42081 430.131C7.42081 430.602 7.29723 431.028 7.05007 431.409C6.80575 431.79 6.4478 432.092 5.97621 432.317C5.50746 432.541 4.93786 432.653 4.2674 432.653C3.6424 432.653 3.10121 432.553 2.64382 432.351C2.18928 432.149 1.83132 431.868 1.56996 431.507C1.31143 431.146 1.16513 430.727 1.13104 430.25H2.22195C2.25036 430.58 2.36115 430.852 2.55433 431.068C2.75036 431.281 2.99751 431.44 3.29581 431.545C3.59695 431.648 3.92081 431.699 4.2674 431.699C4.67081 431.699 5.03303 431.634 5.35405 431.503C5.67507 431.369 5.92933 431.185 6.11683 430.949C6.30433 430.71 6.39808 430.432 6.39808 430.114C6.39808 429.824 6.31712 429.588 6.15518 429.406C5.99325 429.224 5.78018 429.077 5.51598 428.963C5.25178 428.849 4.96626 428.75 4.65945 428.665L3.58558 428.358C2.90376 428.162 2.36399 427.882 1.96626 427.518C1.56854 427.155 1.36967 426.679 1.36967 426.091C1.36967 425.602 1.50178 425.176 1.76598 424.812C2.03303 424.446 2.39098 424.162 2.83984 423.96C3.29155 423.756 3.79581 423.653 4.35263 423.653C4.91513 423.653 5.41513 423.754 5.85263 423.956C6.29013 424.155 6.63672 424.428 6.8924 424.774C7.15092 425.121 7.28729 425.514 7.30149 425.955H6.27876ZM10.9482 432.653C10.5334 432.653 10.157 432.575 9.81889 432.419C9.48082 432.26 9.21236 432.031 9.01349 431.733C8.81463 431.432 8.7152 431.068 8.7152 430.642C8.7152 430.267 8.78906 429.963 8.93679 429.73C9.08452 429.494 9.28196 429.31 9.52912 429.176C9.77628 429.043 10.049 428.943 10.3473 428.878C10.6484 428.81 10.951 428.756 11.255 428.716C11.6527 428.665 11.9751 428.626 12.2223 428.601C12.4723 428.572 12.6541 428.526 12.7678 428.46C12.8842 428.395 12.9425 428.281 12.9425 428.119V428.085C12.9425 427.665 12.8274 427.338 12.5973 427.105C12.37 426.872 12.0249 426.756 11.5618 426.756C11.0817 426.756 10.7053 426.861 10.4325 427.071C10.1598 427.281 9.96804 427.506 9.85724 427.744L8.9027 427.403C9.07315 427.006 9.30043 426.696 9.58452 426.474C9.87145 426.25 10.1839 426.094 10.522 426.006C10.8629 425.915 11.1982 425.869 11.5277 425.869C11.7379 425.869 11.9794 425.895 12.2521 425.946C12.5277 425.994 12.7933 426.095 13.049 426.249C13.3075 426.402 13.522 426.634 13.6925 426.943C13.8629 427.253 13.9482 427.668 13.9482 428.188V432.5H12.9425V431.614H12.8913C12.8232 431.756 12.7095 431.908 12.5504 432.07C12.3913 432.232 12.1797 432.369 11.9155 432.483C11.6513 432.597 11.3288 432.653 10.9482 432.653ZM11.1016 431.75C11.4993 431.75 11.8345 431.672 12.1072 431.516C12.3828 431.359 12.5902 431.158 12.7294 430.911C12.8714 430.663 12.9425 430.403 12.9425 430.131V429.21C12.8999 429.261 12.8061 429.308 12.6612 429.351C12.5192 429.391 12.3544 429.426 12.1669 429.457C11.9822 429.486 11.8018 429.511 11.6257 429.534C11.4524 429.554 11.3118 429.571 11.2038 429.585C10.9425 429.619 10.6982 429.675 10.4709 429.751C10.2464 429.825 10.0646 429.937 9.92543 430.088C9.78906 430.236 9.72088 430.437 9.72088 430.693C9.72088 431.043 9.85014 431.307 10.1087 431.486C10.37 431.662 10.701 431.75 11.1016 431.75ZM16.7894 423.773V432.5H15.7837V423.773H16.7894ZM20.5575 432.653C20.1428 432.653 19.7663 432.575 19.4283 432.419C19.0902 432.26 18.8217 432.031 18.6229 431.733C18.424 431.432 18.3246 431.068 18.3246 430.642C18.3246 430.267 18.3984 429.963 18.5462 429.73C18.6939 429.494 18.8913 429.31 19.1385 429.176C19.3857 429.043 19.6584 428.943 19.9567 428.878C20.2578 428.81 20.5604 428.756 20.8643 428.716C21.2621 428.665 21.5845 428.626 21.8317 428.601C22.0817 428.572 22.2635 428.526 22.3771 428.46C22.4936 428.395 22.5518 428.281 22.5518 428.119V428.085C22.5518 427.665 22.4368 427.338 22.2067 427.105C21.9794 426.872 21.6342 426.756 21.1712 426.756C20.6911 426.756 20.3146 426.861 20.0419 427.071C19.7692 427.281 19.5774 427.506 19.4666 427.744L18.5121 427.403C18.6825 427.006 18.9098 426.696 19.1939 426.474C19.4808 426.25 19.7933 426.094 20.1314 426.006C20.4723 425.915 20.8075 425.869 21.1371 425.869C21.3473 425.869 21.5888 425.895 21.8615 425.946C22.1371 425.994 22.4027 426.095 22.6584 426.249C22.9169 426.402 23.1314 426.634 23.3018 426.943C23.4723 427.253 23.5575 427.668 23.5575 428.188V432.5H22.5518V431.614H22.5007C22.4325 431.756 22.3189 431.908 22.1598 432.07C22.0007 432.232 21.7891 432.369 21.5249 432.483C21.2607 432.597 20.9382 432.653 20.5575 432.653ZM20.7109 431.75C21.1087 431.75 21.4439 431.672 21.7166 431.516C21.9922 431.359 22.1996 431.158 22.3388 430.911C22.4808 430.663 22.5518 430.403 22.5518 430.131V429.21C22.5092 429.261 22.4155 429.308 22.2706 429.351C22.1286 429.391 21.9638 429.426 21.7763 429.457C21.5916 429.486 21.4112 429.511 21.2351 429.534C21.0618 429.554 20.9212 429.571 20.8132 429.585C20.5518 429.619 20.3075 429.675 20.0803 429.751C19.8558 429.825 19.674 429.937 19.5348 430.088C19.3984 430.236 19.3303 430.437 19.3303 430.693C19.3303 431.043 19.4595 431.307 19.718 431.486C19.9794 431.662 20.3104 431.75 20.7109 431.75ZM26.3306 430.114L26.3136 428.869H26.5181L29.3817 425.955H30.6261L27.5749 429.04H27.4897L26.3306 430.114ZM25.3931 432.5V423.773H26.3988V432.5H25.3931ZM29.5522 432.5L26.9954 429.261L27.7113 428.562L30.8306 432.5H29.5522Z" fill="#181819" fill-opacity="0.4"/>
<path d="M818.66 49.556C818.7 48.756 818.98 48.14 819.5 47.708C820.028 47.268 820.72 47.048 821.576 47.048C822.16 47.048 822.66 47.152 823.076 47.36C823.492 47.56 823.804 47.836 824.012 48.188C824.228 48.532 824.336 48.924 824.336 49.364C824.336 49.868 824.204 50.296 823.94 50.648C823.684 50.992 823.376 51.224 823.016 51.344V51.392C823.48 51.536 823.84 51.792 824.096 52.16C824.36 52.528 824.492 53 824.492 53.576C824.492 54.056 824.38 54.484 824.156 54.86C823.94 55.236 823.616 55.532 823.184 55.748C822.76 55.956 822.248 56.06 821.648 56.06C820.744 56.06 820.008 55.832 819.44 55.376C818.872 54.92 818.572 54.248 818.54 53.36H820.172C820.188 53.752 820.32 54.068 820.568 54.308C820.824 54.54 821.172 54.656 821.612 54.656C822.02 54.656 822.332 54.544 822.548 54.32C822.772 54.088 822.884 53.792 822.884 53.432C822.884 52.952 822.732 52.608 822.428 52.4C822.124 52.192 821.652 52.088 821.012 52.088H820.664V50.708H821.012C822.148 50.708 822.716 50.328 822.716 49.568C822.716 49.224 822.612 48.956 822.404 48.764C822.204 48.572 821.912 48.476 821.528 48.476C821.152 48.476 820.86 48.58 820.652 48.788C820.452 48.988 820.336 49.244 820.304 49.556H818.66ZM831.7 48.704H827.812V50.756C827.98 50.548 828.22 50.38 828.532 50.252C828.844 50.116 829.176 50.048 829.528 50.048C830.168 50.048 830.692 50.188 831.1 50.468C831.508 50.748 831.804 51.108 831.988 51.548C832.172 51.98 832.264 52.444 832.264 52.94C832.264 53.86 832 54.6 831.472 55.16C830.952 55.72 830.208 56 829.24 56C828.328 56 827.6 55.772 827.056 55.316C826.512 54.86 826.204 54.264 826.132 53.528H827.764C827.836 53.848 827.996 54.104 828.244 54.296C828.5 54.488 828.824 54.584 829.216 54.584C829.688 54.584 830.044 54.436 830.284 54.14C830.524 53.844 830.644 53.452 830.644 52.964C830.644 52.468 830.52 52.092 830.272 51.836C830.032 51.572 829.676 51.44 829.204 51.44C828.868 51.44 828.588 51.524 828.364 51.692C828.14 51.86 827.98 52.084 827.884 52.364H826.276V47.228H831.7V48.704ZM842.294 47.624V48.98H840.062V56H838.382V48.98H836.15V47.624H842.294ZM846.471 56.108C845.831 56.108 845.255 55.968 844.743 55.688C844.231 55.4 843.827 54.996 843.531 54.476C843.243 53.956 843.099 53.356 843.099 52.676C843.099 51.996 843.247 51.396 843.543 50.876C843.847 50.356 844.259 49.956 844.779 49.676C845.299 49.388 845.879 49.244 846.519 49.244C847.159 49.244 847.739 49.388 848.259 49.676C848.779 49.956 849.187 50.356 849.483 50.876C849.787 51.396 849.939 51.996 849.939 52.676C849.939 53.356 849.783 53.956 849.471 54.476C849.167 54.996 848.751 55.4 848.223 55.688C847.703 55.968 847.119 56.108 846.471 56.108ZM846.471 54.644C846.775 54.644 847.059 54.572 847.323 54.428C847.595 54.276 847.811 54.052 847.971 53.756C848.131 53.46 848.211 53.1 848.211 52.676C848.211 52.044 848.043 51.56 847.707 51.224C847.379 50.88 846.975 50.708 846.495 50.708C846.015 50.708 845.611 50.88 845.283 51.224C844.963 51.56 844.803 52.044 844.803 52.676C844.803 53.308 844.959 53.796 845.271 54.14C845.591 54.476 845.991 54.644 846.471 54.644ZM854.856 49.256C855.648 49.256 856.288 49.508 856.776 50.012C857.264 50.508 857.508 51.204 857.508 52.1V56H855.828V52.328C855.828 51.8 855.696 51.396 855.432 51.116C855.168 50.828 854.808 50.684 854.352 50.684C853.888 50.684 853.52 50.828 853.248 51.116C852.984 51.396 852.852 51.8 852.852 52.328V56H851.172V49.352H852.852V50.18C853.076 49.892 853.36 49.668 853.704 49.508C854.056 49.34 854.44 49.256 854.856 49.256Z" fill="#E98A6D"/>
<rect x="810" y="36" width="32" height="698" rx="6" transform="rotate(90 810 36)" fill="#E98A6D"/>
<path d="M622.164 101.104C622.932 100.464 623.544 99.932 624 99.508C624.456 99.076 624.836 98.628 625.14 98.164C625.444 97.7 625.596 97.244 625.596 96.796C625.596 96.388 625.5 96.068 625.308 95.836C625.116 95.604 624.82 95.488 624.42 95.488C624.02 95.488 623.712 95.624 623.496 95.896C623.28 96.16 623.168 96.524 623.16 96.988H621.528C621.56 96.028 621.844 95.3 622.38 94.804C622.924 94.308 623.612 94.06 624.444 94.06C625.356 94.06 626.056 94.304 626.544 94.792C627.032 95.272 627.276 95.908 627.276 96.7C627.276 97.324 627.108 97.92 626.772 98.488C626.436 99.056 626.052 99.552 625.62 99.976C625.188 100.392 624.624 100.896 623.928 101.488H627.468V102.88H621.54V101.632L622.164 101.104ZM634.407 95.704H630.519V97.756C630.687 97.548 630.927 97.38 631.239 97.252C631.551 97.116 631.883 97.048 632.235 97.048C632.875 97.048 633.399 97.188 633.807 97.468C634.215 97.748 634.511 98.108 634.695 98.548C634.879 98.98 634.971 99.444 634.971 99.94C634.971 100.86 634.707 101.6 634.179 102.16C633.659 102.72 632.915 103 631.947 103C631.035 103 630.307 102.772 629.763 102.316C629.219 101.86 628.911 101.264 628.839 100.528H630.471C630.543 100.848 630.703 101.104 630.951 101.296C631.207 101.488 631.531 101.584 631.923 101.584C632.395 101.584 632.751 101.436 632.991 101.14C633.231 100.844 633.351 100.452 633.351 99.964C633.351 99.468 633.227 99.092 632.979 98.836C632.739 98.572 632.383 98.44 631.911 98.44C631.575 98.44 631.295 98.524 631.071 98.692C630.847 98.86 630.687 99.084 630.591 99.364H628.983V94.228H634.407V95.704ZM645.001 94.624V95.98H642.769V103H641.089V95.98H638.857V94.624H645.001ZM649.178 103.108C648.538 103.108 647.962 102.968 647.45 102.688C646.938 102.4 646.534 101.996 646.238 101.476C645.95 100.956 645.806 100.356 645.806 99.676C645.806 98.996 645.954 98.396 646.25 97.876C646.554 97.356 646.966 96.956 647.486 96.676C648.006 96.388 648.586 96.244 649.226 96.244C649.866 96.244 650.446 96.388 650.966 96.676C651.486 96.956 651.894 97.356 652.19 97.876C652.494 98.396 652.646 98.996 652.646 99.676C652.646 100.356 652.49 100.956 652.178 101.476C651.874 101.996 651.458 102.4 650.93 102.688C650.41 102.968 649.826 103.108 649.178 103.108ZM649.178 101.644C649.482 101.644 649.766 101.572 650.03 101.428C650.302 101.276 650.518 101.052 650.678 100.756C650.838 100.46 650.918 100.1 650.918 99.676C650.918 99.044 650.75 98.56 650.414 98.224C650.086 97.88 649.682 97.708 649.202 97.708C648.722 97.708 648.318 97.88 647.99 98.224C647.67 98.56 647.51 99.044 647.51 99.676C647.51 100.308 647.666 100.796 647.978 101.14C648.298 101.476 648.698 101.644 649.178 101.644ZM657.563 96.256C658.355 96.256 658.995 96.508 659.483 97.012C659.971 97.508 660.215 98.204 660.215 99.1V103H658.535V99.328C658.535 98.8 658.403 98.396 658.139 98.116C657.875 97.828 657.515 97.684 657.059 97.684C656.595 97.684 656.227 97.828 655.955 98.116C655.691 98.396 655.559 98.8 655.559 99.328V103H653.879V96.352H655.559V97.18C655.783 96.892 656.067 96.668 656.411 96.508C656.763 96.34 657.147 96.256 657.563 96.256Z" fill="#E98A6D"/>
<rect x="613" y="83" width="32" height="501" rx="6" transform="rotate(90 613 83)" fill="#E98A6D"/>
<path d="M423.432 142.8V141.252H426.324V150H424.596V142.8H423.432ZM433.864 142.704H429.976V144.756C430.144 144.548 430.384 144.38 430.696 144.252C431.008 144.116 431.34 144.048 431.692 144.048C432.332 144.048 432.856 144.188 433.264 144.468C433.672 144.748 433.968 145.108 434.152 145.548C434.336 145.98 434.428 146.444 434.428 146.94C434.428 147.86 434.164 148.6 433.636 149.16C433.116 149.72 432.372 150 431.404 150C430.492 150 429.764 149.772 429.22 149.316C428.676 148.86 428.368 148.264 428.296 147.528H429.928C430 147.848 430.16 148.104 430.408 148.296C430.664 148.488 430.988 148.584 431.38 148.584C431.852 148.584 432.208 148.436 432.448 148.14C432.688 147.844 432.808 147.452 432.808 146.964C432.808 146.468 432.684 146.092 432.436 145.836C432.196 145.572 431.84 145.44 431.368 145.44C431.032 145.44 430.752 145.524 430.528 145.692C430.304 145.86 430.144 146.084 430.048 146.364H428.44V141.228H433.864V142.704ZM444.458 141.624V142.98H442.226V150H440.546V142.98H438.314V141.624H444.458ZM448.635 150.108C447.995 150.108 447.419 149.968 446.907 149.688C446.395 149.4 445.991 148.996 445.695 148.476C445.407 147.956 445.263 147.356 445.263 146.676C445.263 145.996 445.411 145.396 445.707 144.876C446.011 144.356 446.423 143.956 446.943 143.676C447.463 143.388 448.043 143.244 448.683 143.244C449.323 143.244 449.903 143.388 450.423 143.676C450.943 143.956 451.351 144.356 451.647 144.876C451.951 145.396 452.103 145.996 452.103 146.676C452.103 147.356 451.947 147.956 451.635 148.476C451.331 148.996 450.915 149.4 450.387 149.688C449.867 149.968 449.283 150.108 448.635 150.108ZM448.635 148.644C448.939 148.644 449.223 148.572 449.487 148.428C449.759 148.276 449.975 148.052 450.135 147.756C450.295 147.46 450.375 147.1 450.375 146.676C450.375 146.044 450.207 145.56 449.871 145.224C449.543 144.88 449.139 144.708 448.659 144.708C448.179 144.708 447.775 144.88 447.447 145.224C447.127 145.56 446.967 146.044 446.967 146.676C446.967 147.308 447.123 147.796 447.435 148.14C447.755 148.476 448.155 148.644 448.635 148.644ZM457.02 143.256C457.812 143.256 458.452 143.508 458.94 144.012C459.428 144.508 459.672 145.204 459.672 146.1V150H457.992V146.328C457.992 145.8 457.86 145.396 457.596 145.116C457.332 144.828 456.972 144.684 456.516 144.684C456.052 144.684 455.684 144.828 455.412 145.116C455.148 145.396 455.016 145.8 455.016 146.328V150H453.336V143.352H455.016V144.18C455.24 143.892 455.524 143.668 455.868 143.508C456.22 143.34 456.604 143.256 457.02 143.256Z" fill="#E98A6D"/>
<rect x="415" y="130" width="32" height="303" rx="6" transform="rotate(90 415 130)" fill="#E98A6D"/>
<path d="M562.164 195.104C562.932 194.464 563.544 193.932 564 193.508C564.456 193.076 564.836 192.628 565.14 192.164C565.444 191.7 565.596 191.244 565.596 190.796C565.596 190.388 565.5 190.068 565.308 189.836C565.116 189.604 564.82 189.488 564.42 189.488C564.02 189.488 563.712 189.624 563.496 189.896C563.28 190.16 563.168 190.524 563.16 190.988H561.528C561.56 190.028 561.844 189.3 562.38 188.804C562.924 188.308 563.612 188.06 564.444 188.06C565.356 188.06 566.056 188.304 566.544 188.792C567.032 189.272 567.276 189.908 567.276 190.7C567.276 191.324 567.108 191.92 566.772 192.488C566.436 193.056 566.052 193.552 565.62 193.976C565.188 194.392 564.624 194.896 563.928 195.488H567.468V196.88H561.54V195.632L562.164 195.104ZM568.551 190.556C568.591 189.756 568.871 189.14 569.391 188.708C569.919 188.268 570.611 188.048 571.467 188.048C572.051 188.048 572.551 188.152 572.967 188.36C573.383 188.56 573.695 188.836 573.903 189.188C574.119 189.532 574.227 189.924 574.227 190.364C574.227 190.868 574.095 191.296 573.831 191.648C573.575 191.992 573.267 192.224 572.907 192.344V192.392C573.371 192.536 573.731 192.792 573.987 193.16C574.251 193.528 574.383 194 574.383 194.576C574.383 195.056 574.271 195.484 574.047 195.86C573.831 196.236 573.507 196.532 573.075 196.748C572.651 196.956 572.139 197.06 571.539 197.06C570.635 197.06 569.899 196.832 569.331 196.376C568.763 195.92 568.463 195.248 568.431 194.36H570.063C570.079 194.752 570.211 195.068 570.459 195.308C570.715 195.54 571.063 195.656 571.503 195.656C571.911 195.656 572.223 195.544 572.439 195.32C572.663 195.088 572.775 194.792 572.775 194.432C572.775 193.952 572.623 193.608 572.319 193.4C572.015 193.192 571.543 193.088 570.903 193.088H570.555V191.708H570.903C572.039 191.708 572.607 191.328 572.607 190.568C572.607 190.224 572.503 189.956 572.295 189.764C572.095 189.572 571.803 189.476 571.419 189.476C571.043 189.476 570.751 189.58 570.543 189.788C570.343 189.988 570.227 190.244 570.195 190.556H568.551ZM584.462 188.624V189.98H582.23V197H580.55V189.98H578.318V188.624H584.462ZM588.639 197.108C587.999 197.108 587.423 196.968 586.911 196.688C586.399 196.4 585.995 195.996 585.699 195.476C585.411 194.956 585.267 194.356 585.267 193.676C585.267 192.996 585.415 192.396 585.711 191.876C586.015 191.356 586.427 190.956 586.947 190.676C587.467 190.388 588.047 190.244 588.687 190.244C589.327 190.244 589.907 190.388 590.427 190.676C590.947 190.956 591.355 191.356 591.651 191.876C591.955 192.396 592.107 192.996 592.107 193.676C592.107 194.356 591.951 194.956 591.639 195.476C591.335 195.996 590.919 196.4 590.391 196.688C589.871 196.968 589.287 197.108 588.639 197.108ZM588.639 195.644C588.943 195.644 589.227 195.572 589.491 195.428C589.763 195.276 589.979 195.052 590.139 194.756C590.299 194.46 590.379 194.1 590.379 193.676C590.379 193.044 590.211 192.56 589.875 192.224C589.547 191.88 589.143 191.708 588.663 191.708C588.183 191.708 587.779 191.88 587.451 192.224C587.131 192.56 586.971 193.044 586.971 193.676C586.971 194.308 587.127 194.796 587.439 195.14C587.759 195.476 588.159 195.644 588.639 195.644ZM597.024 190.256C597.816 190.256 598.456 190.508 598.944 191.012C599.432 191.508 599.676 192.204 599.676 193.1V197H597.996V193.328C597.996 192.8 597.864 192.396 597.6 192.116C597.336 191.828 596.976 191.684 596.52 191.684C596.056 191.684 595.688 191.828 595.416 192.116C595.152 192.396 595.02 192.8 595.02 193.328V197H593.34V190.352H595.02V191.18C595.244 190.892 595.528 190.668 595.872 190.508C596.224 190.34 596.608 190.256 597.024 190.256Z" fill="#E98A6D"/>
<rect x="553" y="177" width="32" height="441" rx="6" transform="rotate(90 553 177)" fill="#E98A6D"/>
<path d="M227.516 236.704H223.628V238.756C223.796 238.548 224.036 238.38 224.348 238.252C224.66 238.116 224.992 238.048 225.344 238.048C225.984 238.048 226.508 238.188 226.916 238.468C227.324 238.748 227.62 239.108 227.804 239.548C227.988 239.98 228.08 240.444 228.08 240.94C228.08 241.86 227.816 242.6 227.288 243.16C226.768 243.72 226.024 244 225.056 244C224.144 244 223.416 243.772 222.872 243.316C222.328 242.86 222.02 242.264 221.948 241.528H223.58C223.652 241.848 223.812 242.104 224.06 242.296C224.316 242.488 224.64 242.584 225.032 242.584C225.504 242.584 225.86 242.436 226.1 242.14C226.34 241.844 226.46 241.452 226.46 240.964C226.46 240.468 226.336 240.092 226.088 239.836C225.848 239.572 225.492 239.44 225.02 239.44C224.684 239.44 224.404 239.524 224.18 239.692C223.956 239.86 223.796 240.084 223.7 240.364H222.092V235.228H227.516V236.704ZM238.11 235.624V236.98H235.878V244H234.198V236.98H231.966V235.624H238.11ZM242.288 244.108C241.648 244.108 241.072 243.968 240.56 243.688C240.048 243.4 239.644 242.996 239.348 242.476C239.06 241.956 238.916 241.356 238.916 240.676C238.916 239.996 239.064 239.396 239.36 238.876C239.664 238.356 240.076 237.956 240.596 237.676C241.116 237.388 241.696 237.244 242.336 237.244C242.976 237.244 243.556 237.388 244.076 237.676C244.596 237.956 245.004 238.356 245.3 238.876C245.604 239.396 245.756 239.996 245.756 240.676C245.756 241.356 245.6 241.956 245.288 242.476C244.984 242.996 244.568 243.4 244.04 243.688C243.52 243.968 242.936 244.108 242.288 244.108ZM242.288 242.644C242.592 242.644 242.876 242.572 243.14 242.428C243.412 242.276 243.628 242.052 243.788 241.756C243.948 241.46 244.028 241.1 244.028 240.676C244.028 240.044 243.86 239.56 243.524 239.224C243.196 238.88 242.792 238.708 242.312 238.708C241.832 238.708 241.428 238.88 241.1 239.224C240.78 239.56 240.62 240.044 240.62 240.676C240.62 241.308 240.776 241.796 241.088 242.14C241.408 242.476 241.808 242.644 242.288 242.644ZM250.672 237.256C251.464 237.256 252.104 237.508 252.592 238.012C253.08 238.508 253.324 239.204 253.324 240.1V244H251.644V240.328C251.644 239.8 251.512 239.396 251.248 239.116C250.984 238.828 250.624 238.684 250.168 238.684C249.704 238.684 249.336 238.828 249.064 239.116C248.8 239.396 248.668 239.8 248.668 240.328V244H246.988V237.352H248.668V238.18C248.892 237.892 249.176 237.668 249.52 237.508C249.872 237.34 250.256 237.256 250.672 237.256Z" fill="#E98A6D"/>
<rect x="213" y="224" width="32" height="101" rx="6" transform="rotate(90 213 224)" fill="#E98A6D"/>
<path d="M466.432 283.8V282.252H469.324V291H467.596V283.8H466.432ZM476.552 283.524L473.36 291H471.656L474.872 283.716H470.768V282.276H476.552V283.524ZM486.309 282.624V283.98H484.077V291H482.397V283.98H480.165V282.624H486.309ZM490.487 291.108C489.847 291.108 489.271 290.968 488.759 290.688C488.247 290.4 487.843 289.996 487.547 289.476C487.259 288.956 487.115 288.356 487.115 287.676C487.115 286.996 487.263 286.396 487.559 285.876C487.863 285.356 488.275 284.956 488.795 284.676C489.315 284.388 489.895 284.244 490.535 284.244C491.175 284.244 491.755 284.388 492.275 284.676C492.795 284.956 493.203 285.356 493.499 285.876C493.803 286.396 493.955 286.996 493.955 287.676C493.955 288.356 493.799 288.956 493.487 289.476C493.183 289.996 492.767 290.4 492.239 290.688C491.719 290.968 491.135 291.108 490.487 291.108ZM490.487 289.644C490.791 289.644 491.075 289.572 491.339 289.428C491.611 289.276 491.827 289.052 491.987 288.756C492.147 288.46 492.227 288.1 492.227 287.676C492.227 287.044 492.059 286.56 491.723 286.224C491.395 285.88 490.991 285.708 490.511 285.708C490.031 285.708 489.627 285.88 489.299 286.224C488.979 286.56 488.819 287.044 488.819 287.676C488.819 288.308 488.975 288.796 489.287 289.14C489.607 289.476 490.007 289.644 490.487 289.644ZM498.871 284.256C499.663 284.256 500.303 284.508 500.791 285.012C501.279 285.508 501.523 286.204 501.523 287.1V291H499.843V287.328C499.843 286.8 499.711 286.396 499.447 286.116C499.183 285.828 498.823 285.684 498.367 285.684C497.903 285.684 497.535 285.828 497.263 286.116C496.999 286.396 496.867 286.8 496.867 287.328V291H495.187V284.352H496.867V285.18C497.091 284.892 497.375 284.668 497.719 284.508C498.071 284.34 498.455 284.256 498.871 284.256Z" fill="#E98A6D"/>
<rect x="458" y="271" width="32" height="346" rx="6" transform="rotate(90 458 271)" fill="#E98A6D"/>
<path d="M360.432 330.8V329.252H363.324V338H361.596V330.8H360.432ZM365.008 331.556C365.048 330.756 365.328 330.14 365.848 329.708C366.376 329.268 367.068 329.048 367.924 329.048C368.508 329.048 369.008 329.152 369.424 329.36C369.84 329.56 370.152 329.836 370.36 330.188C370.576 330.532 370.684 330.924 370.684 331.364C370.684 331.868 370.552 332.296 370.288 332.648C370.032 332.992 369.724 333.224 369.364 333.344V333.392C369.828 333.536 370.188 333.792 370.444 334.16C370.708 334.528 370.84 335 370.84 335.576C370.84 336.056 370.728 336.484 370.504 336.86C370.288 337.236 369.964 337.532 369.532 337.748C369.108 337.956 368.596 338.06 367.996 338.06C367.092 338.06 366.356 337.832 365.788 337.376C365.22 336.92 364.92 336.248 364.888 335.36H366.52C366.536 335.752 366.668 336.068 366.916 336.308C367.172 336.54 367.52 336.656 367.96 336.656C368.368 336.656 368.68 336.544 368.896 336.32C369.12 336.088 369.232 335.792 369.232 335.432C369.232 334.952 369.08 334.608 368.776 334.4C368.472 334.192 368 334.088 367.36 334.088H367.012V332.708H367.36C368.496 332.708 369.064 332.328 369.064 331.568C369.064 331.224 368.96 330.956 368.752 330.764C368.552 330.572 368.26 330.476 367.876 330.476C367.5 330.476 367.208 330.58 367 330.788C366.8 330.988 366.684 331.244 366.652 331.556H365.008ZM380.919 329.624V330.98H378.687V338H377.007V330.98H374.775V329.624H380.919ZM385.096 338.108C384.456 338.108 383.88 337.968 383.368 337.688C382.856 337.4 382.452 336.996 382.156 336.476C381.868 335.956 381.724 335.356 381.724 334.676C381.724 333.996 381.872 333.396 382.168 332.876C382.472 332.356 382.884 331.956 383.404 331.676C383.924 331.388 384.504 331.244 385.144 331.244C385.784 331.244 386.364 331.388 386.884 331.676C387.404 331.956 387.812 332.356 388.108 332.876C388.412 333.396 388.564 333.996 388.564 334.676C388.564 335.356 388.408 335.956 388.096 336.476C387.792 336.996 387.376 337.4 386.848 337.688C386.328 337.968 385.744 338.108 385.096 338.108ZM385.096 336.644C385.4 336.644 385.684 336.572 385.948 336.428C386.22 336.276 386.436 336.052 386.596 335.756C386.756 335.46 386.836 335.1 386.836 334.676C386.836 334.044 386.668 333.56 386.332 333.224C386.004 332.88 385.6 332.708 385.12 332.708C384.64 332.708 384.236 332.88 383.908 333.224C383.588 333.56 383.428 334.044 383.428 334.676C383.428 335.308 383.584 335.796 383.896 336.14C384.216 336.476 384.616 336.644 385.096 336.644ZM393.481 331.256C394.273 331.256 394.913 331.508 395.401 332.012C395.889 332.508 396.133 333.204 396.133 334.1V338H394.453V334.328C394.453 333.8 394.321 333.396 394.057 333.116C393.793 332.828 393.433 332.684 392.977 332.684C392.513 332.684 392.145 332.828 391.873 333.116C391.609 333.396 391.477 333.8 391.477 334.328V338H389.797V331.352H391.477V332.18C391.701 331.892 391.985 331.668 392.329 331.508C392.681 331.34 393.065 331.256 393.481 331.256Z" fill="#E98A6D"/>
<rect x="352" y="318" width="32" height="240" rx="6" transform="rotate(90 352 318)" fill="#E98A6D"/>
<path d="M151.66 378.556C151.7 377.756 151.98 377.14 152.5 376.708C153.028 376.268 153.72 376.048 154.576 376.048C155.16 376.048 155.66 376.152 156.076 376.36C156.492 376.56 156.804 376.836 157.012 377.188C157.228 377.532 157.336 377.924 157.336 378.364C157.336 378.868 157.204 379.296 156.94 379.648C156.684 379.992 156.376 380.224 156.016 380.344V380.392C156.48 380.536 156.84 380.792 157.096 381.16C157.36 381.528 157.492 382 157.492 382.576C157.492 383.056 157.38 383.484 157.156 383.86C156.94 384.236 156.616 384.532 156.184 384.748C155.76 384.956 155.248 385.06 154.648 385.06C153.744 385.06 153.008 384.832 152.44 384.376C151.872 383.92 151.572 383.248 151.54 382.36H153.172C153.188 382.752 153.32 383.068 153.568 383.308C153.824 383.54 154.172 383.656 154.612 383.656C155.02 383.656 155.332 383.544 155.548 383.32C155.772 383.088 155.884 382.792 155.884 382.432C155.884 381.952 155.732 381.608 155.428 381.4C155.124 381.192 154.652 381.088 154.012 381.088H153.664V379.708H154.012C155.148 379.708 155.716 379.328 155.716 378.568C155.716 378.224 155.612 377.956 155.404 377.764C155.204 377.572 154.912 377.476 154.528 377.476C154.152 377.476 153.86 377.58 153.652 377.788C153.452 377.988 153.336 378.244 153.304 378.556H151.66ZM167.571 376.624V377.98H165.339V385H163.659V377.98H161.427V376.624H167.571ZM171.749 385.108C171.109 385.108 170.533 384.968 170.021 384.688C169.509 384.4 169.105 383.996 168.809 383.476C168.521 382.956 168.377 382.356 168.377 381.676C168.377 380.996 168.525 380.396 168.821 379.876C169.125 379.356 169.537 378.956 170.057 378.676C170.577 378.388 171.157 378.244 171.797 378.244C172.437 378.244 173.017 378.388 173.537 378.676C174.057 378.956 174.465 379.356 174.761 379.876C175.065 380.396 175.217 380.996 175.217 381.676C175.217 382.356 175.061 382.956 174.749 383.476C174.445 383.996 174.029 384.4 173.501 384.688C172.981 384.968 172.397 385.108 171.749 385.108ZM171.749 383.644C172.053 383.644 172.337 383.572 172.601 383.428C172.873 383.276 173.089 383.052 173.249 382.756C173.409 382.46 173.489 382.1 173.489 381.676C173.489 381.044 173.321 380.56 172.985 380.224C172.657 379.88 172.253 379.708 171.773 379.708C171.293 379.708 170.889 379.88 170.561 380.224C170.241 380.56 170.081 381.044 170.081 381.676C170.081 382.308 170.237 382.796 170.549 383.14C170.869 383.476 171.269 383.644 171.749 383.644ZM180.133 378.256C180.925 378.256 181.565 378.508 182.053 379.012C182.541 379.508 182.785 380.204 182.785 381.1V385H181.105V381.328C181.105 380.8 180.973 380.396 180.709 380.116C180.445 379.828 180.085 379.684 179.629 379.684C179.165 379.684 178.797 379.828 178.525 380.116C178.261 380.396 178.129 380.8 178.129 381.328V385H176.449V378.352H178.129V379.18C178.353 378.892 178.637 378.668 178.981 378.508C179.333 378.34 179.717 378.256 180.133 378.256Z" fill="#E98A6D"/>
<rect x="143" y="365" width="32" height="31" rx="6" transform="rotate(90 143 365)" fill="#E98A6D"/>
<path d="M294.204 424.524L291.012 432H289.308L292.524 424.716H288.42V423.276H294.204V424.524ZM303.962 423.624V424.98H301.73V432H300.05V424.98H297.818V423.624H303.962ZM308.139 432.108C307.499 432.108 306.923 431.968 306.411 431.688C305.899 431.4 305.495 430.996 305.199 430.476C304.911 429.956 304.767 429.356 304.767 428.676C304.767 427.996 304.915 427.396 305.211 426.876C305.515 426.356 305.927 425.956 306.447 425.676C306.967 425.388 307.547 425.244 308.187 425.244C308.827 425.244 309.407 425.388 309.927 425.676C310.447 425.956 310.855 426.356 311.151 426.876C311.455 427.396 311.607 427.996 311.607 428.676C311.607 429.356 311.451 429.956 311.139 430.476C310.835 430.996 310.419 431.4 309.891 431.688C309.371 431.968 308.787 432.108 308.139 432.108ZM308.139 430.644C308.443 430.644 308.727 430.572 308.991 430.428C309.263 430.276 309.479 430.052 309.639 429.756C309.799 429.46 309.879 429.1 309.879 428.676C309.879 428.044 309.711 427.56 309.375 427.224C309.047 426.88 308.643 426.708 308.163 426.708C307.683 426.708 307.279 426.88 306.951 427.224C306.631 427.56 306.471 428.044 306.471 428.676C306.471 429.308 306.627 429.796 306.939 430.14C307.259 430.476 307.659 430.644 308.139 430.644ZM316.524 425.256C317.316 425.256 317.956 425.508 318.444 426.012C318.932 426.508 319.176 427.204 319.176 428.1V432H317.496V428.328C317.496 427.8 317.364 427.396 317.1 427.116C316.836 426.828 316.476 426.684 316.02 426.684C315.556 426.684 315.188 426.828 314.916 427.116C314.652 427.396 314.52 427.8 314.52 428.328V432H312.84V425.352H314.52V426.18C314.744 425.892 315.028 425.668 315.372 425.508C315.724 425.34 316.108 425.256 316.524 425.256Z" fill="#E98A6D"/>
<rect x="280" y="412" width="32" height="168" rx="6" transform="rotate(90 280 412)" fill="#E98A6D"/>
</svg>
