<svg width="438" height="360" viewBox="0 0 438 360" fill="none" xmlns="http://www.w3.org/2000/svg">
<path d="M7.6147 343.21V342.273H14.1602V343.21H11.4158V351H10.359V343.21H7.6147ZM17.3647 351.136C16.7738 351.136 16.2553 350.996 15.8093 350.714C15.3661 350.433 15.0195 350.04 14.7695 349.534C14.5224 349.028 14.3988 348.437 14.3988 347.761C14.3988 347.08 14.5224 346.484 14.7695 345.976C15.0195 345.467 15.3661 345.072 15.8093 344.791C16.2553 344.51 16.7738 344.369 17.3647 344.369C17.9556 344.369 18.4727 344.51 18.9158 344.791C19.3619 345.072 19.7085 345.467 19.9556 345.976C20.2056 346.484 20.3306 347.08 20.3306 347.761C20.3306 348.437 20.2056 349.028 19.9556 349.534C19.7085 350.04 19.3619 350.433 18.9158 350.714C18.4727 350.996 17.9556 351.136 17.3647 351.136ZM17.3647 350.233C17.8136 350.233 18.1829 350.118 18.4727 349.888C18.7624 349.658 18.9769 349.355 19.1161 348.98C19.2553 348.605 19.3249 348.199 19.3249 347.761C19.3249 347.324 19.2553 346.916 19.1161 346.538C18.9769 346.161 18.7624 345.855 18.4727 345.622C18.1829 345.389 17.8136 345.273 17.3647 345.273C16.9158 345.273 16.5465 345.389 16.2567 345.622C15.967 345.855 15.7525 346.161 15.6133 346.538C15.4741 346.916 15.4045 347.324 15.4045 347.761C15.4045 348.199 15.4741 348.605 15.6133 348.98C15.7525 349.355 15.967 349.658 16.2567 349.888C16.5465 350.118 16.9158 350.233 17.3647 350.233ZM22.8714 347.062V351H21.8658V344.455H22.8374V345.477H22.9226C23.076 345.145 23.3089 344.878 23.6214 344.676C23.9339 344.472 24.3374 344.369 24.8317 344.369C25.2749 344.369 25.6626 344.46 25.995 344.642C26.3274 344.821 26.5859 345.094 26.7706 345.46C26.9553 345.824 27.0476 346.284 27.0476 346.841V351H26.0419V346.909C26.0419 346.395 25.9084 345.994 25.6413 345.707C25.3743 345.418 25.0078 345.273 24.5419 345.273C24.2209 345.273 23.9339 345.342 23.6811 345.482C23.4311 345.621 23.2337 345.824 23.0888 346.091C22.9439 346.358 22.8714 346.682 22.8714 347.062Z" fill="white" fill-opacity="0.42"/>
<path d="M38.8744 351V342.273H41.9255C42.5335 342.273 43.0349 342.378 43.4298 342.588C43.8247 342.795 44.1187 343.075 44.3119 343.428C44.5051 343.777 44.6017 344.165 44.6017 344.591C44.6017 344.966 44.5349 345.276 44.4014 345.52C44.2707 345.764 44.0974 345.957 43.8815 346.099C43.6684 346.241 43.4369 346.347 43.1869 346.415V346.5C43.4539 346.517 43.7224 346.611 43.9923 346.781C44.2622 346.952 44.488 347.196 44.6699 347.514C44.8517 347.832 44.9426 348.222 44.9426 348.682C44.9426 349.119 44.8431 349.513 44.6443 349.862C44.4454 350.212 44.1315 350.489 43.7025 350.693C43.2735 350.898 42.7153 351 42.0278 351H38.8744ZM39.9312 350.062H42.0278C42.7181 350.062 43.2082 349.929 43.498 349.662C43.7906 349.392 43.9369 349.065 43.9369 348.682C43.9369 348.386 43.8616 348.114 43.711 347.864C43.5605 347.611 43.346 347.409 43.0676 347.259C42.7892 347.105 42.4596 347.028 42.0789 347.028H39.9312V350.062ZM39.9312 346.108H41.8914C42.2096 346.108 42.4966 346.045 42.7522 345.92C43.0108 345.795 43.2153 345.619 43.3659 345.392C43.5193 345.165 43.596 344.898 43.596 344.591C43.596 344.207 43.4625 343.882 43.1954 343.615C42.9284 343.345 42.5051 343.21 41.9255 343.21H39.9312V346.108ZM48.4689 351.153C48.0541 351.153 47.6777 351.075 47.3396 350.919C47.0015 350.76 46.7331 350.531 46.5342 350.233C46.3353 349.932 46.2359 349.568 46.2359 349.142C46.2359 348.767 46.3098 348.463 46.4575 348.23C46.6052 347.994 46.8027 347.81 47.0498 347.676C47.297 347.543 47.5697 347.443 47.868 347.378C48.1691 347.31 48.4717 347.256 48.7757 347.216C49.1734 347.165 49.4958 347.126 49.743 347.101C49.993 347.072 50.1748 347.026 50.2885 346.96C50.4049 346.895 50.4632 346.781 50.4632 346.619V346.585C50.4632 346.165 50.3481 345.838 50.118 345.605C49.8907 345.372 49.5456 345.256 49.0825 345.256C48.6024 345.256 48.226 345.361 47.9532 345.571C47.6805 345.781 47.4887 346.006 47.3779 346.244L46.4234 345.903C46.5939 345.506 46.8211 345.196 47.1052 344.974C47.3922 344.75 47.7047 344.594 48.0427 344.506C48.3836 344.415 48.7189 344.369 49.0484 344.369C49.2586 344.369 49.5001 344.395 49.7728 344.446C50.0484 344.494 50.314 344.595 50.5697 344.749C50.8282 344.902 51.0427 345.134 51.2132 345.443C51.3836 345.753 51.4689 346.168 51.4689 346.688V351H50.4632V350.114H50.412C50.3439 350.256 50.2302 350.408 50.0711 350.57C49.912 350.732 49.7004 350.869 49.4362 350.983C49.172 351.097 48.8495 351.153 48.4689 351.153ZM48.6223 350.25C49.02 350.25 49.3552 350.172 49.6279 350.016C49.9035 349.859 50.1109 349.658 50.2501 349.411C50.3922 349.163 50.4632 348.903 50.4632 348.631V347.71C50.4206 347.761 50.3268 347.808 50.1819 347.851C50.0399 347.891 49.8751 347.926 49.6876 347.957C49.5029 347.986 49.3225 348.011 49.1464 348.034C48.9731 348.054 48.8325 348.071 48.7245 348.085C48.4632 348.119 48.2189 348.175 47.9916 348.251C47.7672 348.325 47.5853 348.437 47.4461 348.588C47.3098 348.736 47.2416 348.937 47.2416 349.193C47.2416 349.543 47.3708 349.807 47.6294 349.986C47.8907 350.162 48.2217 350.25 48.6223 350.25ZM54.3101 347.062V351H53.3044V344.455H54.276V345.477H54.3613C54.5147 345.145 54.7476 344.878 55.0601 344.676C55.3726 344.472 55.776 344.369 56.2703 344.369C56.7135 344.369 57.1013 344.46 57.4337 344.642C57.7661 344.821 58.0246 345.094 58.2093 345.46C58.3939 345.824 58.4863 346.284 58.4863 346.841V351H57.4806V346.909C57.4806 346.395 57.3471 345.994 57.08 345.707C56.813 345.418 56.4465 345.273 55.9806 345.273C55.6596 345.273 55.3726 345.342 55.1198 345.482C54.8698 345.621 54.6723 345.824 54.5274 346.091C54.3826 346.358 54.3101 346.682 54.3101 347.062ZM60.324 344.455H61.3297V351.477C61.3297 351.881 61.26 352.23 61.1208 352.526C60.9845 352.821 60.7771 353.05 60.4987 353.212C60.2231 353.374 59.8751 353.455 59.4547 353.455C59.4206 353.455 59.3865 353.455 59.3524 353.455C59.3183 353.455 59.2842 353.455 59.2501 353.455V352.517C59.2842 352.517 59.3154 352.517 59.3439 352.517C59.3723 352.517 59.4035 352.517 59.4376 352.517C59.7444 352.517 59.9689 352.426 60.1109 352.244C60.2529 352.065 60.324 351.81 60.324 351.477V344.455ZM60.8183 343.364C60.6223 343.364 60.4532 343.297 60.3112 343.163C60.172 343.03 60.1024 342.869 60.1024 342.682C60.1024 342.494 60.172 342.334 60.3112 342.2C60.4532 342.067 60.6223 342 60.8183 342C61.0143 342 61.1819 342.067 61.3211 342.2C61.4632 342.334 61.5342 342.494 61.5342 342.682C61.5342 342.869 61.4632 343.03 61.3211 343.163C61.1819 343.297 61.0143 343.364 60.8183 343.364ZM65.0978 351.153C64.683 351.153 64.3066 351.075 63.9685 350.919C63.6304 350.76 63.362 350.531 63.1631 350.233C62.9642 349.932 62.8648 349.568 62.8648 349.142C62.8648 348.767 62.9387 348.463 63.0864 348.23C63.2341 347.994 63.4316 347.81 63.6787 347.676C63.9259 347.543 64.1986 347.443 64.4969 347.378C64.798 347.31 65.1006 347.256 65.4046 347.216C65.8023 347.165 66.1248 347.126 66.3719 347.101C66.6219 347.072 66.8037 347.026 66.9174 346.96C67.0338 346.895 67.0921 346.781 67.0921 346.619V346.585C67.0921 346.165 66.977 345.838 66.7469 345.605C66.5196 345.372 66.1745 345.256 65.7114 345.256C65.2313 345.256 64.8549 345.361 64.5821 345.571C64.3094 345.781 64.1176 346.006 64.0069 346.244L63.0523 345.903C63.2228 345.506 63.45 345.196 63.7341 344.974C64.0211 344.75 64.3336 344.594 64.6716 344.506C65.0125 344.415 65.3478 344.369 65.6773 344.369C65.8875 344.369 66.129 344.395 66.4017 344.446C66.6773 344.494 66.9429 344.595 67.1986 344.749C67.4571 344.902 67.6716 345.134 67.8421 345.443C68.0125 345.753 68.0978 346.168 68.0978 346.688V351H67.0921V350.114H67.0409C66.9728 350.256 66.8591 350.408 66.7 350.57C66.5409 350.732 66.3293 350.869 66.0651 350.983C65.8009 351.097 65.4784 351.153 65.0978 351.153ZM65.2512 350.25C65.6489 350.25 65.9841 350.172 66.2569 350.016C66.5324 349.859 66.7398 349.658 66.879 349.411C67.0211 349.163 67.0921 348.903 67.0921 348.631V347.71C67.0495 347.761 66.9557 347.808 66.8108 347.851C66.6688 347.891 66.504 347.926 66.3165 347.957C66.1319 347.986 65.9515 348.011 65.7753 348.034C65.602 348.054 65.4614 348.071 65.3534 348.085C65.0921 348.119 64.8478 348.175 64.6205 348.251C64.3961 348.325 64.2142 348.437 64.075 348.588C63.9387 348.736 63.8705 348.937 63.8705 349.193C63.8705 349.543 63.9998 349.807 64.2583 349.986C64.5196 350.162 64.8506 350.25 65.2512 350.25ZM69.9333 351V344.455H70.9049V345.443H70.9731C71.0924 345.119 71.3083 344.857 71.6208 344.655C71.9333 344.453 72.2856 344.352 72.6777 344.352C72.7515 344.352 72.8439 344.354 72.9547 344.357C73.0654 344.359 73.1493 344.364 73.2061 344.369V345.392C73.172 345.384 73.0939 345.371 72.9717 345.354C72.8524 345.334 72.726 345.324 72.5924 345.324C72.2743 345.324 71.9902 345.391 71.7402 345.524C71.493 345.655 71.297 345.837 71.1521 346.07C71.01 346.3 70.939 346.562 70.939 346.858V351H69.9333ZM75.4039 347.062V351H74.3982V344.455H75.3698V345.477H75.455C75.6084 345.145 75.8414 344.878 76.1539 344.676C76.4664 344.472 76.8698 344.369 77.3641 344.369C77.8073 344.369 78.1951 344.46 78.5274 344.642C78.8598 344.821 79.1184 345.094 79.303 345.46C79.4877 345.824 79.58 346.284 79.58 346.841V351H78.5743V346.909C78.5743 346.395 78.4408 345.994 78.1738 345.707C77.9067 345.418 77.5402 345.273 77.0743 345.273C76.7533 345.273 76.4664 345.342 76.2135 345.482C75.9635 345.621 75.7661 345.824 75.6212 346.091C75.4763 346.358 75.4039 346.682 75.4039 347.062ZM84.162 351.136C83.5314 351.136 82.9873 350.997 82.5299 350.719C82.0754 350.438 81.7245 350.045 81.4774 349.543C81.2331 349.037 81.1109 348.449 81.1109 347.778C81.1109 347.108 81.2331 346.517 81.4774 346.006C81.7245 345.491 82.0683 345.091 82.5086 344.804C82.9518 344.514 83.4689 344.369 84.0598 344.369C84.4007 344.369 84.7373 344.426 85.0697 344.54C85.4021 344.653 85.7047 344.838 85.9774 345.094C86.2501 345.347 86.4674 345.682 86.6294 346.099C86.7913 346.517 86.8723 347.031 86.8723 347.642V348.068H81.8268V347.199H85.8495C85.8495 346.83 85.7757 346.5 85.6279 346.21C85.4831 345.92 85.2757 345.692 85.0058 345.524C84.7387 345.357 84.4234 345.273 84.0598 345.273C83.6592 345.273 83.3126 345.372 83.02 345.571C82.7302 345.767 82.5072 346.023 82.351 346.338C82.1947 346.653 82.1166 346.991 82.1166 347.352V347.932C82.1166 348.426 82.2018 348.845 82.3723 349.189C82.5456 349.53 82.7856 349.79 83.0924 349.969C83.3993 350.145 83.7558 350.233 84.162 350.233C84.4262 350.233 84.6649 350.196 84.8779 350.122C85.0939 350.045 85.2799 349.932 85.4362 349.781C85.5924 349.628 85.7132 349.437 85.7984 349.21L86.77 349.483C86.6677 349.812 86.4958 350.102 86.2544 350.352C86.0129 350.599 85.7146 350.793 85.3595 350.932C85.0044 351.068 84.6052 351.136 84.162 351.136ZM91.0441 353.591C90.5583 353.591 90.1407 353.528 89.7913 353.403C89.4419 353.281 89.1507 353.119 88.9177 352.918C88.6876 352.719 88.5044 352.506 88.368 352.278L89.1691 351.716C89.26 351.835 89.3751 351.972 89.5143 352.125C89.6535 352.281 89.8439 352.416 90.0853 352.53C90.3297 352.646 90.6493 352.705 91.0441 352.705C91.5725 352.705 92.0086 352.577 92.3524 352.321C92.6961 352.065 92.868 351.665 92.868 351.119V349.79H92.7828C92.7089 349.909 92.6038 350.057 92.4674 350.233C92.3339 350.406 92.1407 350.561 91.8879 350.697C91.6379 350.831 91.2998 350.898 90.8737 350.898C90.3453 350.898 89.8708 350.773 89.4504 350.523C89.0328 350.273 88.7018 349.909 88.4575 349.432C88.216 348.955 88.0953 348.375 88.0953 347.693C88.0953 347.023 88.2132 346.439 88.449 345.942C88.6848 345.442 89.0129 345.055 89.4333 344.783C89.8538 344.507 90.3396 344.369 90.8907 344.369C91.3169 344.369 91.6549 344.44 91.9049 344.582C92.1578 344.722 92.351 344.881 92.4845 345.06C92.6208 345.236 92.726 345.381 92.7998 345.494H92.9021V344.455H93.8737V351.188C93.8737 351.75 93.7458 352.207 93.4902 352.56C93.2373 352.915 92.8964 353.175 92.4674 353.339C92.0413 353.507 91.5669 353.591 91.0441 353.591ZM91.01 349.994C91.4135 349.994 91.7544 349.902 92.0328 349.717C92.3112 349.533 92.5228 349.267 92.6677 348.92C92.8126 348.574 92.885 348.159 92.885 347.676C92.885 347.205 92.814 346.788 92.672 346.428C92.5299 346.067 92.3197 345.784 92.0413 345.58C91.7629 345.375 91.4191 345.273 91.01 345.273C90.5839 345.273 90.2288 345.381 89.9447 345.597C89.6635 345.812 89.4518 346.102 89.3098 346.466C89.1706 346.83 89.101 347.233 89.101 347.676C89.101 348.131 89.172 348.533 89.314 348.882C89.4589 349.229 89.672 349.501 89.9532 349.7C90.2373 349.896 90.5896 349.994 91.01 349.994ZM97.6407 351.153C97.226 351.153 96.8495 351.075 96.5115 350.919C96.1734 350.76 95.9049 350.531 95.7061 350.233C95.5072 349.932 95.4078 349.568 95.4078 349.142C95.4078 348.767 95.4816 348.463 95.6294 348.23C95.7771 347.994 95.9745 347.81 96.2217 347.676C96.4689 347.543 96.7416 347.443 97.0399 347.378C97.341 347.31 97.6436 347.256 97.9475 347.216C98.3453 347.165 98.6677 347.126 98.9149 347.101C99.1649 347.072 99.3467 347.026 99.4603 346.96C99.5768 346.895 99.635 346.781 99.635 346.619V346.585C99.635 346.165 99.52 345.838 99.2899 345.605C99.0626 345.372 98.7174 345.256 98.2544 345.256C97.7743 345.256 97.3978 345.361 97.1251 345.571C96.8524 345.781 96.6606 346.006 96.5498 346.244L95.5953 345.903C95.7657 345.506 95.993 345.196 96.2771 344.974C96.564 344.75 96.8765 344.594 97.2146 344.506C97.5555 344.415 97.8907 344.369 98.2203 344.369C98.4305 344.369 98.672 344.395 98.9447 344.446C99.2203 344.494 99.4859 344.595 99.7416 344.749C100 344.902 100.215 345.134 100.385 345.443C100.556 345.753 100.641 346.168 100.641 346.688V351H99.635V350.114H99.5839C99.5157 350.256 99.4021 350.408 99.243 350.57C99.0839 350.732 98.8723 350.869 98.6081 350.983C98.3439 351.097 98.0214 351.153 97.6407 351.153ZM97.7941 350.25C98.1919 350.25 98.5271 350.172 98.7998 350.016C99.0754 349.859 99.2828 349.658 99.422 349.411C99.564 349.163 99.635 348.903 99.635 348.631V347.71C99.5924 347.761 99.4987 347.808 99.3538 347.851C99.2118 347.891 99.047 347.926 98.8595 347.957C98.6748 347.986 98.4944 348.011 98.3183 348.034C98.145 348.054 98.0044 348.071 97.8964 348.085C97.635 348.119 97.3907 348.175 97.1635 348.251C96.939 348.325 96.7572 348.437 96.618 348.588C96.4816 348.736 96.4135 348.937 96.4135 349.193C96.4135 349.543 96.5427 349.807 96.8012 349.986C97.0626 350.162 97.3936 350.25 97.7941 350.25ZM102.476 351V344.455H103.448V345.443H103.516C103.635 345.119 103.851 344.857 104.164 344.655C104.476 344.453 104.829 344.352 105.221 344.352C105.294 344.352 105.387 344.354 105.498 344.357C105.608 344.359 105.692 344.364 105.749 344.369V345.392C105.715 345.384 105.637 345.371 105.515 345.354C105.395 345.334 105.269 345.324 105.135 345.324C104.817 345.324 104.533 345.391 104.283 345.524C104.036 345.655 103.84 345.837 103.695 346.07C103.553 346.3 103.482 346.562 103.482 346.858V351H102.476ZM108.867 351.153C108.453 351.153 108.076 351.075 107.738 350.919C107.4 350.76 107.132 350.531 106.933 350.233C106.734 349.932 106.634 349.568 106.634 349.142C106.634 348.767 106.708 348.463 106.856 348.23C107.004 347.994 107.201 347.81 107.448 347.676C107.695 347.543 107.968 347.443 108.266 347.378C108.568 347.31 108.87 347.256 109.174 347.216C109.572 347.165 109.894 347.126 110.141 347.101C110.391 347.072 110.573 347.026 110.687 346.96C110.803 346.895 110.862 346.781 110.862 346.619V346.585C110.862 346.165 110.747 345.838 110.516 345.605C110.289 345.372 109.944 345.256 109.481 345.256C109.001 345.256 108.624 345.361 108.352 345.571C108.079 345.781 107.887 346.006 107.776 346.244L106.822 345.903C106.992 345.506 107.22 345.196 107.504 344.974C107.791 344.75 108.103 344.594 108.441 344.506C108.782 344.415 109.117 344.369 109.447 344.369C109.657 344.369 109.899 344.395 110.171 344.446C110.447 344.494 110.712 344.595 110.968 344.749C111.227 344.902 111.441 345.134 111.612 345.443C111.782 345.753 111.867 346.168 111.867 346.688V351H110.862V350.114H110.81C110.742 350.256 110.629 350.408 110.47 350.57C110.31 350.732 110.099 350.869 109.835 350.983C109.57 351.097 109.248 351.153 108.867 351.153ZM109.021 350.25C109.418 350.25 109.754 350.172 110.026 350.016C110.302 349.859 110.509 349.658 110.649 349.411C110.791 349.163 110.862 348.903 110.862 348.631V347.71C110.819 347.761 110.725 347.808 110.58 347.851C110.438 347.891 110.274 347.926 110.086 347.957C109.901 347.986 109.721 348.011 109.545 348.034C109.372 348.054 109.231 348.071 109.123 348.085C108.862 348.119 108.617 348.175 108.39 348.251C108.166 348.325 107.984 348.437 107.845 348.588C107.708 348.736 107.64 348.937 107.64 349.193C107.64 349.543 107.769 349.807 108.028 349.986C108.289 350.162 108.62 350.25 109.021 350.25Z" fill="#181819" fill-opacity="0.42"/>
<path d="M128.46 351L126.074 342.273H127.148L128.971 349.381H129.057L130.915 342.273H132.108L133.966 349.381H134.051L135.875 342.273H136.949L134.562 351H133.471L131.545 344.045H131.477L129.551 351H128.46ZM140.179 351.136C139.588 351.136 139.069 350.996 138.623 350.714C138.18 350.433 137.834 350.04 137.584 349.534C137.336 349.028 137.213 348.437 137.213 347.761C137.213 347.08 137.336 346.484 137.584 345.976C137.834 345.467 138.18 345.072 138.623 344.791C139.069 344.51 139.588 344.369 140.179 344.369C140.77 344.369 141.287 344.51 141.73 344.791C142.176 345.072 142.523 345.467 142.77 345.976C143.02 346.484 143.145 347.08 143.145 347.761C143.145 348.437 143.02 349.028 142.77 349.534C142.523 350.04 142.176 350.433 141.73 350.714C141.287 350.996 140.77 351.136 140.179 351.136ZM140.179 350.233C140.628 350.233 140.997 350.118 141.287 349.888C141.576 349.658 141.791 349.355 141.93 348.98C142.069 348.605 142.139 348.199 142.139 347.761C142.139 347.324 142.069 346.916 141.93 346.538C141.791 346.161 141.576 345.855 141.287 345.622C140.997 345.389 140.628 345.273 140.179 345.273C139.73 345.273 139.361 345.389 139.071 345.622C138.781 345.855 138.567 346.161 138.427 346.538C138.288 346.916 138.219 347.324 138.219 347.761C138.219 348.199 138.288 348.605 138.427 348.98C138.567 349.355 138.781 349.658 139.071 349.888C139.361 350.118 139.73 350.233 140.179 350.233ZM145.686 347.062V351H144.68V344.455H145.651V345.477H145.737C145.89 345.145 146.123 344.878 146.436 344.676C146.748 344.472 147.151 344.369 147.646 344.369C148.089 344.369 148.477 344.46 148.809 344.642C149.141 344.821 149.4 345.094 149.585 345.46C149.769 345.824 149.862 346.284 149.862 346.841V351H148.856V346.909C148.856 346.395 148.722 345.994 148.455 345.707C148.188 345.418 147.822 345.273 147.356 345.273C147.035 345.273 146.748 345.342 146.495 345.482C146.245 345.621 146.048 345.824 145.903 346.091C145.758 346.358 145.686 346.682 145.686 347.062ZM154.358 351.136C153.768 351.136 153.249 350.996 152.803 350.714C152.36 350.433 152.013 350.04 151.763 349.534C151.516 349.028 151.393 348.437 151.393 347.761C151.393 347.08 151.516 346.484 151.763 345.976C152.013 345.467 152.36 345.072 152.803 344.791C153.249 344.51 153.768 344.369 154.358 344.369C154.949 344.369 155.466 344.51 155.91 344.791C156.356 345.072 156.702 345.467 156.949 345.976C157.199 346.484 157.324 347.08 157.324 347.761C157.324 348.437 157.199 349.028 156.949 349.534C156.702 350.04 156.356 350.433 155.91 350.714C155.466 350.996 154.949 351.136 154.358 351.136ZM154.358 350.233C154.807 350.233 155.177 350.118 155.466 349.888C155.756 349.658 155.971 349.355 156.11 348.98C156.249 348.605 156.319 348.199 156.319 347.761C156.319 347.324 156.249 346.916 156.11 346.538C155.971 346.161 155.756 345.855 155.466 345.622C155.177 345.389 154.807 345.273 154.358 345.273C153.91 345.273 153.54 345.389 153.251 345.622C152.961 345.855 152.746 346.161 152.607 346.538C152.468 346.916 152.398 347.324 152.398 347.761C152.398 348.199 152.468 348.605 152.607 348.98C152.746 349.355 152.961 349.658 153.251 349.888C153.54 350.118 153.91 350.233 154.358 350.233ZM163.496 345.92L162.592 346.176C162.536 346.026 162.452 345.879 162.341 345.737C162.233 345.592 162.085 345.473 161.898 345.379C161.71 345.286 161.47 345.239 161.178 345.239C160.777 345.239 160.443 345.331 160.176 345.516C159.912 345.697 159.78 345.929 159.78 346.21C159.78 346.46 159.871 346.658 160.053 346.803C160.235 346.947 160.519 347.068 160.905 347.165L161.877 347.403C162.462 347.545 162.898 347.763 163.185 348.055C163.472 348.345 163.615 348.719 163.615 349.176C163.615 349.551 163.507 349.886 163.291 350.182C163.078 350.477 162.78 350.71 162.396 350.881C162.013 351.051 161.567 351.136 161.058 351.136C160.391 351.136 159.838 350.991 159.401 350.702C158.963 350.412 158.686 349.989 158.57 349.432L159.524 349.193C159.615 349.545 159.787 349.81 160.04 349.986C160.296 350.162 160.629 350.25 161.041 350.25C161.51 350.25 161.882 350.151 162.158 349.952C162.436 349.75 162.575 349.509 162.575 349.227C162.575 349 162.496 348.81 162.337 348.656C162.178 348.5 161.933 348.384 161.604 348.307L160.513 348.051C159.913 347.909 159.473 347.689 159.192 347.391C158.913 347.089 158.774 346.713 158.774 346.261C158.774 345.892 158.878 345.565 159.085 345.281C159.296 344.997 159.581 344.774 159.942 344.612C160.306 344.45 160.717 344.369 161.178 344.369C161.825 344.369 162.334 344.511 162.703 344.795C163.075 345.08 163.34 345.455 163.496 345.92ZM167.788 351.136C167.197 351.136 166.679 350.996 166.233 350.714C165.79 350.433 165.443 350.04 165.193 349.534C164.946 349.028 164.822 348.437 164.822 347.761C164.822 347.08 164.946 346.484 165.193 345.976C165.443 345.467 165.79 345.072 166.233 344.791C166.679 344.51 167.197 344.369 167.788 344.369C168.379 344.369 168.896 344.51 169.339 344.791C169.785 345.072 170.132 345.467 170.379 345.976C170.629 346.484 170.754 347.08 170.754 347.761C170.754 348.437 170.629 349.028 170.379 349.534C170.132 350.04 169.785 350.433 169.339 350.714C168.896 350.996 168.379 351.136 167.788 351.136ZM167.788 350.233C168.237 350.233 168.606 350.118 168.896 349.888C169.186 349.658 169.4 349.355 169.54 348.98C169.679 348.605 169.748 348.199 169.748 347.761C169.748 347.324 169.679 346.916 169.54 346.538C169.4 346.161 169.186 345.855 168.896 345.622C168.606 345.389 168.237 345.273 167.788 345.273C167.339 345.273 166.97 345.389 166.68 345.622C166.39 345.855 166.176 346.161 166.037 346.538C165.898 346.916 165.828 347.324 165.828 347.761C165.828 348.199 165.898 348.605 166.037 348.98C166.176 349.355 166.39 349.658 166.68 349.888C166.97 350.118 167.339 350.233 167.788 350.233ZM172.426 351V342.273H173.431V345.494H173.516C173.59 345.381 173.693 345.236 173.823 345.06C173.957 344.881 174.147 344.722 174.394 344.582C174.644 344.44 174.982 344.369 175.409 344.369C175.96 344.369 176.445 344.507 176.866 344.783C177.286 345.058 177.614 345.449 177.85 345.955C178.086 346.46 178.204 347.057 178.204 347.744C178.204 348.438 178.086 349.038 177.85 349.547C177.614 350.053 177.288 350.445 176.87 350.723C176.453 350.999 175.971 351.136 175.426 351.136C175.005 351.136 174.668 351.067 174.416 350.928C174.163 350.786 173.968 350.625 173.832 350.446C173.695 350.264 173.59 350.114 173.516 349.994H173.397V351H172.426ZM173.414 347.727C173.414 348.222 173.487 348.658 173.632 349.036C173.776 349.411 173.988 349.705 174.266 349.918C174.545 350.128 174.886 350.233 175.289 350.233C175.71 350.233 176.061 350.122 176.342 349.901C176.626 349.676 176.839 349.375 176.981 348.997C177.126 348.616 177.198 348.193 177.198 347.727C177.198 347.267 177.127 346.852 176.985 346.483C176.846 346.111 176.634 345.817 176.35 345.601C176.069 345.382 175.715 345.273 175.289 345.273C174.88 345.273 174.536 345.376 174.258 345.584C173.98 345.788 173.769 346.075 173.627 346.445C173.485 346.811 173.414 347.239 173.414 347.727ZM182.401 351.136C181.811 351.136 181.292 350.996 180.846 350.714C180.403 350.433 180.056 350.04 179.806 349.534C179.559 349.028 179.436 348.437 179.436 347.761C179.436 347.08 179.559 346.484 179.806 345.976C180.056 345.467 180.403 345.072 180.846 344.791C181.292 344.51 181.811 344.369 182.401 344.369C182.992 344.369 183.509 344.51 183.953 344.791C184.399 345.072 184.745 345.467 184.992 345.976C185.242 346.484 185.367 347.08 185.367 347.761C185.367 348.437 185.242 349.028 184.992 349.534C184.745 350.04 184.399 350.433 183.953 350.714C183.509 350.996 182.992 351.136 182.401 351.136ZM182.401 350.233C182.85 350.233 183.22 350.118 183.509 349.888C183.799 349.658 184.014 349.355 184.153 348.98C184.292 348.605 184.362 348.199 184.362 347.761C184.362 347.324 184.292 346.916 184.153 346.538C184.014 346.161 183.799 345.855 183.509 345.622C183.22 345.389 182.85 345.273 182.401 345.273C181.953 345.273 181.583 345.389 181.293 345.622C181.004 345.855 180.789 346.161 180.65 346.538C180.511 346.916 180.441 347.324 180.441 347.761C180.441 348.199 180.511 348.605 180.65 348.98C180.789 349.355 181.004 349.658 181.293 349.888C181.583 350.118 181.953 350.233 182.401 350.233Z" fill="#181819" fill-opacity="0.42"/>
<path d="M209.004 351V342.273H211.953C212.638 342.273 213.197 342.396 213.632 342.643C214.069 342.888 214.393 343.219 214.604 343.636C214.814 344.054 214.919 344.52 214.919 345.034C214.919 345.548 214.814 346.016 214.604 346.436C214.396 346.857 214.075 347.192 213.64 347.442C213.206 347.689 212.649 347.812 211.97 347.812H209.856V346.875H211.936C212.405 346.875 212.781 346.794 213.065 346.632C213.349 346.47 213.555 346.251 213.683 345.976C213.814 345.697 213.879 345.384 213.879 345.034C213.879 344.685 213.814 344.372 213.683 344.097C213.555 343.821 213.348 343.605 213.061 343.449C212.774 343.29 212.393 343.21 211.919 343.21H210.061V351H209.004ZM220.61 348.324V344.455H221.616V351H220.61V349.892H220.542C220.388 350.224 220.15 350.507 219.826 350.74C219.502 350.97 219.093 351.085 218.599 351.085C218.189 351.085 217.826 350.996 217.508 350.817C217.189 350.635 216.939 350.362 216.758 349.999C216.576 349.632 216.485 349.17 216.485 348.614V344.455H217.491V348.545C217.491 349.023 217.624 349.403 217.891 349.688C218.161 349.972 218.505 350.114 218.922 350.114C219.172 350.114 219.427 350.05 219.685 349.922C219.947 349.794 220.165 349.598 220.341 349.334C220.52 349.07 220.61 348.733 220.61 348.324ZM223.458 351V344.455H224.429V345.443H224.497C224.617 345.119 224.833 344.857 225.145 344.655C225.458 344.453 225.81 344.352 226.202 344.352C226.276 344.352 226.368 344.354 226.479 344.357C226.59 344.359 226.673 344.364 226.73 344.369V345.392C226.696 345.384 226.618 345.371 226.496 345.354C226.377 345.334 226.25 345.324 226.117 345.324C225.798 345.324 225.514 345.391 225.264 345.524C225.017 345.655 224.821 345.837 224.676 346.07C224.534 346.3 224.463 346.562 224.463 346.858V351H223.458ZM229.511 351L227.517 344.455H228.573L229.988 349.466H230.056L231.454 344.455H232.528L233.909 349.449H233.977L235.392 344.455H236.448L234.454 351H233.465L232.034 345.972H231.931L230.499 351H229.511ZM240.214 351.136C239.623 351.136 239.105 350.996 238.659 350.714C238.216 350.433 237.869 350.04 237.619 349.534C237.372 349.028 237.248 348.437 237.248 347.761C237.248 347.08 237.372 346.484 237.619 345.976C237.869 345.467 238.216 345.072 238.659 344.791C239.105 344.51 239.623 344.369 240.214 344.369C240.805 344.369 241.322 344.51 241.765 344.791C242.211 345.072 242.558 345.467 242.805 345.976C243.055 346.484 243.18 347.08 243.18 347.761C243.18 348.437 243.055 349.028 242.805 349.534C242.558 350.04 242.211 350.433 241.765 350.714C241.322 350.996 240.805 351.136 240.214 351.136ZM240.214 350.233C240.663 350.233 241.033 350.118 241.322 349.888C241.612 349.658 241.827 349.355 241.966 348.98C242.105 348.605 242.175 348.199 242.175 347.761C242.175 347.324 242.105 346.916 241.966 346.538C241.827 346.161 241.612 345.855 241.322 345.622C241.033 345.389 240.663 345.273 240.214 345.273C239.765 345.273 239.396 345.389 239.106 345.622C238.817 345.855 238.602 346.161 238.463 346.538C238.324 346.916 238.254 347.324 238.254 347.761C238.254 348.199 238.324 348.605 238.463 348.98C238.602 349.355 238.817 349.658 239.106 349.888C239.396 350.118 239.765 350.233 240.214 350.233ZM244.715 351V344.455H245.687V345.443H245.755C245.874 345.119 246.09 344.857 246.403 344.655C246.715 344.453 247.068 344.352 247.46 344.352C247.534 344.352 247.626 344.354 247.737 344.357C247.847 344.359 247.931 344.364 247.988 344.369V345.392C247.954 345.384 247.876 345.371 247.754 345.354C247.634 345.334 247.508 345.324 247.374 345.324C247.056 345.324 246.772 345.391 246.522 345.524C246.275 345.655 246.079 345.837 245.934 346.07C245.792 346.3 245.721 346.562 245.721 346.858V351H244.715ZM251.725 351.136C251.095 351.136 250.551 350.997 250.093 350.719C249.639 350.438 249.288 350.045 249.041 349.543C248.796 349.037 248.674 348.449 248.674 347.778C248.674 347.108 248.796 346.517 249.041 346.006C249.288 345.491 249.632 345.091 250.072 344.804C250.515 344.514 251.032 344.369 251.623 344.369C251.964 344.369 252.301 344.426 252.633 344.54C252.965 344.653 253.268 344.838 253.541 345.094C253.813 345.347 254.031 345.682 254.193 346.099C254.355 346.517 254.436 347.031 254.436 347.642V348.068H249.39V347.199H253.413C253.413 346.83 253.339 346.5 253.191 346.21C253.046 345.92 252.839 345.692 252.569 345.524C252.302 345.357 251.987 345.273 251.623 345.273C251.222 345.273 250.876 345.372 250.583 345.571C250.294 345.767 250.071 346.023 249.914 346.338C249.758 346.653 249.68 346.991 249.68 347.352V347.932C249.68 348.426 249.765 348.845 249.936 349.189C250.109 349.53 250.349 349.79 250.656 349.969C250.963 350.145 251.319 350.233 251.725 350.233C251.99 350.233 252.228 350.196 252.441 350.122C252.657 350.045 252.843 349.932 252.999 349.781C253.156 349.628 253.276 349.437 253.362 349.21L254.333 349.483C254.231 349.812 254.059 350.102 253.818 350.352C253.576 350.599 253.278 350.793 252.923 350.932C252.568 351.068 252.169 351.136 251.725 351.136ZM255.965 344.455H256.971V351.477C256.971 351.881 256.901 352.23 256.762 352.526C256.626 352.821 256.419 353.05 256.14 353.212C255.865 353.374 255.517 353.455 255.096 353.455C255.062 353.455 255.028 353.455 254.994 353.455C254.96 353.455 254.926 353.455 254.892 353.455V352.517C254.926 352.517 254.957 352.517 254.985 352.517C255.014 352.517 255.045 352.517 255.079 352.517C255.386 352.517 255.61 352.426 255.752 352.244C255.894 352.065 255.965 351.81 255.965 351.477V344.455ZM256.46 343.364C256.264 343.364 256.095 343.297 255.953 343.163C255.813 343.03 255.744 342.869 255.744 342.682C255.744 342.494 255.813 342.334 255.953 342.2C256.095 342.067 256.264 342 256.46 342C256.656 342 256.823 342.067 256.963 342.2C257.105 342.334 257.176 342.494 257.176 342.682C257.176 342.869 257.105 343.03 256.963 343.163C256.823 343.297 256.656 343.364 256.46 343.364ZM261.472 351.136C260.881 351.136 260.363 350.996 259.917 350.714C259.474 350.433 259.127 350.04 258.877 349.534C258.63 349.028 258.506 348.437 258.506 347.761C258.506 347.08 258.63 346.484 258.877 345.976C259.127 345.467 259.474 345.072 259.917 344.791C260.363 344.51 260.881 344.369 261.472 344.369C262.063 344.369 262.58 344.51 263.023 344.791C263.469 345.072 263.816 345.467 264.063 345.976C264.313 346.484 264.438 347.08 264.438 347.761C264.438 348.437 264.313 349.028 264.063 349.534C263.816 350.04 263.469 350.433 263.023 350.714C262.58 350.996 262.063 351.136 261.472 351.136ZM261.472 350.233C261.921 350.233 262.29 350.118 262.58 349.888C262.87 349.658 263.084 349.355 263.224 348.98C263.363 348.605 263.432 348.199 263.432 347.761C263.432 347.324 263.363 346.916 263.224 346.538C263.084 346.161 262.87 345.855 262.58 345.622C262.29 345.389 261.921 345.273 261.472 345.273C261.023 345.273 260.654 345.389 260.364 345.622C260.074 345.855 259.86 346.161 259.721 346.538C259.582 346.916 259.512 347.324 259.512 347.761C259.512 348.199 259.582 348.605 259.721 348.98C259.86 349.355 260.074 349.658 260.364 349.888C260.654 350.118 261.023 350.233 261.472 350.233Z" fill="#181819" fill-opacity="0.42"/>
<path d="M295.361 344.455C295.31 344.023 295.103 343.688 294.739 343.449C294.375 343.21 293.929 343.091 293.401 343.091C293.015 343.091 292.677 343.153 292.387 343.278C292.1 343.403 291.875 343.575 291.713 343.794C291.554 344.013 291.475 344.261 291.475 344.54C291.475 344.773 291.53 344.973 291.641 345.141C291.755 345.305 291.9 345.443 292.076 345.554C292.252 345.662 292.436 345.751 292.63 345.822C292.823 345.891 293 345.946 293.162 345.989L294.049 346.227C294.276 346.287 294.529 346.369 294.807 346.474C295.088 346.58 295.357 346.723 295.613 346.905C295.871 347.084 296.084 347.314 296.252 347.595C296.419 347.876 296.503 348.222 296.503 348.631C296.503 349.102 296.38 349.528 296.132 349.909C295.888 350.29 295.53 350.592 295.059 350.817C294.59 351.041 294.02 351.153 293.35 351.153C292.725 351.153 292.184 351.053 291.726 350.851C291.272 350.649 290.914 350.368 290.652 350.007C290.394 349.646 290.248 349.227 290.213 348.75H291.304C291.333 349.08 291.444 349.352 291.637 349.568C291.833 349.781 292.08 349.94 292.378 350.045C292.679 350.148 293.003 350.199 293.35 350.199C293.753 350.199 294.115 350.134 294.436 350.003C294.757 349.869 295.012 349.685 295.199 349.449C295.387 349.21 295.48 348.932 295.48 348.614C295.48 348.324 295.4 348.088 295.238 347.906C295.076 347.724 294.863 347.577 294.598 347.463C294.334 347.349 294.049 347.25 293.742 347.165L292.668 346.858C291.986 346.662 291.446 346.382 291.049 346.018C290.651 345.655 290.452 345.179 290.452 344.591C290.452 344.102 290.584 343.676 290.848 343.312C291.115 342.946 291.473 342.662 291.922 342.46C292.374 342.256 292.878 342.153 293.435 342.153C293.998 342.153 294.498 342.254 294.935 342.456C295.373 342.655 295.719 342.928 295.975 343.274C296.233 343.621 296.37 344.014 296.384 344.455H295.361ZM302.229 348.324V344.455H303.235V351H302.229V349.892H302.161C302.008 350.224 301.769 350.507 301.445 350.74C301.121 350.97 300.712 351.085 300.218 351.085C299.809 351.085 299.445 350.996 299.127 350.817C298.809 350.635 298.559 350.362 298.377 349.999C298.195 349.632 298.104 349.17 298.104 348.614V344.455H299.11V348.545C299.11 349.023 299.244 349.403 299.511 349.688C299.781 349.972 300.124 350.114 300.542 350.114C300.792 350.114 301.046 350.05 301.305 349.922C301.566 349.794 301.785 349.598 301.961 349.334C302.14 349.07 302.229 348.733 302.229 348.324ZM305.077 351V344.455H306.049V345.443H306.117C306.236 345.119 306.452 344.857 306.765 344.655C307.077 344.453 307.429 344.352 307.821 344.352C307.895 344.352 307.988 344.354 308.098 344.357C308.209 344.359 308.293 344.364 308.35 344.369V345.392C308.316 345.384 308.238 345.371 308.115 345.354C307.996 345.334 307.87 345.324 307.736 345.324C307.418 345.324 307.134 345.391 306.884 345.524C306.637 345.655 306.441 345.837 306.296 346.07C306.154 346.3 306.083 346.562 306.083 346.858V351H305.077ZM311.468 351.153C311.053 351.153 310.677 351.075 310.339 350.919C310.001 350.76 309.732 350.531 309.533 350.233C309.335 349.932 309.235 349.568 309.235 349.142C309.235 348.767 309.309 348.463 309.457 348.23C309.604 347.994 309.802 347.81 310.049 347.676C310.296 347.543 310.569 347.443 310.867 347.378C311.168 347.31 311.471 347.256 311.775 347.216C312.173 347.165 312.495 347.126 312.742 347.101C312.992 347.072 313.174 347.026 313.288 346.96C313.404 346.895 313.462 346.781 313.462 346.619V346.585C313.462 346.165 313.347 345.838 313.117 345.605C312.89 345.372 312.545 345.256 312.082 345.256C311.602 345.256 311.225 345.361 310.952 345.571C310.68 345.781 310.488 346.006 310.377 346.244L309.423 345.903C309.593 345.506 309.82 345.196 310.104 344.974C310.391 344.75 310.704 344.594 311.042 344.506C311.383 344.415 311.718 344.369 312.048 344.369C312.258 344.369 312.499 344.395 312.772 344.446C313.048 344.494 313.313 344.595 313.569 344.749C313.827 344.902 314.042 345.134 314.212 345.443C314.383 345.753 314.468 346.168 314.468 346.688V351H313.462V350.114H313.411C313.343 350.256 313.229 350.408 313.07 350.57C312.911 350.732 312.7 350.869 312.435 350.983C312.171 351.097 311.849 351.153 311.468 351.153ZM311.621 350.25C312.019 350.25 312.354 350.172 312.627 350.016C312.903 349.859 313.11 349.658 313.249 349.411C313.391 349.163 313.462 348.903 313.462 348.631V347.71C313.42 347.761 313.326 347.808 313.181 347.851C313.039 347.891 312.874 347.926 312.687 347.957C312.502 347.986 312.322 348.011 312.146 348.034C311.972 348.054 311.832 348.071 311.724 348.085C311.462 348.119 311.218 348.175 310.991 348.251C310.766 348.325 310.585 348.437 310.445 348.588C310.309 348.736 310.241 348.937 310.241 349.193C310.241 349.543 310.37 349.807 310.629 349.986C310.89 350.162 311.221 350.25 311.621 350.25ZM317.241 348.614L317.224 347.369H317.429L320.292 344.455H321.537L318.485 347.54H318.4L317.241 348.614ZM316.304 351V342.273H317.309V351H316.304ZM320.463 351L317.906 347.761L318.622 347.062L321.741 351H320.463ZM324.757 351.153C324.342 351.153 323.966 351.075 323.628 350.919C323.29 350.76 323.021 350.531 322.822 350.233C322.624 349.932 322.524 349.568 322.524 349.142C322.524 348.767 322.598 348.463 322.746 348.23C322.893 347.994 323.091 347.81 323.338 347.676C323.585 347.543 323.858 347.443 324.156 347.378C324.457 347.31 324.76 347.256 325.064 347.216C325.462 347.165 325.784 347.126 326.031 347.101C326.281 347.072 326.463 347.026 326.577 346.96C326.693 346.895 326.751 346.781 326.751 346.619V346.585C326.751 346.165 326.636 345.838 326.406 345.605C326.179 345.372 325.834 345.256 325.371 345.256C324.891 345.256 324.514 345.361 324.241 345.571C323.969 345.781 323.777 346.006 323.666 346.244L322.712 345.903C322.882 345.506 323.109 345.196 323.393 344.974C323.68 344.75 323.993 344.594 324.331 344.506C324.672 344.415 325.007 344.369 325.337 344.369C325.547 344.369 325.788 344.395 326.061 344.446C326.337 344.494 326.602 344.595 326.858 344.749C327.116 344.902 327.331 345.134 327.501 345.443C327.672 345.753 327.757 346.168 327.757 346.688V351H326.751V350.114H326.7C326.632 350.256 326.518 350.408 326.359 350.57C326.2 350.732 325.989 350.869 325.724 350.983C325.46 351.097 325.138 351.153 324.757 351.153ZM324.911 350.25C325.308 350.25 325.643 350.172 325.916 350.016C326.192 349.859 326.399 349.658 326.538 349.411C326.68 349.163 326.751 348.903 326.751 348.631V347.71C326.709 347.761 326.615 347.808 326.47 347.851C326.328 347.891 326.163 347.926 325.976 347.957C325.791 347.986 325.611 348.011 325.435 348.034C325.261 348.054 325.121 348.071 325.013 348.085C324.751 348.119 324.507 348.175 324.28 348.251C324.055 348.325 323.874 348.437 323.734 348.588C323.598 348.736 323.53 348.937 323.53 349.193C323.53 349.543 323.659 349.807 323.918 349.986C324.179 350.162 324.51 350.25 324.911 350.25ZM329.593 351V344.455H330.564V345.443H330.632C330.752 345.119 330.968 344.857 331.28 344.655C331.593 344.453 331.945 344.352 332.337 344.352C332.411 344.352 332.503 344.354 332.614 344.357C332.725 344.359 332.809 344.364 332.865 344.369V345.392C332.831 345.384 332.753 345.371 332.631 345.354C332.512 345.334 332.385 345.324 332.252 345.324C331.934 345.324 331.65 345.391 331.4 345.524C331.152 345.655 330.956 345.837 330.811 346.07C330.669 346.3 330.598 346.562 330.598 346.858V351H329.593ZM337.314 344.455V345.307H333.922V344.455H337.314ZM334.911 342.886H335.917V349.125C335.917 349.409 335.958 349.622 336.04 349.764C336.125 349.903 336.233 349.997 336.364 350.045C336.498 350.091 336.638 350.114 336.786 350.114C336.897 350.114 336.988 350.108 337.059 350.097C337.13 350.082 337.186 350.071 337.229 350.062L337.434 350.966C337.365 350.991 337.27 351.017 337.148 351.043C337.026 351.071 336.871 351.085 336.684 351.085C336.4 351.085 336.121 351.024 335.848 350.902C335.579 350.78 335.354 350.594 335.175 350.344C334.999 350.094 334.911 349.778 334.911 349.398V342.886ZM340.753 351.153C340.338 351.153 339.962 351.075 339.624 350.919C339.286 350.76 339.017 350.531 338.819 350.233C338.62 349.932 338.52 349.568 338.52 349.142C338.52 348.767 338.594 348.463 338.742 348.23C338.89 347.994 339.087 347.81 339.334 347.676C339.581 347.543 339.854 347.443 340.152 347.378C340.454 347.31 340.756 347.256 341.06 347.216C341.458 347.165 341.78 347.126 342.027 347.101C342.277 347.072 342.459 347.026 342.573 346.96C342.689 346.895 342.748 346.781 342.748 346.619V346.585C342.748 346.165 342.632 345.838 342.402 345.605C342.175 345.372 341.83 345.256 341.367 345.256C340.887 345.256 340.51 345.361 340.238 345.571C339.965 345.781 339.773 346.006 339.662 346.244L338.708 345.903C338.878 345.506 339.105 345.196 339.39 344.974C339.677 344.75 339.989 344.594 340.327 344.506C340.668 344.415 341.003 344.369 341.333 344.369C341.543 344.369 341.784 344.395 342.057 344.446C342.333 344.494 342.598 344.595 342.854 344.749C343.113 344.902 343.327 345.134 343.498 345.443C343.668 345.753 343.753 346.168 343.753 346.688V351H342.748V350.114H342.696C342.628 350.256 342.515 350.408 342.355 350.57C342.196 350.732 341.985 350.869 341.721 350.983C341.456 351.097 341.134 351.153 340.753 351.153ZM340.907 350.25C341.304 350.25 341.64 350.172 341.912 350.016C342.188 349.859 342.395 349.658 342.534 349.411C342.677 349.163 342.748 348.903 342.748 348.631V347.71C342.705 347.761 342.611 347.808 342.466 347.851C342.324 347.891 342.159 347.926 341.972 347.957C341.787 347.986 341.607 348.011 341.431 348.034C341.257 348.054 341.117 348.071 341.009 348.085C340.748 348.119 340.503 348.175 340.276 348.251C340.052 348.325 339.87 348.437 339.73 348.588C339.594 348.736 339.526 348.937 339.526 349.193C339.526 349.543 339.655 349.807 339.914 349.986C340.175 350.162 340.506 350.25 340.907 350.25Z" fill="#181819" fill-opacity="0.42"/>
<path d="M374.836 344.455C374.785 344.023 374.578 343.688 374.214 343.449C373.85 343.21 373.404 343.091 372.876 343.091C372.49 343.091 372.152 343.153 371.862 343.278C371.575 343.403 371.35 343.575 371.188 343.794C371.029 344.013 370.95 344.261 370.95 344.54C370.95 344.773 371.005 344.973 371.116 345.141C371.23 345.305 371.375 345.443 371.551 345.554C371.727 345.662 371.911 345.751 372.105 345.822C372.298 345.891 372.475 345.946 372.637 345.989L373.524 346.227C373.751 346.287 374.004 346.369 374.282 346.474C374.563 346.58 374.832 346.723 375.088 346.905C375.346 347.084 375.559 347.314 375.727 347.595C375.894 347.876 375.978 348.222 375.978 348.631C375.978 349.102 375.855 349.528 375.607 349.909C375.363 350.29 375.005 350.592 374.534 350.817C374.065 351.041 373.495 351.153 372.825 351.153C372.2 351.153 371.659 351.053 371.201 350.851C370.747 350.649 370.389 350.368 370.127 350.007C369.869 349.646 369.723 349.227 369.688 348.75H370.779C370.808 349.08 370.919 349.352 371.112 349.568C371.308 349.781 371.555 349.94 371.853 350.045C372.154 350.148 372.478 350.199 372.825 350.199C373.228 350.199 373.59 350.134 373.911 350.003C374.232 349.869 374.487 349.685 374.674 349.449C374.862 349.21 374.955 348.932 374.955 348.614C374.955 348.324 374.875 348.088 374.713 347.906C374.551 347.724 374.338 347.577 374.073 347.463C373.809 347.349 373.524 347.25 373.217 347.165L372.143 346.858C371.461 346.662 370.921 346.382 370.524 346.018C370.126 345.655 369.927 345.179 369.927 344.591C369.927 344.102 370.059 343.676 370.323 343.312C370.59 342.946 370.948 342.662 371.397 342.46C371.849 342.256 372.353 342.153 372.91 342.153C373.473 342.153 373.973 342.254 374.41 342.456C374.848 342.655 375.194 342.928 375.45 343.274C375.708 343.621 375.845 344.014 375.859 344.455H374.836ZM380.324 351.136C379.693 351.136 379.149 350.997 378.692 350.719C378.237 350.438 377.886 350.045 377.639 349.543C377.395 349.037 377.273 348.449 377.273 347.778C377.273 347.108 377.395 346.517 377.639 346.006C377.886 345.491 378.23 345.091 378.67 344.804C379.114 344.514 379.631 344.369 380.221 344.369C380.562 344.369 380.899 344.426 381.231 344.54C381.564 344.653 381.866 344.838 382.139 345.094C382.412 345.347 382.629 345.682 382.791 346.099C382.953 346.517 383.034 347.031 383.034 347.642V348.068H377.989V347.199H382.011C382.011 346.83 381.937 346.5 381.79 346.21C381.645 345.92 381.437 345.692 381.168 345.524C380.9 345.357 380.585 345.273 380.221 345.273C379.821 345.273 379.474 345.372 379.182 345.571C378.892 345.767 378.669 346.023 378.513 346.338C378.356 346.653 378.278 346.991 378.278 347.352V347.932C378.278 348.426 378.364 348.845 378.534 349.189C378.707 349.53 378.947 349.79 379.254 349.969C379.561 350.145 379.918 350.233 380.324 350.233C380.588 350.233 380.827 350.196 381.04 350.122C381.256 350.045 381.442 349.932 381.598 349.781C381.754 349.628 381.875 349.437 381.96 349.21L382.932 349.483C382.829 349.812 382.658 350.102 382.416 350.352C382.175 350.599 381.876 350.793 381.521 350.932C381.166 351.068 380.767 351.136 380.324 351.136ZM384.564 351V344.455H385.535V345.477H385.621C385.757 345.128 385.977 344.857 386.281 344.663C386.585 344.467 386.95 344.369 387.376 344.369C387.808 344.369 388.168 344.467 388.454 344.663C388.744 344.857 388.97 345.128 389.132 345.477H389.2C389.368 345.139 389.619 344.871 389.954 344.672C390.29 344.47 390.692 344.369 391.16 344.369C391.746 344.369 392.224 344.553 392.596 344.919C392.969 345.283 393.155 345.849 393.155 346.619V351H392.149V346.619C392.149 346.136 392.017 345.791 391.753 345.584C391.489 345.376 391.177 345.273 390.819 345.273C390.359 345.273 390.003 345.412 389.75 345.69C389.497 345.966 389.371 346.315 389.371 346.739V351H388.348V346.517C388.348 346.145 388.227 345.845 387.986 345.618C387.744 345.388 387.433 345.273 387.052 345.273C386.791 345.273 386.547 345.342 386.319 345.482C386.095 345.621 385.913 345.814 385.774 346.061C385.638 346.305 385.569 346.588 385.569 346.909V351H384.564ZM396.92 351.153C396.505 351.153 396.128 351.075 395.79 350.919C395.452 350.76 395.184 350.531 394.985 350.233C394.786 349.932 394.687 349.568 394.687 349.142C394.687 348.767 394.761 348.463 394.908 348.23C395.056 347.994 395.253 347.81 395.501 347.676C395.748 347.543 396.02 347.443 396.319 347.378C396.62 347.31 396.922 347.256 397.226 347.216C397.624 347.165 397.947 347.126 398.194 347.101C398.444 347.072 398.626 347.026 398.739 346.96C398.856 346.895 398.914 346.781 398.914 346.619V346.585C398.914 346.165 398.799 345.838 398.569 345.605C398.342 345.372 397.996 345.256 397.533 345.256C397.053 345.256 396.677 345.361 396.404 345.571C396.131 345.781 395.94 346.006 395.829 346.244L394.874 345.903C395.045 345.506 395.272 345.196 395.556 344.974C395.843 344.75 396.155 344.594 396.493 344.506C396.834 344.415 397.17 344.369 397.499 344.369C397.709 344.369 397.951 344.395 398.224 344.446C398.499 344.494 398.765 344.595 399.02 344.749C399.279 344.902 399.493 345.134 399.664 345.443C399.834 345.753 399.92 346.168 399.92 346.688V351H398.914V350.114H398.863C398.795 350.256 398.681 350.408 398.522 350.57C398.363 350.732 398.151 350.869 397.887 350.983C397.623 351.097 397.3 351.153 396.92 351.153ZM397.073 350.25C397.471 350.25 397.806 350.172 398.079 350.016C398.354 349.859 398.562 349.658 398.701 349.411C398.843 349.163 398.914 348.903 398.914 348.631V347.71C398.871 347.761 398.778 347.808 398.633 347.851C398.491 347.891 398.326 347.926 398.138 347.957C397.954 347.986 397.773 348.011 397.597 348.034C397.424 348.054 397.283 348.071 397.175 348.085C396.914 348.119 396.67 348.175 396.442 348.251C396.218 348.325 396.036 348.437 395.897 348.588C395.761 348.736 395.692 348.937 395.692 349.193C395.692 349.543 395.822 349.807 396.08 349.986C396.342 350.162 396.672 350.25 397.073 350.25ZM401.755 351V344.455H402.727V345.443H402.795C402.914 345.119 403.13 344.857 403.443 344.655C403.755 344.453 404.107 344.352 404.5 344.352C404.573 344.352 404.666 344.354 404.777 344.357C404.887 344.359 404.971 344.364 405.028 344.369V345.392C404.994 345.384 404.916 345.371 404.794 345.354C404.674 345.334 404.548 345.324 404.414 345.324C404.096 345.324 403.812 345.391 403.562 345.524C403.315 345.655 403.119 345.837 402.974 346.07C402.832 346.3 402.761 346.562 402.761 346.858V351H401.755ZM408.146 351.153C407.731 351.153 407.355 351.075 407.017 350.919C406.679 350.76 406.41 350.531 406.212 350.233C406.013 349.932 405.913 349.568 405.913 349.142C405.913 348.767 405.987 348.463 406.135 348.23C406.283 347.994 406.48 347.81 406.727 347.676C406.974 347.543 407.247 347.443 407.545 347.378C407.846 347.31 408.149 347.256 408.453 347.216C408.851 347.165 409.173 347.126 409.42 347.101C409.67 347.072 409.852 347.026 409.966 346.96C410.082 346.895 410.141 346.781 410.141 346.619V346.585C410.141 346.165 410.025 345.838 409.795 345.605C409.568 345.372 409.223 345.256 408.76 345.256C408.28 345.256 407.903 345.361 407.631 345.571C407.358 345.781 407.166 346.006 407.055 346.244L406.101 345.903C406.271 345.506 406.498 345.196 406.783 344.974C407.069 344.75 407.382 344.594 407.72 344.506C408.061 344.415 408.396 344.369 408.726 344.369C408.936 344.369 409.177 344.395 409.45 344.446C409.726 344.494 409.991 344.595 410.247 344.749C410.506 344.902 410.72 345.134 410.891 345.443C411.061 345.753 411.146 346.168 411.146 346.688V351H410.141V350.114H410.089C410.021 350.256 409.908 350.408 409.748 350.57C409.589 350.732 409.378 350.869 409.114 350.983C408.849 351.097 408.527 351.153 408.146 351.153ZM408.3 350.25C408.697 350.25 409.033 350.172 409.305 350.016C409.581 349.859 409.788 349.658 409.927 349.411C410.069 349.163 410.141 348.903 410.141 348.631V347.71C410.098 347.761 410.004 347.808 409.859 347.851C409.717 347.891 409.552 347.926 409.365 347.957C409.18 347.986 409 348.011 408.824 348.034C408.65 348.054 408.51 348.071 408.402 348.085C408.141 348.119 407.896 348.175 407.669 348.251C407.444 348.325 407.263 348.437 407.123 348.588C406.987 348.736 406.919 348.937 406.919 349.193C406.919 349.543 407.048 349.807 407.307 349.986C407.568 350.162 407.899 350.25 408.3 350.25ZM413.987 347.062V351H412.982V344.455H413.953V345.477H414.039C414.192 345.145 414.425 344.878 414.737 344.676C415.05 344.472 415.453 344.369 415.948 344.369C416.391 344.369 416.779 344.46 417.111 344.642C417.443 344.821 417.702 345.094 417.887 345.46C418.071 345.824 418.164 346.284 418.164 346.841V351H417.158V346.909C417.158 346.395 417.024 345.994 416.757 345.707C416.49 345.418 416.124 345.273 415.658 345.273C415.337 345.273 415.05 345.342 414.797 345.482C414.547 345.621 414.35 345.824 414.205 346.091C414.06 346.358 413.987 346.682 413.987 347.062ZM422.643 353.591C422.158 353.591 421.74 353.528 421.391 353.403C421.041 353.281 420.75 353.119 420.517 352.918C420.287 352.719 420.104 352.506 419.967 352.278L420.768 351.716C420.859 351.835 420.974 351.972 421.114 352.125C421.253 352.281 421.443 352.416 421.685 352.53C421.929 352.646 422.248 352.705 422.643 352.705C423.172 352.705 423.608 352.577 423.952 352.321C424.295 352.065 424.467 351.665 424.467 351.119V349.79H424.382C424.308 349.909 424.203 350.057 424.067 350.233C423.933 350.406 423.74 350.561 423.487 350.697C423.237 350.831 422.899 350.898 422.473 350.898C421.944 350.898 421.47 350.773 421.05 350.523C420.632 350.273 420.301 349.909 420.057 349.432C419.815 348.955 419.694 348.375 419.694 347.693C419.694 347.023 419.812 346.439 420.048 345.942C420.284 345.442 420.612 345.055 421.033 344.783C421.453 344.507 421.939 344.369 422.49 344.369C422.916 344.369 423.254 344.44 423.504 344.582C423.757 344.722 423.95 344.881 424.084 345.06C424.22 345.236 424.325 345.381 424.399 345.494H424.501V344.455H425.473V351.188C425.473 351.75 425.345 352.207 425.089 352.56C424.837 352.915 424.496 353.175 424.067 353.339C423.641 353.507 423.166 353.591 422.643 353.591ZM422.609 349.994C423.013 349.994 423.354 349.902 423.632 349.717C423.91 349.533 424.122 349.267 424.267 348.92C424.412 348.574 424.484 348.159 424.484 347.676C424.484 347.205 424.413 346.788 424.271 346.428C424.129 346.067 423.919 345.784 423.641 345.58C423.362 345.375 423.018 345.273 422.609 345.273C422.183 345.273 421.828 345.381 421.544 345.597C421.263 345.812 421.051 346.102 420.909 346.466C420.77 346.83 420.7 347.233 420.7 347.676C420.7 348.131 420.771 348.533 420.913 348.882C421.058 349.229 421.271 349.501 421.552 349.7C421.837 349.896 422.189 349.994 422.609 349.994Z" fill="#181819" fill-opacity="0.42"/>
<path d="M0.649858 10.2102V9.27273H7.19531V10.2102H4.45099V18H3.39418V10.2102H0.649858ZM10.3999 18.1364C9.80895 18.1364 9.29048 17.9957 8.84446 17.7145C8.40128 17.4332 8.05469 17.0398 7.80469 16.5341C7.55753 16.0284 7.43395 15.4375 7.43395 14.7614C7.43395 14.0795 7.55753 13.4844 7.80469 12.9759C8.05469 12.4673 8.40128 12.0724 8.84446 11.7912C9.29048 11.5099 9.80895 11.3693 10.3999 11.3693C10.9908 11.3693 11.5078 11.5099 11.951 11.7912C12.397 12.0724 12.7436 12.4673 12.9908 12.9759C13.2408 13.4844 13.3658 14.0795 13.3658 14.7614C13.3658 15.4375 13.2408 16.0284 12.9908 16.5341C12.7436 17.0398 12.397 17.4332 11.951 17.7145C11.5078 17.9957 10.9908 18.1364 10.3999 18.1364ZM10.3999 17.233C10.8487 17.233 11.218 17.1179 11.5078 16.8878C11.7976 16.6577 12.0121 16.3551 12.1513 15.9801C12.2905 15.6051 12.3601 15.1989 12.3601 14.7614C12.3601 14.3239 12.2905 13.9162 12.1513 13.5384C12.0121 13.1605 11.7976 12.8551 11.5078 12.6222C11.218 12.3892 10.8487 12.2727 10.3999 12.2727C9.95099 12.2727 9.58168 12.3892 9.2919 12.6222C9.00213 12.8551 8.78764 13.1605 8.64844 13.5384C8.50923 13.9162 8.43963 14.3239 8.43963 14.7614C8.43963 15.1989 8.50923 15.6051 8.64844 15.9801C8.78764 16.3551 9.00213 16.6577 9.2919 16.8878C9.58168 17.1179 9.95099 17.233 10.3999 17.233ZM15.9066 14.0625V18H14.9009V11.4545H15.8725V12.4773H15.9577C16.1112 12.1449 16.3441 11.8778 16.6566 11.6761C16.9691 11.4716 17.3725 11.3693 17.8668 11.3693C18.31 11.3693 18.6978 11.4602 19.0302 11.642C19.3626 11.821 19.6211 12.0938 19.8058 12.4602C19.9904 12.8239 20.0827 13.2841 20.0827 13.8409V18H19.0771V13.9091C19.0771 13.3949 18.9435 12.9943 18.6765 12.7074C18.4094 12.4176 18.043 12.2727 17.5771 12.2727C17.256 12.2727 16.9691 12.3423 16.7163 12.4815C16.4663 12.6207 16.2688 12.8239 16.1239 13.0909C15.979 13.358 15.9066 13.6818 15.9066 14.0625Z" fill="#181819" fill-opacity="0.42"/>
<path d="M1.49964 43.2102V42.3409L5.33487 36.2727H5.96555V37.6193H5.53942L2.64169 42.2045V42.2727H7.80646V43.2102H1.49964ZM5.6076 45V42.946V42.5412V36.2727H6.61328V45H5.6076ZM12.25 45.1193C11.608 45.1193 11.0611 44.9446 10.6094 44.5952C10.1577 44.2429 9.8125 43.733 9.57386 43.0653C9.33523 42.3949 9.21591 41.5852 9.21591 40.6364C9.21591 39.6932 9.33523 38.8878 9.57386 38.2202C9.81534 37.5497 10.1619 37.0384 10.6136 36.6861C11.0682 36.331 11.6136 36.1534 12.25 36.1534C12.8864 36.1534 13.4304 36.331 13.8821 36.6861C14.3366 37.0384 14.6832 37.5497 14.9219 38.2202C15.1634 38.8878 15.2841 39.6932 15.2841 40.6364C15.2841 41.5852 15.1648 42.3949 14.9261 43.0653C14.6875 43.733 14.3423 44.2429 13.8906 44.5952C13.4389 44.9446 12.892 45.1193 12.25 45.1193ZM12.25 44.1818C12.8864 44.1818 13.3807 43.875 13.733 43.2614C14.0852 42.6477 14.2614 41.7727 14.2614 40.6364C14.2614 39.8807 14.1804 39.2372 14.0185 38.706C13.8594 38.1747 13.6293 37.7699 13.3281 37.4915C13.0298 37.2131 12.6705 37.0739 12.25 37.0739C11.6193 37.0739 11.1264 37.3849 10.7713 38.0071C10.4162 38.6264 10.2386 39.5028 10.2386 40.6364C10.2386 41.392 10.3182 42.0341 10.4773 42.5625C10.6364 43.0909 10.8651 43.4929 11.1634 43.7685C11.4645 44.044 11.8267 44.1818 12.25 44.1818Z" fill="#181819" fill-opacity="0.42"/>
<path d="M33 43.5H437" stroke="#E3E3E3" stroke-linecap="round" stroke-dasharray="6 6"/>
<path d="M4.91087 78.1193C4.34837 78.1193 3.84695 78.0227 3.40661 77.8295C2.96911 77.6364 2.62109 77.3679 2.36257 77.0241C2.10689 76.6776 1.96768 76.2756 1.94496 75.8182H3.01882C3.04155 76.0994 3.13814 76.3423 3.30859 76.5469C3.47905 76.7486 3.70206 76.9048 3.97763 77.0156C4.2532 77.1264 4.55859 77.1818 4.89382 77.1818C5.26882 77.1818 5.60121 77.1165 5.89098 76.9858C6.18075 76.8551 6.40803 76.6733 6.5728 76.4403C6.73757 76.2074 6.81996 75.9375 6.81996 75.6307C6.81996 75.3097 6.74041 75.027 6.58132 74.7827C6.42223 74.5355 6.18928 74.3423 5.88246 74.2031C5.57564 74.0639 5.20064 73.9943 4.75746 73.9943H4.05859V73.0568H4.75746C5.10405 73.0568 5.40803 72.9943 5.66939 72.8693C5.93359 72.7443 6.13956 72.5682 6.28729 72.3409C6.43786 72.1136 6.51314 71.8466 6.51314 71.5398C6.51314 71.2443 6.4478 70.9872 6.31712 70.7685C6.18643 70.5497 6.00178 70.3793 5.76314 70.2571C5.52734 70.1349 5.24893 70.0739 4.92791 70.0739C4.62678 70.0739 4.34268 70.1293 4.07564 70.2401C3.81143 70.348 3.59553 70.5057 3.42791 70.7131C3.2603 70.9176 3.16939 71.1648 3.15518 71.4545H2.13246C2.1495 70.9972 2.28729 70.5966 2.54581 70.2528C2.80433 69.9062 3.1424 69.6364 3.56001 69.4432C3.98047 69.25 4.44212 69.1534 4.94496 69.1534C5.48473 69.1534 5.9478 69.2628 6.33416 69.4815C6.72053 69.6974 7.0174 69.983 7.22479 70.3381C7.43217 70.6932 7.53587 71.0767 7.53587 71.4886C7.53587 71.9801 7.40661 72.3991 7.14808 72.7457C6.8924 73.0923 6.54439 73.3324 6.10405 73.4659V73.5341C6.65518 73.625 7.08558 73.8594 7.39524 74.2372C7.7049 74.6122 7.85973 75.0767 7.85973 75.6307C7.85973 76.1051 7.73047 76.5312 7.47195 76.9091C7.21626 77.2841 6.86683 77.5795 6.42365 77.7955C5.98047 78.0114 5.47621 78.1193 4.91087 78.1193ZM12.3299 78.1193C11.8299 78.1193 11.3796 78.0199 10.979 77.821C10.5785 77.6222 10.2575 77.3494 10.016 77.0028C9.7745 76.6562 9.6424 76.2614 9.61967 75.8182H10.6424C10.6822 76.2131 10.8612 76.5398 11.1793 76.7983C11.5004 77.054 11.8839 77.1818 12.3299 77.1818C12.6879 77.1818 13.006 77.098 13.2844 76.9304C13.5657 76.7628 13.7859 76.5327 13.945 76.2401C14.1069 75.9446 14.1879 75.6108 14.1879 75.2386C14.1879 74.858 14.104 74.5185 13.9364 74.2202C13.7717 73.919 13.5444 73.6818 13.2546 73.5085C12.9648 73.3352 12.6339 73.2472 12.2617 73.2443C11.9947 73.2415 11.7205 73.2827 11.4393 73.3679C11.158 73.4503 10.9265 73.5568 10.7447 73.6875L9.75604 73.5682L10.2844 69.2727H14.8185V70.2102H11.1708L10.864 72.7841H10.9151C11.0941 72.642 11.3185 72.5241 11.5884 72.4304C11.8583 72.3366 12.1396 72.2898 12.4322 72.2898C12.9663 72.2898 13.4421 72.4176 13.8597 72.6733C14.2802 72.9261 14.6097 73.2727 14.8484 73.7131C15.0898 74.1534 15.2106 74.6562 15.2106 75.2216C15.2106 75.7784 15.0856 76.2756 14.8356 76.7131C14.5884 77.1477 14.2475 77.4915 13.8129 77.7443C13.3782 77.9943 12.8839 78.1193 12.3299 78.1193Z" fill="#181819" fill-opacity="0.42"/>
<path d="M33 76.5H437" stroke="#E3E3E3" stroke-linecap="round" stroke-dasharray="6 6"/>
<path d="M4.71165 111.119C4.14915 111.119 3.64773 111.023 3.20739 110.83C2.76989 110.636 2.42188 110.368 2.16335 110.024C1.90767 109.678 1.76847 109.276 1.74574 108.818H2.8196C2.84233 109.099 2.93892 109.342 3.10938 109.547C3.27983 109.749 3.50284 109.905 3.77841 110.016C4.05398 110.126 4.35938 110.182 4.6946 110.182C5.0696 110.182 5.40199 110.116 5.69176 109.986C5.98153 109.855 6.20881 109.673 6.37358 109.44C6.53835 109.207 6.62074 108.938 6.62074 108.631C6.62074 108.31 6.54119 108.027 6.3821 107.783C6.22301 107.536 5.99006 107.342 5.68324 107.203C5.37642 107.064 5.00142 106.994 4.55824 106.994H3.85938V106.057H4.55824C4.90483 106.057 5.20881 105.994 5.47017 105.869C5.73438 105.744 5.94034 105.568 6.08807 105.341C6.23864 105.114 6.31392 104.847 6.31392 104.54C6.31392 104.244 6.24858 103.987 6.1179 103.768C5.98722 103.55 5.80256 103.379 5.56392 103.257C5.32813 103.135 5.04972 103.074 4.72869 103.074C4.42756 103.074 4.14347 103.129 3.87642 103.24C3.61222 103.348 3.39631 103.506 3.22869 103.713C3.06108 103.918 2.97017 104.165 2.95597 104.455H1.93324C1.95028 103.997 2.08807 103.597 2.34659 103.253C2.60511 102.906 2.94318 102.636 3.3608 102.443C3.78125 102.25 4.2429 102.153 4.74574 102.153C5.28551 102.153 5.74858 102.263 6.13494 102.482C6.52131 102.697 6.81818 102.983 7.02557 103.338C7.23295 103.693 7.33665 104.077 7.33665 104.489C7.33665 104.98 7.20739 105.399 6.94886 105.746C6.69318 106.092 6.34517 106.332 5.90483 106.466V106.534C6.45597 106.625 6.88636 106.859 7.19602 107.237C7.50568 107.612 7.66051 108.077 7.66051 108.631C7.66051 109.105 7.53125 109.531 7.27273 109.909C7.01705 110.284 6.66761 110.58 6.22443 110.795C5.78125 111.011 5.27699 111.119 4.71165 111.119ZM12.25 111.119C11.608 111.119 11.0611 110.945 10.6094 110.595C10.1577 110.243 9.8125 109.733 9.57386 109.065C9.33523 108.395 9.21591 107.585 9.21591 106.636C9.21591 105.693 9.33523 104.888 9.57386 104.22C9.81534 103.55 10.1619 103.038 10.6136 102.686C11.0682 102.331 11.6136 102.153 12.25 102.153C12.8864 102.153 13.4304 102.331 13.8821 102.686C14.3366 103.038 14.6832 103.55 14.9219 104.22C15.1634 104.888 15.2841 105.693 15.2841 106.636C15.2841 107.585 15.1648 108.395 14.9261 109.065C14.6875 109.733 14.3423 110.243 13.8906 110.595C13.4389 110.945 12.892 111.119 12.25 111.119ZM12.25 110.182C12.8864 110.182 13.3807 109.875 13.733 109.261C14.0852 108.648 14.2614 107.773 14.2614 106.636C14.2614 105.881 14.1804 105.237 14.0185 104.706C13.8594 104.175 13.6293 103.77 13.3281 103.491C13.0298 103.213 12.6705 103.074 12.25 103.074C11.6193 103.074 11.1264 103.385 10.7713 104.007C10.4162 104.626 10.2386 105.503 10.2386 106.636C10.2386 107.392 10.3182 108.034 10.4773 108.562C10.6364 109.091 10.8651 109.493 11.1634 109.768C11.4645 110.044 11.8267 110.182 12.25 110.182Z" fill="#181819" fill-opacity="0.42"/>
<path d="M33 109.5H437" stroke="#E3E3E3" stroke-linecap="round" stroke-dasharray="6 6"/>
<path d="M2.337 144V143.233L5.21768 140.08C5.55575 139.71 5.83416 139.389 6.05291 139.116C6.27166 138.841 6.43359 138.582 6.53871 138.341C6.64666 138.097 6.70064 137.841 6.70064 137.574C6.70064 137.267 6.62678 137.001 6.47905 136.777C6.33416 136.553 6.1353 136.379 5.88246 136.257C5.62962 136.135 5.34553 136.074 5.03018 136.074C4.69496 136.074 4.40234 136.143 4.15234 136.283C3.90518 136.419 3.71342 136.611 3.57706 136.858C3.44354 137.105 3.37678 137.395 3.37678 137.727H2.37109C2.37109 137.216 2.48899 136.767 2.72479 136.381C2.96058 135.994 3.28161 135.693 3.68786 135.477C4.09695 135.261 4.55575 135.153 5.06428 135.153C5.57564 135.153 6.02876 135.261 6.42365 135.477C6.81854 135.693 7.1282 135.984 7.35263 136.351C7.57706 136.717 7.68928 137.125 7.68928 137.574C7.68928 137.895 7.63104 138.209 7.51456 138.516C7.40092 138.82 7.20206 139.159 6.91797 139.534C6.63672 139.906 6.24609 140.361 5.74609 140.898L3.78587 142.994V143.062H7.84268V144H2.337ZM12.3299 144.119C11.8299 144.119 11.3796 144.02 10.979 143.821C10.5785 143.622 10.2575 143.349 10.016 143.003C9.7745 142.656 9.6424 142.261 9.61967 141.818H10.6424C10.6822 142.213 10.8612 142.54 11.1793 142.798C11.5004 143.054 11.8839 143.182 12.3299 143.182C12.6879 143.182 13.006 143.098 13.2844 142.93C13.5657 142.763 13.7859 142.533 13.945 142.24C14.1069 141.945 14.1879 141.611 14.1879 141.239C14.1879 140.858 14.104 140.518 13.9364 140.22C13.7717 139.919 13.5444 139.682 13.2546 139.509C12.9648 139.335 12.6339 139.247 12.2617 139.244C11.9947 139.241 11.7205 139.283 11.4393 139.368C11.158 139.45 10.9265 139.557 10.7447 139.688L9.75604 139.568L10.2844 135.273H14.8185V136.21H11.1708L10.864 138.784H10.9151C11.0941 138.642 11.3185 138.524 11.5884 138.43C11.8583 138.337 12.1396 138.29 12.4322 138.29C12.9663 138.29 13.4421 138.418 13.8597 138.673C14.2802 138.926 14.6097 139.273 14.8484 139.713C15.0898 140.153 15.2106 140.656 15.2106 141.222C15.2106 141.778 15.0856 142.276 14.8356 142.713C14.5884 143.148 14.2475 143.491 13.8129 143.744C13.3782 143.994 12.8839 144.119 12.3299 144.119Z" fill="#181819" fill-opacity="0.42"/>
<path d="M33 142.5H437" stroke="#E3E3E3" stroke-linecap="round" stroke-dasharray="6 6"/>
<path d="M2.13778 177V176.233L5.01847 173.08C5.35653 172.71 5.63494 172.389 5.85369 172.116C6.07244 171.841 6.23438 171.582 6.33949 171.341C6.44744 171.097 6.50142 170.841 6.50142 170.574C6.50142 170.267 6.42756 170.001 6.27983 169.777C6.13494 169.553 5.93608 169.379 5.68324 169.257C5.4304 169.135 5.14631 169.074 4.83097 169.074C4.49574 169.074 4.20312 169.143 3.95312 169.283C3.70597 169.419 3.5142 169.611 3.37784 169.858C3.24432 170.105 3.17756 170.395 3.17756 170.727H2.17188C2.17188 170.216 2.28977 169.767 2.52557 169.381C2.76136 168.994 3.08239 168.693 3.48864 168.477C3.89773 168.261 4.35653 168.153 4.86506 168.153C5.37642 168.153 5.82955 168.261 6.22443 168.477C6.61932 168.693 6.92898 168.984 7.15341 169.351C7.37784 169.717 7.49006 170.125 7.49006 170.574C7.49006 170.895 7.43182 171.209 7.31534 171.516C7.2017 171.82 7.00284 172.159 6.71875 172.534C6.4375 172.906 6.04688 173.361 5.54688 173.898L3.58665 175.994V176.062H7.64347V177H2.13778ZM12.25 177.119C11.608 177.119 11.0611 176.945 10.6094 176.595C10.1577 176.243 9.8125 175.733 9.57386 175.065C9.33523 174.395 9.21591 173.585 9.21591 172.636C9.21591 171.693 9.33523 170.888 9.57386 170.22C9.81534 169.55 10.1619 169.038 10.6136 168.686C11.0682 168.331 11.6136 168.153 12.25 168.153C12.8864 168.153 13.4304 168.331 13.8821 168.686C14.3366 169.038 14.6832 169.55 14.9219 170.22C15.1634 170.888 15.2841 171.693 15.2841 172.636C15.2841 173.585 15.1648 174.395 14.9261 175.065C14.6875 175.733 14.3423 176.243 13.8906 176.595C13.4389 176.945 12.892 177.119 12.25 177.119ZM12.25 176.182C12.8864 176.182 13.3807 175.875 13.733 175.261C14.0852 174.648 14.2614 173.773 14.2614 172.636C14.2614 171.881 14.1804 171.237 14.0185 170.706C13.8594 170.175 13.6293 169.77 13.3281 169.491C13.0298 169.213 12.6705 169.074 12.25 169.074C11.6193 169.074 11.1264 169.385 10.7713 170.007C10.4162 170.626 10.2386 171.503 10.2386 172.636C10.2386 173.392 10.3182 174.034 10.4773 174.562C10.6364 175.091 10.8651 175.493 11.1634 175.768C11.4645 176.044 11.8267 176.182 12.25 176.182Z" fill="#181819" fill-opacity="0.42"/>
<path d="M33 175.5H437" stroke="#E3E3E3" stroke-linecap="round" stroke-dasharray="6 6"/>
<path d="M7.09268 201.273V210H6.03587V202.381H5.98473L3.85405 203.795V202.722L6.03587 201.273H7.09268ZM12.3299 210.119C11.8299 210.119 11.3796 210.02 10.979 209.821C10.5785 209.622 10.2575 209.349 10.016 209.003C9.7745 208.656 9.6424 208.261 9.61967 207.818H10.6424C10.6822 208.213 10.8612 208.54 11.1793 208.798C11.5004 209.054 11.8839 209.182 12.3299 209.182C12.6879 209.182 13.006 209.098 13.2844 208.93C13.5657 208.763 13.7859 208.533 13.945 208.24C14.1069 207.945 14.1879 207.611 14.1879 207.239C14.1879 206.858 14.104 206.518 13.9364 206.22C13.7717 205.919 13.5444 205.682 13.2546 205.509C12.9648 205.335 12.6339 205.247 12.2617 205.244C11.9947 205.241 11.7205 205.283 11.4393 205.368C11.158 205.45 10.9265 205.557 10.7447 205.688L9.75604 205.568L10.2844 201.273H14.8185V202.21H11.1708L10.864 204.784H10.9151C11.0941 204.642 11.3185 204.524 11.5884 204.43C11.8583 204.337 12.1396 204.29 12.4322 204.29C12.9663 204.29 13.4421 204.418 13.8597 204.673C14.2802 204.926 14.6097 205.273 14.8484 205.713C15.0898 206.153 15.2106 206.656 15.2106 207.222C15.2106 207.778 15.0856 208.276 14.8356 208.713C14.5884 209.148 14.2475 209.491 13.8129 209.744C13.3782 209.994 12.8839 210.119 12.3299 210.119Z" fill="#181819" fill-opacity="0.42"/>
<path d="M33 208.5H437" stroke="#E3E3E3" stroke-linecap="round" stroke-dasharray="6 6"/>
<path d="M6.89347 234.273V243H5.83665V235.381H5.78551L3.65483 236.795V235.722L5.83665 234.273H6.89347ZM12.25 243.119C11.608 243.119 11.0611 242.945 10.6094 242.595C10.1577 242.243 9.8125 241.733 9.57386 241.065C9.33523 240.395 9.21591 239.585 9.21591 238.636C9.21591 237.693 9.33523 236.888 9.57386 236.22C9.81534 235.55 10.1619 235.038 10.6136 234.686C11.0682 234.331 11.6136 234.153 12.25 234.153C12.8864 234.153 13.4304 234.331 13.8821 234.686C14.3366 235.038 14.6832 235.55 14.9219 236.22C15.1634 236.888 15.2841 237.693 15.2841 238.636C15.2841 239.585 15.1648 240.395 14.9261 241.065C14.6875 241.733 14.3423 242.243 13.8906 242.595C13.4389 242.945 12.892 243.119 12.25 243.119ZM12.25 242.182C12.8864 242.182 13.3807 241.875 13.733 241.261C14.0852 240.648 14.2614 239.773 14.2614 238.636C14.2614 237.881 14.1804 237.237 14.0185 236.706C13.8594 236.175 13.6293 235.77 13.3281 235.491C13.0298 235.213 12.6705 235.074 12.25 235.074C11.6193 235.074 11.1264 235.385 10.7713 236.007C10.4162 236.626 10.2386 237.503 10.2386 238.636C10.2386 239.392 10.3182 240.034 10.4773 240.562C10.6364 241.091 10.8651 241.493 11.1634 241.768C11.4645 242.044 11.8267 242.182 12.25 242.182Z" fill="#181819" fill-opacity="0.42"/>
<path d="M33 241.5H437" stroke="#E3E3E3" stroke-linecap="round" stroke-dasharray="6 6"/>
<path d="M12.3299 276.119C11.8299 276.119 11.3796 276.02 10.979 275.821C10.5785 275.622 10.2575 275.349 10.016 275.003C9.7745 274.656 9.6424 274.261 9.61967 273.818H10.6424C10.6822 274.213 10.8612 274.54 11.1793 274.798C11.5004 275.054 11.8839 275.182 12.3299 275.182C12.6879 275.182 13.006 275.098 13.2844 274.93C13.5657 274.763 13.7859 274.533 13.945 274.24C14.1069 273.945 14.1879 273.611 14.1879 273.239C14.1879 272.858 14.104 272.518 13.9364 272.22C13.7717 271.919 13.5444 271.682 13.2546 271.509C12.9648 271.335 12.6339 271.247 12.2617 271.244C11.9947 271.241 11.7205 271.283 11.4393 271.368C11.158 271.45 10.9265 271.557 10.7447 271.688L9.75604 271.568L10.2844 267.273H14.8185V268.21H11.1708L10.864 270.784H10.9151C11.0941 270.642 11.3185 270.524 11.5884 270.43C11.8583 270.337 12.1396 270.29 12.4322 270.29C12.9663 270.29 13.4421 270.418 13.8597 270.673C14.2802 270.926 14.6097 271.273 14.8484 271.713C15.0898 272.153 15.2106 272.656 15.2106 273.222C15.2106 273.778 15.0856 274.276 14.8356 274.713C14.5884 275.148 14.2475 275.491 13.8129 275.744C13.3782 275.994 12.8839 276.119 12.3299 276.119Z" fill="#181819" fill-opacity="0.42"/>
<path d="M33 274.5H437" stroke="#E3E3E3" stroke-linecap="round" stroke-dasharray="6 6"/>
<path d="M12.25 309.119C11.608 309.119 11.0611 308.945 10.6094 308.595C10.1577 308.243 9.8125 307.733 9.57386 307.065C9.33523 306.395 9.21591 305.585 9.21591 304.636C9.21591 303.693 9.33523 302.888 9.57386 302.22C9.81534 301.55 10.1619 301.038 10.6136 300.686C11.0682 300.331 11.6136 300.153 12.25 300.153C12.8864 300.153 13.4304 300.331 13.8821 300.686C14.3366 301.038 14.6832 301.55 14.9219 302.22C15.1634 302.888 15.2841 303.693 15.2841 304.636C15.2841 305.585 15.1648 306.395 14.9261 307.065C14.6875 307.733 14.3423 308.243 13.8906 308.595C13.4389 308.945 12.892 309.119 12.25 309.119ZM12.25 308.182C12.8864 308.182 13.3807 307.875 13.733 307.261C14.0852 306.648 14.2614 305.773 14.2614 304.636C14.2614 303.881 14.1804 303.237 14.0185 302.706C13.8594 302.175 13.6293 301.77 13.3281 301.491C13.0298 301.213 12.6705 301.074 12.25 301.074C11.6193 301.074 11.1264 301.385 10.7713 302.007C10.4162 302.626 10.2386 303.503 10.2386 304.636C10.2386 305.392 10.3182 306.034 10.4773 306.562C10.6364 307.091 10.8651 307.493 11.1634 307.768C11.4645 308.044 11.8267 308.182 12.25 308.182Z" fill="#181819" fill-opacity="0.42"/>
<path d="M33 307.5H437" stroke="#E3E3E3" stroke-linecap="round" stroke-dasharray="6 6"/>
<path d="M60.2189 228.273V237H58.8979V229.594H58.8468L56.7587 230.957V229.696L58.9363 228.273H60.2189ZM65.6181 237.145C64.9448 237.142 64.3695 236.964 63.8922 236.612C63.415 236.26 63.0499 235.747 62.7971 235.074C62.5442 234.401 62.4178 233.589 62.4178 232.641C62.4178 231.695 62.5442 230.886 62.7971 230.216C63.0527 229.545 63.4192 229.034 63.8965 228.682C64.3766 228.33 64.9505 228.153 65.6181 228.153C66.2857 228.153 66.8581 228.331 67.3354 228.686C67.8127 229.038 68.1777 229.55 68.4306 230.22C68.6863 230.888 68.8141 231.695 68.8141 232.641C68.8141 233.592 68.6877 234.405 68.4348 235.078C68.182 235.749 67.8169 236.261 67.3397 236.616C66.8624 236.969 66.2885 237.145 65.6181 237.145ZM65.6181 236.007C66.209 236.007 66.6706 235.719 67.003 235.142C67.3382 234.565 67.5059 233.732 67.5059 232.641C67.5059 231.916 67.4292 231.304 67.2757 230.804C67.1252 230.301 66.9078 229.92 66.6238 229.662C66.3425 229.401 66.0073 229.27 65.6181 229.27C65.03 229.27 64.5684 229.56 64.2331 230.139C63.8979 230.719 63.7289 231.553 63.726 232.641C63.726 233.368 63.8013 233.983 63.9519 234.486C64.1053 234.986 64.3226 235.365 64.6039 235.624C64.8851 235.879 65.2232 236.007 65.6181 236.007ZM73.1905 229.406V228.273H79.9448V229.406H77.2218V237H75.9093V229.406H73.1905ZM83.1429 237.132C82.5293 237.132 81.9938 236.991 81.5364 236.71C81.079 236.429 80.7239 236.036 80.4711 235.53C80.2182 235.024 80.0918 234.433 80.0918 233.757C80.0918 233.078 80.2182 232.484 80.4711 231.976C80.7239 231.467 81.079 231.072 81.5364 230.791C81.9938 230.51 82.5293 230.369 83.1429 230.369C83.7566 230.369 84.2921 230.51 84.7495 230.791C85.2069 231.072 85.562 231.467 85.8148 231.976C86.0676 232.484 86.1941 233.078 86.1941 233.757C86.1941 234.433 86.0676 235.024 85.8148 235.53C85.562 236.036 85.2069 236.429 84.7495 236.71C84.2921 236.991 83.7566 237.132 83.1429 237.132ZM83.1472 236.062C83.5449 236.062 83.8745 235.957 84.1358 235.747C84.3972 235.537 84.5904 235.257 84.7154 234.908C84.8432 234.558 84.9071 234.173 84.9071 233.753C84.9071 233.335 84.8432 232.952 84.7154 232.602C84.5904 232.25 84.3972 231.967 84.1358 231.754C83.8745 231.541 83.5449 231.435 83.1472 231.435C82.7466 231.435 82.4142 231.541 82.15 231.754C81.8887 231.967 81.6941 232.25 81.5662 232.602C81.4412 232.952 81.3787 233.335 81.3787 233.753C81.3787 234.173 81.4412 234.558 81.5662 234.908C81.6941 235.257 81.8887 235.537 82.15 235.747C82.4142 235.957 82.7466 236.062 83.1472 236.062ZM88.8904 233.114V237H87.6163V230.455H88.8393V231.52H88.9203C89.0708 231.173 89.3066 230.895 89.6277 230.685C89.9515 230.474 90.3592 230.369 90.8507 230.369C91.2967 230.369 91.6873 230.463 92.0225 230.651C92.3578 230.835 92.6177 231.111 92.8024 231.477C92.987 231.844 93.0794 232.297 93.0794 232.837V237H91.8052V232.99C91.8052 232.516 91.6816 232.145 91.4345 231.878C91.1873 231.608 90.8478 231.473 90.416 231.473C90.1206 231.473 89.8578 231.537 89.6277 231.665C89.4004 231.793 89.22 231.98 89.0865 232.227C88.9558 232.472 88.8904 232.767 88.8904 233.114Z" fill="#E98A6D"/>
<rect x="51" y="242" width="48" height="66" rx="6" fill="#E98A6D"/>
<path d="M141.371 195.273V204H140.05V196.594H139.999L137.911 197.957V196.696L140.089 195.273H141.371ZM146.613 204.119C146.079 204.119 145.599 204.017 145.172 203.812C144.749 203.605 144.411 203.321 144.158 202.96C143.905 202.599 143.77 202.188 143.753 201.724H145.032C145.063 202.099 145.229 202.408 145.53 202.649C145.831 202.891 146.192 203.011 146.613 203.011C146.948 203.011 147.245 202.935 147.503 202.781C147.765 202.625 147.969 202.411 148.117 202.138C148.268 201.865 148.343 201.554 148.343 201.205C148.343 200.849 148.266 200.533 148.113 200.254C147.959 199.976 147.748 199.757 147.478 199.598C147.211 199.439 146.904 199.358 146.557 199.355C146.293 199.355 146.028 199.401 145.76 199.491C145.493 199.582 145.278 199.702 145.113 199.849L143.907 199.67L144.397 195.273H149.195V196.402H145.492L145.215 198.844H145.266C145.437 198.679 145.662 198.541 145.944 198.43C146.228 198.32 146.532 198.264 146.856 198.264C147.387 198.264 147.86 198.391 148.275 198.643C148.692 198.896 149.02 199.241 149.259 199.679C149.501 200.114 149.62 200.614 149.617 201.179C149.62 201.744 149.492 202.249 149.233 202.692C148.978 203.135 148.623 203.484 148.168 203.74C147.716 203.993 147.198 204.119 146.613 204.119ZM154.038 196.406V195.273H160.792V196.406H158.069V204H156.757V196.406H154.038ZM163.991 204.132C163.377 204.132 162.841 203.991 162.384 203.71C161.927 203.429 161.572 203.036 161.319 202.53C161.066 202.024 160.939 201.433 160.939 200.757C160.939 200.078 161.066 199.484 161.319 198.976C161.572 198.467 161.927 198.072 162.384 197.791C162.841 197.51 163.377 197.369 163.991 197.369C164.604 197.369 165.14 197.51 165.597 197.791C166.055 198.072 166.41 198.467 166.662 198.976C166.915 199.484 167.042 200.078 167.042 200.757C167.042 201.433 166.915 202.024 166.662 202.53C166.41 203.036 166.055 203.429 165.597 203.71C165.14 203.991 164.604 204.132 163.991 204.132ZM163.995 203.062C164.393 203.062 164.722 202.957 164.983 202.747C165.245 202.537 165.438 202.257 165.563 201.908C165.691 201.558 165.755 201.173 165.755 200.753C165.755 200.335 165.691 199.952 165.563 199.602C165.438 199.25 165.245 198.967 164.983 198.754C164.722 198.541 164.393 198.435 163.995 198.435C163.594 198.435 163.262 198.541 162.998 198.754C162.736 198.967 162.542 199.25 162.414 199.602C162.289 199.952 162.226 200.335 162.226 200.753C162.226 201.173 162.289 201.558 162.414 201.908C162.542 202.257 162.736 202.537 162.998 202.747C163.262 202.957 163.594 203.062 163.995 203.062ZM169.738 200.114V204H168.464V197.455H169.687V198.52H169.768C169.919 198.173 170.154 197.895 170.475 197.685C170.799 197.474 171.207 197.369 171.698 197.369C172.144 197.369 172.535 197.463 172.87 197.651C173.205 197.835 173.465 198.111 173.65 198.477C173.835 198.844 173.927 199.297 173.927 199.837V204H172.653V199.99C172.653 199.516 172.529 199.145 172.282 198.878C172.035 198.608 171.695 198.473 171.264 198.473C170.968 198.473 170.705 198.537 170.475 198.665C170.248 198.793 170.068 198.98 169.934 199.227C169.803 199.472 169.738 199.767 169.738 200.114Z" fill="#E98A6D"/>
<rect x="132" y="209" width="48" height="99" rx="6" fill="#E98A6D"/>
<path d="M217.635 37.2955V36.2301L221.406 30.2727H222.246V31.8409H221.713L219.015 36.1108V36.179H224.184V37.2955H217.635ZM221.773 39V36.9716L221.781 36.4858V30.2727H223.03V39H221.773ZM228.708 39.1449C228.035 39.142 227.459 38.9645 226.982 38.6122C226.505 38.2599 226.14 37.7472 225.887 37.0739C225.634 36.4006 225.508 35.5895 225.508 34.6406C225.508 33.6946 225.634 32.8864 225.887 32.2159C226.143 31.5455 226.509 31.0341 226.986 30.6818C227.466 30.3295 228.04 30.1534 228.708 30.1534C229.376 30.1534 229.948 30.331 230.425 30.6861C230.903 31.0384 231.268 31.5497 231.52 32.2202C231.776 32.8878 231.904 33.6946 231.904 34.6406C231.904 35.5923 231.778 36.4048 231.525 37.0781C231.272 37.7486 230.907 38.2614 230.43 38.6165C229.952 38.9688 229.378 39.1449 228.708 39.1449ZM228.708 38.0071C229.299 38.0071 229.76 37.7188 230.093 37.142C230.428 36.5653 230.596 35.7315 230.596 34.6406C230.596 33.9162 230.519 33.304 230.366 32.804C230.215 32.3011 229.998 31.9205 229.714 31.6619C229.432 31.4006 229.097 31.2699 228.708 31.2699C228.12 31.2699 227.658 31.5597 227.323 32.1392C226.988 32.7187 226.819 33.5526 226.816 34.6406C226.816 35.3679 226.891 35.983 227.042 36.4858C227.195 36.9858 227.412 37.3651 227.694 37.6236C227.975 37.8793 228.313 38.0071 228.708 38.0071ZM236.28 31.4062V30.2727H243.035V31.4062H240.312V39H238.999V31.4062H236.28ZM246.233 39.1321C245.619 39.1321 245.084 38.9915 244.626 38.7102C244.169 38.429 243.814 38.0355 243.561 37.5298C243.308 37.0241 243.182 36.4332 243.182 35.7571C243.182 35.0781 243.308 34.4844 243.561 33.9759C243.814 33.4673 244.169 33.0724 244.626 32.7912C245.084 32.5099 245.619 32.3693 246.233 32.3693C246.846 32.3693 247.382 32.5099 247.839 32.7912C248.297 33.0724 248.652 33.4673 248.905 33.9759C249.157 34.4844 249.284 35.0781 249.284 35.7571C249.284 36.4332 249.157 37.0241 248.905 37.5298C248.652 38.0355 248.297 38.429 247.839 38.7102C247.382 38.9915 246.846 39.1321 246.233 39.1321ZM246.237 38.0625C246.635 38.0625 246.964 37.9574 247.226 37.7472C247.487 37.5369 247.68 37.2571 247.805 36.9077C247.933 36.5582 247.997 36.1733 247.997 35.7528C247.997 35.3352 247.933 34.9517 247.805 34.6023C247.68 34.25 247.487 33.9673 247.226 33.7543C246.964 33.5412 246.635 33.4347 246.237 33.4347C245.836 33.4347 245.504 33.5412 245.24 33.7543C244.979 33.9673 244.784 34.25 244.656 34.6023C244.531 34.9517 244.469 35.3352 244.469 35.7528C244.469 36.1733 244.531 36.5582 244.656 36.9077C244.784 37.2571 244.979 37.5369 245.24 37.7472C245.504 37.9574 245.836 38.0625 246.237 38.0625ZM251.98 35.1136V39H250.706V32.4545H251.929V33.5199H252.01C252.161 33.1733 252.396 32.8949 252.718 32.6847C253.041 32.4744 253.449 32.3693 253.941 32.3693C254.387 32.3693 254.777 32.4631 255.112 32.6506C255.448 32.8352 255.708 33.1108 255.892 33.4773C256.077 33.8437 256.169 34.2969 256.169 34.8366V39H254.895V34.9901C254.895 34.5156 254.771 34.1449 254.524 33.8778C254.277 33.608 253.938 33.473 253.506 33.473C253.21 33.473 252.948 33.5369 252.718 33.6648C252.49 33.7926 252.31 33.9801 252.176 34.2273C252.046 34.4716 251.98 34.767 251.98 35.1136Z" fill="#E98A6D"/>
<rect x="213" y="44" width="48" height="264" rx="6" fill="#E98A6D"/>
<path d="M298.064 171V170.045L301.017 166.986C301.333 166.653 301.593 166.362 301.797 166.112C302.004 165.859 302.159 165.619 302.262 165.392C302.364 165.165 302.415 164.923 302.415 164.668C302.415 164.378 302.347 164.128 302.21 163.918C302.074 163.705 301.888 163.541 301.652 163.428C301.416 163.311 301.151 163.253 300.855 163.253C300.543 163.253 300.27 163.317 300.037 163.445C299.804 163.572 299.625 163.753 299.5 163.986C299.375 164.219 299.313 164.491 299.313 164.804H298.056C298.056 164.273 298.178 163.808 298.422 163.411C298.666 163.013 299.002 162.705 299.428 162.486C299.854 162.264 300.338 162.153 300.881 162.153C301.429 162.153 301.912 162.263 302.33 162.482C302.75 162.697 303.078 162.993 303.314 163.368C303.55 163.74 303.668 164.161 303.668 164.629C303.668 164.953 303.607 165.27 303.485 165.58C303.365 165.889 303.156 166.234 302.858 166.615C302.56 166.993 302.145 167.452 301.614 167.991L299.879 169.807V169.871H303.808V171H298.064ZM308.462 171.145C307.789 171.142 307.213 170.964 306.736 170.612C306.259 170.26 305.894 169.747 305.641 169.074C305.388 168.401 305.262 167.589 305.262 166.641C305.262 165.695 305.388 164.886 305.641 164.216C305.896 163.545 306.263 163.034 306.74 162.682C307.22 162.33 307.794 162.153 308.462 162.153C309.129 162.153 309.702 162.331 310.179 162.686C310.656 163.038 311.021 163.55 311.274 164.22C311.53 164.888 311.658 165.695 311.658 166.641C311.658 167.592 311.531 168.405 311.279 169.078C311.026 169.749 310.661 170.261 310.183 170.616C309.706 170.969 309.132 171.145 308.462 171.145ZM308.462 170.007C309.053 170.007 309.514 169.719 309.847 169.142C310.182 168.565 310.35 167.732 310.35 166.641C310.35 165.916 310.273 165.304 310.119 164.804C309.969 164.301 309.752 163.92 309.468 163.662C309.186 163.401 308.851 163.27 308.462 163.27C307.874 163.27 307.412 163.56 307.077 164.139C306.742 164.719 306.573 165.553 306.57 166.641C306.57 167.368 306.645 167.983 306.796 168.486C306.949 168.986 307.166 169.365 307.448 169.624C307.729 169.879 308.067 170.007 308.462 170.007ZM316.034 163.406V162.273H322.789V163.406H320.066V171H318.753V163.406H316.034ZM325.987 171.132C325.373 171.132 324.838 170.991 324.38 170.71C323.923 170.429 323.568 170.036 323.315 169.53C323.062 169.024 322.936 168.433 322.936 167.757C322.936 167.078 323.062 166.484 323.315 165.976C323.568 165.467 323.923 165.072 324.38 164.791C324.838 164.51 325.373 164.369 325.987 164.369C326.6 164.369 327.136 164.51 327.593 164.791C328.051 165.072 328.406 165.467 328.659 165.976C328.911 166.484 329.038 167.078 329.038 167.757C329.038 168.433 328.911 169.024 328.659 169.53C328.406 170.036 328.051 170.429 327.593 170.71C327.136 170.991 326.6 171.132 325.987 171.132ZM325.991 170.062C326.389 170.062 326.718 169.957 326.98 169.747C327.241 169.537 327.434 169.257 327.559 168.908C327.687 168.558 327.751 168.173 327.751 167.753C327.751 167.335 327.687 166.952 327.559 166.602C327.434 166.25 327.241 165.967 326.98 165.754C326.718 165.541 326.389 165.435 325.991 165.435C325.59 165.435 325.258 165.541 324.994 165.754C324.732 165.967 324.538 166.25 324.41 166.602C324.285 166.952 324.222 167.335 324.222 167.753C324.222 168.173 324.285 168.558 324.41 168.908C324.538 169.257 324.732 169.537 324.994 169.747C325.258 169.957 325.59 170.062 325.991 170.062ZM331.734 167.114V171H330.46V164.455H331.683V165.52H331.764C331.915 165.173 332.15 164.895 332.471 164.685C332.795 164.474 333.203 164.369 333.694 164.369C334.14 164.369 334.531 164.463 334.866 164.651C335.202 164.835 335.461 165.111 335.646 165.477C335.831 165.844 335.923 166.297 335.923 166.837V171H334.649V166.99C334.649 166.516 334.525 166.145 334.278 165.878C334.031 165.608 333.692 165.473 333.26 165.473C332.964 165.473 332.702 165.537 332.471 165.665C332.244 165.793 332.064 165.98 331.93 166.227C331.8 166.472 331.734 166.767 331.734 167.114Z" fill="#E98A6D"/>
<rect x="293" y="176" width="48" height="132" rx="6" fill="#E98A6D"/>
<path d="M379.216 138V137.045L382.17 133.986C382.485 133.653 382.745 133.362 382.949 133.112C383.157 132.859 383.312 132.619 383.414 132.392C383.516 132.165 383.567 131.923 383.567 131.668C383.567 131.378 383.499 131.128 383.363 130.918C383.226 130.705 383.04 130.541 382.805 130.428C382.569 130.311 382.303 130.253 382.008 130.253C381.695 130.253 381.422 130.317 381.189 130.445C380.956 130.572 380.778 130.753 380.653 130.986C380.528 131.219 380.465 131.491 380.465 131.804H379.208C379.208 131.273 379.33 130.808 379.574 130.411C379.819 130.013 380.154 129.705 380.58 129.486C381.006 129.264 381.491 129.153 382.033 129.153C382.581 129.153 383.064 129.263 383.482 129.482C383.903 129.697 384.231 129.993 384.466 130.368C384.702 130.74 384.82 131.161 384.82 131.629C384.82 131.953 384.759 132.27 384.637 132.58C384.518 132.889 384.309 133.234 384.01 133.615C383.712 133.993 383.297 134.452 382.766 134.991L381.032 136.807V136.871H384.961V138H379.216ZM389.456 138.119C388.922 138.119 388.442 138.017 388.016 137.812C387.593 137.605 387.255 137.321 387.002 136.96C386.749 136.599 386.614 136.188 386.597 135.724H387.876C387.907 136.099 388.073 136.408 388.374 136.649C388.675 136.891 389.036 137.011 389.456 137.011C389.792 137.011 390.089 136.935 390.347 136.781C390.608 136.625 390.813 136.411 390.961 136.138C391.111 135.865 391.187 135.554 391.187 135.205C391.187 134.849 391.11 134.533 390.956 134.254C390.803 133.976 390.591 133.757 390.322 133.598C390.055 133.439 389.748 133.358 389.401 133.355C389.137 133.355 388.871 133.401 388.604 133.491C388.337 133.582 388.121 133.702 387.956 133.849L386.751 133.67L387.241 129.273H392.039V130.402H388.336L388.059 132.844H388.11C388.28 132.679 388.506 132.541 388.787 132.43C389.072 132.32 389.376 132.264 389.699 132.264C390.231 132.264 390.704 132.391 391.118 132.643C391.536 132.896 391.864 133.241 392.103 133.679C392.344 134.114 392.464 134.614 392.461 135.179C392.464 135.744 392.336 136.249 392.077 136.692C391.822 137.135 391.466 137.484 391.012 137.74C390.56 137.993 390.042 138.119 389.456 138.119ZM396.882 130.406V129.273H403.636V130.406H400.913V138H399.601V130.406H396.882ZM406.834 138.132C406.221 138.132 405.685 137.991 405.228 137.71C404.77 137.429 404.415 137.036 404.162 136.53C403.91 136.024 403.783 135.433 403.783 134.757C403.783 134.078 403.91 133.484 404.162 132.976C404.415 132.467 404.77 132.072 405.228 131.791C405.685 131.51 406.221 131.369 406.834 131.369C407.448 131.369 407.983 131.51 408.441 131.791C408.898 132.072 409.253 132.467 409.506 132.976C409.759 133.484 409.885 134.078 409.885 134.757C409.885 135.433 409.759 136.024 409.506 136.53C409.253 137.036 408.898 137.429 408.441 137.71C407.983 137.991 407.448 138.132 406.834 138.132ZM406.839 137.062C407.236 137.062 407.566 136.957 407.827 136.747C408.089 136.537 408.282 136.257 408.407 135.908C408.535 135.558 408.599 135.173 408.599 134.753C408.599 134.335 408.535 133.952 408.407 133.602C408.282 133.25 408.089 132.967 407.827 132.754C407.566 132.541 407.236 132.435 406.839 132.435C406.438 132.435 406.106 132.541 405.841 132.754C405.58 132.967 405.385 133.25 405.258 133.602C405.133 133.952 405.07 134.335 405.07 134.753C405.07 135.173 405.133 135.558 405.258 135.908C405.385 136.257 405.58 136.537 405.841 136.747C406.106 136.957 406.438 137.062 406.839 137.062ZM412.582 134.114V138H411.308V131.455H412.531V132.52H412.612C412.762 132.173 412.998 131.895 413.319 131.685C413.643 131.474 414.051 131.369 414.542 131.369C414.988 131.369 415.379 131.463 415.714 131.651C416.049 131.835 416.309 132.111 416.494 132.477C416.678 132.844 416.771 133.297 416.771 133.837V138H415.497V133.99C415.497 133.516 415.373 133.145 415.126 132.878C414.879 132.608 414.539 132.473 414.107 132.473C413.812 132.473 413.549 132.537 413.319 132.665C413.092 132.793 412.911 132.98 412.778 133.227C412.647 133.472 412.582 133.767 412.582 134.114Z" fill="#E98A6D"/>
<rect x="374" y="143" width="48" height="165" rx="6" fill="#E98A6D"/>
</svg>
