<svg width="156" height="52" viewBox="0 0 156 52" fill="none" xmlns="http://www.w3.org/2000/svg">
<path fill-rule="evenodd" clip-rule="evenodd" d="M44.9099 16.5992V38.4235L31.2508 46.3063L29.0219 45.0234C28.4479 44.3061 27.7241 43.2212 27.5333 42.122V32.7756L36.5765 27.2953C36.8992 27.0993 37.2053 26.88 37.4948 26.6375C37.7843 26.3949 38.0534 26.1315 38.3026 25.8477C38.5518 25.5634 38.7777 25.2621 38.9804 24.9436C39.1835 24.6251 39.361 24.2929 39.5129 23.9469L40.4412 21.8326L26.0886 30.2881L11.7403 21.8326L12.6691 23.9469C12.821 24.2929 12.9985 24.6251 13.2016 24.9436C13.4043 25.2621 13.6302 25.5634 13.8793 25.8477C14.1285 26.1315 14.3976 26.3949 14.6871 26.6375C14.9766 26.8805 15.2828 27.0993 15.6055 27.2953L24.6487 32.7756V41.9995C24.4949 43.1257 23.7548 44.2508 23.1623 44.9953L20.8752 46.3118H20.7619L7.09319 38.4235V16.5992L26.0015 5.68701L44.9099 16.5992ZM20.8752 46.3118H26.0015H31.2412L31.2508 46.3063L31.2617 46.3125H26.0676H20.8739L20.8752 46.3118ZM16.1156 15.0882L15.3074 13.2491L23.93 18.3369C24.1161 18.446 24.285 18.5775 24.4364 18.7313C24.5878 18.885 24.7169 19.0559 24.8237 19.2434C24.9305 19.4308 25.0112 19.6287 25.0658 19.8376C25.1208 20.0464 25.1479 20.2586 25.1469 20.4745V21.8703L18.6695 18.0008C18.3885 17.8305 18.1223 17.6397 17.8702 17.4285C17.6187 17.2177 17.3842 16.9885 17.1678 16.7417C16.9514 16.4944 16.7549 16.2325 16.5784 15.9553C16.4018 15.6781 16.2476 15.3891 16.1156 15.0882ZM27.1578 21.8689L33.6371 18.0008C34.2024 17.6582 34.7031 17.2386 35.1388 16.7417C35.5745 16.2443 35.9252 15.6933 36.1905 15.0882L36.9969 13.2491L28.3761 18.3369C28.1901 18.446 28.0211 18.5775 27.8697 18.7308C27.7183 18.8846 27.5892 19.0549 27.482 19.2424C27.3752 19.4299 27.2945 19.6278 27.2394 19.8362C27.1844 20.045 27.1573 20.2571 27.1578 20.4731V21.8689ZM13.6216 17.1653L14.5504 19.2796C14.7023 19.6256 14.8798 19.9579 15.0825 20.2763C15.2856 20.5948 15.5115 20.8962 15.7602 21.1804C16.0094 21.4643 16.2785 21.7277 16.568 21.9702C16.8575 22.2127 17.1636 22.432 17.4868 22.628L24.9334 27.077V25.4718C24.9344 25.2236 24.9035 24.9797 24.8404 24.7395C24.7773 24.4998 24.6842 24.272 24.5618 24.0561C24.4389 23.8406 24.2908 23.6446 24.1166 23.468C23.9424 23.291 23.7483 23.1401 23.5347 23.0138L13.6216 17.1653ZM34.6942 22.628L27.2452 27.0751V25.4699C27.2448 25.2222 27.2756 24.9782 27.3387 24.7381C27.4023 24.4984 27.4953 24.2706 27.6178 24.0551C27.7407 23.8397 27.8893 23.6437 28.0634 23.4676C28.2376 23.291 28.4317 23.1396 28.6458 23.0138L38.5565 17.1653L37.6296 19.2796C37.4777 19.6256 37.3007 19.9579 37.0976 20.2763C36.8949 20.5948 36.669 20.8962 36.4203 21.1804C36.1712 21.4643 35.9021 21.7277 35.6125 21.9702C35.3235 22.2127 35.0174 22.432 34.6942 22.628ZM24.9334 29.488C24.9315 29.4865 24.9325 29.4823 24.9363 29.4823H24.9377C24.9367 29.4875 24.9348 29.4899 24.9334 29.488Z" fill="#87BA1A"/>
<path d="M63.8939 14.7607V16.9869H61.0478V26.4706H58.7402V16.9869H56.0028V14.7607H63.8939Z" fill="#151E03"/>
<path d="M73.1214 24.1817H69.2392L68.2845 26.4712H66.0086L71.2934 14.2998H71.4201L76.7004 26.4712H74.0264L73.1214 24.1817ZM72.3567 22.2406L71.2256 19.3901L70.0492 22.2406H72.3567Z" fill="#151E03"/>
<path d="M90.1571 14.7613V26.9463H90.0937L81.8995 19.553L81.9493 26.4712H79.6101V14.2998H79.7051L87.8812 21.8108L87.8359 14.7613H90.1571Z" fill="#151E03"/>
<path d="M94.3874 14.7607H97.8895C99.3826 14.7607 100.611 15.0503 101.577 15.6295C102.542 16.2064 103.244 16.9541 103.686 17.8737C104.126 18.7911 104.346 19.7741 104.346 20.8238C104.346 21.9493 104.08 22.9414 103.55 23.801C103.018 24.6585 102.306 25.3168 101.41 25.7783C100.514 26.2398 99.5297 26.4706 98.4596 26.4706H94.3874V14.7607ZM98.0614 24.2445C99.2616 24.2445 100.212 23.9368 100.912 23.3214C101.611 22.7061 101.962 21.8215 101.962 20.6654C101.962 19.7311 101.767 18.9891 101.378 18.4393C100.991 17.8873 100.541 17.5061 100.025 17.2946C99.5116 17.0808 99.0274 16.9733 98.5727 16.9733H96.695V24.2445H98.0614Z" fill="#151E03"/>
<path d="M117.706 26.4706H115.403V21.7152H110.168V26.4706H107.861V14.7607H110.168V19.4845H115.403V14.7607H117.706V26.4706Z" fill="#151E03"/>
<path d="M124.006 22.145C124.006 22.516 124.117 22.8724 124.341 23.2128C124.564 23.5511 124.861 23.8259 125.232 24.0363C125.603 24.2479 126.001 24.3531 126.427 24.3531C126.882 24.3531 127.3 24.2479 127.68 24.0363C128.062 23.8259 128.363 23.5511 128.581 23.2128C128.798 22.8724 128.906 22.516 128.906 22.145V14.7607H131.182V22.1903C131.182 23.0296 130.97 23.7852 130.544 24.4571C130.121 25.1302 129.547 25.655 128.82 26.0317C128.093 26.4095 127.296 26.5973 126.427 26.5973C125.555 26.5973 124.758 26.4095 124.038 26.0317C123.316 25.655 122.746 25.1302 122.327 24.4571C121.908 23.7852 121.698 23.0296 121.698 22.1903V14.7607H124.006V22.145Z" fill="#151E03"/>
<path d="M141.489 26.4706L139.023 22.7468H137.481V26.4706H135.173V14.7607H138.72C140.174 14.7607 141.301 15.1137 142.1 15.8195C142.902 16.5254 143.304 17.488 143.304 18.7063C143.304 19.4279 143.151 20.1044 142.847 20.7378C142.545 21.369 142.082 21.8634 141.458 22.2219L144.177 26.4706H141.489ZM137.481 20.5207H139.118C139.743 20.5207 140.198 20.3385 140.485 19.9732C140.771 19.6055 140.915 19.2108 140.915 18.7877C140.915 18.3624 140.793 17.9574 140.548 17.5706C140.306 17.1814 139.836 16.9869 139.137 16.9869H137.481V20.5207Z" fill="#151E03"/>
<path d="M70.3875 37.1104C70.2302 37.0131 70.1069 36.8762 70.0164 36.6987C69.9282 36.5211 69.8909 36.3367 69.9033 36.1466C69.8965 35.4679 70.0142 34.7519 70.2563 33.9974C70.3581 33.6931 70.4836 33.373 70.6318 33.0382C70.7823 32.7034 70.9101 32.4455 71.0164 32.2645C71.1759 32.002 71.3535 31.7701 71.5503 31.5677C71.746 31.3663 71.9044 31.2317 72.0254 31.165C72.0978 31.1231 72.1985 31.0858 72.3286 31.0519C72.4575 31.0157 72.5955 30.9976 72.7403 30.9976C72.8546 30.9976 72.9598 31.01 73.057 31.0338C73.195 31.0677 73.3308 31.1141 73.4643 31.174C73.5966 31.2351 73.686 31.286 73.7312 31.3279C73.7516 31.3618 73.7776 31.4025 73.8081 31.45C73.8409 31.4953 73.8669 31.536 73.885 31.5722C73.9031 31.6061 73.9122 31.6423 73.9122 31.6808C73.9179 31.7385 73.8941 31.8075 73.8398 31.8889C73.7855 31.9681 73.7289 32.0066 73.6724 32.0066C73.6362 32.0066 73.6011 31.9873 73.5683 31.9477C73.5106 31.8606 73.4529 31.7962 73.3964 31.7532C73.3387 31.7113 73.2787 31.6763 73.2154 31.6491C73.1521 31.6197 73.1045 31.5948 73.0751 31.5767C72.9993 31.5315 72.8953 31.5088 72.7629 31.5088C72.66 31.5088 72.5559 31.5258 72.4507 31.5586C72.3444 31.5892 72.2539 31.6355 72.1792 31.6989C72.0763 31.7894 71.9496 31.9251 71.7992 32.1061C71.651 32.2871 71.5367 32.4568 71.4553 32.6129C71.1114 33.2169 70.8671 33.7848 70.7223 34.3187C70.6771 34.485 70.625 34.6942 70.5685 34.9476C70.5108 35.201 70.4734 35.391 70.4553 35.5177C70.4214 35.7292 70.4056 35.9204 70.4056 36.0923C70.4056 36.3073 70.4395 36.4702 70.5096 36.581C70.582 36.693 70.7008 36.7484 70.8671 36.7484C70.9813 36.7484 71.1227 36.7201 71.2924 36.6625C71.4824 36.6387 71.6974 36.529 71.9394 36.3322C72.1804 36.1331 72.3806 35.9068 72.5412 35.6535C72.8003 35.1716 72.9303 34.8469 72.9303 34.6806C72.9303 34.5664 72.8738 34.5087 72.7629 34.5087C72.6475 34.4974 72.505 34.4906 72.3331 34.4906C72.2177 34.4906 72.1295 34.4883 72.0661 34.4816C72.0028 34.4759 71.9451 34.4589 71.8942 34.4318C71.8546 34.3684 71.8354 34.313 71.8354 34.2644C71.8354 34.1988 71.8727 34.1275 71.9485 34.0517C72.0265 34.0155 72.1838 33.9974 72.4191 33.9974C72.7539 33.9974 73.0163 34.0449 73.2063 34.1377C73.3839 34.2225 73.4733 34.3979 73.4733 34.6625C73.4733 34.7892 73.4609 34.9012 73.4371 34.9974C73.3851 35.2236 73.2109 35.5607 72.9122 36.0064C72.7788 36.1908 72.5819 36.391 72.3195 36.6082C72.0593 36.8231 71.8489 36.9611 71.6861 37.0244C71.3716 37.1692 71.0888 37.2416 70.8354 37.2416C70.6567 37.2416 70.5074 37.1975 70.3875 37.1104Z" fill="#5CA74E"/>
<path d="M73.8333 36.5421C73.7847 36.5093 73.7519 36.4788 73.7338 36.4517C73.718 36.4222 73.7112 36.3781 73.7112 36.3204C73.7112 36.2695 73.7134 36.2254 73.7202 36.1892C73.7383 35.9935 73.7813 35.7673 73.8514 35.5105L73.8922 35.3386C73.9103 35.1938 74.0109 34.8929 74.1953 34.4336C74.3786 33.9721 74.5279 33.6588 74.6433 33.4925C74.6885 33.4631 74.736 33.4473 74.7881 33.4473C74.8627 33.4473 74.9261 33.4744 74.9781 33.5287C75.0109 33.5502 75.0279 33.5921 75.0279 33.6554C75.0279 33.7131 75.0064 33.7979 74.9645 33.9088C74.9215 34.0208 74.8491 34.1871 74.7473 34.4065C74.7224 34.4517 74.684 34.5377 74.6297 34.6644C74.5754 34.7911 74.5482 34.8669 74.5482 34.8906C74.5482 34.8997 74.5505 34.9042 74.5573 34.9042C74.5686 34.9042 74.5799 34.9019 74.589 34.8952C74.6003 34.8861 74.6127 34.8793 74.6252 34.8725C74.6885 34.7639 74.8423 34.6146 75.0867 34.4246C75.331 34.2346 75.4984 34.1169 75.5889 34.0717C75.6308 34.0479 75.6839 34.0253 75.7473 34.0038C75.8106 33.98 75.8525 33.9619 75.874 33.9495C75.9667 33.9043 76.0776 33.8816 76.2043 33.8816C76.2823 33.8816 76.3513 33.8952 76.4124 33.9224C76.4724 33.9472 76.5142 33.9846 76.5391 34.0355C76.5448 34.0751 76.5595 34.1067 76.5844 34.1305C76.6115 34.1554 76.6307 34.169 76.6432 34.1712C76.6579 34.1712 76.6681 34.1791 76.6748 34.1938C76.6805 34.2097 76.6839 34.2199 76.6839 34.2255C76.6839 34.2651 76.6613 34.2889 76.616 34.2979C76.5708 34.307 76.4871 34.3149 76.3672 34.3205C76.3038 34.3273 76.2371 34.342 76.1681 34.3658C76.0979 34.3873 76.0289 34.4144 75.9599 34.4472C75.6398 34.6316 75.4 34.7764 75.2405 34.8816C75.0833 34.9845 74.9238 35.1248 74.7609 35.3024C74.6976 35.3725 74.6139 35.4958 74.512 35.6734C74.4725 35.713 74.4306 35.8182 74.3854 35.9901C74.3424 36.1598 74.322 36.2639 74.322 36.3023C74.3152 36.3204 74.3039 36.3544 74.2858 36.4019C74.27 36.4505 74.2462 36.4969 74.2134 36.5421C74.1433 36.636 74.0845 36.6824 74.037 36.6824C73.9849 36.6824 73.9171 36.636 73.8333 36.5421Z" fill="#5CA74E"/>
<path d="M77.0639 36.7147C76.9938 36.7147 76.9383 36.7045 76.8965 36.683C76.8569 36.6592 76.8015 36.6151 76.7291 36.5518C76.539 36.3527 76.444 36.1694 76.444 35.9998C76.444 35.9613 76.4463 35.9319 76.4531 35.9138C76.4678 35.8753 76.4734 35.8358 76.4712 35.7962C76.4678 35.7543 76.4666 35.7272 76.4666 35.7147C76.4451 35.6944 76.435 35.6785 76.435 35.6695C76.435 35.6604 76.4395 35.6514 76.4485 35.6423C76.4598 35.6333 76.4689 35.6242 76.4757 35.6152C76.5119 35.6152 76.5232 35.5835 76.5119 35.5202C76.4994 35.4726 76.5221 35.3697 76.5797 35.2125C76.6363 35.0564 76.7087 34.9116 76.7969 34.7781C76.8603 34.6763 76.953 34.5474 77.0775 34.3935C77.2008 34.2374 77.3105 34.1175 77.4078 34.0361C77.5458 33.9162 77.6702 33.8268 77.7788 33.7691C77.8874 33.7125 78.0073 33.6684 78.1408 33.6379C78.255 33.6107 78.3331 33.5972 78.376 33.5972C78.4145 33.5972 78.4496 33.6085 78.4801 33.6288C78.5129 33.6469 78.5548 33.682 78.6068 33.7329C78.7606 33.803 78.867 33.8913 78.9281 33.9999C78.988 34.1062 79.0185 34.2702 79.0185 34.4931C79.0185 34.8675 78.8658 35.2736 78.5616 35.7102C78.4315 35.898 78.3082 36.0428 78.1905 36.1446C78.0752 36.2441 77.9247 36.3516 77.7381 36.4658C77.617 36.554 77.505 36.6174 77.4032 36.6558C77.3037 36.692 77.1906 36.7124 77.0639 36.7147ZM77.8919 35.8007C78.0299 35.6468 78.1408 35.5021 78.2222 35.3663C78.3059 35.2283 78.3862 35.0519 78.462 34.8369C78.4892 34.7408 78.5027 34.6231 78.5027 34.484C78.5027 34.3121 78.4801 34.2148 78.4349 34.1899C78.3772 34.1628 78.3195 34.1492 78.2629 34.1492C78.1362 34.1492 78.0028 34.2069 77.8648 34.3211C77.6985 34.4636 77.5492 34.6401 77.4168 34.8505C77.2833 35.062 77.1499 35.3211 77.0141 35.6287C76.953 35.7498 76.9236 35.8686 76.9236 35.9862C76.9236 36.071 76.944 36.1389 76.987 36.1898C77.0322 36.2418 77.0922 36.2667 77.168 36.2667C77.358 36.2667 77.5989 36.1118 77.8919 35.8007Z" fill="#5CA74E"/>
<path d="M79.8723 36.4562C79.7513 36.4562 79.6483 36.3635 79.5646 36.1757C79.4832 35.9857 79.4425 35.764 79.4425 35.5106L79.4515 35.3522C79.4515 35.1475 79.4651 34.9755 79.4922 34.8364C79.5217 34.6984 79.5398 34.6124 79.5465 34.5785C79.5579 34.5491 79.5692 34.4993 79.5782 34.4292C79.5895 34.3568 79.6144 34.255 79.6506 34.1215C79.6959 33.9202 79.7411 33.7957 79.7864 33.7505C79.8316 33.7052 79.8859 33.6826 79.9492 33.6826C79.9911 33.6826 80.0284 33.6939 80.0624 33.7143C80.0986 33.7324 80.1268 33.7595 80.1483 33.7957C80.1845 33.8297 80.2026 33.9122 80.2026 34.0446C80.2026 34.1419 80.1936 34.2369 80.1755 34.3296C80.1574 34.4201 80.1348 34.4869 80.1076 34.5287C80.0895 34.5627 80.0624 34.7278 80.0262 35.0264C80.0047 35.2436 79.9877 35.3839 79.9764 35.4472C79.9696 35.4721 79.9673 35.5061 79.9673 35.5513C79.9673 35.6848 80.0081 35.7504 80.0895 35.7504C80.2219 35.7504 80.4085 35.5762 80.6506 35.2255C80.8101 34.997 80.9232 34.8172 80.9899 34.6871C81.0555 34.5581 81.1234 34.3919 81.1935 34.1894C81.2207 34.1057 81.2456 34.031 81.2704 33.9677C81.2976 33.9043 81.3225 33.8636 81.3474 33.8455C81.3745 33.8218 81.4152 33.8093 81.4695 33.8093C81.5261 33.8093 81.594 33.8365 81.6731 33.8908C81.7421 33.9575 81.7772 34.0378 81.7772 34.1306C81.7772 34.2278 81.7421 34.3455 81.6731 34.4835C81.603 34.6226 81.5397 34.8138 81.4831 35.0581C81.4254 35.3025 81.3971 35.4925 81.3971 35.6282C81.3971 35.7346 81.4107 35.8002 81.4379 35.8273C81.465 35.8522 81.5069 35.8635 81.5645 35.8635C81.724 35.8635 81.9152 35.7493 82.1392 35.5196C82.241 35.4144 82.3767 35.2323 82.5464 34.9722C82.7183 34.7097 82.8043 34.5559 82.8043 34.5106C82.8043 34.4744 82.8292 34.4247 82.8812 34.3613C82.9106 34.3229 82.9378 34.2889 82.9627 34.2618C82.9898 34.2324 83.0283 34.2018 83.0803 34.1713L83.1482 34.1577C83.1934 34.1577 83.2477 34.1894 83.3111 34.2527C83.3348 34.2742 83.3495 34.3104 83.3563 34.3613C83.362 34.41 83.3654 34.4654 83.3654 34.5287C83.3348 34.6317 83.2851 34.764 83.2161 34.9269C83.1459 35.0898 83.0916 35.1961 83.0532 35.2436C82.9446 35.3285 82.8518 35.4337 82.7772 35.5604C82.638 35.7266 82.5294 35.8432 82.4514 35.9088C82.3756 35.9755 82.3258 36.0207 82.3021 36.0445C82.1867 36.1599 82.0623 36.2481 81.9265 36.3115C81.793 36.3748 81.6664 36.4065 81.5465 36.4065C81.4254 36.4065 81.327 36.3782 81.2523 36.3205C81.0736 36.2277 80.9854 36.0716 80.9854 35.8545C80.9854 35.816 80.9786 35.7798 80.9673 35.7459C80.9548 35.7097 80.9458 35.6859 80.9401 35.6735C80.8553 35.6735 80.7874 35.7187 80.7365 35.8092C80.6551 35.954 80.516 36.0988 80.3203 36.2436C80.1234 36.3861 79.9741 36.4562 79.8723 36.4562Z" fill="#5CA74E"/>
<path d="M85.9815 37.3388C85.7971 37.2211 85.6602 37.1182 85.5698 37.0311C85.4815 36.9463 85.4385 36.8682 85.4385 36.7958C85.4385 36.7211 85.4883 36.6544 85.5879 36.5967C85.615 36.5786 85.6648 36.5945 85.7372 36.642C85.8096 36.6906 85.8797 36.7494 85.9498 36.8184C86.0969 36.9564 86.2914 37.0266 86.5335 37.0266C86.6353 37.0266 86.7744 37.0062 86.9498 36.9677C87.1851 36.8976 87.3932 36.7981 87.5742 36.6646C87.7552 36.5322 87.9282 36.3637 88.0945 36.1578C88.1963 36.0198 88.2732 35.8671 88.3253 35.7008C88.3796 35.5323 88.4067 35.3739 88.4067 35.2257C88.4067 35.0425 88.3717 34.9068 88.3027 34.8185C88.073 34.5086 87.7461 34.3525 87.3208 34.3525C87.1364 34.3525 86.9634 34.3774 86.8005 34.4249L86.3028 34.5289C86.2903 34.5323 86.2632 34.538 86.2213 34.547C86.1817 34.5561 86.1184 34.6816 86.0313 34.9226C85.9464 35.1647 85.8344 35.4814 85.6964 35.8728C85.5754 36.2234 85.4804 36.4689 85.4114 36.6103C85.3446 36.7494 85.2824 36.8184 85.2259 36.8184C85.1682 36.8184 85.0992 36.7551 85.0177 36.6284C84.9544 36.5266 84.9227 36.4372 84.9227 36.3614C84.9227 36.289 84.9476 36.2099 84.9996 36.1216C85.0291 36.0707 85.0539 36.0198 85.072 35.9678C85.0924 35.9169 85.115 35.8445 85.1399 35.7506C85.2123 35.5278 85.4272 34.9712 85.7869 34.081C86.1455 33.1885 86.426 32.5155 86.6285 32.063C86.7733 31.735 86.8163 31.5608 86.7597 31.5427C86.7597 31.5279 86.7507 31.5042 86.7326 31.4703C86.7145 31.4341 86.7077 31.4069 86.7145 31.3888C86.7145 31.356 86.7937 31.3051 86.9543 31.235C87.1172 31.166 87.236 31.1377 87.3118 31.149H87.3615C87.4362 31.149 87.4746 31.1343 87.4746 31.1038C87.486 31.1038 87.5391 31.0992 87.633 31.0902C87.7292 31.0789 87.8321 31.0766 87.9407 31.0857C88.323 31.1219 88.6205 31.235 88.832 31.425C89.0458 31.615 89.1499 31.8673 89.1442 32.1806C89.1409 32.3254 89.0413 32.5381 88.8456 32.8186C88.6488 33.0969 88.4531 33.3242 88.2574 33.5018C88.1669 33.5833 88.0628 33.6693 87.9452 33.7597C87.8276 33.848 87.7506 33.9023 87.7144 33.9226L87.9316 33.9996C88.2122 34.1059 88.4339 34.2348 88.5968 34.3887C88.7619 34.5403 88.8773 34.7405 88.9406 34.9905C88.9519 35.0481 88.9587 35.1013 88.9587 35.1488C88.9587 35.2755 88.9361 35.4192 88.8909 35.5787C88.8479 35.7393 88.8015 35.8796 88.7506 35.9995C88.7144 36.0357 88.6839 36.0741 88.6601 36.1126C88.6386 36.1522 88.625 36.1782 88.6194 36.1895C88.6126 36.2144 88.5617 36.3026 88.4655 36.4565C88.3683 36.608 88.2823 36.7279 88.2076 36.8184C87.9203 37.065 87.6647 37.2302 87.4384 37.3116C87.1964 37.4202 86.9238 37.4745 86.6195 37.4745C86.3389 37.4745 86.1263 37.4293 85.9815 37.3388ZM86.4068 34.0177C86.4702 34.0063 86.5969 33.9815 86.7869 33.9453C86.9792 33.9091 87.1138 33.8763 87.1896 33.8457C87.2009 33.8401 87.2371 33.822 87.2982 33.7914C87.3581 33.7586 87.4203 33.71 87.4837 33.6466C87.6194 33.5199 87.788 33.3333 87.9905 33.0856C88.1918 32.8356 88.3389 32.6229 88.4293 32.4476C88.5741 32.2123 88.6465 32.0404 88.6465 31.9318C88.6465 31.8571 88.6149 31.787 88.5515 31.7236C88.4757 31.6331 88.2981 31.5879 88.0176 31.5879C87.8332 31.5879 87.6749 31.6049 87.5425 31.6377C87.4611 31.6626 87.4022 31.6908 87.366 31.7236C87.3299 31.7542 87.3118 31.8006 87.3118 31.8639C87.3118 31.9487 87.2642 32.0381 87.1715 32.1309C87.1647 32.1648 87.1511 32.1976 87.1308 32.2304C87.1127 32.2609 87.1002 32.279 87.0946 32.2847C87.0946 32.3028 87.0595 32.3888 86.9905 32.5426C86.9 32.7213 86.814 32.9227 86.7326 33.1489C86.5154 33.6647 86.4068 33.9543 86.4068 34.0177Z" fill="#5CA74E"/>
<path d="M90.7749 36.5422C90.6302 36.6689 90.456 36.7323 90.2546 36.7323C90.1121 36.7323 89.9763 36.6995 89.8474 36.6327C89.7173 36.5637 89.6098 36.4687 89.5261 36.3477C89.4503 36.2549 89.3949 36.1509 89.3587 36.0355C89.3248 35.9212 89.309 35.781 89.309 35.6147C89.309 35.5581 89.3146 35.4416 89.3271 35.2663C89.3418 35.0559 89.4108 34.8353 89.5352 34.6057C89.6585 34.3772 89.8123 34.1713 89.9967 33.9903C90.18 33.8071 90.3609 33.6815 90.5397 33.6148C90.6324 33.5582 90.7173 33.5288 90.793 33.5288C90.8315 33.5288 90.8711 33.5322 90.9107 33.5379C90.9525 33.5413 90.9967 33.5458 91.0419 33.5514C91.1686 33.5695 91.2647 33.5955 91.3315 33.6284C91.3971 33.6589 91.4536 33.7053 91.4989 33.7686C91.6403 33.9134 91.7116 34.0797 91.7116 34.2663C91.6901 34.4055 91.6007 34.5638 91.4446 34.7414C91.2908 34.9201 91.1052 35.0627 90.8881 35.1713C90.7817 35.2075 90.663 35.2256 90.5306 35.2256C90.3519 35.2256 90.2094 35.1882 90.1008 35.1124C90.0487 35.0943 90.0103 35.0853 89.9831 35.0853C89.9288 35.0853 89.8881 35.1204 89.861 35.1894C89.8361 35.2595 89.8135 35.3862 89.7931 35.5694C89.7863 35.609 89.784 35.6667 89.784 35.7414C89.784 36.0343 89.8802 36.1961 90.0736 36.2255C90.206 36.2527 90.301 36.2662 90.3587 36.2662C90.4277 36.2662 90.5057 36.2436 90.594 36.1984L90.7568 36.1034C90.7897 36.0853 90.8202 36.0626 90.8473 36.0355C90.8768 36.0061 90.9039 35.9801 90.9288 35.9586C90.9401 35.9472 90.9571 35.9292 90.9786 35.9043C91.0023 35.8771 91.0238 35.859 91.0419 35.85C91.0623 35.8409 91.0826 35.8364 91.1007 35.8364C91.1245 35.8364 91.1505 35.85 91.1776 35.8771C91.2071 35.902 91.2319 35.9201 91.25 35.9314C91.3009 35.9314 91.3111 35.9676 91.2817 36.04C91.2546 36.1124 91.1923 36.1972 91.0962 36.2934C91.0023 36.3873 90.8949 36.4698 90.7749 36.5422ZM90.7659 34.7143C90.862 34.6758 90.9605 34.6046 91.06 34.5016C91.1618 34.3998 91.2138 34.3138 91.2138 34.2437C91.2138 34.1747 91.1878 34.117 91.1369 34.0718C91.0849 34.0243 91.0125 33.9994 90.9197 33.9994C90.8496 33.9994 90.7987 34.0062 90.7659 34.0175C90.6845 34.0424 90.5894 34.1034 90.4808 34.203C90.3723 34.3025 90.2772 34.4055 90.1958 34.5107C90.1143 34.6136 90.0827 34.6736 90.1008 34.6917C90.1302 34.7437 90.2422 34.7686 90.4356 34.7686C90.5679 34.7686 90.6777 34.7505 90.7659 34.7143Z" fill="#5CA74E"/>
<path d="M92.4373 36.7863C92.3468 36.7682 92.2529 36.7071 92.1568 36.6008C92.0629 36.4922 92.0007 36.3926 91.9713 36.3021C91.9713 36.2908 91.9645 36.2784 91.9532 36.2659C91.9441 36.2512 91.9362 36.241 91.9305 36.2343C91.9057 36.2162 91.8944 36.1211 91.8944 35.9492C91.8944 35.8112 91.9011 35.6675 91.917 35.5194C91.9317 35.3689 91.9498 35.2479 91.9713 35.1574L92.1251 34.7004L92.2473 34.352L92.4826 33.8543L92.1342 33.7593C92.0946 33.7536 92.0618 33.7344 92.0346 33.7004C92.0097 33.6642 91.9984 33.6326 91.9984 33.6054C91.9984 33.5579 92.0222 33.5013 92.0708 33.438C92.1183 33.3724 92.1579 33.3385 92.1885 33.3385C92.2032 33.3452 92.2484 33.3475 92.3242 33.3475C92.4961 33.3475 92.6251 33.3385 92.7133 33.3204C92.7699 33.2966 92.8106 33.2502 92.8355 33.1801C92.8558 33.1348 92.8819 33.0783 92.9124 33.0082C92.9452 32.9392 92.9769 32.8758 93.0074 32.8181C93.0221 32.7853 93.0481 32.7322 93.0843 32.6598C93.1228 32.5874 93.1714 32.5059 93.2291 32.4154C93.2404 32.3973 93.2665 32.3555 93.3061 32.2887C93.3479 32.2231 93.3977 32.1666 93.4554 32.1213C93.4938 32.0829 93.5425 32.0625 93.6002 32.0625C93.6567 32.0625 93.7325 32.0987 93.8264 32.1711C93.8377 32.1892 93.8535 32.2141 93.8716 32.2435C93.892 32.2706 93.9033 32.2967 93.9033 32.3204C93.9033 32.3419 93.8807 32.3905 93.8354 32.4652C93.7992 32.5353 93.7642 32.5964 93.7314 32.6507C93.7008 32.705 93.6748 32.7536 93.6545 32.7955C93.5843 32.9109 93.5345 32.9968 93.5051 33.0534C93.4474 33.1292 93.4192 33.1869 93.4192 33.2253C93.4192 33.2649 93.4565 33.2842 93.5323 33.2842C93.6137 33.2842 93.7472 33.2683 93.935 33.2344C94.0164 33.2231 94.0719 33.2163 94.1024 33.2163C94.3015 33.2163 94.4101 33.3 94.4282 33.4651C94.4338 33.5013 94.4372 33.5421 94.4372 33.5873C94.4372 33.6688 94.4101 33.7185 94.3558 33.7366C94.3015 33.7525 94.1793 33.7593 93.9893 33.7593C93.8049 33.7898 93.6149 33.8045 93.4192 33.8045C93.3852 33.8045 93.3468 33.8068 93.3015 33.809C93.2585 33.809 93.2156 33.8158 93.1703 33.8271C93.1251 33.8396 93.0911 33.8577 93.0708 33.8814C93.0493 33.9029 93.0278 33.9391 93.0074 33.99C92.9893 34.0081 92.9486 34.0749 92.8853 34.1891C92.8038 34.3588 92.7518 34.4594 92.7314 34.4923C92.5742 34.9515 92.4599 35.4221 92.3875 35.904C92.3751 35.9978 92.3694 36.0555 92.3694 36.0759C92.3694 36.1641 92.3977 36.2252 92.4554 36.2614C92.512 36.2953 92.6104 36.3112 92.7495 36.3112C92.9418 36.3112 93.1115 36.2919 93.2563 36.2524C93.4282 36.1777 93.5572 36.1143 93.6454 36.0623C93.6963 36.0329 93.7427 36.0058 93.7857 35.9809C93.8275 35.9537 93.8581 35.9345 93.8762 35.922C93.8943 35.8892 93.9135 35.8723 93.935 35.8723C93.9825 35.8723 94.0232 35.9175 94.0571 36.008C94.0571 36.1019 94.0357 36.1834 93.9938 36.2524C93.9542 36.3191 93.8547 36.3994 93.6952 36.4922C93.3626 36.7037 93.03 36.8089 92.6952 36.8089C92.6047 36.8089 92.5188 36.8021 92.4373 36.7863Z" fill="#5CA74E"/>
<path d="M94.9875 36.7863C94.897 36.7682 94.8031 36.7071 94.707 36.6008C94.6131 36.4922 94.5508 36.3926 94.5214 36.3021C94.5214 36.2908 94.5147 36.2784 94.5033 36.2659C94.4943 36.2512 94.4864 36.241 94.4807 36.2343C94.4558 36.2162 94.4445 36.1211 94.4445 35.9492C94.4445 35.8112 94.4513 35.6675 94.4671 35.5194C94.4818 35.3689 94.4999 35.2479 94.5214 35.1574L94.6753 34.7004L94.7974 34.352L95.0327 33.8543L94.6843 33.7593C94.6447 33.7536 94.6119 33.7344 94.5848 33.7004C94.5599 33.6642 94.5486 33.6326 94.5486 33.6054C94.5486 33.5579 94.5723 33.5013 94.621 33.438C94.6685 33.3724 94.7081 33.3385 94.7386 33.3385C94.7533 33.3452 94.7986 33.3475 94.8744 33.3475C95.0463 33.3475 95.1753 33.3385 95.2635 33.3204C95.32 33.2966 95.3608 33.2502 95.3857 33.1801C95.406 33.1348 95.432 33.0783 95.4626 33.0082C95.4954 32.9392 95.527 32.8758 95.5576 32.8181C95.5723 32.7853 95.5983 32.7322 95.6345 32.6598C95.673 32.5874 95.7216 32.5059 95.7793 32.4154C95.7906 32.3973 95.8166 32.3555 95.8562 32.2887C95.8981 32.2231 95.9478 32.1666 96.0055 32.1213C96.044 32.0829 96.0926 32.0625 96.1503 32.0625C96.2069 32.0625 96.2827 32.0987 96.3766 32.1711C96.3879 32.1892 96.4037 32.2141 96.4218 32.2435C96.4422 32.2706 96.4535 32.2967 96.4535 32.3204C96.4535 32.3419 96.4309 32.3905 96.3856 32.4652C96.3494 32.5353 96.3143 32.5964 96.2815 32.6507C96.251 32.705 96.225 32.7536 96.2046 32.7955C96.1345 32.9109 96.0847 32.9968 96.0553 33.0534C95.9976 33.1292 95.9693 33.1869 95.9693 33.2253C95.9693 33.2649 96.0067 33.2842 96.0825 33.2842C96.1639 33.2842 96.2974 33.2683 96.4851 33.2344C96.5666 33.2231 96.622 33.2163 96.6526 33.2163C96.8516 33.2163 96.9602 33.3 96.9783 33.4651C96.984 33.5013 96.9874 33.5421 96.9874 33.5873C96.9874 33.6688 96.9602 33.7185 96.9059 33.7366C96.8516 33.7525 96.7295 33.7593 96.5394 33.7593C96.3551 33.7898 96.165 33.8045 95.9693 33.8045C95.9354 33.8045 95.8969 33.8068 95.8517 33.809C95.8087 33.809 95.7657 33.8158 95.7205 33.8271C95.6752 33.8396 95.6413 33.8577 95.6209 33.8814C95.5994 33.9029 95.578 33.9391 95.5576 33.99C95.5395 34.0081 95.4988 34.0749 95.4354 34.1891C95.354 34.3588 95.3019 34.4594 95.2816 34.4923C95.1244 34.9515 95.0101 35.4221 94.9377 35.904C94.9253 35.9978 94.9196 36.0555 94.9196 36.0759C94.9196 36.1641 94.9479 36.2252 95.0056 36.2614C95.0621 36.2953 95.1605 36.3112 95.2997 36.3112C95.492 36.3112 95.6617 36.2919 95.8064 36.2524C95.9784 36.1777 96.1073 36.1143 96.1956 36.0623C96.2465 36.0329 96.2928 36.0058 96.3358 35.9809C96.3777 35.9537 96.4082 35.9345 96.4263 35.922C96.4444 35.8892 96.4637 35.8723 96.4851 35.8723C96.5327 35.8723 96.5734 35.9175 96.6073 36.008C96.6073 36.1019 96.5858 36.1834 96.544 36.2524C96.5044 36.3191 96.4048 36.3994 96.2453 36.4922C95.9128 36.7037 95.5802 36.8089 95.2454 36.8089C95.1549 36.8089 95.0689 36.8021 94.9875 36.7863Z" fill="#5CA74E"/>
<path d="M98.3753 36.5422C98.2305 36.6689 98.0563 36.7323 97.855 36.7323C97.7124 36.7323 97.5767 36.6995 97.4477 36.6327C97.3177 36.5637 97.2102 36.4687 97.1265 36.3477C97.0507 36.2549 96.9953 36.1509 96.9591 36.0355C96.9251 35.9212 96.9093 35.781 96.9093 35.6147C96.9093 35.5581 96.915 35.4416 96.9274 35.2663C96.9421 35.0559 97.0111 34.8353 97.1355 34.6057C97.2588 34.3772 97.4127 34.1713 97.5971 33.9903C97.7803 33.8071 97.9613 33.6815 98.14 33.6148C98.2328 33.5582 98.3176 33.5288 98.3934 33.5288C98.4319 33.5288 98.4715 33.5322 98.511 33.5379C98.5529 33.5413 98.597 33.5458 98.6423 33.5514C98.769 33.5695 98.8651 33.5955 98.9318 33.6284C98.9975 33.6589 99.054 33.7053 99.0993 33.7686C99.2407 33.9134 99.3119 34.0797 99.3119 34.2663C99.2904 34.4055 99.2011 34.5638 99.045 34.7414C98.8911 34.9201 98.7056 35.0627 98.4884 35.1713C98.3821 35.2075 98.2633 35.2256 98.131 35.2256C97.9523 35.2256 97.8097 35.1882 97.7011 35.1124C97.6491 35.0943 97.6106 35.0853 97.5835 35.0853C97.5292 35.0853 97.4885 35.1204 97.4613 35.1894C97.4364 35.2595 97.4138 35.3862 97.3935 35.5694C97.3867 35.609 97.3844 35.6667 97.3844 35.7414C97.3844 36.0343 97.4806 36.1961 97.674 36.2255C97.8063 36.2527 97.9013 36.2662 97.959 36.2662C98.028 36.2662 98.1061 36.2436 98.1943 36.1984L98.3572 36.1034C98.39 36.0853 98.4206 36.0626 98.4477 36.0355C98.4771 36.0061 98.5043 35.9801 98.5291 35.9586C98.5405 35.9472 98.5574 35.9292 98.5789 35.9043C98.6027 35.8771 98.6242 35.859 98.6423 35.85C98.6626 35.8409 98.683 35.8364 98.7011 35.8364C98.7248 35.8364 98.7509 35.85 98.778 35.8771C98.8074 35.902 98.8323 35.9201 98.8504 35.9314C98.9013 35.9314 98.9115 35.9676 98.8821 36.04C98.8549 36.1124 98.7927 36.1972 98.6966 36.2934C98.6027 36.3873 98.4952 36.4698 98.3753 36.5422ZM98.3663 34.7143C98.4624 34.6758 98.5608 34.6046 98.6604 34.5016C98.7622 34.3998 98.8142 34.3138 98.8142 34.2437C98.8142 34.1747 98.7882 34.117 98.7373 34.0718C98.6852 34.0243 98.6129 33.9994 98.5201 33.9994C98.45 33.9994 98.3991 34.0062 98.3663 34.0175C98.2848 34.0424 98.1898 34.1034 98.0812 34.203C97.9726 34.3025 97.8776 34.4055 97.7961 34.5107C97.7147 34.6136 97.683 34.6736 97.7011 34.6917C97.7305 34.7437 97.8425 34.7686 98.036 34.7686C98.1683 34.7686 98.278 34.7505 98.3663 34.7143Z" fill="#5CA74E"/>
<path d="M99.5217 36.5421C99.473 36.5093 99.4402 36.4788 99.4221 36.4517C99.4063 36.4222 99.3995 36.3781 99.3995 36.3204C99.3995 36.2695 99.4018 36.2254 99.4085 36.1892C99.4266 35.9935 99.4696 35.7673 99.5398 35.5105L99.5805 35.3386C99.5986 35.1938 99.6993 34.8929 99.8836 34.4336C100.067 33.9721 100.216 33.6588 100.332 33.4925C100.377 33.4631 100.424 33.4473 100.476 33.4473C100.551 33.4473 100.614 33.4744 100.666 33.5287C100.699 33.5502 100.716 33.5921 100.716 33.6554C100.716 33.7131 100.695 33.7979 100.653 33.9088C100.61 34.0208 100.537 34.1871 100.436 34.4065C100.411 34.4517 100.372 34.5377 100.318 34.6644C100.264 34.7911 100.237 34.8669 100.237 34.8906C100.237 34.8997 100.239 34.9042 100.246 34.9042C100.257 34.9042 100.268 34.9019 100.277 34.8952C100.289 34.8861 100.301 34.8793 100.313 34.8725C100.377 34.7639 100.531 34.6146 100.775 34.4246C101.019 34.2346 101.187 34.1169 101.277 34.0717C101.319 34.0479 101.372 34.0253 101.436 34.0038C101.499 33.98 101.541 33.9619 101.562 33.9495C101.655 33.9043 101.766 33.8816 101.893 33.8816C101.971 33.8816 102.04 33.8952 102.101 33.9224C102.161 33.9472 102.203 33.9846 102.227 34.0355C102.233 34.0751 102.248 34.1067 102.273 34.1305C102.3 34.1554 102.319 34.169 102.331 34.1712C102.346 34.1712 102.356 34.1791 102.363 34.1938C102.369 34.2097 102.372 34.2199 102.372 34.2255C102.372 34.2651 102.35 34.2889 102.304 34.2979C102.259 34.307 102.175 34.3149 102.055 34.3205C101.992 34.3273 101.925 34.342 101.856 34.3658C101.786 34.3873 101.717 34.4144 101.648 34.4472C101.328 34.6316 101.088 34.7764 100.929 34.8816C100.772 34.9845 100.612 35.1248 100.449 35.3024C100.386 35.3725 100.302 35.4958 100.2 35.6734C100.161 35.713 100.119 35.8182 100.074 35.9901C100.031 36.1598 100.01 36.2639 100.01 36.3023C100.004 36.3204 99.9922 36.3544 99.9741 36.4019C99.9583 36.4505 99.9345 36.4969 99.9017 36.5421C99.8316 36.636 99.7728 36.6824 99.7253 36.6824C99.6732 36.6824 99.6054 36.636 99.5217 36.5421Z" fill="#5CA74E"/>
<path d="M104.603 36.4562C104.482 36.4562 104.379 36.3635 104.296 36.1757C104.214 35.9857 104.174 35.764 104.174 35.5106L104.183 35.3522C104.183 35.1475 104.196 34.9755 104.223 34.8364C104.253 34.6984 104.271 34.6124 104.278 34.5785C104.289 34.5491 104.3 34.4993 104.309 34.4292C104.321 34.3568 104.346 34.255 104.382 34.1215C104.427 33.9202 104.472 33.7957 104.517 33.7505C104.563 33.7052 104.617 33.6826 104.68 33.6826C104.722 33.6826 104.76 33.6939 104.793 33.7143C104.83 33.7324 104.858 33.7595 104.879 33.7957C104.916 33.8297 104.934 33.9122 104.934 34.0446C104.934 34.1419 104.925 34.2369 104.907 34.3296C104.888 34.4201 104.866 34.4869 104.839 34.5287C104.821 34.5627 104.793 34.7278 104.757 35.0264C104.736 35.2436 104.719 35.3839 104.707 35.4472C104.701 35.4721 104.698 35.5061 104.698 35.5513C104.698 35.6848 104.739 35.7504 104.821 35.7504C104.953 35.7504 105.14 35.5762 105.382 35.2255C105.541 34.997 105.654 34.8172 105.721 34.6871C105.787 34.5581 105.854 34.3919 105.925 34.1894C105.952 34.1057 105.977 34.031 106.002 33.9677C106.029 33.9043 106.054 33.8636 106.078 33.8455C106.106 33.8218 106.146 33.8093 106.201 33.8093C106.257 33.8093 106.325 33.8365 106.404 33.8908C106.473 33.9575 106.508 34.0378 106.508 34.1306C106.508 34.2278 106.473 34.3455 106.404 34.4835C106.334 34.6226 106.271 34.8138 106.214 35.0581C106.157 35.3025 106.128 35.4925 106.128 35.6282C106.128 35.7346 106.142 35.8002 106.169 35.8273C106.196 35.8522 106.238 35.8635 106.296 35.8635C106.455 35.8635 106.646 35.7493 106.87 35.5196C106.972 35.4144 107.108 35.2323 107.277 34.9722C107.449 34.7097 107.535 34.5559 107.535 34.5106C107.535 34.4744 107.56 34.4247 107.612 34.3613C107.642 34.3229 107.669 34.2889 107.694 34.2618C107.721 34.2324 107.759 34.2018 107.811 34.1713L107.879 34.1577C107.925 34.1577 107.979 34.1894 108.042 34.2527C108.066 34.2742 108.081 34.3104 108.087 34.3613C108.093 34.41 108.096 34.4654 108.096 34.5287C108.066 34.6317 108.016 34.764 107.947 34.9269C107.877 35.0898 107.823 35.1961 107.784 35.2436C107.676 35.3285 107.583 35.4337 107.508 35.5604C107.369 35.7266 107.261 35.8432 107.182 35.9088C107.107 35.9755 107.057 36.0207 107.033 36.0445C106.918 36.1599 106.793 36.2481 106.658 36.3115C106.524 36.3748 106.397 36.4065 106.278 36.4065C106.157 36.4065 106.058 36.3782 105.983 36.3205C105.805 36.2277 105.716 36.0716 105.716 35.8545C105.716 35.816 105.71 35.7798 105.698 35.7459C105.686 35.7097 105.677 35.6859 105.671 35.6735C105.586 35.6735 105.519 35.7187 105.468 35.8092C105.386 35.954 105.247 36.0988 105.051 36.2436C104.855 36.3861 104.705 36.4562 104.603 36.4562Z" fill="#5CA74E"/>
<path d="M109.024 33.0701C108.985 33.0282 108.949 32.9592 108.92 32.8619C108.893 32.7658 108.893 32.7171 108.92 32.7171C108.968 32.7115 109.022 32.6617 109.083 32.5678C109.143 32.4717 109.17 32.3914 109.164 32.328C109.164 32.3043 109.171 32.2828 109.187 32.2647C109.205 32.2443 109.225 32.2307 109.25 32.224C109.296 32.1945 109.334 32.1787 109.368 32.1787C109.468 32.1787 109.556 32.2488 109.635 32.3868C109.671 32.4626 109.689 32.5294 109.689 32.5859C109.689 32.638 109.673 32.69 109.644 32.7443C109.617 32.7986 109.565 32.8699 109.49 32.957C109.393 33.0904 109.301 33.156 109.214 33.156C109.156 33.156 109.093 33.1278 109.024 33.0701ZM108.187 36.5676C108.108 36.4862 108.069 36.372 108.069 36.2238C108.069 36.1423 108.083 36.0733 108.11 36.0156C108.11 35.9885 108.116 35.9557 108.128 35.9161C108.14 35.8742 108.146 35.8471 108.146 35.8347C108.14 35.8018 108.162 35.7068 108.214 35.5496C108.316 35.3211 108.455 34.9161 108.63 34.337C108.63 34.3076 108.641 34.2827 108.662 34.2646C108.686 34.2442 108.721 34.2307 108.766 34.2239C108.811 34.2126 108.843 34.2058 108.861 34.2058C108.894 34.2058 108.925 34.2193 108.952 34.2465C108.979 34.2714 109.015 34.3178 109.06 34.3868C109.093 34.423 109.11 34.475 109.11 34.5406C109.11 34.6526 109.074 34.7849 109.002 34.9388C108.926 35.105 108.876 35.2487 108.852 35.3686C108.782 35.5258 108.728 35.6695 108.689 35.7985C108.677 35.8347 108.659 35.9059 108.635 36.0111C108.614 36.114 108.583 36.1955 108.545 36.2554C108.508 36.4183 108.474 36.5315 108.445 36.5948C108.418 36.6581 108.387 36.6898 108.354 36.6898C108.312 36.6898 108.256 36.6491 108.187 36.5676Z" fill="#5CA74E"/>
<path d="M110.085 36.7863C109.995 36.7682 109.901 36.7071 109.805 36.6008C109.711 36.4922 109.648 36.3926 109.619 36.3021C109.619 36.2908 109.612 36.2784 109.601 36.2659C109.592 36.2512 109.584 36.241 109.578 36.2343C109.553 36.2162 109.542 36.1211 109.542 35.9492C109.542 35.8112 109.549 35.6675 109.565 35.5194C109.579 35.3689 109.598 35.2479 109.619 35.1574L109.773 34.7004L109.895 34.352L110.13 33.8543L109.782 33.7593C109.742 33.7536 109.71 33.7344 109.682 33.7004C109.657 33.6642 109.646 33.6326 109.646 33.6054C109.646 33.5579 109.67 33.5013 109.719 33.438C109.766 33.3724 109.806 33.3385 109.836 33.3385C109.851 33.3452 109.896 33.3475 109.972 33.3475C110.144 33.3475 110.273 33.3385 110.361 33.3204C110.418 33.2966 110.458 33.2502 110.483 33.1801C110.504 33.1348 110.53 33.0783 110.56 33.0082C110.593 32.9392 110.625 32.8758 110.655 32.8181C110.67 32.7853 110.696 32.7322 110.732 32.6598C110.771 32.5874 110.819 32.5059 110.877 32.4154C110.888 32.3973 110.914 32.3555 110.954 32.2887C110.996 32.2231 111.045 32.1666 111.103 32.1213C111.142 32.0829 111.19 32.0625 111.248 32.0625C111.304 32.0625 111.38 32.0987 111.474 32.1711C111.485 32.1892 111.501 32.2141 111.519 32.2435C111.54 32.2706 111.551 32.2967 111.551 32.3204C111.551 32.3419 111.528 32.3905 111.483 32.4652C111.447 32.5353 111.412 32.5964 111.379 32.6507C111.349 32.705 111.323 32.7536 111.302 32.7955C111.232 32.9109 111.182 32.9968 111.153 33.0534C111.095 33.1292 111.067 33.1869 111.067 33.2253C111.067 33.2649 111.104 33.2842 111.18 33.2842C111.261 33.2842 111.395 33.2683 111.583 33.2344C111.664 33.2231 111.72 33.2163 111.75 33.2163C111.949 33.2163 112.058 33.3 112.076 33.4651C112.082 33.5013 112.085 33.5421 112.085 33.5873C112.085 33.6688 112.058 33.7185 112.004 33.7366C111.949 33.7525 111.827 33.7593 111.637 33.7593C111.453 33.7898 111.263 33.8045 111.067 33.8045C111.033 33.8045 110.995 33.8068 110.949 33.809C110.906 33.809 110.863 33.8158 110.818 33.8271C110.773 33.8396 110.739 33.8577 110.719 33.8814C110.697 33.9029 110.676 33.9391 110.655 33.99C110.637 34.0081 110.596 34.0749 110.533 34.1891C110.452 34.3588 110.4 34.4594 110.379 34.4923C110.222 34.9515 110.108 35.4221 110.035 35.904C110.023 35.9978 110.017 36.0555 110.017 36.0759C110.017 36.1641 110.045 36.2252 110.103 36.2614C110.16 36.2953 110.258 36.3112 110.397 36.3112C110.59 36.3112 110.759 36.2919 110.904 36.2524C111.076 36.1777 111.205 36.1143 111.293 36.0623C111.344 36.0329 111.39 36.0058 111.433 35.9809C111.475 35.9537 111.506 35.9345 111.524 35.922C111.542 35.8892 111.561 35.8723 111.583 35.8723C111.63 35.8723 111.671 35.9175 111.705 36.008C111.705 36.1019 111.683 36.1834 111.642 36.2524C111.602 36.3191 111.502 36.3994 111.343 36.4922C111.01 36.7037 110.678 36.8089 110.343 36.8089C110.252 36.8089 110.167 36.8021 110.085 36.7863Z" fill="#5CA74E"/>
<path d="M112.215 36.3792C112.126 36.3792 112.061 36.36 112.016 36.3204C111.97 36.2786 111.94 36.2469 111.925 36.2254C111.909 36.2016 111.902 36.1734 111.902 36.1394C111.902 36.1157 111.922 36.0082 111.961 35.8182L112.043 35.5331C112.099 35.2978 112.151 35.1033 112.197 34.9494C112.217 34.8046 112.261 34.6531 112.328 34.4924C112.393 34.3329 112.433 34.2345 112.445 34.1983C112.491 34.0332 112.579 33.7753 112.712 33.4246L112.97 32.7233C113.172 32.1781 113.293 31.8444 113.332 31.7233L113.473 31.3478C113.473 31.255 113.518 31.2075 113.608 31.2075C113.69 31.2075 113.758 31.2528 113.812 31.3433C113.866 31.4315 113.893 31.5322 113.893 31.6464C113.893 31.7346 113.876 31.8184 113.844 31.8998C113.762 32.0717 113.673 32.2889 113.577 32.5513C113.483 32.8115 113.423 32.9812 113.396 33.0626C113.199 33.6146 113.057 33.9834 112.97 34.1667C112.97 34.1882 112.961 34.2277 112.943 34.2843C112.927 34.342 112.908 34.3952 112.884 34.4427L112.789 34.6282C112.789 34.6463 112.758 34.7673 112.694 34.9901C112.615 35.2379 112.568 35.4189 112.549 35.5331C112.577 35.4822 112.635 35.4042 112.726 35.2978C112.819 35.1926 112.907 35.1055 112.988 35.0354C113.305 34.7639 113.501 34.6033 113.577 34.5513C113.642 34.5128 113.699 34.4766 113.744 34.4427C113.792 34.4065 113.825 34.3827 113.844 34.3703C113.844 34.3431 113.875 34.3295 113.939 34.3295C113.959 34.3295 113.971 34.3273 113.975 34.3205C113.977 34.3148 113.979 34.3001 113.979 34.2753C113.979 34.2368 114.045 34.2017 114.178 34.1712C114.311 34.1384 114.428 34.1214 114.531 34.1214C114.6 34.1214 114.655 34.1372 114.694 34.1667C114.736 34.1938 114.789 34.256 114.853 34.3522C114.949 34.4913 114.997 34.6417 114.997 34.8046C114.997 34.8951 114.98 34.989 114.948 35.0852C114.948 35.1338 114.94 35.2051 114.925 35.2978C114.909 35.3917 114.902 35.4732 114.902 35.5422L114.853 35.8182H114.988C115.027 35.8182 115.065 35.825 115.101 35.8363C115.14 35.8487 115.166 35.8578 115.178 35.8634C115.229 35.9268 115.274 35.9584 115.314 35.9584C115.368 35.9584 115.396 35.9788 115.396 36.0173C115.396 36.0421 115.383 36.0715 115.359 36.1077C115.334 36.1417 115.303 36.1688 115.264 36.1892C115.113 36.2831 114.986 36.3295 114.884 36.3295C114.787 36.3295 114.687 36.2831 114.586 36.1892C114.459 36.0625 114.396 35.9109 114.396 35.7322C114.396 35.6417 114.411 35.5331 114.445 35.4064L114.472 35.1304C114.484 34.9924 114.491 34.9064 114.491 34.8725C114.491 34.7402 114.459 34.6734 114.396 34.6734C114.314 34.6734 114.158 34.7447 113.93 34.8861C113.703 35.0252 113.469 35.2005 113.228 35.4109C112.986 35.6191 112.795 35.8306 112.654 36.0444C112.565 36.153 112.492 36.2344 112.432 36.2887C112.371 36.343 112.315 36.3736 112.264 36.3792H112.215Z" fill="#5CA74E"/>
<path d="M118.514 37.6632C118.362 37.6869 118.265 37.6994 118.22 37.6994C118.105 37.6994 117.967 37.6745 117.804 37.627C117.731 37.6055 117.677 37.5794 117.641 37.55C117.607 37.5229 117.568 37.4799 117.523 37.4233C117.48 37.3691 117.448 37.3283 117.428 37.3012C117.322 37.1564 117.27 37.0297 117.27 36.9211C117.27 36.8374 117.31 36.8057 117.392 36.8261C117.448 36.8555 117.512 36.9132 117.582 36.998C117.651 37.067 117.724 37.1168 117.804 37.1473C117.885 37.1801 117.982 37.1971 118.098 37.1971C118.14 37.1971 118.218 37.1903 118.333 37.179C118.469 37.1575 118.628 37.1157 118.813 37.0523C118.996 36.989 119.132 36.9222 119.22 36.8532C119.494 36.6632 119.719 36.5116 119.894 36.3962C120.068 36.282 120.18 36.2096 120.229 36.1791C120.24 36.1519 120.301 36.118 120.41 36.075L120.641 35.8533C120.791 35.6938 120.889 35.5954 120.935 35.5592C120.94 35.5207 120.949 35.48 120.962 35.437C120.977 35.3918 120.984 35.359 120.984 35.3375C121.053 35.2628 121.158 35.083 121.297 34.799C121.435 34.5128 121.53 34.2674 121.582 34.0615C121.633 33.79 121.659 33.5525 121.659 33.3466C121.659 32.9937 121.596 32.6985 121.473 32.4598C121.349 32.2222 121.17 32.0028 120.935 31.8037C120.814 31.7042 120.613 31.5956 120.333 31.4779C120.055 31.3603 119.894 31.3105 119.849 31.3286C119.818 31.3354 119.74 31.5005 119.614 31.8263C119.489 32.1498 119.317 32.6159 119.098 33.2244L118.822 33.9891C118.8 34.083 118.774 34.1701 118.745 34.2515C118.718 34.3307 118.695 34.4009 118.677 34.4642C118.601 34.6791 118.564 34.799 118.564 34.8262C118.5 34.9257 118.448 35.0547 118.41 35.2108C118.374 35.368 118.333 35.6361 118.288 36.0162C118.236 36.2062 118.213 36.2922 118.22 36.2741C118.195 36.3736 118.175 36.4551 118.157 36.5184C118.141 36.5818 118.125 36.6112 118.107 36.6044L118.071 36.6361C118.071 36.6722 118.045 36.6903 117.994 36.6903C117.948 36.6903 117.896 36.679 117.84 36.6542C117.782 36.627 117.737 36.5953 117.704 36.5591C117.679 36.4777 117.668 36.4211 117.668 36.3872C117.668 36.3125 117.691 36.1972 117.736 36.0433C117.781 35.8476 117.856 35.5728 117.962 35.2198C118.071 34.8669 118.162 34.5773 118.238 34.3511C118.276 34.2549 118.334 34.0728 118.41 33.8036C118.473 33.5898 118.542 33.3715 118.618 33.1475C118.696 32.9213 118.754 32.7799 118.79 32.7222C118.799 32.6837 118.836 32.5684 118.903 32.3783C118.969 32.1883 119.049 31.979 119.143 31.7494L119.202 31.4643L119.107 31.4236C119.055 31.4395 119.009 31.4462 118.971 31.4462C118.94 31.4462 118.909 31.4395 118.876 31.4236C118.818 31.4395 118.738 31.4146 118.636 31.3512C118.537 31.2856 118.48 31.2234 118.469 31.1657C118.456 31.1476 118.448 31.1227 118.446 31.0888C118.443 31.0526 118.442 31.0288 118.442 31.0164C118.453 30.9598 118.568 30.9067 118.785 30.858C119.005 30.8105 119.245 30.7856 119.505 30.7856C119.614 30.7856 119.696 30.789 119.754 30.7947C119.856 30.8015 119.954 30.8196 120.048 30.849C120.144 30.8761 120.262 30.9191 120.401 30.9757L120.609 31.0526C120.79 31.1227 120.986 31.2426 121.197 31.4146C121.408 31.5865 121.595 31.789 121.758 32.0209C121.921 32.2539 122.031 32.4903 122.089 32.7313C122.107 32.807 122.122 32.9111 122.138 33.0435C122.156 33.1769 122.165 33.2946 122.165 33.3964C122.165 33.5174 122.154 33.5932 122.134 33.6226C122.116 33.6441 122.107 33.6724 122.107 33.7086C122.107 33.7425 122.118 33.7618 122.143 33.7674C122.13 33.8013 122.109 33.8647 122.079 33.9574C122.052 34.0479 122.021 34.1463 121.984 34.2515C121.951 34.6135 121.791 35.0388 121.505 35.5275C121.474 35.5275 121.451 35.532 121.432 35.5411C121.417 35.5479 121.42 35.5535 121.441 35.5592C121.441 35.5897 121.41 35.644 121.346 35.7221C121.331 35.7345 121.294 35.7764 121.238 35.8488C121.184 35.9212 121.145 35.9664 121.125 35.9845C121.118 36.0241 121.1 36.0569 121.07 36.084C121.043 36.1089 121.017 36.1202 120.994 36.1202C120.994 36.1202 120.989 36.1225 120.98 36.1248C120.973 36.1282 120.971 36.1383 120.971 36.1564C120.865 36.3046 120.675 36.489 120.401 36.7084C120.129 36.9256 119.887 37.0795 119.677 37.17C119.619 37.2118 119.551 37.2491 119.473 37.2831C119.394 37.3193 119.342 37.3419 119.315 37.351C119.27 37.3928 119.153 37.4482 118.966 37.5184C118.779 37.5908 118.628 37.6383 118.514 37.6632Z" fill="#5CA74E"/>
<path d="M122.175 36.5326C122.157 36.4998 122.128 36.4647 122.089 36.4285C122.053 36.39 122.035 36.364 122.035 36.3516C122.035 36.2882 122.021 36.2407 121.994 36.2068C121.982 36.1955 121.976 36.1695 121.976 36.1299C121.976 36.0371 122.019 35.8799 122.107 35.6593C122.198 35.4399 122.316 35.2001 122.46 34.9399C122.493 34.9071 122.537 34.8471 122.592 34.7589C122.646 34.6718 122.682 34.6232 122.7 34.6141C122.7 34.5904 122.707 34.5689 122.723 34.5508C122.741 34.5304 122.761 34.5191 122.786 34.5191V34.4648C122.786 34.4139 122.881 34.2906 123.071 34.0938C123.261 33.8947 123.416 33.7578 123.537 33.682C123.679 33.5825 123.825 33.5327 123.976 33.5327C124.078 33.5327 124.167 33.5633 124.243 33.6232C124.272 33.6571 124.406 33.7793 124.641 33.9897L124.958 34.2748L124.804 34.7091C124.752 34.863 124.727 35.0032 124.727 35.1299C124.727 35.3471 124.791 35.5575 124.917 35.7589C124.944 35.8222 125 35.8833 125.085 35.9398C125.172 35.9975 125.259 36.0326 125.347 36.0439C125.474 36.0654 125.537 36.1287 125.537 36.2339C125.537 36.3493 125.484 36.4172 125.379 36.4376C125.357 36.4443 125.324 36.4466 125.279 36.4466C124.938 36.4466 124.643 36.2091 124.397 35.7317C124.375 35.6989 124.345 35.6367 124.306 35.5462C124.27 35.4534 124.249 35.3878 124.243 35.3516C124.209 35.4003 124.166 35.4557 124.112 35.519C124.06 35.5824 124.012 35.6367 123.967 35.6819C123.339 36.3063 122.845 36.6185 122.483 36.6185C122.368 36.6185 122.266 36.5903 122.175 36.5326ZM122.483 36.053C122.483 36.0801 122.512 36.0892 122.573 36.0801C122.633 36.0688 122.707 36.0394 122.795 35.9941C122.886 35.9466 122.977 35.8844 123.071 35.8086C123.565 35.3833 123.922 35.0145 124.139 34.7001L124.329 34.3879C124.271 34.268 124.211 34.1797 124.148 34.1254C124.085 34.0712 124.027 34.044 123.976 34.044C123.855 34.044 123.665 34.1956 123.406 34.4965C123.149 34.7985 122.914 35.1525 122.7 35.5598C122.648 35.6593 122.602 35.7589 122.56 35.8584C122.52 35.9579 122.494 36.0235 122.483 36.053Z" fill="#5CA74E"/>
<path d="M126.259 36.7863C126.169 36.7682 126.075 36.7071 125.979 36.6008C125.885 36.4922 125.823 36.3926 125.793 36.3021C125.793 36.2908 125.786 36.2784 125.775 36.2659C125.766 36.2512 125.758 36.241 125.752 36.2343C125.728 36.2162 125.716 36.1211 125.716 35.9492C125.716 35.8112 125.723 35.6675 125.739 35.5194C125.754 35.3689 125.772 35.2479 125.793 35.1574L125.947 34.7004L126.069 34.352L126.304 33.8543L125.956 33.7593C125.916 33.7536 125.884 33.7344 125.856 33.7004C125.832 33.6642 125.82 33.6326 125.82 33.6054C125.82 33.5579 125.844 33.5013 125.893 33.438C125.94 33.3724 125.98 33.3385 126.01 33.3385C126.025 33.3452 126.07 33.3475 126.146 33.3475C126.318 33.3475 126.447 33.3385 126.535 33.3204C126.592 33.2966 126.632 33.2502 126.657 33.1801C126.678 33.1348 126.704 33.0783 126.734 33.0082C126.767 32.9392 126.799 32.8758 126.829 32.8181C126.844 32.7853 126.87 32.7322 126.906 32.6598C126.945 32.5874 126.993 32.5059 127.051 32.4154C127.062 32.3973 127.088 32.3555 127.128 32.2887C127.17 32.2231 127.22 32.1666 127.277 32.1213C127.316 32.0829 127.364 32.0625 127.422 32.0625C127.479 32.0625 127.554 32.0987 127.648 32.1711C127.66 32.1892 127.675 32.2141 127.694 32.2435C127.714 32.2706 127.725 32.2967 127.725 32.3204C127.725 32.3419 127.703 32.3905 127.657 32.4652C127.621 32.5353 127.586 32.5964 127.553 32.6507C127.523 32.705 127.497 32.7536 127.476 32.7955C127.406 32.9109 127.356 32.9968 127.327 33.0534C127.269 33.1292 127.241 33.1869 127.241 33.2253C127.241 33.2649 127.278 33.2842 127.354 33.2842C127.436 33.2842 127.569 33.2683 127.757 33.2344C127.838 33.2231 127.894 33.2163 127.924 33.2163C128.123 33.2163 128.232 33.3 128.25 33.4651C128.256 33.5013 128.259 33.5421 128.259 33.5873C128.259 33.6688 128.232 33.7185 128.178 33.7366C128.123 33.7525 128.001 33.7593 127.811 33.7593C127.627 33.7898 127.437 33.8045 127.241 33.8045C127.207 33.8045 127.169 33.8068 127.123 33.809C127.08 33.809 127.037 33.8158 126.992 33.8271C126.947 33.8396 126.913 33.8577 126.893 33.8814C126.871 33.9029 126.85 33.9391 126.829 33.99C126.811 34.0081 126.77 34.0749 126.707 34.1891C126.626 34.3588 126.574 34.4594 126.553 34.4923C126.396 34.9515 126.282 35.4221 126.209 35.904C126.197 35.9978 126.191 36.0555 126.191 36.0759C126.191 36.1641 126.22 36.2252 126.277 36.2614C126.334 36.2953 126.432 36.3112 126.571 36.3112C126.764 36.3112 126.933 36.2919 127.078 36.2524C127.25 36.1777 127.379 36.1143 127.467 36.0623C127.518 36.0329 127.565 36.0058 127.608 35.9809C127.649 35.9537 127.68 35.9345 127.698 35.922C127.716 35.8892 127.735 35.8723 127.757 35.8723C127.804 35.8723 127.845 35.9175 127.879 36.008C127.879 36.1019 127.858 36.1834 127.816 36.2524C127.776 36.3191 127.677 36.3994 127.517 36.4922C127.184 36.7037 126.852 36.8089 126.517 36.8089C126.427 36.8089 126.341 36.8021 126.259 36.7863Z" fill="#5CA74E"/>
<path d="M128.19 36.5326C128.172 36.4998 128.143 36.4647 128.104 36.4285C128.068 36.39 128.05 36.364 128.05 36.3516C128.05 36.2882 128.036 36.2407 128.009 36.2068C127.997 36.1955 127.991 36.1695 127.991 36.1299C127.991 36.0371 128.034 35.8799 128.122 35.6593C128.213 35.4399 128.331 35.2001 128.475 34.9399C128.508 34.9071 128.552 34.8471 128.607 34.7589C128.661 34.6718 128.697 34.6232 128.715 34.6141C128.715 34.5904 128.722 34.5689 128.738 34.5508C128.756 34.5304 128.776 34.5191 128.801 34.5191V34.4648C128.801 34.4139 128.896 34.2906 129.086 34.0938C129.276 33.8947 129.431 33.7578 129.552 33.682C129.694 33.5825 129.84 33.5327 129.991 33.5327C130.093 33.5327 130.182 33.5633 130.258 33.6232C130.288 33.6571 130.421 33.7793 130.656 33.9897L130.973 34.2748L130.819 34.7091C130.767 34.863 130.742 35.0032 130.742 35.1299C130.742 35.3471 130.806 35.5575 130.932 35.7589C130.959 35.8222 131.015 35.8833 131.1 35.9398C131.187 35.9975 131.274 36.0326 131.362 36.0439C131.489 36.0654 131.552 36.1287 131.552 36.2339C131.552 36.3493 131.499 36.4172 131.394 36.4376C131.372 36.4443 131.339 36.4466 131.294 36.4466C130.953 36.4466 130.659 36.2091 130.412 35.7317C130.39 35.6989 130.36 35.6367 130.321 35.5462C130.285 35.4534 130.264 35.3878 130.258 35.3516C130.224 35.4003 130.181 35.4557 130.127 35.519C130.075 35.5824 130.027 35.6367 129.982 35.6819C129.354 36.3063 128.86 36.6185 128.498 36.6185C128.383 36.6185 128.281 36.5903 128.19 36.5326ZM128.498 36.053C128.498 36.0801 128.527 36.0892 128.588 36.0801C128.648 36.0688 128.722 36.0394 128.81 35.9941C128.901 35.9466 128.992 35.8844 129.086 35.8086C129.581 35.3833 129.937 35.0145 130.154 34.7001L130.344 34.3879C130.286 34.268 130.226 34.1797 130.163 34.1254C130.1 34.0712 130.042 34.044 129.991 34.044C129.87 34.044 129.68 34.1956 129.421 34.4965C129.164 34.7985 128.929 35.1525 128.715 35.5598C128.663 35.6593 128.617 35.7589 128.575 35.8584C128.535 35.9579 128.509 36.0235 128.498 36.053Z" fill="#5CA74E"/>
</svg>
