<svg width="220" height="53" viewBox="0 0 220 53" fill="none" xmlns="http://www.w3.org/2000/svg">
<path fill-rule="evenodd" clip-rule="evenodd" d="M68.9098 16.5997V38.424L55.2503 46.307L53.0244 45.0258C52.4501 44.3085 51.7255 43.2228 51.5346 42.1229V32.7765L60.5778 27.2962C60.9005 27.1002 61.2066 26.8809 61.4961 26.6384C61.7856 26.3959 62.0547 26.1325 62.3039 25.8486C62.5531 25.5644 62.779 25.263 62.9816 24.9445C63.1848 24.6261 63.3623 24.2938 63.5141 23.9478L64.4425 21.8335L50.0899 30.2891L35.7416 21.8335L36.6704 23.9478C36.8223 24.2938 36.9998 24.6261 37.2029 24.9445C37.4055 25.263 37.6315 25.5644 37.8806 25.8486C38.1298 26.1325 38.3989 26.3959 38.6884 26.6384C38.9779 26.8814 39.284 27.1002 39.6068 27.2962L48.6499 32.7765V42.0005C48.4962 43.1264 47.7563 44.2514 47.1639 44.9959L44.877 46.3123H44.7618L31.0931 38.424V16.5997L50.0015 5.6875L68.9098 16.5997ZM44.877 46.3123H50.0015H55.2411L55.2503 46.307L55.2621 46.3138H50.068H44.8744L44.877 46.3123ZM40.1162 15.0891L39.308 13.25L47.9306 18.3378C48.1167 18.4469 48.2856 18.5784 48.437 18.7322C48.5884 18.886 48.7175 19.0568 48.8243 19.2443C48.9311 19.4318 49.0118 19.6297 49.0664 19.8385C49.1214 20.0473 49.1485 20.2595 49.1475 20.4754V21.8712L42.6701 18.0018C42.3891 17.8314 42.1229 17.6406 41.8709 17.4294C41.6193 17.2187 41.3849 16.9894 41.1684 16.7426C40.952 16.4954 40.7555 16.2334 40.579 15.9562C40.4024 15.679 40.2482 15.39 40.1162 15.0891ZM51.1584 21.8698L57.6378 18.0018C58.203 17.6591 58.7037 17.2395 59.1394 16.7426C59.5751 16.2452 59.9259 15.6942 60.1912 15.0891L60.9975 13.25L52.3768 18.3378C52.1907 18.4469 52.0218 18.5784 51.8704 18.7317C51.719 18.8855 51.5899 19.0559 51.4826 19.2433C51.3758 19.4308 51.2951 19.6287 51.2401 19.8371C51.185 20.0459 51.158 20.258 51.1584 20.474V21.8698ZM37.6229 17.1662L38.5517 19.2806C38.7036 19.6265 38.8811 19.9588 39.0838 20.2772C39.2869 20.5957 39.5128 20.8971 39.7615 21.1814C40.0107 21.4652 40.2798 21.7286 40.5693 21.9711C40.8588 22.2136 41.1649 22.4329 41.4881 22.6289L48.9347 27.0779V25.4728C48.9356 25.2245 48.9048 24.9806 48.8417 24.7404C48.7786 24.5008 48.6855 24.2729 48.5631 24.057C48.4402 23.8415 48.2921 23.6455 48.1179 23.469C47.9437 23.2919 47.7496 23.141 47.536 23.0148L37.6229 17.1662ZM58.6955 22.6289L51.2465 27.076V25.4709C51.246 25.2231 51.2769 24.9792 51.34 24.739C51.4036 24.4993 51.4966 24.2715 51.6191 24.0561C51.742 23.8406 51.8905 23.6446 52.0647 23.4685C52.2389 23.2919 52.433 23.1405 52.6471 23.0148L62.5578 17.1662L61.6309 19.2806C61.479 19.6265 61.302 19.9588 61.0989 20.2772C60.8962 20.5957 60.6703 20.8971 60.4216 21.1814C60.1724 21.4652 59.9033 21.7286 59.6138 21.9711C59.3248 22.2136 59.0187 22.4329 58.6955 22.6289ZM48.9347 29.4889C48.9328 29.4875 48.9338 29.4832 48.9375 29.4832H48.939C48.938 29.4884 48.9361 29.4908 48.9347 29.4889Z" fill="#87BA1A"/>
<path d="M87.8938 14.7617V16.9879H85.0478V26.4716H82.7402V16.9879H80.0028V14.7617H87.8938Z" fill="#151E03"/>
<path d="M97.1215 24.1827H93.2393L92.2846 26.4722H90.0087L95.2935 14.3008H95.4202L100.7 26.4722H98.0264L97.1215 24.1827ZM96.3568 22.2416L95.2256 19.391L94.0492 22.2416H96.3568Z" fill="#151E03"/>
<path d="M114.157 14.7623V26.9473H114.094L105.9 19.5539L105.95 26.4722H103.61V14.3008H103.705L111.881 21.8117L111.836 14.7623H114.157Z" fill="#151E03"/>
<path d="M118.388 14.7617H121.89C123.383 14.7617 124.611 15.0513 125.577 15.6305C126.542 16.2074 127.245 16.9551 127.686 17.8747C128.126 18.7921 128.347 19.7751 128.347 20.8248C128.347 21.9503 128.081 22.9423 127.55 23.802C127.019 24.6595 126.306 25.3178 125.41 25.7793C124.514 26.2408 123.53 26.4716 122.46 26.4716H118.388V14.7617ZM122.062 24.2454C123.262 24.2454 124.212 23.9378 124.912 23.3224C125.611 22.7071 125.962 21.8225 125.962 20.6664C125.962 19.7321 125.767 18.99 125.378 18.4403C124.991 17.8883 124.541 17.5071 124.025 17.2955C123.512 17.0817 123.028 16.9743 122.573 16.9743H120.695V24.2454H122.062Z" fill="#151E03"/>
<path d="M141.706 26.4716H139.403V21.7161H134.168V26.4716H131.86V14.7617H134.168V19.4855H139.403V14.7617H141.706V26.4716Z" fill="#151E03"/>
<path d="M148.006 22.146C148.006 22.517 148.117 22.8733 148.341 23.2138C148.563 23.552 148.861 23.8269 149.232 24.0373C149.603 24.2488 150.001 24.354 150.427 24.354C150.881 24.354 151.3 24.2488 151.68 24.0373C152.062 23.8269 152.363 23.552 152.58 23.2138C152.797 22.8733 152.906 22.517 152.906 22.146V14.7617H155.182V22.1912C155.182 23.0306 154.969 23.7862 154.544 24.4581C154.121 25.1312 153.546 25.656 152.82 26.0327C152.093 26.4105 151.295 26.5983 150.427 26.5983C149.554 26.5983 148.758 26.4105 148.038 26.0327C147.316 25.656 146.746 25.1312 146.327 24.4581C145.908 23.7862 145.698 23.0306 145.698 22.1912V14.7617H148.006V22.146Z" fill="#151E03"/>
<path d="M165.489 26.4716L163.023 22.7478H161.481V26.4716H159.173V14.7617H162.72C164.174 14.7617 165.301 15.1146 166.1 15.8205C166.902 16.5263 167.304 17.489 167.304 18.7072C167.304 19.4289 167.151 20.1054 166.847 20.7388C166.545 21.37 166.082 21.8643 165.458 22.2229L168.177 26.4716H165.489ZM161.481 20.5216H163.118C163.743 20.5216 164.198 20.3395 164.485 19.9741C164.771 19.6065 164.915 19.2117 164.915 18.7887C164.915 18.3634 164.793 17.9584 164.548 17.5715C164.306 17.1824 163.836 16.9879 163.137 16.9879H161.481V20.5216Z" fill="#151E03"/>
<path d="M94.3878 37.1109C94.2306 37.0136 94.1073 36.8767 94.0168 36.6991C93.9286 36.5215 93.8913 36.3372 93.9037 36.1471C93.8969 35.4684 94.0146 34.7524 94.2566 33.9979C94.3584 33.6936 94.484 33.3735 94.6322 33.0387C94.7826 32.7039 94.9104 32.4459 95.0168 32.265C95.1763 32.0025 95.3539 31.7706 95.5507 31.5682C95.7464 31.3668 95.9047 31.2322 96.0258 31.1655C96.0982 31.1236 96.1988 31.0863 96.3289 31.0523C96.4579 31.0161 96.5959 30.998 96.7407 30.998C96.8549 30.998 96.9601 31.0105 97.0574 31.0342C97.1954 31.0682 97.3311 31.1146 97.4646 31.1745C97.597 31.2356 97.6863 31.2865 97.7316 31.3283C97.7519 31.3623 97.778 31.403 97.8085 31.4505C97.8413 31.4958 97.8673 31.5365 97.8854 31.5727C97.9035 31.6066 97.9126 31.6428 97.9126 31.6813C97.9182 31.739 97.8945 31.808 97.8402 31.8894C97.7859 31.9686 97.7293 32.007 97.6728 32.007C97.6366 32.007 97.6015 31.9878 97.5687 31.9482C97.511 31.8611 97.4533 31.7967 97.3967 31.7537C97.3391 31.7118 97.2791 31.6767 97.2158 31.6496C97.1524 31.6202 97.1049 31.5953 97.0755 31.5772C96.9997 31.532 96.8956 31.5093 96.7633 31.5093C96.6604 31.5093 96.5563 31.5263 96.4511 31.5591C96.3448 31.5896 96.2543 31.636 96.1796 31.6994C96.0767 31.7899 95.95 31.9256 95.7995 32.1066C95.6514 32.2876 95.5371 32.4573 95.4557 32.6134C95.1118 33.2174 94.8675 33.7852 94.7227 34.3192C94.6774 34.4854 94.6254 34.6947 94.5688 34.9481C94.5111 35.2015 94.4738 35.3915 94.4557 35.5182C94.4218 35.7297 94.4059 35.9209 94.4059 36.0928C94.4059 36.3078 94.4399 36.4706 94.51 36.5815C94.5824 36.6935 94.7012 36.7489 94.8675 36.7489C94.9817 36.7489 95.1231 36.7206 95.2928 36.6629C95.4828 36.6392 95.6977 36.5295 95.9398 36.3326C96.1807 36.1336 96.381 35.9073 96.5416 35.6539C96.8006 35.1721 96.9307 34.8474 96.9307 34.6811C96.9307 34.5669 96.8741 34.5092 96.7633 34.5092C96.6479 34.4979 96.5054 34.4911 96.3334 34.4911C96.2181 34.4911 96.1298 34.4888 96.0665 34.482C96.0031 34.4764 95.9455 34.4594 95.8946 34.4323C95.855 34.3689 95.8357 34.3135 95.8357 34.2649C95.8357 34.1993 95.8731 34.128 95.9489 34.0522C96.0269 34.016 96.1841 33.9979 96.4194 33.9979C96.7542 33.9979 97.0167 34.0454 97.2067 34.1382C97.3843 34.223 97.4737 34.3983 97.4737 34.663C97.4737 34.7897 97.4612 34.9017 97.4375 34.9979C97.3854 35.2241 97.2112 35.5612 96.9126 36.0069C96.7791 36.1912 96.5823 36.3915 96.3199 36.6086C96.0597 36.8236 95.8493 36.9616 95.6864 37.0249C95.372 37.1697 95.0892 37.2421 94.8358 37.2421C94.6571 37.2421 94.5077 37.198 94.3878 37.1109Z" fill="#5CA74E"/>
<path d="M97.8341 36.5441C97.7854 36.5113 97.7526 36.4808 97.7345 36.4536C97.7187 36.4242 97.7119 36.3801 97.7119 36.3224C97.7119 36.2715 97.7142 36.2274 97.721 36.1912C97.7391 35.9955 97.782 35.7692 97.8522 35.5125L97.8929 35.3405C97.911 35.1957 98.0117 34.8949 98.1961 34.4356C98.3793 33.9741 98.5286 33.6607 98.644 33.4945C98.6892 33.4651 98.7368 33.4492 98.7888 33.4492C98.8634 33.4492 98.9268 33.4764 98.9788 33.5307C99.0116 33.5522 99.0286 33.594 99.0286 33.6574C99.0286 33.715 99.0071 33.7999 98.9652 33.9107C98.9223 34.0227 98.8499 34.189 98.7481 34.4085C98.7232 34.4537 98.6847 34.5397 98.6304 34.6664C98.5761 34.793 98.549 34.8688 98.549 34.8926C98.549 34.9016 98.5512 34.9062 98.558 34.9062C98.5693 34.9062 98.5807 34.9039 98.5897 34.8971C98.601 34.8881 98.6135 34.8813 98.6259 34.8745C98.6892 34.7659 98.8431 34.6166 99.0874 34.4265C99.3317 34.2365 99.4992 34.1189 99.5897 34.0736C99.6315 34.0499 99.6847 34.0272 99.748 34.0058C99.8114 33.982 99.8532 33.9639 99.8747 33.9515C99.9675 33.9062 100.078 33.8836 100.205 33.8836C100.283 33.8836 100.352 33.8972 100.413 33.9243C100.473 33.9492 100.515 33.9865 100.54 34.0374C100.545 34.077 100.56 34.1087 100.585 34.1324C100.612 34.1573 100.631 34.1709 100.644 34.1732C100.659 34.1732 100.669 34.1811 100.676 34.1958C100.681 34.2116 100.685 34.2218 100.685 34.2275C100.685 34.2671 100.662 34.2908 100.617 34.2999C100.572 34.3089 100.488 34.3168 100.368 34.3225C100.305 34.3293 100.238 34.344 100.169 34.3677C100.099 34.3892 100.03 34.4164 99.9607 34.4492C99.6406 34.6336 99.4008 34.7783 99.2413 34.8835C99.084 34.9865 98.9245 35.1267 98.7616 35.3043C98.6983 35.3745 98.6146 35.4978 98.5128 35.6754C98.4732 35.715 98.4313 35.8201 98.3861 35.9921C98.3431 36.1618 98.3227 36.2658 98.3227 36.3043C98.316 36.3224 98.3046 36.3563 98.2865 36.4038C98.2707 36.4525 98.247 36.4989 98.2142 36.5441C98.144 36.638 98.0852 36.6844 98.0377 36.6844C97.9857 36.6844 97.9178 36.638 97.8341 36.5441Z" fill="#5CA74E"/>
<path d="M101.064 36.7152C100.993 36.7152 100.938 36.705 100.896 36.6835C100.856 36.6597 100.801 36.6156 100.729 36.5523C100.539 36.3532 100.444 36.1699 100.444 36.0003C100.444 35.9618 100.446 35.9324 100.453 35.9143C100.467 35.8758 100.473 35.8362 100.471 35.7966C100.467 35.7548 100.466 35.7276 100.466 35.7152C100.445 35.6948 100.435 35.679 100.435 35.67C100.435 35.6609 100.439 35.6519 100.448 35.6428C100.459 35.6338 100.469 35.6247 100.475 35.6157C100.511 35.6157 100.523 35.584 100.511 35.5206C100.499 35.4731 100.522 35.3702 100.579 35.213C100.636 35.0569 100.708 34.9121 100.797 34.7786C100.86 34.6768 100.953 34.5478 101.077 34.394C101.2 34.2379 101.31 34.118 101.407 34.0365C101.545 33.9166 101.67 33.8273 101.778 33.7696C101.887 33.713 102.007 33.6689 102.14 33.6384C102.255 33.6112 102.333 33.5977 102.376 33.5977C102.414 33.5977 102.449 33.609 102.48 33.6293C102.513 33.6474 102.554 33.6825 102.606 33.7334C102.76 33.8035 102.867 33.8918 102.928 34.0004C102.988 34.1067 103.018 34.2707 103.018 34.4935C103.018 34.868 102.865 35.274 102.561 35.7107C102.431 35.8985 102.308 36.0432 102.19 36.145C102.075 36.2446 101.924 36.3521 101.738 36.4663C101.617 36.5545 101.505 36.6179 101.403 36.6563C101.303 36.6925 101.19 36.7129 101.064 36.7152ZM101.892 35.8012C102.03 35.6473 102.14 35.5025 102.222 35.3668C102.306 35.2288 102.386 35.0523 102.462 34.8374C102.489 34.7413 102.502 34.6236 102.502 34.4845C102.502 34.3126 102.48 34.2153 102.434 34.1904C102.377 34.1632 102.319 34.1497 102.263 34.1497C102.136 34.1497 102.002 34.2074 101.864 34.3216C101.698 34.4641 101.549 34.6406 101.416 34.851C101.283 35.0625 101.149 35.3216 101.014 35.6292C100.953 35.7503 100.923 35.869 100.923 35.9867C100.923 36.0715 100.944 36.1394 100.987 36.1903C101.032 36.2423 101.092 36.2672 101.168 36.2672C101.358 36.2672 101.599 36.1122 101.892 35.8012Z" fill="#5CA74E"/>
<path d="M103.872 36.4572C103.751 36.4572 103.648 36.3645 103.565 36.1767C103.483 35.9867 103.443 35.7649 103.443 35.5116L103.452 35.3532C103.452 35.1485 103.465 34.9765 103.492 34.8374C103.522 34.6994 103.54 34.6134 103.547 34.5795C103.558 34.5501 103.569 34.5003 103.578 34.4302C103.59 34.3578 103.614 34.256 103.651 34.1225C103.696 33.9211 103.741 33.7967 103.786 33.7515C103.832 33.7062 103.886 33.6836 103.949 33.6836C103.991 33.6836 104.028 33.6949 104.062 33.7153C104.099 33.7334 104.127 33.7605 104.148 33.7967C104.185 33.8306 104.203 33.9132 104.203 34.0456C104.203 34.1428 104.194 34.2379 104.176 34.3306C104.157 34.4211 104.135 34.4879 104.108 34.5297C104.09 34.5636 104.062 34.7288 104.026 35.0274C104.005 35.2446 103.988 35.3849 103.976 35.4482C103.97 35.4731 103.967 35.507 103.967 35.5523C103.967 35.6858 104.008 35.7514 104.09 35.7514C104.222 35.7514 104.409 35.5772 104.651 35.2265C104.81 34.998 104.923 34.8182 104.99 34.6881C105.056 34.5591 105.123 34.3928 105.194 34.1904C105.221 34.1067 105.246 34.032 105.27 33.9686C105.298 33.9053 105.323 33.8646 105.347 33.8465C105.375 33.8227 105.415 33.8103 105.47 33.8103C105.526 33.8103 105.594 33.8374 105.673 33.8917C105.742 33.9585 105.777 34.0388 105.777 34.1315C105.777 34.2288 105.742 34.3465 105.673 34.4845C105.603 34.6236 105.54 34.8148 105.483 35.0591C105.425 35.3034 105.397 35.4935 105.397 35.6292C105.397 35.7355 105.411 35.8011 105.438 35.8283C105.465 35.8532 105.507 35.8645 105.565 35.8645C105.724 35.8645 105.915 35.7502 106.139 35.5206C106.241 35.4154 106.377 35.2333 106.546 34.9731C106.718 34.7107 106.804 34.5569 106.804 34.5116C106.804 34.4754 106.829 34.4256 106.881 34.3623C106.911 34.3238 106.938 34.2899 106.963 34.2628C106.99 34.2333 107.028 34.2028 107.08 34.1723L107.148 34.1587C107.193 34.1587 107.248 34.1904 107.311 34.2537C107.335 34.2752 107.35 34.3114 107.356 34.3623C107.362 34.4109 107.365 34.4664 107.365 34.5297C107.335 34.6326 107.285 34.765 107.216 34.9279C107.146 35.0908 107.092 35.1971 107.053 35.2446C106.945 35.3294 106.852 35.4346 106.777 35.5613C106.638 35.7276 106.529 35.8441 106.451 35.9097C106.376 35.9765 106.326 36.0217 106.302 36.0455C106.187 36.1609 106.062 36.2491 105.927 36.3124C105.793 36.3758 105.666 36.4074 105.546 36.4074C105.425 36.4074 105.327 36.3792 105.252 36.3215C105.074 36.2287 104.985 36.0726 104.985 35.8554C104.985 35.817 104.979 35.7808 104.967 35.7468C104.955 35.7106 104.946 35.6869 104.94 35.6745C104.855 35.6745 104.787 35.7197 104.737 35.8102C104.655 35.955 104.516 36.0998 104.32 36.2446C104.123 36.3871 103.974 36.4572 103.872 36.4572Z" fill="#5CA74E"/>
<path d="M109.982 37.3407C109.797 37.2231 109.66 37.1201 109.57 37.033C109.482 36.9482 109.439 36.8702 109.439 36.7978C109.439 36.7231 109.488 36.6564 109.588 36.5987C109.615 36.5806 109.665 36.5964 109.737 36.6439C109.81 36.6926 109.88 36.7514 109.95 36.8204C110.097 36.9584 110.291 37.0285 110.534 37.0285C110.635 37.0285 110.774 37.0082 110.95 36.9697C111.185 36.8996 111.393 36.8 111.574 36.6665C111.755 36.5342 111.928 36.3657 112.095 36.1598C112.196 36.0218 112.273 35.8691 112.325 35.7028C112.38 35.5342 112.407 35.3759 112.407 35.2277C112.407 35.0444 112.372 34.9087 112.303 34.8205C112.073 34.5105 111.746 34.3544 111.321 34.3544C111.136 34.3544 110.963 34.3793 110.8 34.4268L110.303 34.5309C110.29 34.5343 110.263 34.5399 110.221 34.549C110.182 34.558 110.118 34.6836 110.031 34.9245C109.946 35.1666 109.834 35.4833 109.696 35.8747C109.575 36.2254 109.48 36.4709 109.411 36.6122C109.345 36.7514 109.282 36.8204 109.226 36.8204C109.168 36.8204 109.099 36.757 109.018 36.6303C108.954 36.5285 108.923 36.4392 108.923 36.3634C108.923 36.291 108.948 36.2118 109 36.1236C109.029 36.0727 109.054 36.0218 109.072 35.9697C109.092 35.9188 109.115 35.8464 109.14 35.7526C109.212 35.5297 109.427 34.9732 109.787 34.083C110.146 33.1905 110.426 32.5174 110.629 32.0649C110.773 31.7369 110.816 31.5627 110.76 31.5446C110.76 31.5299 110.751 31.5061 110.733 31.4722C110.715 31.436 110.708 31.4089 110.715 31.3908C110.715 31.358 110.794 31.3071 110.954 31.2369C111.117 31.1679 111.236 31.1396 111.312 31.151H111.362C111.436 31.151 111.475 31.1363 111.475 31.1057C111.486 31.1057 111.539 31.1012 111.633 31.0921C111.729 31.0808 111.832 31.0786 111.941 31.0876C112.323 31.1238 112.621 31.2369 112.832 31.427C113.046 31.617 113.15 31.8693 113.144 32.1826C113.141 32.3274 113.041 32.54 112.846 32.8206C112.649 33.0988 112.453 33.3262 112.257 33.5038C112.167 33.5852 112.063 33.6712 111.945 33.7617C111.828 33.8499 111.751 33.9042 111.714 33.9246L111.932 34.0015C112.212 34.1078 112.434 34.2368 112.597 34.3906C112.762 34.5422 112.877 34.7424 112.941 34.9924C112.952 35.0501 112.959 35.1033 112.959 35.1508C112.959 35.2775 112.936 35.4211 112.891 35.5806C112.848 35.7412 112.802 35.8815 112.751 36.0014C112.714 36.0376 112.684 36.0761 112.66 36.1145C112.639 36.1541 112.625 36.1801 112.619 36.1915C112.613 36.2163 112.562 36.3046 112.466 36.4584C112.368 36.61 112.282 36.7299 112.208 36.8204C111.92 37.067 111.665 37.2321 111.438 37.3136C111.196 37.4222 110.924 37.4765 110.619 37.4765C110.339 37.4765 110.126 37.4312 109.982 37.3407ZM110.407 34.0196C110.47 34.0083 110.597 33.9834 110.787 33.9472C110.979 33.911 111.114 33.8782 111.19 33.8477C111.201 33.842 111.237 33.8239 111.298 33.7934C111.358 33.7606 111.42 33.7119 111.484 33.6486C111.619 33.5219 111.788 33.3352 111.99 33.0875C112.192 32.8375 112.339 32.6249 112.429 32.4495C112.574 32.2143 112.647 32.0423 112.647 31.9337C112.647 31.8591 112.615 31.7889 112.552 31.7256C112.476 31.6351 112.298 31.5899 112.018 31.5899C111.833 31.5899 111.675 31.6068 111.543 31.6396C111.461 31.6645 111.402 31.6928 111.366 31.7256C111.33 31.7561 111.312 31.8025 111.312 31.8659C111.312 31.9507 111.264 32.0401 111.171 32.1328C111.165 32.1668 111.151 32.1996 111.131 32.2324C111.113 32.2629 111.1 32.281 111.095 32.2867C111.095 32.3048 111.06 32.3907 110.991 32.5446C110.9 32.7233 110.814 32.9246 110.733 33.1509C110.515 33.6667 110.407 33.9563 110.407 34.0196Z" fill="#5CA74E"/>
<path d="M114.776 36.5427C114.631 36.6694 114.457 36.7328 114.255 36.7328C114.113 36.7328 113.977 36.7 113.848 36.6332C113.718 36.5642 113.61 36.4692 113.527 36.3482C113.451 36.2554 113.396 36.1513 113.359 36.036C113.325 35.9217 113.31 35.7815 113.31 35.6152C113.31 35.5586 113.315 35.4421 113.328 35.2668C113.342 35.0564 113.411 34.8358 113.536 34.6062C113.659 34.3777 113.813 34.1718 113.997 33.9908C114.181 33.8076 114.362 33.682 114.54 33.6153C114.633 33.5587 114.718 33.5293 114.794 33.5293C114.832 33.5293 114.872 33.5327 114.911 33.5383C114.953 33.5417 114.997 33.5463 115.043 33.5519C115.169 33.57 115.265 33.596 115.332 33.6288C115.398 33.6594 115.454 33.7058 115.5 33.7691C115.641 33.9139 115.712 34.0802 115.712 34.2668C115.691 34.406 115.601 34.5643 115.445 34.7419C115.291 34.9206 115.106 35.0632 114.889 35.1718C114.782 35.208 114.664 35.2261 114.531 35.2261C114.353 35.2261 114.21 35.1887 114.101 35.1129C114.049 35.0948 114.011 35.0858 113.984 35.0858C113.929 35.0858 113.889 35.1209 113.862 35.1899C113.837 35.26 113.814 35.3867 113.794 35.5699C113.787 35.6095 113.785 35.6672 113.785 35.7419C113.785 36.0348 113.881 36.1966 114.074 36.226C114.207 36.2532 114.302 36.2667 114.359 36.2667C114.428 36.2667 114.506 36.2441 114.595 36.1989L114.757 36.1038C114.79 36.0857 114.821 36.0631 114.848 36.036C114.877 36.0066 114.905 35.9805 114.929 35.959C114.941 35.9477 114.958 35.9296 114.979 35.9048C115.003 35.8776 115.024 35.8595 115.043 35.8505C115.063 35.8414 115.083 35.8369 115.101 35.8369C115.125 35.8369 115.151 35.8505 115.178 35.8776C115.208 35.9025 115.233 35.9206 115.251 35.9319C115.302 35.9319 115.312 35.9681 115.282 36.0405C115.255 36.1129 115.193 36.1977 115.097 36.2939C115.003 36.3878 114.895 36.4703 114.776 36.5427ZM114.767 34.7148C114.863 34.6763 114.961 34.605 115.061 34.5021C115.162 34.4003 115.214 34.3143 115.214 34.2442C115.214 34.1752 115.188 34.1175 115.138 34.0723C115.086 34.0247 115.013 33.9999 114.92 33.9999C114.85 33.9999 114.799 34.0067 114.767 34.018C114.685 34.0428 114.59 34.1039 114.481 34.2035C114.373 34.303 114.278 34.406 114.196 34.5112C114.115 34.6141 114.083 34.674 114.101 34.6921C114.131 34.7442 114.243 34.7691 114.436 34.7691C114.569 34.7691 114.678 34.751 114.767 34.7148Z" fill="#5CA74E"/>
<path d="M116.437 36.7882C116.346 36.7701 116.252 36.709 116.156 36.6027C116.062 36.4941 116 36.3946 115.97 36.3041C115.97 36.2928 115.964 36.2803 115.952 36.2679C115.943 36.2532 115.935 36.243 115.93 36.2362C115.905 36.2181 115.894 36.1231 115.894 35.9512C115.894 35.8131 115.9 35.6695 115.916 35.5213C115.931 35.3709 115.949 35.2498 115.97 35.1593L116.124 34.7023L116.246 34.3539L116.482 33.8562L116.133 33.7612C116.094 33.7556 116.061 33.7363 116.034 33.7024C116.009 33.6662 115.998 33.6345 115.998 33.6074C115.998 33.5599 116.021 33.5033 116.07 33.44C116.118 33.3743 116.157 33.3404 116.188 33.3404C116.202 33.3472 116.248 33.3495 116.323 33.3495C116.495 33.3495 116.624 33.3404 116.713 33.3223C116.769 33.2986 116.81 33.2522 116.835 33.182C116.855 33.1368 116.881 33.0802 116.912 33.0101C116.944 32.9411 116.976 32.8778 117.007 32.8201C117.021 32.7873 117.047 32.7341 117.084 32.6617C117.122 32.5893 117.171 32.5079 117.228 32.4174C117.24 32.3993 117.266 32.3574 117.305 32.2907C117.347 32.2251 117.397 32.1685 117.455 32.1233C117.493 32.0848 117.542 32.0645 117.599 32.0645C117.656 32.0645 117.732 32.1007 117.826 32.173C117.837 32.1911 117.853 32.216 117.871 32.2454C117.891 32.2726 117.903 32.2986 117.903 32.3224C117.903 32.3439 117.88 32.3925 117.835 32.4671C117.798 32.5373 117.763 32.5984 117.731 32.6527C117.7 32.707 117.674 32.7556 117.654 32.7975C117.584 32.9128 117.534 32.9988 117.504 33.0554C117.447 33.1311 117.418 33.1888 117.418 33.2273C117.418 33.2669 117.456 33.2861 117.531 33.2861C117.613 33.2861 117.746 33.2703 117.934 33.2363C118.016 33.225 118.071 33.2182 118.102 33.2182C118.301 33.2182 118.409 33.302 118.427 33.4671C118.433 33.5033 118.436 33.544 118.436 33.5893C118.436 33.6707 118.409 33.7205 118.355 33.7386C118.301 33.7544 118.179 33.7612 117.988 33.7612C117.804 33.7917 117.614 33.8065 117.418 33.8065C117.384 33.8065 117.346 33.8087 117.301 33.811C117.258 33.811 117.215 33.8178 117.17 33.8291C117.124 33.8415 117.09 33.8596 117.07 33.8834C117.048 33.9049 117.027 33.9411 117.007 33.992C116.989 34.0101 116.948 34.0768 116.884 34.1911C116.803 34.3607 116.751 34.4614 116.731 34.4942C116.573 34.9535 116.459 35.424 116.387 35.9059C116.374 35.9998 116.369 36.0575 116.369 36.0778C116.369 36.1661 116.397 36.2272 116.455 36.2634C116.511 36.2973 116.61 36.3131 116.749 36.3131C116.941 36.3131 117.111 36.2939 117.255 36.2543C117.427 36.1796 117.556 36.1163 117.645 36.0643C117.696 36.0349 117.742 36.0077 117.785 35.9828C117.827 35.9557 117.857 35.9364 117.875 35.924C117.893 35.8912 117.913 35.8742 117.934 35.8742C117.982 35.8742 118.022 35.9195 118.056 36.01C118.056 36.1039 118.035 36.1853 117.993 36.2543C117.953 36.321 117.854 36.4014 117.694 36.4941C117.362 36.7056 117.029 36.8108 116.694 36.8108C116.604 36.8108 116.518 36.8041 116.437 36.7882Z" fill="#5CA74E"/>
<path d="M118.988 36.7882C118.897 36.7701 118.803 36.709 118.707 36.6027C118.613 36.4941 118.551 36.3946 118.521 36.3041C118.521 36.2928 118.515 36.2803 118.503 36.2679C118.494 36.2532 118.486 36.243 118.481 36.2362C118.456 36.2181 118.445 36.1231 118.445 35.9512C118.445 35.8131 118.451 35.6695 118.467 35.5213C118.482 35.3709 118.5 35.2498 118.521 35.1593L118.675 34.7023L118.798 34.3539L119.033 33.8562L118.684 33.7612C118.645 33.7556 118.612 33.7363 118.585 33.7024C118.56 33.6662 118.549 33.6345 118.549 33.6074C118.549 33.5599 118.572 33.5033 118.621 33.44C118.669 33.3743 118.708 33.3404 118.739 33.3404C118.753 33.3472 118.799 33.3495 118.874 33.3495C119.046 33.3495 119.175 33.3404 119.264 33.3223C119.32 33.2986 119.361 33.2522 119.386 33.182C119.406 33.1368 119.432 33.0802 119.463 33.0101C119.495 32.9411 119.527 32.8778 119.558 32.8201C119.572 32.7873 119.598 32.7341 119.635 32.6617C119.673 32.5893 119.722 32.5079 119.779 32.4174C119.791 32.3993 119.817 32.3574 119.856 32.2907C119.898 32.2251 119.948 32.1685 120.006 32.1233C120.044 32.0848 120.093 32.0645 120.15 32.0645C120.207 32.0645 120.283 32.1007 120.377 32.173C120.388 32.1911 120.404 32.216 120.422 32.2454C120.442 32.2726 120.454 32.2986 120.454 32.3224C120.454 32.3439 120.431 32.3925 120.386 32.4671C120.349 32.5373 120.314 32.5984 120.282 32.6527C120.251 32.707 120.225 32.7556 120.205 32.7975C120.135 32.9128 120.085 32.9988 120.055 33.0554C119.998 33.1311 119.969 33.1888 119.969 33.2273C119.969 33.2669 120.007 33.2861 120.083 33.2861C120.164 33.2861 120.297 33.2703 120.485 33.2363C120.567 33.225 120.622 33.2182 120.653 33.2182C120.852 33.2182 120.96 33.302 120.978 33.4671C120.984 33.5033 120.987 33.544 120.987 33.5893C120.987 33.6707 120.96 33.7205 120.906 33.7386C120.852 33.7544 120.73 33.7612 120.54 33.7612C120.355 33.7917 120.165 33.8065 119.969 33.8065C119.935 33.8065 119.897 33.8087 119.852 33.811C119.809 33.811 119.766 33.8178 119.721 33.8291C119.675 33.8415 119.641 33.8596 119.621 33.8834C119.6 33.9049 119.578 33.9411 119.558 33.992C119.54 34.0101 119.499 34.0768 119.435 34.1911C119.354 34.3607 119.302 34.4614 119.282 34.4942C119.124 34.9535 119.01 35.424 118.938 35.9059C118.925 35.9998 118.92 36.0575 118.92 36.0778C118.92 36.1661 118.948 36.2272 119.006 36.2634C119.062 36.2973 119.161 36.3131 119.3 36.3131C119.492 36.3131 119.662 36.2939 119.807 36.2543C119.978 36.1796 120.107 36.1163 120.196 36.0643C120.247 36.0349 120.293 36.0077 120.336 35.9828C120.378 35.9557 120.408 35.9364 120.426 35.924C120.444 35.8912 120.464 35.8742 120.485 35.8742C120.533 35.8742 120.573 35.9195 120.607 36.01C120.607 36.1039 120.586 36.1853 120.544 36.2543C120.504 36.321 120.405 36.4014 120.245 36.4941C119.913 36.7056 119.58 36.8108 119.245 36.8108C119.155 36.8108 119.069 36.8041 118.988 36.7882Z" fill="#5CA74E"/>
<path d="M122.375 36.5427C122.231 36.6694 122.056 36.7328 121.855 36.7328C121.712 36.7328 121.577 36.7 121.448 36.6332C121.318 36.5642 121.21 36.4692 121.126 36.3482C121.051 36.2554 120.995 36.1513 120.959 36.036C120.925 35.9217 120.909 35.7815 120.909 35.6152C120.909 35.5586 120.915 35.4421 120.927 35.2668C120.942 35.0564 121.011 34.8358 121.136 34.6062C121.259 34.3777 121.413 34.1718 121.597 33.9908C121.78 33.8076 121.961 33.682 122.14 33.6153C122.233 33.5587 122.318 33.5293 122.393 33.5293C122.432 33.5293 122.471 33.5327 122.511 33.5383C122.553 33.5417 122.597 33.5463 122.642 33.5519C122.769 33.57 122.865 33.596 122.932 33.6288C122.997 33.6594 123.054 33.7058 123.099 33.7691C123.241 33.9139 123.312 34.0802 123.312 34.2668C123.29 34.406 123.201 34.5643 123.045 34.7419C122.891 34.9206 122.706 35.0632 122.488 35.1718C122.382 35.208 122.263 35.2261 122.131 35.2261C121.952 35.2261 121.81 35.1887 121.701 35.1129C121.649 35.0948 121.611 35.0858 121.583 35.0858C121.529 35.0858 121.488 35.1209 121.461 35.1899C121.436 35.26 121.414 35.3867 121.393 35.5699C121.387 35.6095 121.384 35.6672 121.384 35.7419C121.384 36.0348 121.481 36.1966 121.674 36.226C121.806 36.2532 121.901 36.2667 121.959 36.2667C122.028 36.2667 122.106 36.2441 122.194 36.1989L122.357 36.1038C122.39 36.0857 122.421 36.0631 122.448 36.036C122.477 36.0066 122.504 35.9805 122.529 35.959C122.54 35.9477 122.557 35.9296 122.579 35.9048C122.603 35.8776 122.624 35.8595 122.642 35.8505C122.663 35.8414 122.683 35.8369 122.701 35.8369C122.725 35.8369 122.751 35.8505 122.778 35.8776C122.807 35.9025 122.832 35.9206 122.85 35.9319C122.901 35.9319 122.911 35.9681 122.882 36.0405C122.855 36.1129 122.793 36.1977 122.697 36.2939C122.603 36.3878 122.495 36.4703 122.375 36.5427ZM122.366 34.7148C122.462 34.6763 122.561 34.605 122.66 34.5021C122.762 34.4003 122.814 34.3143 122.814 34.2442C122.814 34.1752 122.788 34.1175 122.737 34.0723C122.685 34.0247 122.613 33.9999 122.52 33.9999C122.45 33.9999 122.399 34.0067 122.366 34.018C122.285 34.0428 122.19 34.1039 122.081 34.2035C121.973 34.303 121.878 34.406 121.796 34.5112C121.715 34.6141 121.683 34.674 121.701 34.6921C121.731 34.7442 121.843 34.7691 122.036 34.7691C122.168 34.7691 122.278 34.751 122.366 34.7148Z" fill="#5CA74E"/>
<path d="M123.522 36.5441C123.473 36.5113 123.44 36.4808 123.422 36.4536C123.406 36.4242 123.4 36.3801 123.4 36.3224C123.4 36.2715 123.402 36.2274 123.409 36.1912C123.427 35.9955 123.47 35.7692 123.54 35.5125L123.581 35.3405C123.599 35.1957 123.699 34.8949 123.884 34.4356C124.067 33.9741 124.216 33.6607 124.332 33.4945C124.377 33.4651 124.424 33.4492 124.476 33.4492C124.551 33.4492 124.614 33.4764 124.666 33.5307C124.699 33.5522 124.716 33.594 124.716 33.6574C124.716 33.715 124.695 33.7999 124.653 33.9107C124.61 34.0227 124.537 34.189 124.436 34.4085C124.411 34.4537 124.372 34.5397 124.318 34.6664C124.264 34.793 124.237 34.8688 124.237 34.8926C124.237 34.9016 124.239 34.9062 124.246 34.9062C124.257 34.9062 124.268 34.9039 124.277 34.8971C124.289 34.8881 124.301 34.8813 124.314 34.8745C124.377 34.7659 124.531 34.6166 124.775 34.4265C125.019 34.2365 125.187 34.1189 125.277 34.0736C125.319 34.0499 125.372 34.0272 125.436 34.0058C125.499 33.982 125.541 33.9639 125.562 33.9515C125.655 33.9062 125.766 33.8836 125.893 33.8836C125.971 33.8836 126.04 33.8972 126.101 33.9243C126.161 33.9492 126.203 33.9865 126.227 34.0374C126.233 34.077 126.248 34.1087 126.273 34.1324C126.3 34.1573 126.319 34.1709 126.332 34.1732C126.346 34.1732 126.356 34.1811 126.363 34.1958C126.369 34.2116 126.372 34.2218 126.372 34.2275C126.372 34.2671 126.35 34.2908 126.304 34.2999C126.259 34.3089 126.175 34.3168 126.056 34.3225C125.992 34.3293 125.925 34.344 125.856 34.3677C125.786 34.3892 125.717 34.4164 125.648 34.4492C125.328 34.6336 125.088 34.7783 124.929 34.8835C124.772 34.9865 124.612 35.1267 124.449 35.3043C124.386 35.3745 124.302 35.4978 124.2 35.6754C124.161 35.715 124.119 35.8201 124.074 35.9921C124.031 36.1618 124.01 36.2658 124.01 36.3043C124.004 36.3224 123.992 36.3563 123.974 36.4038C123.958 36.4525 123.935 36.4989 123.902 36.5441C123.832 36.638 123.773 36.6844 123.725 36.6844C123.673 36.6844 123.605 36.638 123.522 36.5441Z" fill="#5CA74E"/>
<path d="M128.603 36.4572C128.482 36.4572 128.379 36.3645 128.295 36.1767C128.214 35.9867 128.173 35.7649 128.173 35.5116L128.182 35.3532C128.182 35.1485 128.195 34.9765 128.223 34.8374C128.252 34.6994 128.27 34.6134 128.277 34.5795C128.288 34.5501 128.3 34.5003 128.309 34.4302C128.32 34.3578 128.345 34.256 128.381 34.1225C128.426 33.9211 128.471 33.7967 128.517 33.7515C128.562 33.7062 128.616 33.6836 128.68 33.6836C128.721 33.6836 128.759 33.6949 128.793 33.7153C128.829 33.7334 128.857 33.7605 128.879 33.7967C128.915 33.8306 128.933 33.9132 128.933 34.0456C128.933 34.1428 128.924 34.2379 128.906 34.3306C128.888 34.4211 128.865 34.4879 128.838 34.5297C128.82 34.5636 128.793 34.7288 128.757 35.0274C128.735 35.2446 128.718 35.3849 128.707 35.4482C128.7 35.4731 128.698 35.507 128.698 35.5523C128.698 35.6858 128.738 35.7514 128.82 35.7514C128.952 35.7514 129.139 35.5772 129.381 35.2265C129.54 34.998 129.654 34.8182 129.72 34.6881C129.786 34.5591 129.854 34.3928 129.924 34.1904C129.951 34.1067 129.976 34.032 130.001 33.9686C130.028 33.9053 130.053 33.8646 130.078 33.8465C130.105 33.8227 130.146 33.8103 130.2 33.8103C130.256 33.8103 130.324 33.8374 130.404 33.8917C130.473 33.9585 130.508 34.0388 130.508 34.1315C130.508 34.2288 130.473 34.3465 130.404 34.4845C130.333 34.6236 130.27 34.8148 130.213 35.0591C130.156 35.3034 130.128 35.4935 130.128 35.6292C130.128 35.7355 130.141 35.8011 130.168 35.8283C130.195 35.8532 130.237 35.8645 130.295 35.8645C130.454 35.8645 130.646 35.7502 130.87 35.5206C130.971 35.4154 131.107 35.2333 131.277 34.9731C131.449 34.7107 131.535 34.5569 131.535 34.5116C131.535 34.4754 131.56 34.4256 131.612 34.3623C131.641 34.3238 131.668 34.2899 131.693 34.2628C131.72 34.2333 131.759 34.2028 131.811 34.1723L131.879 34.1587C131.924 34.1587 131.978 34.1904 132.041 34.2537C132.065 34.2752 132.08 34.3114 132.087 34.3623C132.092 34.4109 132.096 34.4664 132.096 34.5297C132.065 34.6326 132.015 34.765 131.946 34.9279C131.876 35.0908 131.822 35.1971 131.784 35.2446C131.675 35.3294 131.582 35.4346 131.508 35.5613C131.368 35.7276 131.26 35.8441 131.182 35.9097C131.106 35.9765 131.056 36.0217 131.032 36.0455C130.917 36.1609 130.793 36.2491 130.657 36.3124C130.523 36.3758 130.397 36.4074 130.277 36.4074C130.156 36.4074 130.057 36.3792 129.983 36.3215C129.804 36.2287 129.716 36.0726 129.716 35.8554C129.716 35.817 129.709 35.7808 129.698 35.7468C129.685 35.7106 129.676 35.6869 129.671 35.6745C129.586 35.6745 129.518 35.7197 129.467 35.8102C129.385 35.955 129.246 36.0998 129.051 36.2446C128.854 36.3871 128.705 36.4572 128.603 36.4572Z" fill="#5CA74E"/>
<path d="M133.024 33.071C132.985 33.0292 132.95 32.9602 132.92 32.8629C132.893 32.7668 132.893 32.7181 132.92 32.7181C132.968 32.7125 133.022 32.6627 133.083 32.5688C133.143 32.4727 133.17 32.3923 133.164 32.329C133.164 32.3052 133.171 32.2838 133.187 32.2657C133.205 32.2453 133.226 32.2317 133.25 32.2249C133.296 32.1955 133.334 32.1797 133.368 32.1797C133.468 32.1797 133.556 32.2498 133.635 32.3878C133.671 32.4636 133.689 32.5303 133.689 32.5869C133.689 32.6389 133.673 32.691 133.644 32.7453C133.617 32.7996 133.565 32.8708 133.49 32.9579C133.393 33.0914 133.301 33.157 133.214 33.157C133.157 33.157 133.093 33.1287 133.024 33.071ZM132.187 36.5686C132.108 36.4872 132.069 36.3729 132.069 36.2247C132.069 36.1433 132.083 36.0743 132.11 36.0166C132.11 35.9895 132.116 35.9567 132.128 35.9171C132.14 35.8752 132.146 35.8481 132.146 35.8356C132.14 35.8028 132.162 35.7078 132.214 35.5506C132.316 35.3221 132.455 34.9171 132.631 34.338C132.631 34.3085 132.641 34.2837 132.662 34.2656C132.686 34.2452 132.721 34.2316 132.766 34.2248C132.812 34.2135 132.843 34.2067 132.861 34.2067C132.894 34.2067 132.925 34.2203 132.952 34.2475C132.979 34.2724 133.015 34.3187 133.06 34.3877C133.093 34.4239 133.11 34.476 133.11 34.5416C133.11 34.6536 133.074 34.7859 133.002 34.9397C132.926 35.106 132.876 35.2497 132.852 35.3696C132.782 35.5268 132.728 35.6705 132.689 35.7994C132.677 35.8356 132.659 35.9069 132.635 36.0121C132.614 36.115 132.583 36.1965 132.545 36.2564C132.508 36.4193 132.474 36.5324 132.445 36.5958C132.418 36.6591 132.387 36.6908 132.355 36.6908C132.312 36.6908 132.256 36.6501 132.187 36.5686Z" fill="#5CA74E"/>
<path d="M134.085 36.7882C133.995 36.7701 133.901 36.709 133.805 36.6027C133.711 36.4941 133.648 36.3946 133.619 36.3041C133.619 36.2928 133.612 36.2803 133.601 36.2679C133.592 36.2532 133.584 36.243 133.578 36.2362C133.553 36.2181 133.542 36.1231 133.542 35.9512C133.542 35.8131 133.549 35.6695 133.565 35.5213C133.579 35.3709 133.598 35.2498 133.619 35.1593L133.773 34.7023L133.895 34.3539L134.13 33.8562L133.782 33.7612C133.742 33.7556 133.71 33.7363 133.682 33.7024C133.657 33.6662 133.646 33.6345 133.646 33.6074C133.646 33.5599 133.67 33.5033 133.719 33.44C133.766 33.3743 133.806 33.3404 133.836 33.3404C133.851 33.3472 133.896 33.3495 133.972 33.3495C134.144 33.3495 134.273 33.3404 134.361 33.3223C134.418 33.2986 134.458 33.2522 134.483 33.182C134.504 33.1368 134.53 33.0802 134.56 33.0101C134.593 32.9411 134.625 32.8778 134.655 32.8201C134.67 32.7873 134.696 32.7341 134.732 32.6617C134.771 32.5893 134.819 32.5079 134.877 32.4174C134.888 32.3993 134.914 32.3574 134.954 32.2907C134.996 32.2251 135.045 32.1685 135.103 32.1233C135.142 32.0848 135.19 32.0645 135.248 32.0645C135.304 32.0645 135.38 32.1007 135.474 32.173C135.485 32.1911 135.501 32.216 135.519 32.2454C135.54 32.2726 135.551 32.2986 135.551 32.3224C135.551 32.3439 135.528 32.3925 135.483 32.4671C135.447 32.5373 135.412 32.5984 135.379 32.6527C135.349 32.707 135.323 32.7556 135.302 32.7975C135.232 32.9128 135.182 32.9988 135.153 33.0554C135.095 33.1311 135.067 33.1888 135.067 33.2273C135.067 33.2669 135.104 33.2861 135.18 33.2861C135.261 33.2861 135.395 33.2703 135.583 33.2363C135.664 33.225 135.72 33.2182 135.75 33.2182C135.949 33.2182 136.058 33.302 136.076 33.4671C136.082 33.5033 136.085 33.544 136.085 33.5893C136.085 33.6707 136.058 33.7205 136.004 33.7386C135.949 33.7544 135.827 33.7612 135.637 33.7612C135.453 33.7917 135.263 33.8065 135.067 33.8065C135.033 33.8065 134.995 33.8087 134.949 33.811C134.906 33.811 134.863 33.8178 134.818 33.8291C134.773 33.8415 134.739 33.8596 134.719 33.8834C134.697 33.9049 134.676 33.9411 134.655 33.992C134.637 34.0101 134.596 34.0768 134.533 34.1911C134.452 34.3607 134.4 34.4614 134.379 34.4942C134.222 34.9535 134.108 35.424 134.035 35.9059C134.023 35.9998 134.017 36.0575 134.017 36.0778C134.017 36.1661 134.045 36.2272 134.103 36.2634C134.16 36.2973 134.258 36.3131 134.397 36.3131C134.59 36.3131 134.759 36.2939 134.904 36.2543C135.076 36.1796 135.205 36.1163 135.293 36.0643C135.344 36.0349 135.39 36.0077 135.433 35.9828C135.475 35.9557 135.506 35.9364 135.524 35.924C135.542 35.8912 135.561 35.8742 135.583 35.8742C135.63 35.8742 135.671 35.9195 135.705 36.01C135.705 36.1039 135.683 36.1853 135.642 36.2543C135.602 36.321 135.502 36.4014 135.343 36.4941C135.01 36.7056 134.678 36.8108 134.343 36.8108C134.252 36.8108 134.167 36.8041 134.085 36.7882Z" fill="#5CA74E"/>
<path d="M136.216 36.3807C136.127 36.3807 136.062 36.3615 136.016 36.3219C135.971 36.28 135.941 36.2483 135.926 36.2269C135.91 36.2031 135.903 36.1748 135.903 36.1409C135.903 36.1171 135.923 36.0097 135.962 35.8196L136.044 35.5346C136.1 35.2993 136.152 35.1047 136.197 34.9509C136.218 34.8061 136.262 34.6545 136.329 34.4939C136.394 34.3344 136.434 34.236 136.446 34.1998C136.492 34.0346 136.58 33.7767 136.713 33.4261L136.971 32.7248C137.172 32.1795 137.294 31.8458 137.333 31.7248L137.473 31.3492C137.473 31.2565 137.519 31.209 137.609 31.209C137.691 31.209 137.758 31.2542 137.813 31.3447C137.867 31.433 137.894 31.5336 137.894 31.6479C137.894 31.7361 137.877 31.8198 137.844 31.9013C137.763 32.0732 137.674 32.2904 137.577 32.5528C137.484 32.813 137.424 32.9827 137.396 33.0641C137.2 33.6161 137.058 33.9849 136.971 34.1681C136.971 34.1896 136.962 34.2292 136.944 34.2858C136.928 34.3435 136.909 34.3966 136.885 34.4441L136.79 34.6296C136.79 34.6477 136.758 34.7688 136.695 34.9916C136.616 35.2393 136.568 35.4203 136.55 35.5346C136.577 35.4837 136.636 35.4056 136.727 35.2993C136.82 35.1941 136.908 35.107 136.989 35.0369C137.306 34.7654 137.502 34.6048 137.577 34.5527C137.643 34.5143 137.7 34.4781 137.745 34.4441C137.792 34.4079 137.826 34.3842 137.844 34.3717C137.844 34.3446 137.876 34.331 137.939 34.331C137.96 34.331 137.972 34.3287 137.976 34.322C137.978 34.3163 137.98 34.3016 137.98 34.2767C137.98 34.2383 138.046 34.2032 138.179 34.1726C138.312 34.1398 138.429 34.1229 138.532 34.1229C138.601 34.1229 138.655 34.1387 138.695 34.1681C138.737 34.1953 138.79 34.2575 138.853 34.3536C138.95 34.4928 138.998 34.6432 138.998 34.8061C138.998 34.8966 138.981 34.9905 138.948 35.0866C138.948 35.1353 138.941 35.2065 138.926 35.2993C138.91 35.3932 138.903 35.4746 138.903 35.5436L138.853 35.8196H138.989C139.028 35.8196 139.066 35.8264 139.102 35.8377C139.141 35.8502 139.167 35.8592 139.179 35.8649C139.23 35.9282 139.275 35.9599 139.315 35.9599C139.369 35.9599 139.396 35.9803 139.396 36.0187C139.396 36.0436 139.384 36.073 139.36 36.1092C139.335 36.1431 139.304 36.1703 139.265 36.1907C139.114 36.2845 138.987 36.3309 138.885 36.3309C138.788 36.3309 138.688 36.2845 138.586 36.1907C138.46 36.064 138.396 35.9124 138.396 35.7337C138.396 35.6432 138.412 35.5346 138.446 35.4079L138.473 35.1319C138.485 34.9939 138.491 34.9079 138.491 34.874C138.491 34.7416 138.46 34.6749 138.396 34.6749C138.315 34.6749 138.159 34.7462 137.93 34.8875C137.704 35.0267 137.47 35.202 137.229 35.4124C136.987 35.6205 136.796 35.8321 136.654 36.0459C136.566 36.1545 136.493 36.2359 136.433 36.2902C136.372 36.3445 136.316 36.375 136.265 36.3807H136.216Z" fill="#5CA74E"/>
<path d="M142.515 37.6646C142.363 37.6884 142.266 37.7008 142.221 37.7008C142.105 37.7008 141.967 37.6759 141.804 37.6284C141.732 37.6069 141.678 37.5809 141.642 37.5515C141.608 37.5244 141.569 37.4814 141.524 37.4248C141.481 37.3705 141.449 37.3298 141.429 37.3026C141.323 37.1579 141.271 37.0312 141.271 36.9226C141.271 36.8389 141.311 36.8072 141.393 36.8276C141.449 36.857 141.513 36.9147 141.583 36.9995C141.652 37.0685 141.725 37.1183 141.804 37.1488C141.886 37.1816 141.983 37.1986 142.099 37.1986C142.14 37.1986 142.218 37.1918 142.334 37.1805C142.47 37.159 142.629 37.1171 142.813 37.0538C142.997 36.9904 143.132 36.9237 143.221 36.8547C143.494 36.6647 143.719 36.5131 143.895 36.3977C144.069 36.2835 144.181 36.2111 144.23 36.1805C144.241 36.1534 144.302 36.1194 144.411 36.0765L144.641 35.8547C144.792 35.6953 144.89 35.5968 144.935 35.5606C144.941 35.5222 144.95 35.4815 144.963 35.4385C144.977 35.3932 144.985 35.3604 144.985 35.3389C145.054 35.2643 145.158 35.0844 145.297 34.8005C145.435 34.5143 145.53 34.2688 145.583 34.063C145.633 33.7915 145.659 33.5539 145.659 33.3481C145.659 32.9952 145.597 32.6999 145.474 32.4612C145.35 32.2237 145.171 32.0042 144.935 31.8052C144.814 31.7056 144.614 31.597 144.334 31.4794C144.055 31.3617 143.895 31.312 143.85 31.3301C143.819 31.3369 143.741 31.502 143.614 31.8278C143.49 32.1513 143.318 32.6173 143.098 33.2259L142.822 33.9906C142.801 34.0845 142.775 34.1716 142.746 34.253C142.718 34.3322 142.696 34.4023 142.678 34.4657C142.602 34.6806 142.565 34.8005 142.565 34.8276C142.501 34.9272 142.449 35.0561 142.411 35.2122C142.375 35.3695 142.334 35.6376 142.289 36.0176C142.237 36.2077 142.214 36.2936 142.221 36.2755C142.196 36.3751 142.175 36.4565 142.157 36.5199C142.142 36.5832 142.126 36.6126 142.108 36.6058L142.071 36.6375C142.071 36.6737 142.045 36.6918 141.994 36.6918C141.949 36.6918 141.897 36.6805 141.841 36.6556C141.783 36.6285 141.738 36.5968 141.705 36.5606C141.68 36.4792 141.669 36.4226 141.669 36.3887C141.669 36.314 141.691 36.1986 141.737 36.0448C141.782 35.8491 141.856 35.5742 141.963 35.2213C142.071 34.8684 142.163 34.5788 142.239 34.3526C142.277 34.2564 142.335 34.0743 142.411 33.8051C142.474 33.5913 142.543 33.373 142.619 33.149C142.697 32.9228 142.755 32.7814 142.791 32.7237C142.8 32.6852 142.837 32.5698 142.904 32.3798C142.97 32.1898 143.05 31.9805 143.144 31.7509L143.203 31.4658L143.108 31.4251C143.055 31.4409 143.01 31.4477 142.972 31.4477C142.941 31.4477 142.91 31.4409 142.877 31.4251C142.819 31.4409 142.739 31.416 142.637 31.3527C142.537 31.2871 142.481 31.2249 142.47 31.1672C142.457 31.1491 142.449 31.1242 142.447 31.0903C142.444 31.0541 142.442 31.0303 142.442 31.0179C142.454 30.9613 142.569 30.9081 142.786 30.8595C143.006 30.812 143.246 30.7871 143.506 30.7871C143.614 30.7871 143.697 30.7905 143.755 30.7962C143.856 30.8029 143.955 30.821 144.049 30.8505C144.145 30.8776 144.262 30.9206 144.402 30.9771L144.61 31.0541C144.791 31.1242 144.986 31.2441 145.198 31.416C145.408 31.588 145.596 31.7905 145.759 32.0223C145.922 32.2554 146.032 32.4918 146.089 32.7327C146.107 32.8085 146.123 32.9126 146.139 33.0449C146.157 33.1784 146.166 33.296 146.166 33.3978C146.166 33.5189 146.155 33.5947 146.135 33.6241C146.116 33.6456 146.107 33.6739 146.107 33.7101C146.107 33.744 146.119 33.7632 146.144 33.7689C146.131 33.8028 146.11 33.8662 146.08 33.9589C146.053 34.0494 146.021 34.1478 145.985 34.253C145.951 34.615 145.792 35.0403 145.506 35.529C145.475 35.529 145.451 35.5335 145.433 35.5425C145.417 35.5493 145.421 35.555 145.442 35.5606C145.442 35.5912 145.411 35.6455 145.347 35.7235C145.331 35.736 145.295 35.7778 145.239 35.8502C145.184 35.9226 145.146 35.9679 145.126 35.986C145.119 36.0256 145.101 36.0584 145.071 36.0855C145.044 36.1104 145.018 36.1217 144.994 36.1217C144.994 36.1217 144.99 36.124 144.981 36.1262C144.974 36.1296 144.972 36.1398 144.972 36.1579C144.865 36.3061 144.675 36.4905 144.402 36.7099C144.13 36.9271 143.888 37.0809 143.678 37.1714C143.62 37.2133 143.552 37.2506 143.474 37.2845C143.395 37.3207 143.343 37.3434 143.316 37.3524C143.27 37.3943 143.154 37.4497 142.967 37.5198C142.779 37.5922 142.629 37.6397 142.515 37.6646Z" fill="#5CA74E"/>
<path d="M146.177 36.5331C146.159 36.5003 146.129 36.4652 146.091 36.429C146.054 36.3905 146.036 36.3645 146.036 36.3521C146.036 36.2887 146.023 36.2412 145.996 36.2073C145.983 36.196 145.978 36.17 145.978 36.1304C145.978 36.0376 146.021 35.8804 146.109 35.6598C146.199 35.4404 146.317 35.2005 146.462 34.9404C146.494 34.9076 146.539 34.8476 146.593 34.7594C146.647 34.6723 146.683 34.6237 146.701 34.6146C146.701 34.5908 146.708 34.5694 146.724 34.5513C146.742 34.5309 146.763 34.5196 146.787 34.5196V34.4653C146.787 34.4144 146.882 34.2911 147.073 34.0943C147.263 33.8952 147.418 33.7583 147.539 33.6825C147.68 33.583 147.826 33.5332 147.977 33.5332C148.079 33.5332 148.169 33.5637 148.244 33.6237C148.274 33.6576 148.407 33.7798 148.643 33.9902L148.959 34.2753L148.805 34.7096C148.753 34.8635 148.729 35.0037 148.729 35.1304C148.729 35.3476 148.792 35.558 148.919 35.7593C148.946 35.8227 149.001 35.8838 149.086 35.9403C149.173 35.998 149.26 36.0331 149.348 36.0444C149.475 36.0659 149.538 36.1292 149.538 36.2344C149.538 36.3498 149.485 36.4177 149.38 36.438C149.359 36.4448 149.326 36.4471 149.281 36.4471C148.939 36.4471 148.645 36.2095 148.398 35.7322C148.377 35.6994 148.346 35.6372 148.308 35.5467C148.272 35.4539 148.25 35.3883 148.244 35.3521C148.21 35.4008 148.167 35.4562 148.113 35.5195C148.061 35.5829 148.014 35.6372 147.968 35.6824C147.341 36.3068 146.846 36.619 146.484 36.619C146.369 36.619 146.267 36.5908 146.177 36.5331ZM146.484 36.0534C146.484 36.0806 146.514 36.0896 146.575 36.0806C146.635 36.0693 146.708 36.0399 146.797 35.9946C146.887 35.9471 146.979 35.8849 147.073 35.8091C147.567 35.3838 147.923 35.015 148.14 34.7006L148.33 34.3884C148.273 34.2685 148.213 34.1802 148.149 34.1259C148.086 34.0716 148.028 34.0445 147.977 34.0445C147.856 34.0445 147.666 34.1961 147.407 34.497C147.151 34.799 146.915 35.153 146.701 35.5603C146.649 35.6598 146.603 35.7593 146.561 35.8589C146.522 35.9584 146.496 36.024 146.484 36.0534Z" fill="#5CA74E"/>
<path d="M150.259 36.7882C150.168 36.7701 150.074 36.709 149.978 36.6027C149.884 36.4941 149.822 36.3946 149.793 36.3041C149.793 36.2928 149.786 36.2803 149.775 36.2679C149.766 36.2532 149.758 36.243 149.752 36.2362C149.727 36.2181 149.716 36.1231 149.716 35.9512C149.716 35.8131 149.723 35.6695 149.738 35.5213C149.753 35.3709 149.771 35.2498 149.793 35.1593L149.947 34.7023L150.069 34.3539L150.304 33.8562L149.956 33.7612C149.916 33.7556 149.883 33.7363 149.856 33.7024C149.831 33.6662 149.82 33.6345 149.82 33.6074C149.82 33.5599 149.844 33.5033 149.892 33.44C149.94 33.3743 149.979 33.3404 150.01 33.3404C150.025 33.3472 150.07 33.3495 150.146 33.3495C150.318 33.3495 150.447 33.3404 150.535 33.3223C150.591 33.2986 150.632 33.2522 150.657 33.182C150.677 33.1368 150.703 33.0802 150.734 33.0101C150.767 32.9411 150.798 32.8778 150.829 32.8201C150.844 32.7873 150.87 32.7341 150.906 32.6617C150.944 32.5893 150.993 32.5079 151.051 32.4174C151.062 32.3993 151.088 32.3574 151.128 32.2907C151.169 32.2251 151.219 32.1685 151.277 32.1233C151.315 32.0848 151.364 32.0645 151.422 32.0645C151.478 32.0645 151.554 32.1007 151.648 32.173C151.659 32.1911 151.675 32.216 151.693 32.2454C151.713 32.2726 151.725 32.2986 151.725 32.3224C151.725 32.3439 151.702 32.3925 151.657 32.4671C151.621 32.5373 151.586 32.5984 151.553 32.6527C151.522 32.707 151.496 32.7556 151.476 32.7975C151.406 32.9128 151.356 32.9988 151.327 33.0554C151.269 33.1311 151.241 33.1888 151.241 33.2273C151.241 33.2669 151.278 33.2861 151.354 33.2861C151.435 33.2861 151.569 33.2703 151.756 33.2363C151.838 33.225 151.893 33.2182 151.924 33.2182C152.123 33.2182 152.232 33.302 152.25 33.4671C152.255 33.5033 152.259 33.544 152.259 33.5893C152.259 33.6707 152.232 33.7205 152.177 33.7386C152.123 33.7544 152.001 33.7612 151.811 33.7612C151.626 33.7917 151.436 33.8065 151.241 33.8065C151.207 33.8065 151.168 33.8087 151.123 33.811C151.08 33.811 151.037 33.8178 150.992 33.8291C150.947 33.8415 150.913 33.8596 150.892 33.8834C150.871 33.9049 150.849 33.9411 150.829 33.992C150.811 34.0101 150.77 34.0768 150.707 34.1911C150.625 34.3607 150.573 34.4614 150.553 34.4942C150.396 34.9535 150.281 35.424 150.209 35.9059C150.197 35.9998 150.191 36.0575 150.191 36.0778C150.191 36.1661 150.219 36.2272 150.277 36.2634C150.333 36.2973 150.432 36.3131 150.571 36.3131C150.763 36.3131 150.933 36.2939 151.078 36.2543C151.25 36.1796 151.379 36.1163 151.467 36.0643C151.518 36.0349 151.564 36.0077 151.607 35.9828C151.649 35.9557 151.68 35.9364 151.698 35.924C151.716 35.8912 151.735 35.8742 151.756 35.8742C151.804 35.8742 151.845 35.9195 151.879 36.01C151.879 36.1039 151.857 36.1853 151.815 36.2543C151.776 36.321 151.676 36.4014 151.517 36.4941C151.184 36.7056 150.852 36.8108 150.517 36.8108C150.426 36.8108 150.34 36.8041 150.259 36.7882Z" fill="#5CA74E"/>
<path d="M152.19 36.5331C152.172 36.5003 152.143 36.4652 152.104 36.429C152.068 36.3905 152.05 36.3645 152.05 36.3521C152.05 36.2887 152.036 36.2412 152.009 36.2073C151.997 36.196 151.991 36.17 151.991 36.1304C151.991 36.0376 152.034 35.8804 152.122 35.6598C152.213 35.4404 152.331 35.2005 152.475 34.9404C152.508 34.9076 152.552 34.8476 152.607 34.7594C152.661 34.6723 152.697 34.6237 152.715 34.6146C152.715 34.5908 152.722 34.5694 152.738 34.5513C152.756 34.5309 152.776 34.5196 152.801 34.5196V34.4653C152.801 34.4144 152.896 34.2911 153.086 34.0943C153.276 33.8952 153.431 33.7583 153.552 33.6825C153.694 33.583 153.84 33.5332 153.991 33.5332C154.093 33.5332 154.182 33.5637 154.258 33.6237C154.287 33.6576 154.421 33.7798 154.656 33.9902L154.973 34.2753L154.819 34.7096C154.767 34.8635 154.742 35.0037 154.742 35.1304C154.742 35.3476 154.806 35.558 154.932 35.7593C154.959 35.8227 155.015 35.8838 155.1 35.9403C155.187 35.998 155.274 36.0331 155.362 36.0444C155.489 36.0659 155.552 36.1292 155.552 36.2344C155.552 36.3498 155.499 36.4177 155.394 36.438C155.372 36.4448 155.339 36.4471 155.294 36.4471C154.953 36.4471 154.659 36.2095 154.412 35.7322C154.39 35.6994 154.36 35.6372 154.321 35.5467C154.285 35.4539 154.264 35.3883 154.258 35.3521C154.224 35.4008 154.181 35.4562 154.127 35.5195C154.075 35.5829 154.027 35.6372 153.982 35.6824C153.354 36.3068 152.86 36.619 152.498 36.619C152.383 36.619 152.281 36.5908 152.19 36.5331ZM152.498 36.0534C152.498 36.0806 152.527 36.0896 152.588 36.0806C152.648 36.0693 152.722 36.0399 152.81 35.9946C152.901 35.9471 152.992 35.8849 153.086 35.8091C153.581 35.3838 153.937 35.015 154.154 34.7006L154.344 34.3884C154.286 34.2685 154.226 34.1802 154.163 34.1259C154.1 34.0716 154.042 34.0445 153.991 34.0445C153.87 34.0445 153.68 34.1961 153.421 34.497C153.164 34.799 152.929 35.153 152.715 35.5603C152.663 35.6598 152.617 35.7593 152.575 35.8589C152.535 35.9584 152.509 36.024 152.498 36.0534Z" fill="#5CA74E"/>
</svg>
