<svg width="16" height="16" viewBox="0 0 16 16" fill="none" xmlns="http://www.w3.org/2000/svg">
<path fill-rule="evenodd" clip-rule="evenodd" d="M8.00002 2.39844C8.44185 2.39844 8.80002 2.75661 8.80002 3.19844V7.19844H12.8C13.2419 7.19844 13.6 7.55661 13.6 7.99844C13.6 8.44027 13.2419 8.79844 12.8 8.79844H8.80002V12.7984C8.80002 13.2403 8.44185 13.5984 8.00002 13.5984C7.5582 13.5984 7.20002 13.2403 7.20002 12.7984V8.79844H3.20002C2.7582 8.79844 2.40002 8.44027 2.40002 7.99844C2.40002 7.55661 2.7582 7.19844 3.20002 7.19844H7.20002V3.19844C7.20002 2.75661 7.5582 2.39844 8.00002 2.39844Z" fill="white"/>
</svg>
