<svg width="32" height="32" viewBox="0 0 32 32" fill="none" xmlns="http://www.w3.org/2000/svg">
<path fill-rule="evenodd" clip-rule="evenodd" d="M16.0001 3.19922C16.8837 3.19922 17.6001 3.91556 17.6001 4.79922V6.91597L23.9272 9.44681L26.4845 8.16813C27.2749 7.77295 28.236 8.09331 28.6311 8.88368C29.0263 9.67404 28.706 10.6351 27.9156 11.0303L25.9425 12.0168L28.7236 20.6883C28.9165 21.2896 28.7376 21.9481 28.2671 22.3692C27.1359 23.3816 25.6382 23.9992 24.0001 23.9992C22.3619 23.9992 20.8642 23.3816 19.733 22.3692C19.2625 21.9481 19.0837 21.2896 19.2765 20.6883L22.021 12.1308L17.6001 10.3625V25.5992H20.8001C21.6837 25.5992 22.4001 26.3156 22.4001 27.1992C22.4001 28.0829 21.6837 28.7992 20.8001 28.7992H11.2001C10.3164 28.7992 9.60006 28.0829 9.60006 27.1992C9.60006 26.3156 10.3164 25.5992 11.2001 25.5992H14.4001V10.3625L9.97912 12.1308L12.7236 20.6883C12.9165 21.2896 12.7376 21.9481 12.2671 22.3692C11.1359 23.3816 9.63819 23.9992 8.00006 23.9992C6.36193 23.9992 4.86421 23.3816 3.733 22.3692C3.26249 21.9481 3.08366 21.2896 3.27649 20.6883L6.05757 12.0168L4.08452 11.0303C3.29415 10.6351 2.97379 9.67404 3.36897 8.88368C3.76416 8.09331 4.72523 7.77295 5.5156 8.16813L8.07295 9.44681L14.4001 6.91597V4.79922C14.4001 3.91556 15.1164 3.19922 16.0001 3.19922ZM8.00006 16.4384L6.69088 20.5205C7.09021 20.6998 7.53291 20.7992 8.00006 20.7992C8.46721 20.7992 8.9099 20.6998 9.30924 20.5205L8.00006 16.4384ZM24.0001 16.4384L22.6909 20.5205C23.0902 20.6998 23.5329 20.7992 24.0001 20.7992C24.4672 20.7992 24.9099 20.6998 25.3092 20.5205L24.0001 16.4384Z" fill="#605F5F"/>
</svg>
