<svg width="21" height="20" viewBox="0 0 21 20" fill="none" xmlns="http://www.w3.org/2000/svg">
<path fill-rule="evenodd" clip-rule="evenodd" d="M12.6667 7C12.1144 7 11.6667 6.55228 11.6667 6C11.6667 5.44772 12.1144 5 12.6667 5H17.6667C18.219 5 18.6667 5.44772 18.6667 6V11C18.6667 11.5523 18.219 12 17.6667 12C17.1144 12 16.6667 11.5523 16.6667 11V8.41421L12.3738 12.7071C11.9833 13.0976 11.3501 13.0976 10.9596 12.7071L8.66669 10.4142L4.3738 14.7071C3.98327 15.0976 3.35011 15.0976 2.95958 14.7071C2.56906 14.3166 2.56906 13.6834 2.95958 13.2929L7.95958 8.29289C8.35011 7.90237 8.98327 7.90237 9.3738 8.29289L11.6667 10.5858L15.2525 7H12.6667Z" fill="#18B777"/>
</svg>
