<svg width="18" height="20" viewBox="0 0 18 20" fill="none" xmlns="http://www.w3.org/2000/svg">
<path fill-rule="evenodd" clip-rule="evenodd" d="M0.600098 18.3984C0.600098 17.7357 1.13736 17.1984 1.8001 17.1984H16.2001C16.8628 17.1984 17.4001 17.7357 17.4001 18.3984C17.4001 19.0612 16.8628 19.5984 16.2001 19.5984H1.8001C1.13736 19.5984 0.600098 19.0612 0.600098 18.3984ZM4.55157 9.14991C5.0202 8.68128 5.78 8.68128 6.24862 9.14991L7.8001 10.7014L7.8001 1.59844C7.8001 0.935696 8.33735 0.398438 9.0001 0.398438C9.66284 0.398437 10.2001 0.935695 10.2001 1.59844L10.2001 10.7014L11.7516 9.14991C12.2202 8.68128 12.98 8.68128 13.4486 9.14991C13.9173 9.61854 13.9173 10.3783 13.4486 10.847L9.84862 14.447C9.62358 14.672 9.31836 14.7984 9.0001 14.7984C8.68184 14.7984 8.37661 14.672 8.15157 14.447L4.55157 10.847C4.08294 10.3783 4.08294 9.61854 4.55157 9.14991Z" fill="#23AD76"/>
</svg>
