<svg width="62" height="56" viewBox="0 0 62 56" fill="none" xmlns="http://www.w3.org/2000/svg">
<path fill-rule="evenodd" clip-rule="evenodd" d="M24.0282 4.39432C27.0867 -1.0429 34.915 -1.0429 37.9734 4.39431L60.2947 44.0765C63.2944 49.4093 59.4407 55.9986 53.3221 55.9986H8.67962C2.561 55.9986 -1.29271 49.4093 1.70701 44.0765L24.0282 4.39432ZM35.0005 43.999C35.0005 46.2082 33.2096 47.999 31.0005 47.999C28.7913 47.999 27.0005 46.2082 27.0005 43.999C27.0005 41.7899 28.7913 39.999 31.0005 39.999C33.2096 39.999 35.0005 41.7899 35.0005 43.999ZM31.0005 11.999C28.7913 11.999 27.0005 13.7899 27.0005 15.999V27.999C27.0005 30.2082 28.7913 31.999 31.0005 31.999C33.2096 31.999 35.0005 30.2082 35.0005 27.999V15.999C35.0005 13.7899 33.2096 11.999 31.0005 11.999Z" fill="#F3722C"/>
</svg>
