<svg width="10" height="10" viewBox="0 0 10 10" fill="none" xmlns="http://www.w3.org/2000/svg">
<path fill-rule="evenodd" clip-rule="evenodd" d="M0.434266 0.43744C0.746685 0.12502 1.25322 0.12502 1.56564 0.43744L4.99995 3.87175L8.43427 0.43744C8.74669 0.12502 9.25322 0.12502 9.56564 0.43744C9.87806 0.749859 9.87806 1.25639 9.56564 1.56881L6.13132 5.00313L9.56564 8.43744C9.87806 8.74986 9.87806 9.25639 9.56564 9.56881C9.25322 9.88123 8.74669 9.88123 8.43427 9.56881L4.99995 6.1345L1.56564 9.56881C1.25322 9.88123 0.746685 9.88123 0.434266 9.56881C0.121846 9.25639 0.121846 8.74986 0.434266 8.43744L3.86858 5.00313L0.434266 1.56881C0.121846 1.25639 0.121846 0.749859 0.434266 0.43744Z" fill="#151E03"/>
</svg>
