<svg width="20" height="20" viewBox="0 0 20 20" fill="none" xmlns="http://www.w3.org/2000/svg">
<path fill-rule="evenodd" clip-rule="evenodd" d="M10.0004 19.6004C15.3023 19.6004 19.6004 15.3023 19.6004 10.0004C19.6004 4.69846 15.3023 0.400391 10.0004 0.400391C4.69846 0.400391 0.400391 4.69846 0.400391 10.0004C0.400391 15.3023 4.69846 19.6004 10.0004 19.6004ZM8.44892 6.75186C7.98029 6.28323 7.22049 6.28323 6.75186 6.75186C6.28323 7.22049 6.28323 7.98029 6.75186 8.44892L8.30333 10.0004L6.75186 11.5519C6.28323 12.0205 6.28323 12.7803 6.75186 13.2489C7.22049 13.7175 7.98029 13.7175 8.44892 13.2489L10.0004 11.6974L11.5519 13.2489C12.0205 13.7175 12.7803 13.7175 13.2489 13.2489C13.7175 12.7803 13.7175 12.0205 13.2489 11.5519L11.6974 10.0004L13.2489 8.44892C13.7175 7.98029 13.7175 7.22049 13.2489 6.75186C12.7803 6.28323 12.0205 6.28323 11.5519 6.75186L10.0004 8.30333L8.44892 6.75186Z" fill="#B51818"/>
</svg>
