<svg width="14" height="17" viewBox="0 0 14 17" fill="none" xmlns="http://www.w3.org/2000/svg">
<path d="M12 16.8334H2.00004C1.07957 16.8334 0.333374 16.0872 0.333374 15.1667V1.83341C0.333374 0.912934 1.07957 0.166742 2.00004 0.166742H7.83337C7.84084 0.165774 7.84841 0.165774 7.85587 0.166742H7.86087C7.86874 0.169207 7.87684 0.170882 7.88504 0.171742C7.95853 0.176453 8.03109 0.19074 8.10087 0.214242H8.11337H8.12587H8.13587C8.15125 0.225013 8.16574 0.236996 8.17921 0.250075C8.26999 0.290428 8.35272 0.346896 8.42337 0.416742L13.4234 5.41674C13.4932 5.4874 13.5497 5.57012 13.59 5.66091C13.5975 5.67924 13.6034 5.69674 13.6092 5.71591L13.6175 5.73924C13.6408 5.80873 13.6545 5.88106 13.6584 5.95424C13.6591 5.96254 13.6611 5.97069 13.6642 5.97841V5.98341C13.6656 5.98887 13.6664 5.99445 13.6667 6.00008V15.1667C13.6667 15.6088 13.4911 16.0327 13.1786 16.3453C12.866 16.6578 12.4421 16.8334 12 16.8334ZM7.83337 1.83341V6.00008H12L7.83337 1.83341Z" fill="#537210"/>
</svg>
