<svg width="13" height="12" viewBox="0 0 13 12" fill="none" xmlns="http://www.w3.org/2000/svg">
<path fill-rule="evenodd" clip-rule="evenodd" d="M6.50039 0.400391C6.94222 0.400391 7.30039 0.758563 7.30039 1.20039V5.20039H11.3004C11.7422 5.20039 12.1004 5.55856 12.1004 6.00039C12.1004 6.44222 11.7422 6.80039 11.3004 6.80039H7.30039V10.8004C7.30039 11.2422 6.94222 11.6004 6.50039 11.6004C6.05856 11.6004 5.70039 11.2422 5.70039 10.8004V6.80039H1.70039C1.25856 6.80039 0.900391 6.44222 0.900391 6.00039C0.900391 5.55856 1.25856 5.20039 1.70039 5.20039H5.70039V1.20039C5.70039 0.758563 6.05856 0.400391 6.50039 0.400391Z" fill="#618512"/>
</svg>
