<svg width="16" height="16" viewBox="0 0 16 16" fill="none" xmlns="http://www.w3.org/2000/svg">
<path fill-rule="evenodd" clip-rule="evenodd" d="M7.9999 2.40039C8.44173 2.40039 8.7999 2.75856 8.7999 3.20039V7.20039H12.7999C13.2417 7.20039 13.5999 7.55856 13.5999 8.00039C13.5999 8.44222 13.2417 8.80039 12.7999 8.80039H8.7999V12.8004C8.7999 13.2422 8.44173 13.6004 7.9999 13.6004C7.55807 13.6004 7.1999 13.2422 7.1999 12.8004V8.80039H3.1999C2.75807 8.80039 2.3999 8.44222 2.3999 8.00039C2.3999 7.55856 2.75807 7.20039 3.1999 7.20039H7.1999V3.20039C7.1999 2.75856 7.55807 2.40039 7.9999 2.40039Z" fill="white"/>
</svg>
