<svg width="14" height="17" viewBox="0 0 14 17" fill="none" xmlns="http://www.w3.org/2000/svg">
<path d="M12 16.8334H2C1.07953 16.8334 0.333336 16.0872 0.333336 15.1667V1.83341C0.333336 0.912934 1.07953 0.166742 2 0.166742H7.83334C7.8408 0.165774 7.84837 0.165774 7.85584 0.166742H7.86084C7.86871 0.169207 7.8768 0.170882 7.885 0.171742C7.95849 0.176453 8.03105 0.19074 8.10084 0.214242H8.11334H8.12584H8.13584C8.15121 0.225013 8.1657 0.236996 8.17917 0.250075C8.26996 0.290428 8.35268 0.346896 8.42334 0.416742L13.4233 5.41674C13.4932 5.4874 13.5496 5.57012 13.59 5.66091C13.5975 5.67924 13.6033 5.69674 13.6092 5.71591L13.6175 5.73924C13.6408 5.80873 13.6545 5.88106 13.6583 5.95424C13.6591 5.96254 13.661 5.97069 13.6642 5.97841V5.98341C13.6655 5.98887 13.6664 5.99445 13.6667 6.00008V15.1667C13.6667 15.6088 13.4911 16.0327 13.1785 16.3453C12.866 16.6578 12.442 16.8334 12 16.8334ZM7.83334 1.83341V6.00008H12L7.83334 1.83341Z" fill="#151E03"/>
</svg>
