<svg width="12" height="14" viewBox="0 0 12 14" fill="none" xmlns="http://www.w3.org/2000/svg">
<path fill-rule="evenodd" clip-rule="evenodd" d="M5.20039 0.599609C4.89737 0.599609 4.62036 0.770811 4.48485 1.04184L3.90596 2.19961H1.20039C0.758563 2.19961 0.400391 2.55778 0.400391 2.99961C0.400391 3.44144 0.758563 3.79961 1.20039 3.79961L1.20039 11.7996C1.20039 12.6833 1.91674 13.3996 2.80039 13.3996H9.20039C10.084 13.3996 10.8004 12.6833 10.8004 11.7996V3.79961C11.2422 3.79961 11.6004 3.44144 11.6004 2.99961C11.6004 2.55778 11.2422 2.19961 10.8004 2.19961H8.09482L7.51593 1.04184C7.38042 0.770811 7.10341 0.599609 6.80039 0.599609H5.20039ZM3.60039 5.39961C3.60039 4.95778 3.95856 4.59961 4.40039 4.59961C4.84222 4.59961 5.20039 4.95778 5.20039 5.39961V10.1996C5.20039 10.6414 4.84222 10.9996 4.40039 10.9996C3.95856 10.9996 3.60039 10.6414 3.60039 10.1996V5.39961ZM7.60039 4.59961C7.15856 4.59961 6.80039 4.95778 6.80039 5.39961V10.1996C6.80039 10.6414 7.15856 10.9996 7.60039 10.9996C8.04222 10.9996 8.40039 10.6414 8.40039 10.1996V5.39961C8.40039 4.95778 8.04222 4.59961 7.60039 4.59961Z" fill="#B51818"/>
</svg>
