<svg width="20" height="20" viewBox="0 0 20 20" fill="none" xmlns="http://www.w3.org/2000/svg">
<path d="M19.6 1.60039C19.6 1.1845 19.3847 0.798259 19.0309 0.579611C18.6771 0.360963 18.2353 0.341086 17.8633 0.527079L8.51671 5.20039H3.99999C2.01177 5.20039 0.399994 6.81217 0.399994 8.80039C0.399994 10.7886 2.01177 12.4004 3.99999 12.4004H4.33509L6.46158 18.7799C6.62492 19.2699 7.08349 19.6004 7.6 19.6004H8.8C9.46274 19.6004 10 19.0631 10 18.4004V13.142L17.8633 17.0737C18.2353 17.2597 18.6771 17.2398 19.0309 17.0212C19.3847 16.8025 19.6 16.4163 19.6 16.0004V1.60039Z" fill="#618512"/>
</svg>
