<svg width="60" height="80" viewBox="0 0 60 80" fill="none" xmlns="http://www.w3.org/2000/svg">
<path fill-rule="evenodd" clip-rule="evenodd" d="M10 0C4.47715 0 0 4.47716 0 10V70C0 75.5229 4.47715 80 10 80H50C55.5228 80 60 75.5229 60 70V27.0711C60 24.4189 58.9464 21.8754 57.0711 20L40 2.92893C38.1246 1.05357 35.5811 0 32.9289 0H10ZM35 30C35 27.2386 32.7614 25 30 25C27.2386 25 25 27.2386 25 30V40H15C12.2386 40 10 42.2386 10 45C10 47.7614 12.2386 50 15 50H25V60C25 62.7614 27.2386 65 30 65C32.7614 65 35 62.7614 35 60V50H45C47.7614 50 50 47.7614 50 45C50 42.2386 47.7614 40 45 40H35V30Z" fill="#C5DE8D"/>
</svg>
