<svg width="156" height="52" viewBox="0 0 156 52" fill="none" xmlns="http://www.w3.org/2000/svg">
<path fill-rule="evenodd" clip-rule="evenodd" d="M44.9099 16.5994V38.4237L31.2508 46.3065L29.0219 45.0237C28.4479 44.3064 27.7241 43.2214 27.5333 42.1222V32.7758L36.5765 27.2955C36.8992 27.0995 37.2053 26.8802 37.4948 26.6377C37.7843 26.3952 38.0534 26.1318 38.3026 25.848C38.5518 25.5637 38.7777 25.2623 38.9804 24.9438C39.1835 24.6254 39.361 24.2932 39.5129 23.9472L40.4412 21.8328L26.0886 30.2884L11.7403 21.8328L12.6691 23.9472C12.821 24.2932 12.9985 24.6254 13.2016 24.9438C13.4043 25.2623 13.6302 25.5637 13.8793 25.848C14.1285 26.1318 14.3976 26.3952 14.6871 26.6377C14.9766 26.8807 15.2828 27.0995 15.6055 27.2955L24.6487 32.7758V41.9998C24.4949 43.1259 23.7548 44.2511 23.1623 44.9955L20.8752 46.312H20.7619L7.09319 38.4237V16.5994L26.0015 5.68726L44.9099 16.5994ZM20.8752 46.312H26.0015H31.2412L31.2508 46.3065L31.2617 46.3128H26.0676H20.8739L20.8752 46.312ZM16.1156 15.0884L15.3074 13.2493L23.93 18.3371C24.1161 18.4463 24.285 18.5777 24.4364 18.7315C24.5878 18.8853 24.7169 19.0561 24.8237 19.2436C24.9305 19.4311 25.0112 19.629 25.0658 19.8378C25.1208 20.0466 25.1479 20.2588 25.1469 20.4747V21.8706L18.6695 18.0011C18.3885 17.8307 18.1223 17.6399 17.8702 17.4287C17.6187 17.218 17.3842 16.9888 17.1678 16.742C16.9514 16.4947 16.7549 16.2327 16.5784 15.9555C16.4018 15.6784 16.2476 15.3893 16.1156 15.0884ZM27.1578 21.8691L33.6371 18.0011C34.2024 17.6584 34.7031 17.2389 35.1388 16.742C35.5745 16.2446 35.9252 15.6936 36.1905 15.0884L36.9969 13.2493L28.3761 18.3371C28.1901 18.4463 28.0211 18.5777 27.8697 18.731C27.7183 18.8848 27.5892 19.0552 27.482 19.2427C27.3752 19.4301 27.2945 19.628 27.2394 19.8364C27.1844 20.0452 27.1573 20.2574 27.1578 20.4733V21.8691ZM13.6216 17.1655L14.5504 19.2799C14.7023 19.6259 14.8798 19.9581 15.0825 20.2766C15.2856 20.595 15.5115 20.8964 15.7602 21.1807C16.0094 21.4645 16.2785 21.7279 16.568 21.9704C16.8575 22.213 17.1636 22.4322 17.4868 22.6282L24.9334 27.0772V25.4721C24.9344 25.2239 24.9035 24.9799 24.8404 24.7398C24.7773 24.5001 24.6842 24.2723 24.5618 24.0563C24.4389 23.8409 24.2908 23.6448 24.1166 23.4683C23.9424 23.2913 23.7483 23.1403 23.5347 23.0141L13.6216 17.1655ZM34.6942 22.6282L27.2452 27.0753V25.4702C27.2448 25.2224 27.2756 24.9785 27.3387 24.7383C27.4023 24.4987 27.4953 24.2709 27.6178 24.0554C27.7407 23.8399 27.8893 23.6439 28.0634 23.4678C28.2376 23.2913 28.4317 23.1399 28.6458 23.0141L38.5565 17.1655L37.6296 19.2799C37.4777 19.6259 37.3007 19.9581 37.0976 20.2766C36.8949 20.595 36.669 20.8964 36.4203 21.1807C36.1712 21.4645 35.9021 21.7279 35.6125 21.9704C35.3235 22.213 35.0174 22.4322 34.6942 22.6282ZM24.9334 29.4882C24.9315 29.4868 24.9325 29.4825 24.9363 29.4825H24.9377C24.9367 29.4877 24.9348 29.4901 24.9334 29.4882Z" fill="#87BA1A"/>
<path d="M63.8939 14.7612V16.9874H61.0478V26.4711H58.7402V16.9874H56.0028V14.7612H63.8939Z" fill="#151E03"/>
<path d="M73.1214 24.1819H69.2392L68.2845 26.4714H66.0086L71.2934 14.3H71.4201L76.7004 26.4714H74.0264L73.1214 24.1819ZM72.3567 22.2409L71.2256 19.3903L70.0492 22.2409H72.3567Z" fill="#151E03"/>
<path d="M90.1571 14.7616V26.9465H90.0937L81.8995 19.5532L81.9493 26.4714H79.6101V14.3H79.7051L87.8812 21.811L87.8359 14.7616H90.1571Z" fill="#151E03"/>
<path d="M94.3874 14.7612H97.8895C99.3826 14.7612 100.611 15.0508 101.577 15.63C102.542 16.2069 103.244 16.9546 103.686 17.8742C104.126 18.7916 104.346 19.7746 104.346 20.8243C104.346 21.9498 104.08 22.9418 103.55 23.8015C103.018 24.659 102.306 25.3173 101.41 25.7788C100.514 26.2403 99.5297 26.4711 98.4596 26.4711H94.3874V14.7612ZM98.0614 24.245C99.2616 24.245 100.212 23.9373 100.912 23.3219C101.611 22.7066 101.962 21.822 101.962 20.6659C101.962 19.7316 101.767 18.9895 101.378 18.4398C100.991 17.8878 100.541 17.5066 100.025 17.295C99.5116 17.0813 99.0274 16.9738 98.5727 16.9738H96.695V24.245H98.0614Z" fill="#151E03"/>
<path d="M117.706 26.4711H115.403V21.7157H110.168V26.4711H107.861V14.7612H110.168V19.485H115.403V14.7612H117.706V26.4711Z" fill="#151E03"/>
<path d="M124.006 22.1455C124.006 22.5165 124.117 22.8728 124.341 23.2133C124.564 23.5515 124.861 23.8264 125.232 24.0368C125.603 24.2484 126.001 24.3535 126.427 24.3535C126.882 24.3535 127.3 24.2484 127.68 24.0368C128.062 23.8264 128.363 23.5515 128.581 23.2133C128.798 22.8728 128.906 22.5165 128.906 22.1455V14.7612H131.182V22.1908C131.182 23.0301 130.97 23.7857 130.544 24.4576C130.121 25.1307 129.547 25.6555 128.82 26.0322C128.093 26.41 127.296 26.5978 126.427 26.5978C125.555 26.5978 124.758 26.41 124.038 26.0322C123.316 25.6555 122.746 25.1307 122.327 24.4576C121.908 23.7857 121.698 23.0301 121.698 22.1908V14.7612H124.006V22.1455Z" fill="#151E03"/>
<path d="M141.489 26.4711L139.023 22.7473H137.481V26.4711H135.173V14.7612H138.72C140.174 14.7612 141.301 15.1142 142.1 15.82C142.902 16.5259 143.304 17.4885 143.304 18.7067C143.304 19.4284 143.151 20.1049 142.847 20.7383C142.545 21.3695 142.082 21.8638 141.458 22.2224L144.177 26.4711H141.489ZM137.481 20.5211H139.118C139.743 20.5211 140.198 20.339 140.485 19.9737C140.771 19.606 140.915 19.2113 140.915 18.7882C140.915 18.3629 140.793 17.9579 140.548 17.5711C140.306 17.1819 139.836 16.9874 139.137 16.9874H137.481V20.5211Z" fill="#151E03"/>
<path d="M70.3875 37.1106C70.2302 37.0134 70.1069 36.8765 70.0164 36.6989C69.9282 36.5213 69.8909 36.3369 69.9033 36.1469C69.8965 35.4682 70.0142 34.7522 70.2563 33.9977C70.3581 33.6934 70.4836 33.3733 70.6318 33.0384C70.7823 32.7036 70.9101 32.4457 71.0164 32.2647C71.1759 32.0023 71.3535 31.7704 71.5503 31.5679C71.746 31.3666 71.9044 31.232 72.0254 31.1652C72.0978 31.1234 72.1985 31.086 72.3286 31.0521C72.4575 31.0159 72.5955 30.9978 72.7403 30.9978C72.8546 30.9978 72.9598 31.0102 73.057 31.034C73.195 31.0679 73.3308 31.1143 73.4643 31.1743C73.5966 31.2353 73.686 31.2863 73.7312 31.3281C73.7516 31.362 73.7776 31.4028 73.8081 31.4503C73.8409 31.4955 73.8669 31.5362 73.885 31.5724C73.9031 31.6064 73.9122 31.6426 73.9122 31.681C73.9179 31.7387 73.8941 31.8077 73.8398 31.8892C73.7855 31.9683 73.7289 32.0068 73.6724 32.0068C73.6362 32.0068 73.6011 31.9876 73.5683 31.948C73.5106 31.8609 73.4529 31.7964 73.3964 31.7534C73.3387 31.7116 73.2787 31.6765 73.2154 31.6494C73.1521 31.6199 73.1045 31.5951 73.0751 31.577C72.9993 31.5317 72.8953 31.5091 72.7629 31.5091C72.66 31.5091 72.5559 31.5261 72.4507 31.5589C72.3444 31.5894 72.2539 31.6358 72.1792 31.6991C72.0763 31.7896 71.9496 31.9254 71.7992 32.1063C71.651 32.2873 71.5367 32.457 71.4553 32.6131C71.1114 33.2172 70.8671 33.785 70.7223 34.3189C70.6771 34.4852 70.625 34.6945 70.5685 34.9478C70.5108 35.2012 70.4734 35.3913 70.4553 35.518C70.4214 35.7295 70.4056 35.9207 70.4056 36.0926C70.4056 36.3075 70.4395 36.4704 70.5096 36.5813C70.582 36.6932 70.7008 36.7487 70.8671 36.7487C70.9813 36.7487 71.1227 36.7204 71.2924 36.6627C71.4824 36.6389 71.6974 36.5292 71.9394 36.3324C72.1804 36.1333 72.3806 35.9071 72.5412 35.6537C72.8003 35.1718 72.9303 34.8472 72.9303 34.6809C72.9303 34.5666 72.8738 34.509 72.7629 34.509C72.6475 34.4976 72.505 34.4909 72.3331 34.4909C72.2177 34.4909 72.1295 34.4886 72.0661 34.4818C72.0028 34.4761 71.9451 34.4592 71.8942 34.432C71.8546 34.3687 71.8354 34.3133 71.8354 34.2646C71.8354 34.199 71.8727 34.1277 71.9485 34.052C72.0265 34.0158 72.1838 33.9977 72.4191 33.9977C72.7539 33.9977 73.0163 34.0452 73.2063 34.1379C73.3839 34.2228 73.4733 34.3981 73.4733 34.6628C73.4733 34.7895 73.4609 34.9015 73.4371 34.9976C73.3851 35.2239 73.2109 35.5609 72.9122 36.0066C72.7788 36.191 72.5819 36.3912 72.3195 36.6084C72.0593 36.8233 71.8489 36.9613 71.6861 37.0247C71.3716 37.1695 71.0888 37.2419 70.8354 37.2419C70.6567 37.2419 70.5074 37.1977 70.3875 37.1106Z" fill="#5CA74E"/>
<path d="M73.8333 36.5426C73.7847 36.5098 73.7519 36.4793 73.7338 36.4521C73.718 36.4227 73.7112 36.3786 73.7112 36.3209C73.7112 36.27 73.7134 36.2259 73.7202 36.1897C73.7383 35.994 73.7813 35.7678 73.8514 35.511L73.8922 35.3391C73.9103 35.1943 74.0109 34.8934 74.1953 34.4341C74.3786 33.9726 74.5279 33.6593 74.6433 33.493C74.6885 33.4636 74.736 33.4478 74.7881 33.4478C74.8627 33.4478 74.9261 33.4749 74.9781 33.5292C75.0109 33.5507 75.0279 33.5925 75.0279 33.6559C75.0279 33.7136 75.0064 33.7984 74.9645 33.9093C74.9215 34.0213 74.8491 34.1875 74.7473 34.407C74.7224 34.4522 74.684 34.5382 74.6297 34.6649C74.5754 34.7916 74.5482 34.8674 74.5482 34.8911C74.5482 34.9002 74.5505 34.9047 74.5573 34.9047C74.5686 34.9047 74.5799 34.9024 74.589 34.8957C74.6003 34.8866 74.6127 34.8798 74.6252 34.873C74.6885 34.7644 74.8423 34.6151 75.0867 34.4251C75.331 34.235 75.4984 34.1174 75.5889 34.0722C75.6308 34.0484 75.6839 34.0258 75.7473 34.0043C75.8106 33.9805 75.8525 33.9624 75.874 33.95C75.9667 33.9047 76.0776 33.8821 76.2043 33.8821C76.2823 33.8821 76.3513 33.8957 76.4124 33.9228C76.4724 33.9477 76.5142 33.9851 76.5391 34.036C76.5448 34.0756 76.5595 34.1072 76.5844 34.131C76.6115 34.1559 76.6307 34.1694 76.6432 34.1717C76.6579 34.1717 76.6681 34.1796 76.6748 34.1943C76.6805 34.2102 76.6839 34.2203 76.6839 34.226C76.6839 34.2656 76.6613 34.2893 76.616 34.2984C76.5708 34.3074 76.4871 34.3154 76.3672 34.321C76.3038 34.3278 76.2371 34.3425 76.1681 34.3663C76.0979 34.3878 76.0289 34.4149 75.9599 34.4477C75.6398 34.6321 75.4 34.7769 75.2405 34.8821C75.0833 34.985 74.9238 35.1253 74.7609 35.3029C74.6976 35.373 74.6139 35.4963 74.512 35.6739C74.4725 35.7135 74.4306 35.8187 74.3854 35.9906C74.3424 36.1603 74.322 36.2644 74.322 36.3028C74.3152 36.3209 74.3039 36.3549 74.2858 36.4024C74.27 36.451 74.2462 36.4974 74.2134 36.5426C74.1433 36.6365 74.0845 36.6829 74.037 36.6829C73.9849 36.6829 73.9171 36.6365 73.8333 36.5426Z" fill="#5CA74E"/>
<path d="M77.0639 36.7149C76.9938 36.7149 76.9383 36.7047 76.8965 36.6832C76.8569 36.6595 76.8015 36.6154 76.7291 36.552C76.539 36.3529 76.444 36.1697 76.444 36C76.444 35.9616 76.4463 35.9321 76.4531 35.914C76.4678 35.8756 76.4734 35.836 76.4712 35.7964C76.4678 35.7546 76.4666 35.7274 76.4666 35.715C76.4451 35.6946 76.435 35.6788 76.435 35.6697C76.435 35.6607 76.4395 35.6516 76.4485 35.6426C76.4598 35.6335 76.4689 35.6245 76.4757 35.6154C76.5119 35.6154 76.5232 35.5837 76.5119 35.5204C76.4994 35.4729 76.5221 35.37 76.5797 35.2127C76.6363 35.0566 76.7087 34.9118 76.7969 34.7784C76.8603 34.6765 76.953 34.5476 77.0775 34.3938C77.2008 34.2377 77.3105 34.1178 77.4078 34.0363C77.5458 33.9164 77.6702 33.827 77.7788 33.7693C77.8874 33.7128 78.0073 33.6687 78.1408 33.6381C78.255 33.611 78.3331 33.5974 78.376 33.5974C78.4145 33.5974 78.4496 33.6087 78.4801 33.6291C78.5129 33.6472 78.5548 33.6822 78.6068 33.7332C78.7606 33.8033 78.867 33.8915 78.9281 34.0001C78.988 34.1064 79.0185 34.2705 79.0185 34.4933C79.0185 34.8677 78.8658 35.2738 78.5616 35.7104C78.4315 35.8982 78.3082 36.043 78.1905 36.1448C78.0752 36.2443 77.9247 36.3518 77.7381 36.4661C77.617 36.5543 77.505 36.6176 77.4032 36.6561C77.3037 36.6923 77.1906 36.7127 77.0639 36.7149ZM77.8919 35.8009C78.0299 35.6471 78.1408 35.5023 78.2222 35.3666C78.3059 35.2286 78.3862 35.0521 78.462 34.8372C78.4892 34.741 78.5027 34.6234 78.5027 34.4842C78.5027 34.3123 78.4801 34.215 78.4349 34.1901C78.3772 34.163 78.3195 34.1494 78.2629 34.1494C78.1362 34.1494 78.0028 34.2071 77.8648 34.3214C77.6985 34.4639 77.5492 34.6404 77.4168 34.8507C77.2833 35.0623 77.1499 35.3213 77.0141 35.629C76.953 35.75 76.9236 35.8688 76.9236 35.9864C76.9236 36.0713 76.944 36.1391 76.987 36.1901C77.0322 36.2421 77.0922 36.267 77.168 36.267C77.358 36.267 77.5989 36.112 77.8919 35.8009Z" fill="#5CA74E"/>
<path d="M79.8723 36.4565C79.7513 36.4565 79.6483 36.3637 79.5646 36.176C79.4832 35.9859 79.4425 35.7642 79.4425 35.5108L79.4515 35.3525C79.4515 35.1477 79.4651 34.9758 79.4922 34.8367C79.5217 34.6987 79.5398 34.6127 79.5465 34.5787C79.5579 34.5493 79.5692 34.4996 79.5782 34.4294C79.5895 34.357 79.6144 34.2552 79.6506 34.1218C79.6959 33.9204 79.7411 33.796 79.7864 33.7507C79.8316 33.7055 79.8859 33.6829 79.9492 33.6829C79.9911 33.6829 80.0284 33.6942 80.0624 33.7145C80.0986 33.7326 80.1268 33.7598 80.1483 33.796C80.1845 33.8299 80.2026 33.9125 80.2026 34.0448C80.2026 34.1421 80.1936 34.2371 80.1755 34.3299C80.1574 34.4204 80.1348 34.4871 80.1076 34.529C80.0895 34.5629 80.0624 34.7281 80.0262 35.0267C80.0047 35.2439 79.9877 35.3841 79.9764 35.4475C79.9696 35.4724 79.9673 35.5063 79.9673 35.5516C79.9673 35.685 80.0081 35.7506 80.0895 35.7506C80.2219 35.7506 80.4085 35.5764 80.6506 35.2258C80.8101 34.9973 80.9232 34.8174 80.9899 34.6873C81.0555 34.5584 81.1234 34.3921 81.1935 34.1896C81.2207 34.1059 81.2456 34.0313 81.2704 33.9679C81.2976 33.9046 81.3225 33.8638 81.3474 33.8457C81.3745 33.822 81.4152 33.8096 81.4695 33.8096C81.5261 33.8096 81.594 33.8367 81.6731 33.891C81.7421 33.9577 81.7772 34.038 81.7772 34.1308C81.7772 34.2281 81.7421 34.3457 81.6731 34.4837C81.603 34.6229 81.5397 34.814 81.4831 35.0584C81.4254 35.3027 81.3971 35.4927 81.3971 35.6285C81.3971 35.7348 81.4107 35.8004 81.4379 35.8276C81.465 35.8524 81.5069 35.8638 81.5645 35.8638C81.724 35.8638 81.9152 35.7495 82.1392 35.5199C82.241 35.4147 82.3767 35.2326 82.5464 34.9724C82.7183 34.71 82.8043 34.5561 82.8043 34.5109C82.8043 34.4747 82.8292 34.4249 82.8812 34.3616C82.9106 34.3231 82.9378 34.2892 82.9627 34.262C82.9898 34.2326 83.0283 34.2021 83.0803 34.1715L83.1482 34.158C83.1934 34.158 83.2477 34.1896 83.3111 34.253C83.3348 34.2745 83.3495 34.3107 83.3563 34.3616C83.362 34.4102 83.3654 34.4656 83.3654 34.529C83.3348 34.6319 83.2851 34.7643 83.2161 34.9271C83.1459 35.09 83.0916 35.1964 83.0532 35.2439C82.9446 35.3287 82.8518 35.4339 82.7772 35.5606C82.638 35.7269 82.5294 35.8434 82.4514 35.909C82.3756 35.9757 82.3258 36.021 82.3021 36.0447C82.1867 36.1601 82.0623 36.2484 81.9265 36.3117C81.793 36.375 81.6664 36.4067 81.5465 36.4067C81.4254 36.4067 81.327 36.3784 81.2523 36.3207C81.0736 36.228 80.9854 36.0719 80.9854 35.8547C80.9854 35.8162 80.9786 35.78 80.9673 35.7461C80.9548 35.7099 80.9458 35.6862 80.9401 35.6737C80.8553 35.6737 80.7874 35.719 80.7365 35.8095C80.6551 35.9542 80.516 36.099 80.3203 36.2438C80.1234 36.3864 79.9741 36.4565 79.8723 36.4565Z" fill="#5CA74E"/>
<path d="M85.9815 37.339C85.7971 37.2214 85.6602 37.1184 85.5698 37.0313C85.4815 36.9465 85.4385 36.8684 85.4385 36.796C85.4385 36.7214 85.4883 36.6547 85.5879 36.597C85.615 36.5789 85.6648 36.5947 85.7372 36.6422C85.8096 36.6909 85.8797 36.7497 85.9498 36.8187C86.0969 36.9567 86.2914 37.0268 86.5335 37.0268C86.6353 37.0268 86.7744 37.0064 86.9498 36.968C87.1851 36.8979 87.3932 36.7983 87.5742 36.6648C87.7552 36.5325 87.9282 36.3639 88.0945 36.1581C88.1963 36.0201 88.2732 35.8674 88.3253 35.7011C88.3796 35.5325 88.4067 35.3742 88.4067 35.226C88.4067 35.0427 88.3717 34.907 88.3027 34.8188C88.073 34.5088 87.7461 34.3527 87.3208 34.3527C87.1364 34.3527 86.9634 34.3776 86.8005 34.4251L86.3028 34.5292C86.2903 34.5326 86.2632 34.5382 86.2213 34.5473C86.1817 34.5563 86.1184 34.6819 86.0313 34.9228C85.9464 35.1649 85.8344 35.4816 85.6964 35.873C85.5754 36.2237 85.4804 36.4691 85.4114 36.6105C85.3446 36.7497 85.2824 36.8187 85.2259 36.8187C85.1682 36.8187 85.0992 36.7553 85.0177 36.6286C84.9544 36.5268 84.9227 36.4375 84.9227 36.3617C84.9227 36.2893 84.9476 36.2101 84.9996 36.1219C85.0291 36.071 85.0539 36.0201 85.072 35.968C85.0924 35.9171 85.115 35.8447 85.1399 35.7508C85.2123 35.528 85.4272 34.9715 85.7869 34.0812C86.1455 33.1888 86.426 32.5157 86.6285 32.0632C86.7733 31.7352 86.8163 31.561 86.7597 31.5429C86.7597 31.5282 86.7507 31.5044 86.7326 31.4705C86.7145 31.4343 86.7077 31.4072 86.7145 31.3891C86.7145 31.3563 86.7937 31.3054 86.9543 31.2352C87.1172 31.1662 87.236 31.1379 87.3118 31.1493H87.3615C87.4362 31.1493 87.4746 31.1345 87.4746 31.104C87.486 31.104 87.5391 31.0995 87.633 31.0904C87.7292 31.0791 87.8321 31.0769 87.9407 31.0859C88.323 31.1221 88.6205 31.2352 88.832 31.4253C89.0458 31.6153 89.1499 31.8675 89.1442 32.1809C89.1409 32.3257 89.0413 32.5383 88.8456 32.8189C88.6488 33.0971 88.4531 33.3245 88.2574 33.5021C88.1669 33.5835 88.0628 33.6695 87.9452 33.76C87.8276 33.8482 87.7506 33.9025 87.7144 33.9229L87.9316 33.9998C88.2122 34.1061 88.4339 34.2351 88.5968 34.3889C88.7619 34.5405 88.8773 34.7407 88.9406 34.9907C88.9519 35.0484 88.9587 35.1016 88.9587 35.1491C88.9587 35.2758 88.9361 35.4194 88.8909 35.5789C88.8479 35.7395 88.8015 35.8798 88.7506 35.9997C88.7144 36.0359 88.6839 36.0744 88.6601 36.1128C88.6386 36.1524 88.625 36.1784 88.6194 36.1897C88.6126 36.2146 88.5617 36.3029 88.4655 36.4567C88.3683 36.6083 88.2823 36.7282 88.2076 36.8187C87.9203 37.0653 87.6647 37.2304 87.4384 37.3119C87.1964 37.4205 86.9238 37.4748 86.6195 37.4748C86.3389 37.4748 86.1263 37.4295 85.9815 37.339ZM86.4068 34.0179C86.4702 34.0066 86.5969 33.9817 86.7869 33.9455C86.9792 33.9093 87.1138 33.8765 87.1896 33.846C87.2009 33.8403 87.2371 33.8222 87.2982 33.7917C87.3581 33.7589 87.4203 33.7102 87.4837 33.6469C87.6194 33.5202 87.788 33.3335 87.9905 33.0858C88.1918 32.8358 88.3389 32.6232 88.4293 32.4478C88.5741 32.2126 88.6465 32.0406 88.6465 31.932C88.6465 31.8574 88.6149 31.7872 88.5515 31.7239C88.4757 31.6334 88.2981 31.5881 88.0176 31.5881C87.8332 31.5881 87.6749 31.6051 87.5425 31.6379C87.4611 31.6628 87.4022 31.6911 87.366 31.7239C87.3299 31.7544 87.3118 31.8008 87.3118 31.8642C87.3118 31.949 87.2642 32.0384 87.1715 32.1311C87.1647 32.165 87.1511 32.1978 87.1308 32.2306C87.1127 32.2612 87.1002 32.2793 87.0946 32.2849C87.0946 32.303 87.0595 32.389 86.9905 32.5429C86.9 32.7216 86.814 32.9229 86.7326 33.1492C86.5154 33.665 86.4068 33.9546 86.4068 34.0179Z" fill="#5CA74E"/>
<path d="M90.7749 36.5425C90.6302 36.6692 90.456 36.7325 90.2546 36.7325C90.1121 36.7325 89.9763 36.6997 89.8474 36.633C89.7173 36.564 89.6098 36.469 89.5261 36.3479C89.4503 36.2552 89.3949 36.1511 89.3587 36.0357C89.3248 35.9215 89.309 35.7812 89.309 35.6149C89.309 35.5584 89.3146 35.4419 89.3271 35.2665C89.3418 35.0561 89.4108 34.8356 89.5352 34.6059C89.6585 34.3774 89.8123 34.1716 89.9967 33.9906C90.18 33.8073 90.3609 33.6818 90.5397 33.615C90.6324 33.5585 90.7173 33.5291 90.793 33.5291C90.8315 33.5291 90.8711 33.5324 90.9107 33.5381C90.9525 33.5415 90.9967 33.546 91.0419 33.5517C91.1686 33.5698 91.2647 33.5958 91.3315 33.6286C91.3971 33.6591 91.4536 33.7055 91.4989 33.7689C91.6403 33.9137 91.7116 34.0799 91.7116 34.2666C91.6901 34.4057 91.6007 34.5641 91.4446 34.7417C91.2908 34.9204 91.1052 35.0629 90.8881 35.1715C90.7817 35.2077 90.663 35.2258 90.5306 35.2258C90.3519 35.2258 90.2094 35.1885 90.1008 35.1127C90.0487 35.0946 90.0103 35.0855 89.9831 35.0855C89.9288 35.0855 89.8881 35.1206 89.861 35.1896C89.8361 35.2597 89.8135 35.3864 89.7931 35.5697C89.7863 35.6093 89.784 35.667 89.784 35.7416C89.784 36.0346 89.8802 36.1964 90.0736 36.2258C90.206 36.2529 90.301 36.2665 90.3587 36.2665C90.4277 36.2665 90.5057 36.2439 90.594 36.1986L90.7568 36.1036C90.7897 36.0855 90.8202 36.0629 90.8473 36.0357C90.8768 36.0063 90.9039 35.9803 90.9288 35.9588C90.9401 35.9475 90.9571 35.9294 90.9786 35.9045C91.0023 35.8774 91.0238 35.8593 91.0419 35.8502C91.0623 35.8412 91.0826 35.8366 91.1007 35.8366C91.1245 35.8366 91.1505 35.8502 91.1776 35.8774C91.2071 35.9022 91.2319 35.9203 91.25 35.9317C91.3009 35.9317 91.3111 35.9679 91.2817 36.0402C91.2546 36.1126 91.1923 36.1975 91.0962 36.2936C91.0023 36.3875 90.8949 36.4701 90.7749 36.5425ZM90.7659 34.7145C90.862 34.6761 90.9605 34.6048 91.06 34.5019C91.1618 34.4001 91.2138 34.3141 91.2138 34.244C91.2138 34.175 91.1878 34.1173 91.1369 34.072C91.0849 34.0245 91.0125 33.9996 90.9197 33.9996C90.8496 33.9996 90.7987 34.0064 90.7659 34.0177C90.6845 34.0426 90.5894 34.1037 90.4808 34.2032C90.3723 34.3028 90.2772 34.4057 90.1958 34.5109C90.1143 34.6138 90.0827 34.6738 90.1008 34.6919C90.1302 34.7439 90.2422 34.7688 90.4356 34.7688C90.5679 34.7688 90.6777 34.7507 90.7659 34.7145Z" fill="#5CA74E"/>
<path d="M92.4373 36.7868C92.3468 36.7687 92.2529 36.7076 92.1568 36.6012C92.0629 36.4926 92.0007 36.3931 91.9713 36.3026C91.9713 36.2913 91.9645 36.2789 91.9532 36.2664C91.9441 36.2517 91.9362 36.2415 91.9305 36.2347C91.9057 36.2166 91.8944 36.1216 91.8944 35.9497C91.8944 35.8117 91.9011 35.668 91.917 35.5198C91.9317 35.3694 91.9498 35.2484 91.9713 35.1579L92.1251 34.7009L92.2473 34.3525L92.4826 33.8548L92.1342 33.7597C92.0946 33.7541 92.0618 33.7349 92.0346 33.7009C92.0097 33.6647 91.9984 33.6331 91.9984 33.6059C91.9984 33.5584 92.0222 33.5018 92.0708 33.4385C92.1183 33.3729 92.1579 33.3389 92.1885 33.3389C92.2032 33.3457 92.2484 33.348 92.3242 33.348C92.4961 33.348 92.6251 33.3389 92.7133 33.3208C92.7699 33.2971 92.8106 33.2507 92.8355 33.1806C92.8558 33.1353 92.8819 33.0788 92.9124 33.0086C92.9452 32.9396 92.9769 32.8763 93.0074 32.8186C93.0221 32.7858 93.0481 32.7326 93.0843 32.6602C93.1228 32.5879 93.1714 32.5064 93.2291 32.4159C93.2404 32.3978 93.2665 32.356 93.3061 32.2892C93.3479 32.2236 93.3977 32.1671 93.4554 32.1218C93.4938 32.0833 93.5425 32.063 93.6002 32.063C93.6567 32.063 93.7325 32.0992 93.8264 32.1716C93.8377 32.1897 93.8535 32.2146 93.8716 32.244C93.892 32.2711 93.9033 32.2971 93.9033 32.3209C93.9033 32.3424 93.8807 32.391 93.8354 32.4657C93.7992 32.5358 93.7642 32.5969 93.7314 32.6512C93.7008 32.7055 93.6748 32.7541 93.6545 32.796C93.5843 32.9114 93.5345 32.9973 93.5051 33.0539C93.4474 33.1297 93.4192 33.1874 93.4192 33.2258C93.4192 33.2654 93.4565 33.2847 93.5323 33.2847C93.6137 33.2847 93.7472 33.2688 93.935 33.2349C94.0164 33.2236 94.0719 33.2168 94.1024 33.2168C94.3015 33.2168 94.4101 33.3005 94.4282 33.4656C94.4338 33.5018 94.4372 33.5426 94.4372 33.5878C94.4372 33.6692 94.4101 33.719 94.3558 33.7371C94.3015 33.753 94.1793 33.7597 93.9893 33.7597C93.8049 33.7903 93.6149 33.805 93.4192 33.805C93.3852 33.805 93.3468 33.8073 93.3015 33.8095C93.2585 33.8095 93.2156 33.8163 93.1703 33.8276C93.1251 33.8401 93.0911 33.8582 93.0708 33.8819C93.0493 33.9034 93.0278 33.9396 93.0074 33.9905C92.9893 34.0086 92.9486 34.0753 92.8853 34.1896C92.8038 34.3593 92.7518 34.4599 92.7314 34.4927C92.5742 34.952 92.4599 35.4226 92.3875 35.9044C92.3751 35.9983 92.3694 36.056 92.3694 36.0764C92.3694 36.1646 92.3977 36.2257 92.4554 36.2619C92.512 36.2958 92.6104 36.3117 92.7495 36.3117C92.9418 36.3117 93.1115 36.2924 93.2563 36.2528C93.4282 36.1782 93.5572 36.1148 93.6454 36.0628C93.6963 36.0334 93.7427 36.0062 93.7857 35.9814C93.8275 35.9542 93.8581 35.935 93.8762 35.9225C93.8943 35.8897 93.9135 35.8728 93.935 35.8728C93.9825 35.8728 94.0232 35.918 94.0571 36.0085C94.0571 36.1024 94.0357 36.1838 93.9938 36.2528C93.9542 36.3196 93.8547 36.3999 93.6952 36.4926C93.3626 36.7042 93.03 36.8094 92.6952 36.8094C92.6047 36.8094 92.5188 36.8026 92.4373 36.7868Z" fill="#5CA74E"/>
<path d="M94.9875 36.7868C94.897 36.7687 94.8031 36.7076 94.707 36.6012C94.6131 36.4926 94.5508 36.3931 94.5214 36.3026C94.5214 36.2913 94.5147 36.2789 94.5033 36.2664C94.4943 36.2517 94.4864 36.2415 94.4807 36.2347C94.4558 36.2166 94.4445 36.1216 94.4445 35.9497C94.4445 35.8117 94.4513 35.668 94.4671 35.5198C94.4818 35.3694 94.4999 35.2484 94.5214 35.1579L94.6753 34.7009L94.7974 34.3525L95.0327 33.8548L94.6843 33.7597C94.6447 33.7541 94.6119 33.7349 94.5848 33.7009C94.5599 33.6647 94.5486 33.6331 94.5486 33.6059C94.5486 33.5584 94.5723 33.5018 94.621 33.4385C94.6685 33.3729 94.7081 33.3389 94.7386 33.3389C94.7533 33.3457 94.7986 33.348 94.8744 33.348C95.0463 33.348 95.1753 33.3389 95.2635 33.3208C95.32 33.2971 95.3608 33.2507 95.3857 33.1806C95.406 33.1353 95.432 33.0788 95.4626 33.0086C95.4954 32.9396 95.527 32.8763 95.5576 32.8186C95.5723 32.7858 95.5983 32.7326 95.6345 32.6602C95.673 32.5879 95.7216 32.5064 95.7793 32.4159C95.7906 32.3978 95.8166 32.356 95.8562 32.2892C95.8981 32.2236 95.9478 32.1671 96.0055 32.1218C96.044 32.0833 96.0926 32.063 96.1503 32.063C96.2069 32.063 96.2827 32.0992 96.3766 32.1716C96.3879 32.1897 96.4037 32.2146 96.4218 32.244C96.4422 32.2711 96.4535 32.2971 96.4535 32.3209C96.4535 32.3424 96.4309 32.391 96.3856 32.4657C96.3494 32.5358 96.3143 32.5969 96.2815 32.6512C96.251 32.7055 96.225 32.7541 96.2046 32.796C96.1345 32.9114 96.0847 32.9973 96.0553 33.0539C95.9976 33.1297 95.9693 33.1874 95.9693 33.2258C95.9693 33.2654 96.0067 33.2847 96.0825 33.2847C96.1639 33.2847 96.2974 33.2688 96.4851 33.2349C96.5666 33.2236 96.622 33.2168 96.6526 33.2168C96.8516 33.2168 96.9602 33.3005 96.9783 33.4656C96.984 33.5018 96.9874 33.5426 96.9874 33.5878C96.9874 33.6692 96.9602 33.719 96.9059 33.7371C96.8516 33.753 96.7295 33.7597 96.5394 33.7597C96.3551 33.7903 96.165 33.805 95.9693 33.805C95.9354 33.805 95.8969 33.8073 95.8517 33.8095C95.8087 33.8095 95.7657 33.8163 95.7205 33.8276C95.6752 33.8401 95.6413 33.8582 95.6209 33.8819C95.5994 33.9034 95.578 33.9396 95.5576 33.9905C95.5395 34.0086 95.4988 34.0753 95.4354 34.1896C95.354 34.3593 95.3019 34.4599 95.2816 34.4927C95.1244 34.952 95.0101 35.4226 94.9377 35.9044C94.9253 35.9983 94.9196 36.056 94.9196 36.0764C94.9196 36.1646 94.9479 36.2257 95.0056 36.2619C95.0621 36.2958 95.1605 36.3117 95.2997 36.3117C95.492 36.3117 95.6617 36.2924 95.8064 36.2528C95.9784 36.1782 96.1073 36.1148 96.1956 36.0628C96.2465 36.0334 96.2928 36.0062 96.3358 35.9814C96.3777 35.9542 96.4082 35.935 96.4263 35.9225C96.4444 35.8897 96.4637 35.8728 96.4851 35.8728C96.5327 35.8728 96.5734 35.918 96.6073 36.0085C96.6073 36.1024 96.5858 36.1838 96.544 36.2528C96.5044 36.3196 96.4048 36.3999 96.2453 36.4926C95.9128 36.7042 95.5802 36.8094 95.2454 36.8094C95.1549 36.8094 95.0689 36.8026 94.9875 36.7868Z" fill="#5CA74E"/>
<path d="M98.3753 36.5425C98.2305 36.6692 98.0563 36.7325 97.855 36.7325C97.7124 36.7325 97.5767 36.6997 97.4477 36.633C97.3177 36.564 97.2102 36.469 97.1265 36.3479C97.0507 36.2552 96.9953 36.1511 96.9591 36.0357C96.9251 35.9215 96.9093 35.7812 96.9093 35.6149C96.9093 35.5584 96.915 35.4419 96.9274 35.2665C96.9421 35.0561 97.0111 34.8356 97.1355 34.6059C97.2588 34.3774 97.4127 34.1716 97.5971 33.9906C97.7803 33.8073 97.9613 33.6818 98.14 33.615C98.2328 33.5585 98.3176 33.5291 98.3934 33.5291C98.4319 33.5291 98.4715 33.5324 98.511 33.5381C98.5529 33.5415 98.597 33.546 98.6423 33.5517C98.769 33.5698 98.8651 33.5958 98.9318 33.6286C98.9975 33.6591 99.054 33.7055 99.0993 33.7689C99.2407 33.9137 99.3119 34.0799 99.3119 34.2666C99.2904 34.4057 99.2011 34.5641 99.045 34.7417C98.8911 34.9204 98.7056 35.0629 98.4884 35.1715C98.3821 35.2077 98.2633 35.2258 98.131 35.2258C97.9523 35.2258 97.8097 35.1885 97.7011 35.1127C97.6491 35.0946 97.6106 35.0855 97.5835 35.0855C97.5292 35.0855 97.4885 35.1206 97.4613 35.1896C97.4364 35.2597 97.4138 35.3864 97.3935 35.5697C97.3867 35.6093 97.3844 35.667 97.3844 35.7416C97.3844 36.0346 97.4806 36.1964 97.674 36.2258C97.8063 36.2529 97.9013 36.2665 97.959 36.2665C98.028 36.2665 98.1061 36.2439 98.1943 36.1986L98.3572 36.1036C98.39 36.0855 98.4206 36.0629 98.4477 36.0357C98.4771 36.0063 98.5043 35.9803 98.5291 35.9588C98.5405 35.9475 98.5574 35.9294 98.5789 35.9045C98.6027 35.8774 98.6242 35.8593 98.6423 35.8502C98.6626 35.8412 98.683 35.8366 98.7011 35.8366C98.7248 35.8366 98.7509 35.8502 98.778 35.8774C98.8074 35.9022 98.8323 35.9203 98.8504 35.9317C98.9013 35.9317 98.9115 35.9679 98.8821 36.0402C98.8549 36.1126 98.7927 36.1975 98.6966 36.2936C98.6027 36.3875 98.4952 36.4701 98.3753 36.5425ZM98.3663 34.7145C98.4624 34.6761 98.5608 34.6048 98.6604 34.5019C98.7622 34.4001 98.8142 34.3141 98.8142 34.244C98.8142 34.175 98.7882 34.1173 98.7373 34.072C98.6852 34.0245 98.6129 33.9996 98.5201 33.9996C98.45 33.9996 98.3991 34.0064 98.3663 34.0177C98.2848 34.0426 98.1898 34.1037 98.0812 34.2032C97.9726 34.3028 97.8776 34.4057 97.7961 34.5109C97.7147 34.6138 97.683 34.6738 97.7011 34.6919C97.7305 34.7439 97.8425 34.7688 98.036 34.7688C98.1683 34.7688 98.278 34.7507 98.3663 34.7145Z" fill="#5CA74E"/>
<path d="M99.5217 36.5426C99.473 36.5098 99.4402 36.4793 99.4221 36.4521C99.4063 36.4227 99.3995 36.3786 99.3995 36.3209C99.3995 36.27 99.4018 36.2259 99.4085 36.1897C99.4266 35.994 99.4696 35.7678 99.5398 35.511L99.5805 35.3391C99.5986 35.1943 99.6993 34.8934 99.8836 34.4341C100.067 33.9726 100.216 33.6593 100.332 33.493C100.377 33.4636 100.424 33.4478 100.476 33.4478C100.551 33.4478 100.614 33.4749 100.666 33.5292C100.699 33.5507 100.716 33.5925 100.716 33.6559C100.716 33.7136 100.695 33.7984 100.653 33.9093C100.61 34.0213 100.537 34.1875 100.436 34.407C100.411 34.4522 100.372 34.5382 100.318 34.6649C100.264 34.7916 100.237 34.8674 100.237 34.8911C100.237 34.9002 100.239 34.9047 100.246 34.9047C100.257 34.9047 100.268 34.9024 100.277 34.8957C100.289 34.8866 100.301 34.8798 100.313 34.873C100.377 34.7644 100.531 34.6151 100.775 34.4251C101.019 34.235 101.187 34.1174 101.277 34.0722C101.319 34.0484 101.372 34.0258 101.436 34.0043C101.499 33.9805 101.541 33.9624 101.562 33.95C101.655 33.9047 101.766 33.8821 101.893 33.8821C101.971 33.8821 102.04 33.8957 102.101 33.9228C102.161 33.9477 102.203 33.9851 102.227 34.036C102.233 34.0756 102.248 34.1072 102.273 34.131C102.3 34.1559 102.319 34.1694 102.331 34.1717C102.346 34.1717 102.356 34.1796 102.363 34.1943C102.369 34.2102 102.372 34.2203 102.372 34.226C102.372 34.2656 102.35 34.2893 102.304 34.2984C102.259 34.3074 102.175 34.3154 102.055 34.321C101.992 34.3278 101.925 34.3425 101.856 34.3663C101.786 34.3878 101.717 34.4149 101.648 34.4477C101.328 34.6321 101.088 34.7769 100.929 34.8821C100.772 34.985 100.612 35.1253 100.449 35.3029C100.386 35.373 100.302 35.4963 100.2 35.6739C100.161 35.7135 100.119 35.8187 100.074 35.9906C100.031 36.1603 100.01 36.2644 100.01 36.3028C100.004 36.3209 99.9922 36.3549 99.9741 36.4024C99.9583 36.451 99.9345 36.4974 99.9017 36.5426C99.8316 36.6365 99.7728 36.6829 99.7253 36.6829C99.6732 36.6829 99.6054 36.6365 99.5217 36.5426Z" fill="#5CA74E"/>
<path d="M104.603 36.4565C104.482 36.4565 104.379 36.3637 104.296 36.176C104.214 35.9859 104.174 35.7642 104.174 35.5108L104.183 35.3525C104.183 35.1477 104.196 34.9758 104.223 34.8367C104.253 34.6987 104.271 34.6127 104.278 34.5787C104.289 34.5493 104.3 34.4996 104.309 34.4294C104.321 34.357 104.346 34.2552 104.382 34.1218C104.427 33.9204 104.472 33.796 104.517 33.7507C104.563 33.7055 104.617 33.6829 104.68 33.6829C104.722 33.6829 104.76 33.6942 104.793 33.7145C104.83 33.7326 104.858 33.7598 104.879 33.796C104.916 33.8299 104.934 33.9125 104.934 34.0448C104.934 34.1421 104.925 34.2371 104.907 34.3299C104.888 34.4204 104.866 34.4871 104.839 34.529C104.821 34.5629 104.793 34.7281 104.757 35.0267C104.736 35.2439 104.719 35.3841 104.707 35.4475C104.701 35.4724 104.698 35.5063 104.698 35.5516C104.698 35.685 104.739 35.7506 104.821 35.7506C104.953 35.7506 105.14 35.5764 105.382 35.2258C105.541 34.9973 105.654 34.8174 105.721 34.6873C105.787 34.5584 105.854 34.3921 105.925 34.1896C105.952 34.1059 105.977 34.0313 106.002 33.9679C106.029 33.9046 106.054 33.8638 106.078 33.8457C106.106 33.822 106.146 33.8096 106.201 33.8096C106.257 33.8096 106.325 33.8367 106.404 33.891C106.473 33.9577 106.508 34.038 106.508 34.1308C106.508 34.2281 106.473 34.3457 106.404 34.4837C106.334 34.6229 106.271 34.814 106.214 35.0584C106.157 35.3027 106.128 35.4927 106.128 35.6285C106.128 35.7348 106.142 35.8004 106.169 35.8276C106.196 35.8524 106.238 35.8638 106.296 35.8638C106.455 35.8638 106.646 35.7495 106.87 35.5199C106.972 35.4147 107.108 35.2326 107.277 34.9724C107.449 34.71 107.535 34.5561 107.535 34.5109C107.535 34.4747 107.56 34.4249 107.612 34.3616C107.642 34.3231 107.669 34.2892 107.694 34.262C107.721 34.2326 107.759 34.2021 107.811 34.1715L107.879 34.158C107.925 34.158 107.979 34.1896 108.042 34.253C108.066 34.2745 108.081 34.3107 108.087 34.3616C108.093 34.4102 108.096 34.4656 108.096 34.529C108.066 34.6319 108.016 34.7643 107.947 34.9271C107.877 35.09 107.823 35.1964 107.784 35.2439C107.676 35.3287 107.583 35.4339 107.508 35.5606C107.369 35.7269 107.261 35.8434 107.182 35.909C107.107 35.9757 107.057 36.021 107.033 36.0447C106.918 36.1601 106.793 36.2484 106.658 36.3117C106.524 36.375 106.397 36.4067 106.278 36.4067C106.157 36.4067 106.058 36.3784 105.983 36.3207C105.805 36.228 105.716 36.0719 105.716 35.8547C105.716 35.8162 105.71 35.78 105.698 35.7461C105.686 35.7099 105.677 35.6862 105.671 35.6737C105.586 35.6737 105.519 35.719 105.468 35.8095C105.386 35.9542 105.247 36.099 105.051 36.2438C104.855 36.3864 104.705 36.4565 104.603 36.4565Z" fill="#5CA74E"/>
<path d="M109.024 33.0701C108.985 33.0282 108.949 32.9592 108.92 32.8619C108.893 32.7658 108.893 32.7171 108.92 32.7171C108.968 32.7115 109.022 32.6617 109.083 32.5678C109.143 32.4717 109.17 32.3914 109.164 32.328C109.164 32.3043 109.171 32.2828 109.187 32.2647C109.205 32.2443 109.225 32.2307 109.25 32.224C109.296 32.1945 109.334 32.1787 109.368 32.1787C109.468 32.1787 109.556 32.2488 109.635 32.3868C109.671 32.4626 109.689 32.5294 109.689 32.5859C109.689 32.638 109.673 32.69 109.644 32.7443C109.617 32.7986 109.565 32.8699 109.49 32.957C109.393 33.0904 109.301 33.156 109.214 33.156C109.156 33.156 109.093 33.1278 109.024 33.0701ZM108.187 36.5676C108.108 36.4862 108.069 36.372 108.069 36.2238C108.069 36.1423 108.083 36.0733 108.11 36.0156C108.11 35.9885 108.116 35.9557 108.128 35.9161C108.14 35.8742 108.146 35.8471 108.146 35.8347C108.14 35.8018 108.162 35.7068 108.214 35.5496C108.316 35.3211 108.455 34.9161 108.63 34.337C108.63 34.3076 108.641 34.2827 108.662 34.2646C108.686 34.2442 108.721 34.2307 108.766 34.2239C108.811 34.2126 108.843 34.2058 108.861 34.2058C108.894 34.2058 108.925 34.2193 108.952 34.2465C108.979 34.2714 109.015 34.3178 109.06 34.3868C109.093 34.423 109.11 34.475 109.11 34.5406C109.11 34.6526 109.074 34.7849 109.002 34.9388C108.926 35.105 108.876 35.2487 108.852 35.3686C108.782 35.5258 108.728 35.6695 108.689 35.7985C108.677 35.8347 108.659 35.9059 108.635 36.0111C108.614 36.114 108.583 36.1955 108.545 36.2554C108.508 36.4183 108.474 36.5315 108.445 36.5948C108.418 36.6581 108.387 36.6898 108.354 36.6898C108.312 36.6898 108.256 36.6491 108.187 36.5676Z" fill="#5CA74E"/>
<path d="M110.085 36.7868C109.995 36.7687 109.901 36.7076 109.805 36.6012C109.711 36.4926 109.648 36.3931 109.619 36.3026C109.619 36.2913 109.612 36.2789 109.601 36.2664C109.592 36.2517 109.584 36.2415 109.578 36.2347C109.553 36.2166 109.542 36.1216 109.542 35.9497C109.542 35.8117 109.549 35.668 109.565 35.5198C109.579 35.3694 109.598 35.2484 109.619 35.1579L109.773 34.7009L109.895 34.3525L110.13 33.8548L109.782 33.7597C109.742 33.7541 109.71 33.7349 109.682 33.7009C109.657 33.6647 109.646 33.6331 109.646 33.6059C109.646 33.5584 109.67 33.5018 109.719 33.4385C109.766 33.3729 109.806 33.3389 109.836 33.3389C109.851 33.3457 109.896 33.348 109.972 33.348C110.144 33.348 110.273 33.3389 110.361 33.3208C110.418 33.2971 110.458 33.2507 110.483 33.1806C110.504 33.1353 110.53 33.0788 110.56 33.0086C110.593 32.9396 110.625 32.8763 110.655 32.8186C110.67 32.7858 110.696 32.7326 110.732 32.6602C110.771 32.5879 110.819 32.5064 110.877 32.4159C110.888 32.3978 110.914 32.356 110.954 32.2892C110.996 32.2236 111.045 32.1671 111.103 32.1218C111.142 32.0833 111.19 32.063 111.248 32.063C111.304 32.063 111.38 32.0992 111.474 32.1716C111.485 32.1897 111.501 32.2146 111.519 32.244C111.54 32.2711 111.551 32.2971 111.551 32.3209C111.551 32.3424 111.528 32.391 111.483 32.4657C111.447 32.5358 111.412 32.5969 111.379 32.6512C111.349 32.7055 111.323 32.7541 111.302 32.796C111.232 32.9114 111.182 32.9973 111.153 33.0539C111.095 33.1297 111.067 33.1874 111.067 33.2258C111.067 33.2654 111.104 33.2847 111.18 33.2847C111.261 33.2847 111.395 33.2688 111.583 33.2349C111.664 33.2236 111.72 33.2168 111.75 33.2168C111.949 33.2168 112.058 33.3005 112.076 33.4656C112.082 33.5018 112.085 33.5426 112.085 33.5878C112.085 33.6692 112.058 33.719 112.004 33.7371C111.949 33.753 111.827 33.7597 111.637 33.7597C111.453 33.7903 111.263 33.805 111.067 33.805C111.033 33.805 110.995 33.8073 110.949 33.8095C110.906 33.8095 110.863 33.8163 110.818 33.8276C110.773 33.8401 110.739 33.8582 110.719 33.8819C110.697 33.9034 110.676 33.9396 110.655 33.9905C110.637 34.0086 110.596 34.0753 110.533 34.1896C110.452 34.3593 110.4 34.4599 110.379 34.4927C110.222 34.952 110.108 35.4226 110.035 35.9044C110.023 35.9983 110.017 36.056 110.017 36.0764C110.017 36.1646 110.045 36.2257 110.103 36.2619C110.16 36.2958 110.258 36.3117 110.397 36.3117C110.59 36.3117 110.759 36.2924 110.904 36.2528C111.076 36.1782 111.205 36.1148 111.293 36.0628C111.344 36.0334 111.39 36.0062 111.433 35.9814C111.475 35.9542 111.506 35.935 111.524 35.9225C111.542 35.8897 111.561 35.8728 111.583 35.8728C111.63 35.8728 111.671 35.918 111.705 36.0085C111.705 36.1024 111.683 36.1838 111.642 36.2528C111.602 36.3196 111.502 36.3999 111.343 36.4926C111.01 36.7042 110.678 36.8094 110.343 36.8094C110.252 36.8094 110.167 36.8026 110.085 36.7868Z" fill="#5CA74E"/>
<path d="M112.215 36.3792C112.126 36.3792 112.061 36.36 112.016 36.3204C111.97 36.2786 111.94 36.2469 111.925 36.2254C111.909 36.2016 111.902 36.1734 111.902 36.1394C111.902 36.1157 111.922 36.0082 111.961 35.8182L112.043 35.5331C112.099 35.2978 112.151 35.1033 112.197 34.9494C112.217 34.8046 112.261 34.6531 112.328 34.4924C112.393 34.3329 112.433 34.2345 112.445 34.1983C112.491 34.0332 112.579 33.7753 112.712 33.4246L112.97 32.7233C113.172 32.1781 113.293 31.8444 113.332 31.7233L113.473 31.3478C113.473 31.255 113.518 31.2075 113.608 31.2075C113.69 31.2075 113.758 31.2528 113.812 31.3433C113.866 31.4315 113.893 31.5322 113.893 31.6464C113.893 31.7346 113.876 31.8184 113.844 31.8998C113.762 32.0717 113.673 32.2889 113.577 32.5513C113.483 32.8115 113.423 32.9812 113.396 33.0626C113.199 33.6146 113.057 33.9834 112.97 34.1667C112.97 34.1882 112.961 34.2277 112.943 34.2843C112.927 34.342 112.908 34.3952 112.884 34.4427L112.789 34.6282C112.789 34.6463 112.758 34.7673 112.694 34.9901C112.615 35.2379 112.568 35.4189 112.549 35.5331C112.577 35.4822 112.635 35.4042 112.726 35.2978C112.819 35.1926 112.907 35.1055 112.988 35.0354C113.305 34.7639 113.501 34.6033 113.577 34.5513C113.642 34.5128 113.699 34.4766 113.744 34.4427C113.792 34.4065 113.825 34.3827 113.844 34.3703C113.844 34.3431 113.875 34.3295 113.939 34.3295C113.959 34.3295 113.971 34.3273 113.975 34.3205C113.977 34.3148 113.979 34.3001 113.979 34.2753C113.979 34.2368 114.045 34.2017 114.178 34.1712C114.311 34.1384 114.428 34.1214 114.531 34.1214C114.6 34.1214 114.655 34.1372 114.694 34.1667C114.736 34.1938 114.789 34.256 114.853 34.3522C114.949 34.4913 114.997 34.6417 114.997 34.8046C114.997 34.8951 114.98 34.989 114.948 35.0852C114.948 35.1338 114.94 35.2051 114.925 35.2978C114.909 35.3917 114.902 35.4732 114.902 35.5422L114.853 35.8182H114.988C115.027 35.8182 115.065 35.825 115.101 35.8363C115.14 35.8487 115.166 35.8578 115.178 35.8634C115.229 35.9268 115.274 35.9584 115.314 35.9584C115.368 35.9584 115.396 35.9788 115.396 36.0173C115.396 36.0421 115.383 36.0715 115.359 36.1077C115.334 36.1417 115.303 36.1688 115.264 36.1892C115.113 36.2831 114.986 36.3295 114.884 36.3295C114.787 36.3295 114.687 36.2831 114.586 36.1892C114.459 36.0625 114.396 35.9109 114.396 35.7322C114.396 35.6417 114.411 35.5331 114.445 35.4064L114.472 35.1304C114.484 34.9924 114.491 34.9064 114.491 34.8725C114.491 34.7402 114.459 34.6734 114.396 34.6734C114.314 34.6734 114.158 34.7447 113.93 34.8861C113.703 35.0252 113.469 35.2005 113.228 35.4109C112.986 35.6191 112.795 35.8306 112.654 36.0444C112.565 36.153 112.492 36.2344 112.432 36.2887C112.371 36.343 112.315 36.3736 112.264 36.3792H112.215Z" fill="#5CA74E"/>
<path d="M118.514 37.6636C118.362 37.6874 118.265 37.6998 118.22 37.6998C118.105 37.6998 117.967 37.675 117.804 37.6274C117.731 37.606 117.677 37.5799 117.641 37.5505C117.607 37.5234 117.568 37.4804 117.523 37.4238C117.48 37.3695 117.448 37.3288 117.428 37.3017C117.322 37.1569 117.27 37.0302 117.27 36.9216C117.27 36.8379 117.31 36.8062 117.392 36.8266C117.448 36.856 117.512 36.9137 117.582 36.9985C117.651 37.0675 117.724 37.1173 117.804 37.1478C117.885 37.1806 117.982 37.1976 118.098 37.1976C118.14 37.1976 118.218 37.1908 118.333 37.1795C118.469 37.158 118.628 37.1162 118.813 37.0528C118.996 36.9895 119.132 36.9227 119.22 36.8537C119.494 36.6637 119.719 36.5121 119.894 36.3967C120.068 36.2825 120.18 36.2101 120.229 36.1795C120.24 36.1524 120.301 36.1185 120.41 36.0755L120.641 35.8538C120.791 35.6943 120.889 35.5959 120.935 35.5597C120.94 35.5212 120.949 35.4805 120.962 35.4375C120.977 35.3923 120.984 35.3595 120.984 35.338C121.053 35.2633 121.158 35.0834 121.297 34.7995C121.435 34.5133 121.53 34.2679 121.582 34.062C121.633 33.7905 121.659 33.553 121.659 33.3471C121.659 32.9942 121.596 32.6989 121.473 32.4603C121.349 32.2227 121.17 32.0033 120.935 31.8042C120.814 31.7046 120.613 31.5961 120.333 31.4784C120.055 31.3608 119.894 31.311 119.849 31.3291C119.818 31.3359 119.74 31.501 119.614 31.8268C119.489 32.1503 119.317 32.6164 119.098 33.2249L118.822 33.9896C118.8 34.0835 118.774 34.1706 118.745 34.252C118.718 34.3312 118.695 34.4014 118.677 34.4647C118.601 34.6796 118.564 34.7995 118.564 34.8267C118.5 34.9262 118.448 35.0552 118.41 35.2113C118.374 35.3685 118.333 35.6366 118.288 36.0167C118.236 36.2067 118.213 36.2927 118.22 36.2746C118.195 36.3741 118.175 36.4556 118.157 36.5189C118.141 36.5822 118.125 36.6117 118.107 36.6049L118.071 36.6365C118.071 36.6727 118.045 36.6908 117.994 36.6908C117.948 36.6908 117.896 36.6795 117.84 36.6546C117.782 36.6275 117.737 36.5958 117.704 36.5596C117.679 36.4782 117.668 36.4216 117.668 36.3877C117.668 36.313 117.691 36.1976 117.736 36.0438C117.781 35.8481 117.856 35.5732 117.962 35.2203C118.071 34.8674 118.162 34.5778 118.238 34.3516C118.276 34.2554 118.334 34.0733 118.41 33.8041C118.473 33.5903 118.542 33.372 118.618 33.148C118.696 32.9218 118.754 32.7804 118.79 32.7227C118.799 32.6842 118.836 32.5689 118.903 32.3788C118.969 32.1888 119.049 31.9795 119.143 31.7499L119.202 31.4648L119.107 31.4241C119.055 31.4399 119.009 31.4467 118.971 31.4467C118.94 31.4467 118.909 31.4399 118.876 31.4241C118.818 31.4399 118.738 31.4151 118.636 31.3517C118.537 31.2861 118.48 31.2239 118.469 31.1662C118.456 31.1481 118.448 31.1232 118.446 31.0893C118.443 31.0531 118.442 31.0293 118.442 31.0169C118.453 30.9603 118.568 30.9072 118.785 30.8585C119.005 30.811 119.245 30.7861 119.505 30.7861C119.614 30.7861 119.696 30.7895 119.754 30.7952C119.856 30.802 119.954 30.8201 120.048 30.8495C120.144 30.8766 120.262 30.9196 120.401 30.9762L120.609 31.0531C120.79 31.1232 120.986 31.2431 121.197 31.4151C121.408 31.587 121.595 31.7895 121.758 32.0214C121.921 32.2544 122.031 32.4908 122.089 32.7317C122.107 32.8075 122.122 32.9116 122.138 33.0439C122.156 33.1774 122.165 33.2951 122.165 33.3969C122.165 33.5179 122.154 33.5937 122.134 33.6231C122.116 33.6446 122.107 33.6729 122.107 33.7091C122.107 33.743 122.118 33.7622 122.143 33.7679C122.13 33.8018 122.109 33.8652 122.079 33.9579C122.052 34.0484 122.021 34.1468 121.984 34.252C121.951 34.614 121.791 35.0393 121.505 35.528C121.474 35.528 121.451 35.5325 121.432 35.5416C121.417 35.5484 121.42 35.554 121.441 35.5597C121.441 35.5902 121.41 35.6445 121.346 35.7226C121.331 35.735 121.294 35.7769 121.238 35.8492C121.184 35.9216 121.145 35.9669 121.125 35.985C121.118 36.0246 121.1 36.0574 121.07 36.0845C121.043 36.1094 121.017 36.1207 120.994 36.1207C120.994 36.1207 120.989 36.123 120.98 36.1253C120.973 36.1286 120.971 36.1388 120.971 36.1569C120.865 36.3051 120.675 36.4895 120.401 36.7089C120.129 36.9261 119.887 37.08 119.677 37.1705C119.619 37.2123 119.551 37.2496 119.473 37.2836C119.394 37.3198 119.342 37.3424 119.315 37.3514C119.27 37.3933 119.153 37.4487 118.966 37.5189C118.779 37.5912 118.628 37.6388 118.514 37.6636Z" fill="#5CA74E"/>
<path d="M122.175 36.5328C122.157 36.5 122.128 36.4649 122.089 36.4288C122.053 36.3903 122.035 36.3643 122.035 36.3518C122.035 36.2885 122.021 36.241 121.994 36.207C121.982 36.1957 121.976 36.1697 121.976 36.1301C121.976 36.0374 122.019 35.8801 122.107 35.6596C122.198 35.4401 122.316 35.2003 122.46 34.9401C122.493 34.9073 122.537 34.8474 122.592 34.7591C122.646 34.672 122.682 34.6234 122.7 34.6144C122.7 34.5906 122.707 34.5691 122.723 34.551C122.741 34.5307 122.761 34.5193 122.786 34.5193V34.465C122.786 34.4141 122.881 34.2908 123.071 34.094C123.261 33.8949 123.416 33.7581 123.537 33.6823C123.679 33.5827 123.825 33.533 123.976 33.533C124.078 33.533 124.167 33.5635 124.243 33.6235C124.272 33.6574 124.406 33.7796 124.641 33.99L124.958 34.275L124.804 34.7094C124.752 34.8632 124.727 35.0035 124.727 35.1302C124.727 35.3474 124.791 35.5578 124.917 35.7591C124.944 35.8224 125 35.8835 125.085 35.9401C125.172 35.9978 125.259 36.0328 125.347 36.0442C125.474 36.0656 125.537 36.129 125.537 36.2342C125.537 36.3496 125.484 36.4174 125.379 36.4378C125.357 36.4446 125.324 36.4469 125.279 36.4469C124.938 36.4469 124.643 36.2093 124.397 35.732C124.375 35.6991 124.345 35.6369 124.306 35.5464C124.27 35.4537 124.249 35.3881 124.243 35.3519C124.209 35.4005 124.166 35.4559 124.112 35.5193C124.06 35.5826 124.012 35.6369 123.967 35.6822C123.339 36.3066 122.845 36.6188 122.483 36.6188C122.368 36.6188 122.266 36.5905 122.175 36.5328ZM122.483 36.0532C122.483 36.0804 122.512 36.0894 122.573 36.0804C122.633 36.069 122.707 36.0396 122.795 35.9944C122.886 35.9469 122.977 35.8847 123.071 35.8089C123.565 35.3836 123.922 35.0148 124.139 34.7003L124.329 34.3881C124.271 34.2682 124.211 34.18 124.148 34.1257C124.085 34.0714 124.027 34.0442 123.976 34.0442C123.855 34.0442 123.665 34.1958 123.406 34.4967C123.149 34.7987 122.914 35.1528 122.7 35.56C122.648 35.6596 122.602 35.7591 122.56 35.8586C122.52 35.9582 122.494 36.0238 122.483 36.0532Z" fill="#5CA74E"/>
<path d="M126.259 36.7868C126.169 36.7687 126.075 36.7076 125.979 36.6012C125.885 36.4926 125.823 36.3931 125.793 36.3026C125.793 36.2913 125.786 36.2789 125.775 36.2664C125.766 36.2517 125.758 36.2415 125.752 36.2347C125.728 36.2166 125.716 36.1216 125.716 35.9497C125.716 35.8117 125.723 35.668 125.739 35.5198C125.754 35.3694 125.772 35.2484 125.793 35.1579L125.947 34.7009L126.069 34.3525L126.304 33.8548L125.956 33.7597C125.916 33.7541 125.884 33.7349 125.856 33.7009C125.832 33.6647 125.82 33.6331 125.82 33.6059C125.82 33.5584 125.844 33.5018 125.893 33.4385C125.94 33.3729 125.98 33.3389 126.01 33.3389C126.025 33.3457 126.07 33.348 126.146 33.348C126.318 33.348 126.447 33.3389 126.535 33.3208C126.592 33.2971 126.632 33.2507 126.657 33.1806C126.678 33.1353 126.704 33.0788 126.734 33.0086C126.767 32.9396 126.799 32.8763 126.829 32.8186C126.844 32.7858 126.87 32.7326 126.906 32.6602C126.945 32.5879 126.993 32.5064 127.051 32.4159C127.062 32.3978 127.088 32.356 127.128 32.2892C127.17 32.2236 127.22 32.1671 127.277 32.1218C127.316 32.0833 127.364 32.063 127.422 32.063C127.479 32.063 127.554 32.0992 127.648 32.1716C127.66 32.1897 127.675 32.2146 127.694 32.244C127.714 32.2711 127.725 32.2971 127.725 32.3209C127.725 32.3424 127.703 32.391 127.657 32.4657C127.621 32.5358 127.586 32.5969 127.553 32.6512C127.523 32.7055 127.497 32.7541 127.476 32.796C127.406 32.9114 127.356 32.9973 127.327 33.0539C127.269 33.1297 127.241 33.1874 127.241 33.2258C127.241 33.2654 127.278 33.2847 127.354 33.2847C127.436 33.2847 127.569 33.2688 127.757 33.2349C127.838 33.2236 127.894 33.2168 127.924 33.2168C128.123 33.2168 128.232 33.3005 128.25 33.4656C128.256 33.5018 128.259 33.5426 128.259 33.5878C128.259 33.6692 128.232 33.719 128.178 33.7371C128.123 33.753 128.001 33.7597 127.811 33.7597C127.627 33.7903 127.437 33.805 127.241 33.805C127.207 33.805 127.169 33.8073 127.123 33.8095C127.08 33.8095 127.037 33.8163 126.992 33.8276C126.947 33.8401 126.913 33.8582 126.893 33.8819C126.871 33.9034 126.85 33.9396 126.829 33.9905C126.811 34.0086 126.77 34.0753 126.707 34.1896C126.626 34.3593 126.574 34.4599 126.553 34.4927C126.396 34.952 126.282 35.4226 126.209 35.9044C126.197 35.9983 126.191 36.056 126.191 36.0764C126.191 36.1646 126.22 36.2257 126.277 36.2619C126.334 36.2958 126.432 36.3117 126.571 36.3117C126.764 36.3117 126.933 36.2924 127.078 36.2528C127.25 36.1782 127.379 36.1148 127.467 36.0628C127.518 36.0334 127.565 36.0062 127.608 35.9814C127.649 35.9542 127.68 35.935 127.698 35.9225C127.716 35.8897 127.735 35.8728 127.757 35.8728C127.804 35.8728 127.845 35.918 127.879 36.0085C127.879 36.1024 127.858 36.1838 127.816 36.2528C127.776 36.3196 127.677 36.3999 127.517 36.4926C127.184 36.7042 126.852 36.8094 126.517 36.8094C126.427 36.8094 126.341 36.8026 126.259 36.7868Z" fill="#5CA74E"/>
<path d="M128.19 36.5328C128.172 36.5 128.143 36.4649 128.104 36.4288C128.068 36.3903 128.05 36.3643 128.05 36.3518C128.05 36.2885 128.036 36.241 128.009 36.207C127.997 36.1957 127.991 36.1697 127.991 36.1301C127.991 36.0374 128.034 35.8801 128.122 35.6596C128.213 35.4401 128.331 35.2003 128.475 34.9401C128.508 34.9073 128.552 34.8474 128.607 34.7591C128.661 34.672 128.697 34.6234 128.715 34.6144C128.715 34.5906 128.722 34.5691 128.738 34.551C128.756 34.5307 128.776 34.5193 128.801 34.5193V34.465C128.801 34.4141 128.896 34.2908 129.086 34.094C129.276 33.8949 129.431 33.7581 129.552 33.6823C129.694 33.5827 129.84 33.533 129.991 33.533C130.093 33.533 130.182 33.5635 130.258 33.6235C130.288 33.6574 130.421 33.7796 130.656 33.99L130.973 34.275L130.819 34.7094C130.767 34.8632 130.742 35.0035 130.742 35.1302C130.742 35.3474 130.806 35.5578 130.932 35.7591C130.959 35.8224 131.015 35.8835 131.1 35.9401C131.187 35.9978 131.274 36.0328 131.362 36.0442C131.489 36.0656 131.552 36.129 131.552 36.2342C131.552 36.3496 131.499 36.4174 131.394 36.4378C131.372 36.4446 131.339 36.4469 131.294 36.4469C130.953 36.4469 130.659 36.2093 130.412 35.732C130.39 35.6991 130.36 35.6369 130.321 35.5464C130.285 35.4537 130.264 35.3881 130.258 35.3519C130.224 35.4005 130.181 35.4559 130.127 35.5193C130.075 35.5826 130.027 35.6369 129.982 35.6822C129.354 36.3066 128.86 36.6188 128.498 36.6188C128.383 36.6188 128.281 36.5905 128.19 36.5328ZM128.498 36.0532C128.498 36.0804 128.527 36.0894 128.588 36.0804C128.648 36.069 128.722 36.0396 128.81 35.9944C128.901 35.9469 128.992 35.8847 129.086 35.8089C129.581 35.3836 129.937 35.0148 130.154 34.7003L130.344 34.3881C130.286 34.2682 130.226 34.18 130.163 34.1257C130.1 34.0714 130.042 34.0442 129.991 34.0442C129.87 34.0442 129.68 34.1958 129.421 34.4967C129.164 34.7987 128.929 35.1528 128.715 35.56C128.663 35.6596 128.617 35.7591 128.575 35.8586C128.535 35.9582 128.509 36.0238 128.498 36.0532Z" fill="#5CA74E"/>
</svg>
